<?xml version="1.0" encoding="UTF-8"?>
<svg width="88px" height="81px" viewBox="0 0 88 81" version="1.1" xmlns="http://www.w3.org/2000/svg" xmlns:xlink="http://www.w3.org/1999/xlink">
    <!-- Generator: sketchtool 58 (101010) - https://sketch.com -->
    <title>47AC5698-9F79-4E1A-93F8-6E1FC1E154A5</title>
    <desc>Created with sketchtool.</desc>
    <defs>
        <linearGradient x1="50.0016081%" y1="100.000291%" x2="50.0016081%" y2="-0.00295697249%" id="linearGradient-1">
            <stop stop-color="#808080" stop-opacity="0.25" offset="0%"></stop>
            <stop stop-color="#808080" stop-opacity="0.12" offset="54%"></stop>
            <stop stop-color="#808080" stop-opacity="0.1" offset="100%"></stop>
        </linearGradient>
    </defs>
    <g id="Page-1" stroke="none" stroke-width="1" fill="none" fill-rule="evenodd">
        <g id="Dashboard" transform="translate(-981.000000, -462.000000)" fill-rule="nonzero">
            <g id="Group-6" transform="translate(923.000000, 408.000000)">
                <g id="Group-19">
                    <g id="undraw_businessman_97x4-2" transform="translate(58.000000, 54.000000)">
                        <path d="M48.575541,12.2426041 C43.7672963,12.0765604 39.1880156,10.5311544 34.8176144,8.8417104 C30.4472132,7.15226645 26.1109558,5.27777388 21.4181973,4.37753732 C18.3994873,3.80138592 14.9479549,3.71936436 12.5157142,5.33078781 C10.1758624,6.88219549 9.41867437,9.55989913 9.01296618,12.044552 C8.71169771,13.9140433 8.52691972,15.8815603 9.36545028,17.63102 C9.94689842,18.8463394 10.9802493,19.8676078 11.6942555,21.0319137 C14.1807246,25.0809777 12.4233252,30.0742899 9.72898089,34.0283289 C8.4656618,35.8828162 6.9994886,37.6522812 6.024383,39.6298008 C5.04927741,41.6073205 4.59737471,43.865914 5.45096869,45.8804434 C6.29652885,47.8809691 8.31201488,49.3753617 10.495207,50.430639 C14.9298788,52.5722018 20.1548782,53.1853629 25.2503322,53.5314539 C36.5298235,54.2996557 47.8685643,53.9675685 59.1781825,53.6314802 C63.3628014,53.5074476 67.5665008,53.3824147 71.6838364,52.7382454 C73.9704641,52.3801513 76.3314046,51.812002 77.9913939,50.4376409 C80.1002731,48.6961833 80.6204633,45.7484087 79.2085185,43.5648349 C76.8395441,39.9028726 70.2919761,38.9926334 68.6360038,35.0626007 C67.7251688,32.8990321 68.6611095,30.4893989 69.9846823,28.4838719 C72.8256439,24.1827417 77.5866899,20.4037486 77.837747,15.4804549 C78.0104742,12.1025673 75.7208339,8.71867807 72.1819336,7.11925778 C68.4723146,5.44381751 63.3276535,5.65487297 60.5911316,8.42860185 C57.7732672,11.2913541 52.8204136,12.3896427 48.575541,12.2426041 Z" id="Path" fill="#82A946" opacity="0.1"></path>
                        <ellipse id="Oval" fill="#82A946" opacity="0.1" cx="39.5" cy="77" rx="30.5" ry="4"></ellipse>
                        <path d="M46.9401893,21.3741183 C46.9401893,21.3741183 45.98753,19.4802242 46.1161036,18.9172573 C46.2446771,18.3542904 45.4459012,17.1518665 45.4459012,17.1518665 L45.4975331,15.1570055 C45.4975331,15.1570055 45.3871825,15.360979 44.8121449,15.5394558 C44.7635501,15.4752041 44.7109058,15.4119724 44.6562367,15.3518002 C44.4480028,15.133341 44.2164481,14.9387256 43.9657866,14.7714955 L42.9533963,12.5706212 L41.9744148,11.0601973 C41.9744148,11.0601973 40.4305196,7.8986078 38.8360049,7.20101837 L38.5849321,6.70638258 C38.6020593,6.69618608 38.6086442,6.67451667 38.6001179,6.65640907 L38.3449956,6.15361435 C38.3355622,6.13560548 38.314151,6.12768206 38.2953885,6.13525673 L38.0514024,5.65387923 C37.9582169,5.03004971 37.7149173,4.43866673 37.3427292,3.93132287 C37.3174194,3.8956275 37.2900849,3.86299174 37.2637627,3.82933611 L37.6606197,3.81505796 C38.008882,3.80179968 38.3976399,3.77120365 38.631502,3.50909768 C38.7153151,3.4114047 38.7771373,3.29658895 38.8127199,3.17254138 C38.8428145,3.07532864 38.8624994,2.9751516 38.8714385,2.87372017 C38.8714385,2.85842216 38.8714385,2.84312414 38.8714385,2.828846 C38.8714385,2.7941705 38.8714385,2.76017491 38.8714385,2.72685924 C38.8714385,2.69932281 38.8714385,2.67280626 38.8714385,2.64526983 C38.8714385,2.61773341 38.8714385,2.60141553 38.8714385,2.57999831 C38.8714385,2.55858109 38.8603022,2.50962744 38.8542279,2.47801155 C38.8542279,2.46475327 38.8542279,2.45149499 38.8461288,2.43823671 C38.8376912,2.39828502 38.827216,2.3587978 38.8147447,2.31993207 C38.8117832,2.31230971 38.8094138,2.30446714 38.807658,2.29647511 C38.7934845,2.25568041 38.7782986,2.21488571 38.761088,2.17511087 C38.758304,2.16986751 38.7559344,2.16441134 38.7540013,2.15879299 C38.7357782,2.11901815 38.7155304,2.08026319 38.6942702,2.04252808 L38.6881959,2.03028967 L38.6881959,2.03028967 C38.6807463,2.01446008 38.6722922,1.99913033 38.6628861,1.98439563 C38.3885284,1.54993204 37.9066306,1.29598501 37.4480178,1.0665148 C37.0200664,0.839849887 36.5807787,0.63560427 36.1319104,0.454594243 C34.4629261,-0.175930547 32.6193699,-0.149711643 30.9687198,0.52802471 C30.8056908,0.590212941 30.6512287,0.673155458 30.5090946,0.774832667 C30.3109757,0.943771582 30.1416867,1.14428443 30.0079614,1.36839561 L29.2233589,2.536144 C29.113721,2.67819629 29.0278846,2.83735685 28.969249,3.00732283 C28.8224524,3.5621308 29.28309,4.11795864 29.2314581,4.69010435 C29.2051359,4.97464741 29.0532774,5.23573352 29.023918,5.52027657 C28.9864596,5.88742891 29.1555288,6.24132296 29.3205484,6.57277993 L30.4432892,8.81648863 C30.3835582,9.11123037 30.3177528,9.41311118 30.2458731,9.70479331 L30.2458731,9.70479331 C29.7285417,10.2432834 29.5544106,10.5370053 29.5068282,10.6961046 L29.4916424,10.7042635 L29.4916424,10.7042635 C29.3891824,10.7709211 29.3010502,10.8576233 29.2324704,10.9592304 L28.1654111,12.0035749 C28.1654111,12.0035749 26.310712,12.4890318 25.9249913,13.104012 C25.9249913,13.104012 23.0143692,12.9755087 23.0396789,17.0702771 C23.0396789,17.0702771 22.9111054,18.6061977 22.8372009,18.811191 C22.7632964,19.0161844 22.8372009,21.0885554 22.8372009,21.0885554 L22.8027796,25.2863304 C22.8027796,25.2863304 22.6914167,27.5127013 22.8027796,28.3061583 C22.9141425,29.0996153 23.0427161,32.1194433 23.0427161,32.1194433 C23.0427161,32.1194433 23.7382283,35.0627811 23.4810811,36.1122249 C23.2340579,37.1167945 23.4810811,39.3135893 23.8860372,39.3227681 C23.9629789,39.4828873 24.0510569,39.5614171 24.1472339,39.5165429 C24.1890973,39.4982664 24.2320361,39.4825989 24.2758075,39.469629 L24.2758075,41.9774834 C24.2758075,41.9774834 23.7746743,45.4909273 24.3365509,46.1589405 C23.9639913,46.6933512 23.5266387,47.6051128 23.4152757,47.8447817 L19.4770775,47.6316293 L18.9759443,47.7733909 L18.9759443,47.7733909 L18.5163191,47.9029141 L18.2379117,54.3556164 L18.3492747,54.3637753 L18.3411755,54.5606098 L18.604397,54.5799872 L18.2379117,61.0785835 L23.6896335,61.5303849 C23.449697,62.0719346 23.1712897,62.6522392 23.0629639,62.708332 C22.8604859,62.8103187 22.4190837,62.5043584 22.3158199,62.630822 C22.2125561,62.7572856 21.903777,62.9123055 21.5433661,62.8347955 C21.1829551,62.7572856 20.9511177,63.1672724 20.9511177,63.1672724 C20.9511177,63.1672724 21.003762,63.2141863 21.0827285,63.300875 C20.4975669,63.2294843 19.7575096,63.5456432 19.3555906,63.7496168 C19.1753851,63.8414049 19.0630098,63.909736 19.0630098,63.909736 L18,63.909736 L18.5841492,67.6638686 L18.9961921,67.9473918 L19.0974311,70.9050078 C19.0974311,70.9050078 20.7456025,76.0237232 21.5008457,75.9900676 C21.6000755,75.9865238 21.6928499,75.9396079 21.7549556,75.8615643 C22.1599118,75.3903855 21.8794797,73.7718556 21.8794797,73.7718556 L21.8794797,71.0773654 C21.8794797,71.0773654 22.4970377,70.8040409 22.4281952,70.5990475 C22.3593527,70.3940541 23.4243873,68.1513653 23.5195519,67.9473918 C23.5251039,67.9439388 23.5282401,67.93762 23.5276511,67.9310739 C23.5276511,67.7005838 23.9913258,67.4445971 23.9650037,67.3426103 C23.9386815,67.2406235 25.0988808,66.6001467 25.179872,66.0371798 C25.2608633,65.4742129 26.0292675,65.781193 26.0292675,65.781193 L27.0072365,64.64914 C27.0365959,66.0290208 27.0922773,66.9948354 27.1884544,67.2396037 C27.6521292,68.4175507 27.8323346,70.2604515 27.8323346,70.2604515 C27.8323346,70.2604515 27.5488654,71.6678688 27.8323346,72.1288489 C28.0064658,72.4103324 28.4114219,72.7122132 28.6928664,72.9620807 C28.4002856,73.8554847 28.4417936,75.7544782 28.4417936,75.7544782 L28.4417936,76.8457365 L30.6052717,77.4576571 C30.6052717,77.4576571 30.6731018,76.9120279 30.7763657,76.9120279 C30.8796295,76.9120279 32.2534431,77.9696306 32.2534431,77.9696306 C32.2534431,77.9696306 37.5421701,78.0379617 38.8805501,77.9696306 C39.3867452,77.9441339 39.5244303,77.7248624 39.4464762,77.4596968 C39.3179027,77.0180941 38.5960684,76.4459484 37.9542129,76.4020941 C36.9235996,76.333763 35.6186285,75.2425047 35.6186285,75.2425047 C35.6186285,75.2425047 35.7198675,75.0028358 35.1721644,74.6622 C34.7935304,74.4276305 33.7457064,73.4781337 33.0977766,72.9223059 C33.1281483,72.8804913 33.1595324,72.8386768 33.1888918,72.7938026 C33.1888918,72.7938026 32.3131741,71.5699615 32.494392,71.0273919 C32.6756099,70.4848223 32.416438,69.701564 32.416438,69.701564 C32.416438,69.701564 31.9274534,68.1911401 31.9274534,67.4231798 C31.9274534,66.936703 31.8545613,64.1698022 31.801917,62.207577 L32.2534431,62.2453121 L32.2625546,62.0494975 L32.4650327,62.0678551 L34.3794628,62.2453121 L34.3207441,60.1841597 C35.2430317,59.7762126 36.0104235,59.3978418 36.3283141,59.1561331 C37.4095469,58.3402391 38.3368965,58.2861861 38.3368965,58.2861861 C38.3368965,58.2861861 40.5256843,57.1092589 40.8607855,56.622782 C41.1958867,56.1363052 41.1645026,52.6045037 41.1645026,52.6045037 L40.9842971,45.0350464 L40.9842971,45.0289272 C40.9842971,45.0289272 40.8304138,41.3696423 40.5206224,40.5761853 C40.4072346,40.2824635 40.1268025,39.3033906 39.8200483,38.1856157 C39.9963547,38.1673232 40.1743626,38.1748808 40.348516,38.2080528 C40.3596523,38.4813773 40.366739,38.6690329 40.366739,38.7332846 C40.366739,39.1677482 40.9842971,39.5369403 40.9842971,39.5369403 L40.5469445,29.7462114 L40.5469445,23.0854561 C41.8954484,23.51788 45.1563576,23.6525025 45.1563576,23.6525025 C47.5061155,23.5280787 46.9401893,21.3741183 46.9401893,21.3741183 Z M34.2205175,12.9622504 L34.2134307,12.9622504 C34.2613066,12.705566 34.3238413,12.4518775 34.400723,12.202449 L34.2205175,12.9622504 Z M25.3702014,46.5434306 C26.1689774,46.6760134 27.0912649,46.6372584 27.1611199,46.4812187 C27.1682066,46.4659207 27.1773181,46.4383843 27.1894668,46.4026889 C27.2147766,46.4475631 27.2390739,46.4934571 27.2643837,46.540371 L27.1864296,48.0171393 L27.1864296,48.0507949 L24.5542148,47.9080135 C24.7384699,47.1176161 25.0867321,46.7321061 25.3702014,46.5434306 Z M34.1445882,53.9945832 L34.0767581,51.6029937 C34.1941953,51.1624109 34.2994839,50.7626228 34.3895867,50.4199473 C34.4300823,50.7044904 34.4645035,50.9665964 34.4908257,51.208305 C34.7398737,53.4775104 34.372376,53.9201329 34.1445882,53.9945832 Z M41.6362765,18.1380784 C41.4854303,18.1962109 40.911405,17.8321182 40.366739,17.4547671 C40.366739,17.3854161 40.371801,17.317085 40.3748381,17.2507936 C40.4517798,15.6893763 37.9278908,14.7174425 37.155437,14.5379458 C36.967989,14.4892088 36.7861182,14.4208454 36.6127958,14.3339723 C36.2012451,14.1286219 35.8010963,13.9008544 35.4141256,13.6516809 L35.4242496,13.6221047 C35.4242496,13.6221047 34.4280575,12.9867272 34.4067973,12.1942901 C34.6338219,11.4735177 34.9203154,10.7731451 35.2632795,10.1005019 C35.2825149,10.0607271 35.3037751,10.0189125 35.3240229,9.97913769 C35.7948191,9.83163133 36.2342536,9.59714921 36.6198825,9.28766746 C36.7747782,11.3274026 39.7046358,13.0825948 39.7046358,13.0825948 L40.0174644,13.5925286 L40.0913689,13.7128729 C39.933436,13.8067008 39.8575067,13.882171 39.9111634,13.9260253 C40.1338893,14.105522 40.6724809,15.1213101 40.8952068,15.5506743 C40.9559502,15.6669393 40.9964458,15.7393499 40.9964458,15.7393499 C40.9964458,15.7393499 41.4753064,17.0519194 41.7496642,18.1503168 C41.7132028,18.1349807 41.6730838,18.1307264 41.6342517,18.1380784 L41.6362765,18.1380784 Z" id="Shape" fill="url(#linearGradient-1)"></path>
                        <path d="M43,13.2659009 L42.9668363,13.3099384 L42.8536898,13.4616232 L40.6834212,15 L40.2230316,14.2405977 L39.9304112,13.7512921 C39.9304112,13.7512921 35.6045051,11.1481863 37.4645959,8.63902712 C39.3246868,6.12986797 42.0733685,11.8195136 42.0733685,11.8195136 L43,13.2659009 Z" id="Path" fill="#FFC5D3"></path>
                        <path d="M38.6849861,6.34883207 C38.686342,6.34883039 38.6874426,6.34992825 38.6874443,6.35128422 C38.6874443,6.35128625 38.6874443,6.35128827 38.6874443,6.3512903 L38.6866683,6.97821824 C38.6866666,6.97957856 38.6855643,6.9806809 38.684204,6.98068258 C38.682848,6.98068426 38.6817474,6.9795864 38.6817457,6.97823043 C38.6817457,6.9782284 38.6817457,6.97822638 38.6817457,6.97822435 L38.6825217,6.35129641 C38.6825234,6.34993609 38.6836258,6.34883376 38.6849861,6.34883207 Z" id="Rectangle" fill="#3A3768" transform="translate(38.684595, 6.664757) rotate(-26.730000) translate(-38.684595, -6.664757) "></path>
                        <path d="M36.0840029,7.08227057 L36.0840122,7.08227055 L36.0837549,7.2901958 L36.0837455,7.29019581 L36.0840029,7.08227057 Z" id="Rectangle" fill="#3A3768" transform="translate(36.083879, 7.186233) rotate(-26.730000) translate(-36.083879, -7.186233) "></path>
                        <path d="M36.2900769,7.41338059 L36.2901083,7.41338055 L36.2896598,7.77573572 L36.2896284,7.77573576 L36.2900769,7.41338059 Z" id="Rectangle" fill="#3A3768" transform="translate(36.289868, 7.594558) rotate(-26.730000) translate(-36.289868, -7.594558) "></path>
                        <path d="M36.5092653,7.8503179 L36.5092849,7.85031788 L36.5088327,8.21570108 L36.508813,8.21570111 L36.5092653,7.8503179 Z" id="Rectangle" fill="#3A3768" transform="translate(36.509049, 8.033009) rotate(-26.730000) translate(-36.509049, -8.033009) "></path>
                        <path d="M38.0443311,5.62351292 C38.7492403,5.62263878 39.3213907,6.19337195 39.3222649,6.89828115 C39.3222662,6.89933538 39.3222662,6.9003896 39.3222649,6.90144383 L39.3189832,9.55265197 C39.3181078,10.2598223 38.7450521,10.8328793 38.0378818,10.8337563 C37.3329726,10.8346305 36.7608221,10.2638973 36.759948,9.55898807 C36.7599467,9.55793385 36.7599467,9.55687962 36.759948,9.5558254 L36.7632297,6.90461725 C36.764105,6.1974469 37.3371607,5.62438988 38.0443311,5.62351292 Z" id="Rectangle" fill="#3A3768" transform="translate(38.041106, 8.228635) rotate(-26.730000) translate(-38.041106, -8.228635) "></path>
                        <path d="M37.542856,6.11781411 C37.5215953,6.1280137 37.5054561,6.14606077 37.4980646,6.16790051 C37.4906731,6.18974025 37.4926492,6.21354117 37.5035488,6.23395572 L37.5114102,6.25013938 C37.52235,6.27069534 37.5243512,6.29463553 37.5169682,6.31662893 C37.5095852,6.33862232 37.4934311,6.35684278 37.472103,6.36723296 L36.5267651,6.82799145 C36.5056922,6.83855054 36.4811238,6.84046486 36.4585797,6.83330429 C36.4360357,6.82614372 36.4174067,6.81050875 36.4068782,6.78991223 L36.398034,6.77372857 C36.3874804,6.75314988 36.3689197,6.73747615 36.3464359,6.73015618 C36.3239522,6.7228362 36.2993875,6.72446975 36.2781471,6.73469737 L36.094386,6.8251355 C36.0536994,6.844534 36.0227656,6.87895719 36.0085366,6.92066891 C35.9943075,6.96238062 35.9979767,7.0078819 36.0187196,7.04694692 L38.0273171,10.9091312 C38.0702275,10.9905411 38.1728367,11.0232508 38.2572642,10.9824336 L39.9062008,10.1780103 C39.9902361,10.1364404 40.0240006,10.0370368 39.9818672,9.95524685 L37.972287,6.09115866 C37.9518658,6.05186291 37.9161468,6.02205145 37.8730089,6.00829994 C37.8298709,5.99454842 37.782858,5.99798663 37.74234,6.01785618 L37.542856,6.11781411 Z" id="Path" fill="#82A946"></path>
                        <path d="M36.7208899,6.10117512 L37.0758295,6.10073497 C37.076579,6.10073404 37.0771873,6.10134085 37.0771882,6.10209032 C37.0771882,6.10209144 37.0771882,6.10209256 37.0771882,6.10209368 C37.0771873,6.10284556 37.076578,6.10345484 37.0758262,6.10345577 L36.7208865,6.10389593 C36.7201371,6.10389686 36.7195287,6.10329005 36.7195278,6.10254058 C36.7195278,6.10253945 36.7195278,6.10253833 36.7195278,6.10253721 C36.7195287,6.10178534 36.720138,6.10117606 36.7208899,6.10117512 Z" id="Rectangle" fill="#E6E8EC" transform="translate(36.898358, 6.102315) rotate(-26.730000) translate(-36.898358, -6.102315) "></path>
                        <circle id="Oval" fill="#E6E8EC" cx="37" cy="6" r="1"></circle>
                        <path d="M38.7459801,21 L38,38 C38,38 40.5064932,37.2904841 40.8944029,37.822621 C41.2823125,38.3547579 40.476654,29.3084307 40.476654,29.3084307 L38.7459801,21 Z" id="Path" fill="#5F5570"></path>
                        <path d="M38.7459801,21 L38,38 C38,38 40.5064932,37.2904841 40.8944029,37.822621 C41.2823125,38.3547579 40.476654,29.3084307 40.476654,29.3084307 L38.7459801,21 Z" id="Path" fill="#000000" opacity="0.15"></path>
                        <path d="M39.4155024,76.972537 C38.0795288,77.0343287 32.8044882,76.972537 32.8044882,76.972537 C32.8044882,76.972537 31.4335736,76.0198389 31.3308064,76.0198389 C31.2280392,76.0198389 31.1602129,76.5114053 31.1602129,76.5114053 L29.0021016,75.9580473 L29.0021016,74.9749144 C29.0021016,74.9749144 28.9332476,72.1758449 29.583764,72.0541061 C30.2342804,71.9323673 33.1127898,72.0541061 33.1127898,72.0541061 C33.215557,72.0236714 35.1681339,73.6837456 35.7158831,73.9908593 C36.2636323,74.2979731 36.1608651,74.5137827 36.1608651,74.5137827 C36.1608651,74.5137827 37.4629255,75.4969155 38.4905976,75.5587072 C39.1308373,75.5974423 39.8512354,76.1120653 39.9796944,76.5114053 C40.0577974,76.7521161 39.9190617,76.9494805 39.4155024,76.972537 Z" id="Path" fill="#BC8487"></path>
                        <path d="M39.4153907,76.9726153 C38.0791618,77.0342308 32.8031132,76.9726153 32.8031132,76.9726153 C32.8031132,76.9726153 31.4319367,76.0226332 31.3291498,76.0226332 C31.226363,76.0226332 31.1585237,76.5127982 31.1585237,76.5127982 L29,75.9610177 L29,75 L31.0207893,75.6547795 L32.6314591,76.5127982 L39.9796905,76.5127982 C40.0578085,76.7528228 39.9190463,76.9496245 39.4153907,76.9726153 Z" id="Path" fill="#000000" opacity="0.1"></path>
                        <path d="M33,75 C33,75 34.7977528,73.6976024 36,74.0654681" id="Path" stroke="#000000" fill="#000000" opacity="0.1"></path>
                        <path d="M22.0059624,69.9063326 C22.0683808,70.0997448 21.5094094,70.3579501 21.5094094,70.3579501 L21.5094094,72.9042216 C21.5094094,72.9042216 21.7628098,74.433145 21.3966834,74.8789601 C21.3410465,74.9521687 21.2572718,74.9963567 21.1675051,74.9998427 C20.4846283,75.0317557 18.9940376,70.1964509 18.9940376,70.1964509 L18.9008757,67.4026117 L18.5282281,67.1347358 L18,63.5885233 L18.9632942,63.5885233 C18.9632942,63.5885233 19.0648407,63.5237302 19.227874,63.4366947 C19.6936836,63.1900941 20.6690889,62.759752 21.1991802,63.1697859 L23,67.3813364 C23,67.3813364 21.9444755,69.7129204 22.0059624,69.9063326 Z" id="Path" fill="#BC8487"></path>
                        <path d="M22,74.874389 C21.9508607,74.9503624 21.8768696,74.9962191 21.7975864,74.9998368 C21.1944597,75.032955 19.8779484,70.0150422 19.8779484,70.0150422 L19.7956665,67.1156921 L19.4665387,66.8376997 L19,63.1575625 L19.8507954,63.1575625 C19.8507954,63.1575625 19.9404827,63.0903224 20.0844761,63 L20.2893582,66.7704597 L20.3987932,70.0150422 C20.3987932,70.0150422 21.4322545,73.5476528 22,74.874389 Z" id="Path" fill="#000000" opacity="0.1"></path>
                        <path d="M40.6909436,55.7856483 C40.3597893,56.2670262 38.1945497,57.4324673 38.1945497,57.4324673 C38.1945497,57.4324673 37.277507,57.4831387 36.207624,58.2938803 C35.6543416,58.7134391 33.7316088,59.5454627 32.0045118,60.2518214 C30.3915357,60.9115624 28.947703,61.4608399 28.947703,61.4608399 L27.284799,63.3863513 L26.0182612,64.8527803 C26.0182612,64.8527803 25.254059,64.5487521 25.1776387,65.106137 C25.1012185,65.6635219 23.9549152,66.2969138 23.9803886,66.3982565 C24.005862,66.4995992 23.5473407,66.752956 23.5473407,66.9809771 C23.5473407,67.2089982 21.8406224,65.3341581 21.8660958,64.1940527 C21.8915692,63.0539472 21,62.2685413 21,62.2685413 C21,62.2685413 21.2292607,61.8631704 21.5858884,61.9391775 C21.9425161,62.0151845 22.2481969,61.8631704 22.3500906,61.736492 C22.4519842,61.6098137 22.8850321,61.9138418 23.0888194,61.8124991 C23.2926066,61.7111564 24.1077556,59.7096379 24.1077556,59.7096379 L27.28378,57.5905619 L33.601185,53.3787591 L33.8926007,53.1841811 C33.8926007,53.1841811 34.7332232,53.5672565 34.3918795,50.4286729 C34.3256486,49.8206166 34.2145846,49.0818283 34.0454412,48.1819051 C33.0010315,42.6333919 36.7456223,42 36.7456223,42 L40.0316918,43.0894341 L40.8213674,44.3055466 L40.8213674,44.3116271 L40.9996813,51.8049068 C40.9996813,51.8049068 41.0220979,55.3042705 40.6909436,55.7856483 Z" id="Path" fill="#433A59"></path>
                        <path d="M32.462867,59.9489569 C32.462867,59.9489569 32.4725163,60.3084869 32.4869903,60.8675309 C30.9595066,61.5268382 29.5922013,62.0757545 29.5922013,62.0757545 L28.0174361,64 C27.991383,62.4049018 27.9971725,60.3327932 28.0174361,58.2090338 L34,54 C33.2598989,56.8792789 32.462867,59.9489569 32.462867,59.9489569 Z" id="Path" fill="#000000" opacity="0.1"></path>
                        <path d="M41,45.188289 L41,45.1940604 L36.0296428,45.2844776 C36.0296428,45.2844776 35.1585493,48.4827462 35.0304473,49.1560659 C34.998678,49.3215102 34.8060126,50.0284959 34.5334115,51 C34.4667985,50.4228688 34.3550936,49.7216544 34.1849741,48.8675003 C33.1345378,43.6011783 36.9007363,43 36.9007363,43 L40.2057677,44.0340267 L41,45.188289 Z" id="Path" fill="#000000" opacity="0.1"></path>
                        <path d="M28.8492647,35.7224429 L28.2058824,47.6838516 C28.2058824,47.6838516 27.7426471,65.2521708 28.2058824,66.3984724 C28.6691176,67.5447741 28.8492647,69.3389854 28.8492647,69.3389854 C28.8492647,69.3389854 28.5661765,70.7095635 28.8492647,71.1581163 C29.1323529,71.6066692 30.0330882,72.1050612 30.0073529,72.3542572 C29.9816176,72.6034532 32.7610294,73.9491117 34.2022059,71.806026 C34.2022059,71.806026 33.3272059,70.6098851 33.5073529,70.0865735 C33.6875,69.5632618 33.4301471,68.7907542 33.4301471,68.7907542 C33.4301471,68.7907542 32.9411765,67.3204977 32.9411765,66.5699193 C32.9411765,65.8193409 32.7610294,59.5425916 32.7610294,59.5425916 C32.7610294,59.5425916 35.5661765,49.574751 35.6948529,48.8770022 C35.8235294,48.1792533 36.6985294,44.8649463 36.6985294,44.8649463 L42,44.7652679 C42,44.7652679 41.8455882,41.2017649 41.5367647,40.4292572 C41.2279412,39.6567496 39.7095588,34 39.7095588,34 L28.8492647,35.7224429 Z" id="Path" fill="#433A59"></path>
                        <polygon id="Path" fill="#7B728F" points="19.4857484 47 19.0188032 47.1722746 19 47.7671602 33 48 33 47.7658143"></polygon>
                        <path d="M35.6874192,10.2662951 C33.7365558,14.0995881 34.948092,14.9011388 35.1411774,15 C34.7279946,14.8139084 29.3576181,12.3695178 30.0639306,11.7492125 C30.5231338,11.3450448 30.9163078,9.58686697 31.1474101,8.32687182 C31.2844707,7.57475164 31.3645062,7 31.3645062,7 L37,8.00121153 C36.4537583,8.85413133 36.0195661,9.60528229 35.6874192,10.2662951 Z" id="Path" fill="#FFC5D3"></path>
                        <path d="M43,13.1588486 L42.8764643,13.3240938 L40.5026624,15 L40,14.1727079 C40.7316294,13.7462687 42.9254526,13 42.9254526,13 L43,13.1588486 Z" id="Path" fill="#000000" opacity="0.1"></path>
                        <path d="M44.9782026,15.6855169 C44.778701,16.3931038 41.4121107,15.6855169 41.4121107,15.6855169 L41.0629828,15.1295558 C41.0629828,15.1295558 41.02807,15.0587971 40.969217,14.9435615 C40.7537552,14.5200202 40.2320584,13.5172685 40.0165966,13.3393609 C39.7422819,13.1119223 42.959246,12 42.959246,12 L43.9447841,14.1733026 C44.1877217,14.3388109 44.4118598,14.5310267 44.6131146,14.746448 C44.8624917,15.0203852 45.0689759,15.3630595 44.9782026,15.6855169 Z" id="Path" fill="#E5E8EF"></path>
                        <path d="M40,17 C40,17 41.8645721,18.6125547 42.1442579,18.4960584 C42.4239437,18.379562 46.945531,21.7262774 46.945531,21.7262774 C46.945531,21.7262774 47.4582883,23.8722628 45.3373376,24 C45.3373376,24 40.8390574,23.7956204 40.6526002,23.080292 C40.466143,22.3649635 40,17 40,17 Z" id="Path" fill="#5F5570"></path>
                        <path d="M34.2337107,14.0030481 L32,16.2891054 L35.1323299,36 L36.364722,35.2887822 C36.364722,35.2887822 39.5484016,36.6858172 39.80515,35.3903847 C40.0618983,34.0949522 39.9910358,28.9894241 39.9910358,28.9894241 L39.5740765,19.7659447 C39.5740765,19.7659447 38.1106108,16.5400637 38.1106108,16.4384612 C38.1106108,16.3368586 36.0001394,14.7620191 36.0001394,14.7620191 L35.0039558,14 L34.2337107,14.0030481 Z" id="Path" fill="#000000" opacity="0.1"></path>
                        <path d="M34.2337107,14.0030481 L32,16.2891054 L35.1323299,36 L36.364722,35.2887822 C36.364722,35.2887822 39.5484016,36.6858172 39.80515,35.3903847 C40.0618983,34.0949522 39.9910358,28.9894241 39.9910358,28.9894241 L39.5740765,19.7659447 C39.5740765,19.7659447 38.1106108,16.5400637 38.1106108,16.4384612 C38.1106108,16.3368586 36.0001394,14.7620191 36.0001394,14.7620191 L35.0039558,14 L34.2337107,14.0030481 Z" id="Path" fill="#E5E8EF"></path>
                        <path d="M34.5581395,14.4256923 L34,15.6440873 L34.5581395,16.2736743 C34.5581395,16.2736743 36.5581395,20.592263 36.1627907,23.1533791 L36.5813953,31.5826833 L37.9302326,33 L39,31.6791603 L38.4883721,24.0206774 C38.4883721,24.0206774 37.1162791,17.7049155 35.6744186,15.7405643 L35.255814,14 L34.5581395,14.4256923 Z" id="Path" fill="#000000" opacity="0.1"></path>
                        <path d="M34.5581395,13.4256923 L34,14.6440873 L34.5581395,15.2736743 C34.5581395,15.2736743 36.5581395,19.592263 36.1627907,22.1533791 L36.5813953,30.5826833 L37.9302326,32 L39,30.6791603 L38.4883721,23.0206774 C38.4883721,23.0206774 37.1162791,16.7049155 35.6744186,14.7405643 L35.255814,13 L34.5581395,13.4256923 Z" id="Path" fill="#BC8487"></path>
                        <path d="M36,7.88165325 C35.5333333,8.62910495 35.165812,9.28737207 34.8786325,9.86664714 C34.5761385,9.95529069 34.2623799,10.0002019 33.9470085,10 C32.8905983,10 32.2820513,9.27378204 31.6837607,8.50254779 C31.5470085,8.32757614 31.0974359,8.36834623 31,8.16279702 C31.117094,7.50368052 31.1854701,7 31.1854701,7 L36,7.88165325 Z" id="Path" fill="#000000" opacity="0.1"></path>
                        <path d="M38,6.50018777 C37.9999073,8.22208811 36.7472592,9.68808542 35.0464283,9.95680748 C33.3455974,10.2255295 31.701994,9.21712425 31.171038,7.57912672 C30.6400819,5.94112919 31.3795494,4.16027851 32.9146005,3.38012614 C34.4496515,2.59997377 36.3241381,3.05234585 37.3343816,4.44675719 C37.7670819,5.04400155 38,5.76267564 38,6.50018777 Z" id="Path" fill="#FFC5D3"></path>
                        <path d="M33.476919,15 L30.0438612,11.1585119 C30.0438612,11.1585119 29.7267121,11.0402345 30.7980441,10 C30.7980441,10 34.7324373,12.844723 34.9765659,13.3279418 C35.2206944,13.8111605 33.476919,15 33.476919,15 Z" id="Path" fill="#000000" opacity="0.1"></path>
                        <path d="M33.476919,15 L30.0438612,11.1585119 C30.0438612,11.1585119 29.7267121,11.0402345 30.7980441,10 C30.7980441,10 34.7324373,12.844723 34.9765659,13.3279418 C35.2206944,13.8111605 33.476919,15 33.476919,15 Z" id="Path" fill="#E5E8EF"></path>
                        <path d="M41,40 C41,40 40.4240921,39.6376447 40.4240921,39.2098641 C40.4240921,38.7820835 40.1361382,32.7428284 40.1361382,32.7428284 C40.1361382,32.7428284 39.7138058,29.1383996 39.2722764,26.2737796 L39.2722764,26.2737796 C39.0131179,24.5858078 38.7472404,23.1534977 38.5591105,22.8696527 L38.5514318,22.8575742 C38.0475124,22.178158 38.143497,18.8565677 35,14 C35.0422332,14.0301963 36.1258999,14.827378 36.9196928,15.2279819 C37.0812635,15.3131289 37.2507719,15.3805881 37.4255319,15.4292904 C38.1454167,15.6054353 40.4970405,16.5616507 40.425052,18.0966281 C40.3530635,19.6316054 40.5930251,23.1545043 40.5930251,23.1545043 L40.5930251,30.3744338 L41,40 Z" id="Path" fill="#5F5570"></path>
                        <path d="M44.9783958,15.7491264 C44.7806625,16.313592 41.4439115,15.7491264 41.4439115,15.7491264 L41.097878,15.3056178 C41.097878,15.3056178 41.0632747,15.2491712 41.0049433,15.157244 C41.0029149,15.1541568 41.0012593,15.150916 41,15.1475674 C42.9387759,15.2580414 44.0193889,15.1427291 44.6165437,15 C44.8637105,15.2185288 45.0683645,15.4918914 44.9783958,15.7491264 Z" id="Path" fill="#000000" opacity="0.1"></path>
                        <path d="M42,15.5897337 C42,15.5897337 42.9090909,18.5744243 42.7792208,19.3205969 C42.6493506,20.0667696 44.8787879,23 44.8787879,23 L47,21.2503538 C47,21.2503538 46.1991342,19.346327 46.3073593,18.780265 C46.4155844,18.214203 45.7445887,17.0048887 45.7445887,17.0048887 L45.7878788,15 C45.7878788,15 45.3982684,15.8696771 42,15.5897337 Z" id="Path" fill="#5F5570"></path>
                        <path d="M37.9969721,4.53803662 L36.0793068,4.6080282 C35.8920157,4.60684558 35.7053768,4.62939746 35.5241931,4.67510347 C34.8388801,4.87827348 34.5229699,5.58013352 34.4977375,6.21102986 C34.4725051,6.84192621 34.0940185,7.54864677 33.3602592,7.60405677 C33.2872268,7.6160027 33.2122403,7.59995307 33.1513346,7.55933993 C33.1047898,7.51165618 33.073893,7.45180144 33.0625164,7.38727729 C32.9572635,7.01965743 32.7945898,6.66958762 32.5800722,6.34906882 C32.2772829,6.4015625 32.0532188,6.67861252 31.9744936,6.9682999 C31.8957684,7.25798728 31.9169637,7.56322835 31.917973,7.86360889 C31.9188866,8.24509831 31.8806844,8.62574232 31.8039223,9 C30.9523824,7.9353084 30.7621219,6.5114461 31.3060145,5.27378173 C31.8499071,4.03611736 33.043661,3.17646286 34.4300437,3.02408364 C35.8164265,2.87170441 37.180578,3.45021604 38,4.53803662 L37.9969721,4.53803662 Z" id="Path" fill="#000000" opacity="0.1"></path>
                        <path d="M35.2297023,4.26155652 C35.3973301,4.20996807 35.5700049,4.18451374 35.7432831,4.18584857 L37.897521,4.09148793 C38.2131397,4.07722411 38.565176,4.04430761 38.7771447,3.76890621 C38.8532322,3.66374537 38.9092707,3.54065718 38.9414906,3.40792191 C39.0537065,2.97887578 39.0029985,2.5138073 38.8023569,2.13185885 C38.5530368,1.66554175 38.1160262,1.39452921 37.6995589,1.1443638 C37.3119486,0.901039917 36.9139423,0.681306222 36.5071178,0.486033765 C34.9959868,-0.18827689 33.3228798,-0.160023872 31.8288639,0.565033369 C31.6812443,0.631609466 31.5413265,0.719710732 31.4123966,0.827268167 C31.2323212,1.00857276 31.0789826,1.22359818 30.958578,1.46365387 L30.2498365,2.7188698 C30.1520491,2.87213932 30.0766293,3.04344639 30.0266623,3.22578393 C29.8931313,3.82157261 30.3067973,4.4173613 30.2638432,5.03070545 C30.2395649,5.3357317 30.1022988,5.61552196 30.0770866,5.92054821 C30.0434704,6.31444902 30.1966109,6.68859992 30.34695,7.04738979 L31.5926168,10 C31.7937666,9.31149554 31.8957045,8.58836926 31.8942287,7.86042738 C31.8942287,7.52138741 31.8699504,7.17686136 31.9465206,6.84989078 C32.0230908,6.52292019 32.2266555,6.21021343 32.5067905,6.15096372 C32.7057515,6.51256086 32.8565819,6.90771924 32.9540727,7.32279119 C32.964382,7.39570214 32.9929969,7.46333054 33.0362456,7.51699855 C33.0925536,7.56294811 33.161968,7.58107333 33.2295387,7.56747052 C33.9121342,7.50492916 34.2567002,6.71493312 34.2819124,5.99515895 C34.3071245,5.27538478 34.5956635,4.49087482 35.2297023,4.26155652 Z" id="Path" fill="#8F7080"></path>
                        <polygon id="Path" fill="#7B728F" points="20 47.2761117 20.9329427 47 35 47.7931748 33.4517547 48"></polygon>
                        <polygon id="Path" fill="#000000" opacity="0.1" points="20 47.2761117 20.9329427 47 35 47.7931748 33.4517547 48"></polygon>
                        <polygon id="Path" fill="#7B728F" points="35 62 32.7792829 61.8205926 32 61.7583704 32 51.0416296 32.2055777 48.5537778 32.250996 48 34.5422311 48"></polygon>
                        <polygon id="Path" fill="#000000" opacity="0.1" points="35 61 33.5194805 60.8334375 33 60.7755469 33 50.8244531 33.1368631 48.5149219 33.1668332 48 34.6943057 48"></polygon>
                        <path d="M24,47.8612818 C24,47.8612818 25.1500207,46.0798946 25.6324078,46.024583 C26.1147949,45.9692713 27,46.024583 27,46.024583 L26.9216743,46.5408253 C26.9216743,46.5408253 25.7405719,46.6066725 25.3675922,48 L24,47.8612818 Z" id="Path" fill="#7B728F"></path>
                        <path d="M24,47.8612818 C24,47.8612818 25.1500207,46.0798946 25.6324078,46.024583 C26.1147949,45.9692713 27,46.024583 27,46.024583 L26.9216743,46.5408253 C26.9216743,46.5408253 25.7405719,46.6066725 25.3675922,48 L24,47.8612818 Z" id="Path" fill="#000000" opacity="0.1"></path>
                        <path d="M27.5685875,45 C27.5685875,45 30.3281162,46.3810942 29.9675023,48 L28.4695675,47.9162635 C28.4695675,47.9162635 27.7483397,45.5024191 27.1802341,45.376256 C26.6121284,45.250093 27.5685875,45 27.5685875,45 Z" id="Path" fill="#7B728F"></path>
                        <path d="M37,25.8590251 L37,25.9339057 L36.9468697,34.4754185 C36.9468697,34.4754185 35.592048,41.6557463 35.2201361,41.9378307 C34.8482243,42.219915 26.6927287,41.4505941 26.6927287,41.4505941 L23.0001753,17.4221399 C22.9736102,13.3190954 25.9754701,13.4473156 25.9754701,13.4473156 C26.3739471,12.8318589 28.2866366,12.3446224 28.2866366,12.3446224 L29.3492419,11.3445053 L29.3832453,11.298346 C29.4538491,11.196728 29.5449158,11.1098654 29.6510218,11.0429315 L29.6510218,11.0429315 C29.8699185,10.9208659 30.0091198,11.0819104 30.0888152,11.2409034 C30.1246883,11.3155521 30.1524639,11.3935835 30.1716984,11.4737512 C34.4763124,14.5212875 37,25.8590251 37,25.8590251 Z" id="Path" fill="#5F5570"></path>
                        <path d="M36,25.9245712 L36,26 C34.7736585,23.6234759 30.0487805,14.6195495 28.7560976,14.1711097 L29.2536585,13.8094648 C29.2536585,13.8094648 29.5853659,13.6028105 28.9756098,13.3961562 C28.9756098,13.3961562 28.0243902,13.5253151 28,12.3112213 L29.0068293,11.2572846 L29.2526829,11 L29.2526829,11 L29.6546341,11.1994214 C29.6875703,11.2746166 29.713072,11.3532193 29.7307317,11.433974 C33.6829268,14.5038231 36,25.9245712 36,25.9245712 Z" id="Path" fill="#000000" opacity="0.1"></path>
                        <path d="M36,25.9245712 L36,26 C34.7736585,23.6234759 30.0487805,14.6195495 28.7560976,14.1711097 L29.2536585,13.8094648 C29.2536585,13.8094648 29.5853659,13.6028105 28.9756098,13.3961562 C28.9756098,13.3961562 28.0243902,13.5253151 28,12.3112213 L29.0068293,11.2572846 L29.2526829,11 L29.2526829,11 L29.6546341,11.1994214 C29.6875703,11.2746166 29.713072,11.3532193 29.7307317,11.433974 C33.6829268,14.5038231 36,25.9245712 36,25.9245712 Z" id="Path" fill="#433A59"></path>
                        <path d="M38,23 L37.9935275,22.987744 C37.5687702,22.2983432 37.6496764,18.9279392 35,14 C35.0355987,14.03064 35.9490291,14.839537 36.618123,15.2460281 L36.4312298,16.0242851 L36.8357605,16.2969814 L38,23 Z" id="Path" fill="#000000" opacity="0.1"></path>
                        <path d="M38,23 L37.9935275,22.987744 C37.5687702,22.2983432 37.6496764,18.9279392 35,14 C35.0355987,14.03064 35.9490291,14.839537 36.618123,15.2460281 L36.4312298,16.0242851 L36.8357605,16.2969814 L38,23 Z" id="Path" fill="#433A59"></path>
                        <path d="M35.1716918,12 L35,12.9579646 C35,12.9579646 35.1256281,13.9170354 35.8785595,14 L36,13.5431416 C36,13.5431416 35.1876047,12.8550885 35.1716918,12 Z" id="Path" fill="#000000" opacity="0.1"></path>
                        <path d="M35.1716918,12 L35,12.9579646 C35,12.9579646 35.1256281,13.9170354 35.8785595,14 L36,13.5431416 C36,13.5431416 35.1876047,12.8550885 35.1716918,12 Z" id="Path" fill="#E5E8EF"></path>
                        <polygon id="Path" fill="#000000" opacity="0.1" points="33 48 32.5258065 61 32 60.9408508 32 50.7533935 32.1387097 48.3884128"></polygon>
                        <polygon id="Path" fill="#7B728F" points="19.3944773 53.336976 19 60.8116766 32.4122288 62 33 48"></polygon>
                        <polygon id="Path" fill="#000000" opacity="0.1" points="19 54.0410959 19.2623274 48 33 48.6136986 32.3461538 55"></polygon>
                        <polygon id="Path" fill="#7B728F" points="19 54.0410959 19.2623274 48 33 48.6136986 32.3461538 55"></polygon>
                        <rect id="Rectangle" fill="#C3BBC8" x="24" y="54" width="2" height="2"></rect>
                        <path d="M24.4679223,41 L24.2081278,41.647318 C24.2081278,41.647318 23.6625592,45.1955793 24.3380251,45.6271246 C25.0134909,46.0586699 27.013909,46.0826447 27.1178268,45.866872 C27.2217446,45.6510994 27.9491693,43.205676 27.9491693,43.205676 C27.9491693,43.205676 28.5986557,45.0037814 28.9363886,44.859933 C29.2741216,44.7160845 28.157005,41.2982458 28.157005,41.2982458 L24.4679223,41 Z" id="Path" fill="#FFC5D3"></path>
                        <path d="M25,38.329101 L25,41.8579519 C25,41.8579519 27.0921053,42.3514975 28,41.4986507 C28,41.4986507 27.1513158,38.0823282 27.4671053,37.2186235 C27.7828947,36.3549187 25,38.329101 25,38.329101 Z" id="Path" fill="#000000" opacity="0.1"></path>
                        <path d="M25,38.329101 L25,41.8579519 C25,41.8579519 27.0921053,42.3514975 28,41.4986507 C28,41.4986507 27.1513158,38.0823282 27.4671053,37.2186235 C27.7828947,36.3549187 25,38.329101 25,38.329101 Z" id="Path" fill="#E5E8EF"></path>
                        <path d="M24.8438644,17.5230601 L24.2423317,17.9042447 C24.2423317,17.9042447 24.1349152,19.4289835 24.0704653,19.632282 C24.0060153,19.8355805 24.0704653,21.8939779 24.0704653,21.8939779 L24.041248,26.0615972 C24.041248,26.0615972 23.9484401,28.2724684 24.041248,29.0602501 C24.1340559,29.8480318 24.2380351,32.8466847 24.2380351,32.8466847 C24.2380351,32.8466847 24.8189438,35.7691007 24.6041107,36.8110055 C24.3892776,37.8529104 24.625594,40.1908432 24.9908103,39.9875447 C25.3560266,39.7842462 28.7289064,38.9964645 28.9007728,38.8439906 C29.0726393,38.6915167 28.9867061,37.2684272 28.9007728,37.090541 C28.8148396,36.9126548 28.2992401,34.4984851 28.3422068,33.9394142 C28.3851734,33.3803433 28.1918236,28.4757669 28.1918236,28.4757669 C28.1918236,28.4757669 28.5140732,23.2408305 28.6429731,22.0210394 C28.771873,20.8012484 28.3851734,17.2181123 28.0414404,17.1672877 C27.6977074,17.116463 26.6914292,14.3465209 24.8438644,17.5230601 Z" id="Path" fill="#000000" opacity="0.1"></path>
                        <path d="M24.8438644,16.5230601 L24.2423317,16.9042447 C24.2423317,16.9042447 24.1349152,18.4289835 24.0704653,18.632282 C24.0060153,18.8355805 24.0704653,20.8939779 24.0704653,20.8939779 L24.041248,25.0615972 C24.041248,25.0615972 23.9484401,27.2724684 24.041248,28.0602501 C24.1340559,28.8480318 24.2380351,31.8466847 24.2380351,31.8466847 C24.2380351,31.8466847 24.8189438,34.7691007 24.6041107,35.8110055 C24.3892776,36.8529104 24.625594,39.1908432 24.9908103,38.9875447 C25.3560266,38.7842462 28.7289064,37.9964645 28.9007728,37.8439906 C29.0726393,37.6915167 28.9867061,36.2684272 28.9007728,36.090541 C28.8148396,35.9126548 28.2992401,33.4984851 28.3422068,32.9394142 C28.3851734,32.3803433 28.1918236,27.4757669 28.1918236,27.4757669 C28.1918236,27.4757669 28.5140732,22.2408305 28.6429731,21.0210394 C28.771873,19.8012484 28.3851734,16.2181123 28.0414404,16.1672877 C27.6977074,16.116463 26.6914292,13.3465209 24.8438644,16.5230601 Z" id="Path" fill="#5F5570"></path>
                        <g id="Group" opacity="0.1" transform="translate(30.000000, 2.000000)" fill="#000000">
                            <path d="M2.289375,3.15875 C2.008125,3.21125 1.8,3.48833333 1.726875,3.77805556 C1.65375,4.06777778 1.6734375,4.37305556 1.674375,4.67347222 C1.67617585,5.3184339 1.57414881,5.95918343 1.3725,6.56930556 L0.1209375,3.95305556 C0.0965625,3.90152778 0.07125,3.84805556 0.046875,3.79458333 C0.104785153,3.97462779 0.176579603,4.14954476 0.2615625,4.31763889 L1.513125,6.93388889 C1.71477381,6.32376676 1.81680085,5.68301723 1.815,5.03805556 C1.815,4.73763889 1.7915625,4.43236111 1.8675,4.14263889 C1.9434375,3.85291667 2.14875,3.57583333 2.43,3.52333333 C2.52078872,3.67080098 2.60190933,3.82443481 2.6728125,3.98319444 C2.5775725,3.69333056 2.44882209,3.41649912 2.289375,3.15875 L2.289375,3.15875 Z" id="Path"></path>
                            <path d="M8.7740625,0.00388888889 C8.82907334,0.243075155 8.82130416,0.493175898 8.7515625,0.728194444 C8.71888162,0.845867903 8.66230295,0.954928925 8.585625,1.04805556 C8.3728125,1.29208333 8.023125,1.32125 7.7025,1.33388889 L5.540625,1.4175 C5.36634798,1.41631075 5.19267519,1.43886475 5.0240625,1.48458333 C4.3884375,1.68777778 4.0940625,2.38972222 4.070625,3.02069444 C4.0471875,3.65166667 3.695625,4.35847222 3.0140625,4.41388889 C2.94622539,4.42583625 2.8765731,4.4097847 2.82,4.36916667 L2.82,4.36916667 C2.8415625,4.43236111 2.8621875,4.49652778 2.88,4.56361111 C2.88963653,4.62825334 2.91809534,4.68829671 2.9615625,4.73569444 C3.0181356,4.77631247 3.08778789,4.79236403 3.155625,4.78041667 C3.841875,4.725 4.186875,4.025 4.2121875,3.38722222 C4.2375,2.74944444 4.53,2.05430556 5.165625,1.85111111 C5.33423769,1.80539253 5.50791048,1.78283853 5.6821875,1.78402778 L7.8440625,1.70041667 C8.1609375,1.68777778 8.514375,1.65861111 8.7271875,1.41458333 C8.80386545,1.3214567 8.86044412,1.21239568 8.893125,1.09472222 C9.00054306,0.729675766 8.95744314,0.334800526 8.7740625,0.00388888889 L8.7740625,0.00388888889 Z" id="Path"></path>
                        </g>
                        <path d="M35,44.4437541 C35,44.4437541 35.9552173,43.9750046 36.3236267,44.0010462 C36.6920362,44.0270879 40,48 40,48 L35,44.4437541 Z" id="Path" fill="#000000" opacity="0.1"></path>
                        <path d="M26,18 C26,18 24.9732921,18.5504975 25.0005326,18.9307968 C25.0277731,19.3110961 26,18 26,18 Z" id="Path" fill="#000000" opacity="0.1"></path>
                        <path d="M25,20 C25,20 23.7668439,21.9338677 24.0393113,21.998512 C24.3117786,22.0631564 25,20 25,20 Z" id="Path" fill="#000000" opacity="0.1"></path>
                        <path d="M30.9943436,23 C30.9943436,23 31.1361262,27.4392523 30,28 L30.9943436,23 Z" id="Path" fill="#000000" opacity="0.1"></path>
                        <path d="M25,36 C25,36 25.7974374,34.7903303 25.980467,35.031901 C26.1634965,35.2734717 25,36 25,36 Z" id="Path" fill="#000000" opacity="0.1"></path>
                        <path d="M25,36.9438267 C25,36.9438267 25.6456907,37.2791915 25.9519575,36.311063 C26.2582243,35.3429346 25,36.9438267 25,36.9438267 Z" id="Path" fill="#000000" opacity="0.1"></path>
                        <path d="M43,19 C43,19 43.634416,22 44,22" id="Path" fill="#000000" opacity="0.1"></path>
                        <path d="M29,69.5 C29,69.5 30.7253123,68.375 30.9798009,69.5 C31.2342894,70.625 29,69.5 29,69.5 Z" id="Path" fill="#000000" opacity="0.1"></path>
                        <path d="M24.3025034,63 C24.3025034,63 23.4680821,63.7447442 24.5709186,63.9714548 C25.6737552,64.1981653 24.3025034,63 24.3025034,63 Z" id="Path" fill="#000000" opacity="0.1"></path>
                        <path d="M35,54 C35,54 36.2934459,54.970911 36.9043503,54.9994179 C37.5152548,55.0279247 35,54 35,54 Z" id="Path" fill="#000000" opacity="0.1"></path>
                        <path d="M85.8559261,6.01127278 C85.8559261,6.01127278 78.1683787,5.49415149 79.0741926,11.4648278 C79.0741926,11.4648278 78.8915689,12.5203219 79.7572055,13 C79.7572055,13 79.7709023,12.5567532 80.5461402,12.7075381 C80.8218332,12.7582454 81.1019176,12.7731884 81.3807308,12.7520651 C81.7571266,12.7237032 82.1150458,12.5607027 82.4006845,12.2875668 L82.4006845,12.2875668 C82.4006845,12.2875668 84.5620368,11.2988632 85.4021061,7.38351635 C85.4021061,7.38351635 86.02394,6.52940605 85.9992858,6.3098066 L84.7017439,6.92407787 C84.7017439,6.92407787 85.1455197,7.96135638 84.7930558,8.82356252 C84.7930558,8.82356252 84.7510524,6.96152109 84.5017709,7.00200026 C84.4506363,7.01110807 83.8269761,7.36125281 83.8269761,7.36125281 C83.8269761,7.36125281 84.5903434,9.16864737 84.0141655,10.4811842 C84.0141655,10.4811842 84.233314,8.2548303 83.5895652,7.49179811 L82.6764464,8.08279387 C82.6764464,8.08279387 83.5685635,9.94888321 82.9640788,11.4719117 C82.9640788,11.4719117 83.119309,9.13626404 82.4846914,8.22649489 L81.6574058,8.94196407 C81.6574058,8.94196407 82.4947357,10.781742 81.9843023,12.0446918 C81.9843023,12.0446918 81.9176446,9.32550412 81.4775214,9.12007238 C81.4775214,9.12007238 80.7543313,9.8284577 80.6438439,10.1178837 C80.6438439,10.1178837 81.2172825,11.453696 80.8611662,12.1580334 C80.8611662,12.1580334 80.6429308,10.346591 80.4639595,10.3364712 C80.4639595,10.3364712 79.7425956,11.5366783 79.6677199,12.3604292 C79.6677199,12.3604292 79.6987659,11.1359346 80.2895538,10.2221175 C80.2895538,10.2221175 79.591931,10.3546868 79.18468,10.8566284 C79.18468,10.8566284 79.2969936,10.007578 80.4630464,9.93370352 C80.4630464,9.93370352 81.0583998,9.02292239 81.2181956,8.96726354 C81.2181956,8.96726354 80.0539691,8.85999377 79.3481283,9.2060906 C79.3481283,9.2060906 79.9699622,8.40561518 81.4318654,8.76992763 L82.2536724,8.03118293 C82.2536724,8.03118293 80.7205459,7.79842776 80.0713184,8.05547043 C80.0713184,8.05547043 80.8191627,7.34708511 82.473734,7.86319441 L83.3631117,7.27321064 C83.3631117,7.27321064 82.0564387,6.96152109 81.2784615,7.07081483 C81.2784615,7.07081483 82.1002684,6.580005 83.6233506,7.11230597 L84.2625338,6.79555653 C84.2625338,6.79555653 83.3055853,6.58708885 83.0252578,6.55470552 C82.7449303,6.52232219 82.7294073,6.435292 82.7294073,6.435292 C83.3359744,6.32327379 83.9586916,6.39999456 84.5282514,6.6569154 C84.5282514,6.6569154 85.8796672,6.10133891 85.8559261,6.01127278 Z" id="Path" fill="#82A946"></path>
                        <path d="M69.9383642,5.00472225 C69.9383642,5.00472225 66.6466467,4.78501738 67.0312579,7.34280421 C67.0312579,7.34280421 66.9541624,7.79468628 67.3240475,8 C67.3240475,8 67.3301112,7.80811802 67.6618816,7.8743173 C67.7802736,7.89684239 67.9007045,7.90328606 68.0205056,7.8935055 C68.1804861,7.88024566 68.332357,7.81027223 68.4536263,7.69394824 L68.4536263,7.69394824 C68.4536263,7.69394824 69.3796384,7.26988905 69.7399949,5.59284052 C69.7399949,5.59284052 70.0067972,5.22730535 69.9998673,5.13328317 L69.4420078,5.39616149 C69.4420078,5.39616149 69.6317147,5.84036828 69.4827212,6.2097411 C69.4827212,6.2097411 69.4645301,5.41247146 69.3571161,5.43070025 C69.3354601,5.43070025 69.0686577,5.58516524 69.0686577,5.58516524 C69.0686577,5.58516524 69.3952308,6.35940905 69.148352,6.92162326 C69.148352,6.92162326 69.2427723,5.9679698 68.9664413,5.64081102 L68.5757664,5.89409524 C68.5757664,5.89409524 68.9577788,6.6932837 68.6987726,7.34568244 C68.6987726,7.34568244 68.7654732,6.3450179 68.4934734,5.95549747 L68.1391807,6.26250864 C68.1391807,6.26250864 68.4978046,7.05018418 68.2786455,7.59129138 C68.2786455,7.59129138 68.2500596,6.42656774 68.0620852,6.33830203 C68.0620852,6.33830203 67.7519707,6.64147556 67.7043275,6.76619885 C67.7043275,6.76619885 67.95034,7.3418448 67.7978815,7.64022128 C67.7978815,7.64022128 67.7043275,6.86405866 67.6246332,6.86022102 C67.6246332,6.86022102 67.3153851,7.37446474 67.2833341,7.72368994 C67.2983305,7.3979776 67.3903365,7.08234701 67.5501365,6.80841289 C67.3716134,6.84563733 67.2068688,6.94003812 67.0763024,7.07992589 C67.0763024,7.07992589 67.1248119,6.71630953 67.6263657,6.68464901 C67.6263657,6.68464901 67.881907,6.29416917 67.95034,6.27114333 C67.95034,6.27114333 67.451385,6.22413225 67.1482005,6.37284078 C67.1482005,6.37284078 67.4150028,6.03033144 68.0412954,6.1809588 L68.387792,5.86435353 C68.387792,5.86435353 67.7303147,5.76841254 67.4522512,5.87490704 C67.4522512,5.87490704 67.7727605,5.57173351 68.481346,5.79239779 L68.8633585,5.54007298 C68.8633585,5.54007298 68.3029003,5.406715 67.9693973,5.4546855 C67.9693973,5.4546855 68.3210914,5.24457472 68.9751037,5.47195487 L69.2471035,5.33667808 C69.2471035,5.33667808 68.8373713,5.24745295 68.7169637,5.23306181 C68.5965562,5.21867066 68.5904925,5.18221308 68.5904925,5.18221308 C68.8505501,5.13490929 69.1173522,5.16811131 69.3614474,5.27815407 C69.3614474,5.27815407 69.9487591,5.04501746 69.9383642,5.00472225 Z" id="Path" fill="#82A946"></path>
                        <ellipse id="Oval" fill="#82A946" opacity="0.1" cx="85.5" cy="73.5" rx="2.5" ry="1"></ellipse>
                        <ellipse id="Oval" fill="#82A946" opacity="0.1" cx="2.5" cy="66.5" rx="2.5" ry="1"></ellipse>
                        <ellipse id="Oval" fill="#82A946" opacity="0.1" cx="83.5" cy="64.5" rx="2.5" ry="1"></ellipse>
                        <ellipse id="Oval" fill="#82A946" opacity="0.1" cx="13.5" cy="69.5" rx="2.5" ry="1"></ellipse>
                        <ellipse id="Oval" fill="#82A946" opacity="0.1" cx="71.5" cy="69.5" rx="2.5" ry="1"></ellipse>
                        <ellipse id="Oval" fill="#82A946" cx="79" cy="78.5" rx="4" ry="1"></ellipse>
                        <path d="M80.6151997,77.2424387 C80.7933386,77.0615714 80.9231809,76.8176634 80.9875584,76.5429651 C81.0361692,76.2646279 80.9408921,75.9378842 80.7270045,75.8301798 C80.4878394,75.7164246 80.2321465,75.9221521 80.0386755,76.1302999 C79.8452045,76.3384478 79.622567,76.5768496 79.3688186,76.5332838 C79.634462,76.2336876 79.754396,75.7826101 79.6847889,75.3449049 C79.6733974,75.2557634 79.6428247,75.1721257 79.5963172,75.1028725 C79.4640958,74.9261889 79.2229862,75.0024291 79.064515,75.1415977 C78.5589626,75.5845169 78.4179913,76.4388912 78.4150746,77.2085541 C78.3645194,76.9302169 78.4072969,76.6409882 78.4053525,76.3614408 C78.403408,76.0818934 78.3421584,75.7563599 78.1486874,75.6087201 C78.0293179,75.528884 77.8952623,75.4892535 77.759801,75.4937548 C77.5323024,75.4840735 77.2795262,75.5119072 77.1249439,75.7188449 C76.9305006,75.9753992 76.9820281,76.407427 77.1492493,76.6869744 C77.3164704,76.9665218 77.5721633,77.1468359 77.8074396,77.3428821 C77.9958761,77.482199 78.1564392,77.6729559 78.2770199,77.9007667 C78.2917639,77.932027 78.3035108,77.9653324 78.3120197,78 L79.7372885,78 C80.0559676,77.7977802 80.3512688,77.5429609 80.6151997,77.2424387 Z" id="Path" fill="#82A946"></path>
                        <path d="M13.651974,57 C13.651974,57 14.2527516,57.8020554 13.3756164,59.0107239 C12.4984812,60.2193923 11.7753636,61.2448615 12.0648291,62 C12.0648291,62 13.3887243,59.7502234 14.4679391,59.7189455 C15.547154,59.6876676 14.8371442,58.3561215 13.651974,57 Z" id="Path" fill="#82A946"></path>
                        <path d="M13.6350334,57 C13.6881865,57.0771742 13.7298725,57.1617955 13.7587657,57.2511721 C14.8215374,58.5126144 15.3882754,59.6903327 14.3663795,59.7204733 C13.4151877,59.747265 12.2739786,61.4663987 12,61.9006475 C12.0090113,61.9342907 12.0197042,61.9674507 12.0320378,62 C12.0320378,62 13.3709976,59.7517303 14.4624929,59.7204733 C15.5539882,59.6892163 14.8336897,58.3552132 13.6350334,57 Z" id="Path" fill="#000000" opacity="0.1"></path>
                        <path d="M14,58.2634131 C14,58.670305 13.7777778,59 13.5,59 C13.2222222,59 13,58.6783463 13,58.2634131 C13,57.8484799 13.2777778,58.0479052 13.5555556,58.0479052 C13.8333333,58.0479052 14,57.8565213 14,58.2634131 Z" id="Path" fill="#FFD037"></path>
                        <path d="M14.7630148,58.5031342 C14.3718803,58.8552653 14.0300781,59.067708 14.0018882,58.9804028 C13.9736984,58.8930976 14.2644064,58.5322359 14.6555409,58.1801048 C15.0466754,57.8279736 14.893393,58.084069 14.9215829,58.1801048 C14.9497727,58.2761405 15.1541493,58.1539132 14.7630148,58.5031342 Z" id="Path" fill="#FFD037"></path>
                        <path d="M10.348293,57 C10.348293,57 9.74761259,57.8020554 10.624606,59.0107239 C11.5015994,60.2193923 12.2246001,61.2448615 11.9351814,62 C11.9351814,62 10.6125924,59.7502234 9.53245979,59.7189455 C8.45232722,59.6876676 9.16331438,58.3561215 10.348293,57 Z" id="Path" fill="#82A946"></path>
                        <path d="M10.3656702,57 C10.3124077,57.0772607 10.2703852,57.1618464 10.240887,57.2511721 C9.1785726,58.5126144 8.61318285,59.6903327 9.63353467,59.7204733 C10.5854213,59.747265 11.7261393,61.4663987 12,61.9006475 C11.9911201,61.9344622 11.9800535,61.9676511 11.9668717,62 C11.9668717,62 10.6295924,59.7517303 9.53746259,59.7204733 C8.44533276,59.6892163 9.16752984,58.3552132 10.3656702,57 Z" id="Path" fill="#000000" opacity="0.1"></path>
                        <path d="M9,58.2634131 C9,58.670305 9.22834646,59 9.50393701,59 C9.77952756,59 10,58.6783463 10,58.2634131 C10,57.8484799 9.72440945,58.0479052 9.4488189,58.0479052 C9.17322835,58.0479052 9,57.8565213 9,58.2634131 Z" id="Path" fill="#FFD037"></path>
                        <path d="M9.23855917,58.5031342 C9.62877932,58.8552653 9.96802475,59.067708 9.99790648,58.9804028 C10.0277882,58.8930976 9.73424422,58.5322359 9.34402408,58.1801048 C8.95380394,57.8279736 9.10848579,58.084069 9.07860407,58.1801048 C9.04872235,58.2761405 8.84658128,58.1539132 9.23855917,58.5031342 Z" id="Path" fill="#FFD037"></path>
                        <path d="M10,61.8577864 C10,61.8577864 11.3435032,61.8092054 11.7493531,61.4681046 C12.155203,61.1270038 13.8162137,60.7207837 13.9159269,61.2675786 C14.01564,61.8143736 15.935555,63.9850151 14.4188659,63.999486 C12.9021768,64.013957 10.8939194,63.7204035 10.4898189,63.4289174 C10.0857183,63.1374313 10,61.8577864 10,61.8577864 Z" id="Path" fill="#A8A8A8"></path>
                        <path d="M14.4459362,63.8238881 C12.9289639,63.8373984 10.9203315,63.5633326 10.5161555,63.291197 C10.2090867,63.0846826 10.0857343,62.3425822 10.0446168,62 L10,62 C10,62 10.087484,63.19566 10.4890355,63.4668306 C10.890587,63.7380013 12.9018439,64.013032 14.4188162,63.9995217 C14.8562361,63.9995217 15.0075834,63.8238881 14.9997099,63.5691228 C14.9384711,63.724491 14.7713767,63.820993 14.4459362,63.8238881 Z" id="Path" fill="#000000" opacity="0.2"></path>
                    </g>
                </g>
            </g>
        </g>
    </g>
</svg>