<?xml version="1.0" encoding="UTF-8"?>
<svg width="100px" height="80px" viewBox="0 0 100 80" version="1.1" xmlns="http://www.w3.org/2000/svg" xmlns:xlink="http://www.w3.org/1999/xlink">
    <!-- Generator: sketchtool 58 (101010) - https://sketch.com -->
    <title>A762B9B5-18CE-4403-9421-F785A7045399</title>
    <desc>Created with sketchtool.</desc>
    <defs>
        <linearGradient x1="49.9897195%" y1="100.003707%" x2="49.9897195%" y2="0.00740009191%" id="linearGradient-1">
            <stop stop-color="#808080" stop-opacity="0.25" offset="0%"></stop>
            <stop stop-color="#808080" stop-opacity="0.12" offset="54%"></stop>
            <stop stop-color="#808080" stop-opacity="0.1" offset="100%"></stop>
        </linearGradient>
    </defs>
    <g id="Page-1" stroke="none" stroke-width="1" fill="none" fill-rule="evenodd">
        <g id="Dashboard" transform="translate(-550.000000, -467.000000)">
            <g id="Group-4" transform="translate(507.000000, 408.000000)">
                <g id="Group-29">
                    <g id="Group-17">
                        <g id="undraw_mobile_payments_edgf-3" transform="translate(35.000000, 56.000000)">
                            <path d="M71.2203743,15.0646429 C65.9003801,14.8824454 60.8327557,13.1806637 55.9934201,11.324348 C51.1540844,9.46803235 46.3609844,7.4018557 41.1681383,6.41550914 C37.8276097,5.78115666 34.0083489,5.69148879 31.3160832,7.46481399 C28.7268845,9.17136525 27.8898258,12.1180041 27.4399911,14.8509662 C27.1009293,16.9076037 26.9025011,19.0729874 27.8301047,20.9979848 C28.4735514,22.3334637 29.6169215,23.4581278 30.4077445,24.7382797 C33.1587681,29.1940096 31.2139793,34.6875975 28.2327405,39.0374431 C26.8341109,41.0730945 25.2110454,43.0200319 24.1331759,45.1882773 C23.0553064,47.3565227 22.5544197,49.8500526 23.4983984,52.0650398 C24.4346711,54.2590408 26.66458,55.911219 29.0852111,57.0721317 C33.992937,59.4282981 39.7772146,60.1027149 45.4131527,60.4852342 C57.8948628,61.3304016 70.4430368,60.962191 82.9584604,60.597796 C87.5897355,60.4623403 92.2412386,60.3249768 96.7973807,59.6152651 C99.3278215,59.2212988 101.940138,58.5964855 103.777044,57.0873943 C106.109056,55.171936 106.687002,51.9276762 105.125585,49.525722 C102.504599,45.4963914 95.2571542,44.4957361 93.4260282,40.1716462 C92.4175122,37.791632 93.452999,35.1397525 94.9180925,32.9323967 C98.0621195,28.19717 103.331062,24.0428767 103.608476,18.6303715 C103.801125,14.9101089 101.265868,11.1898462 97.3473928,9.43082972 C93.2420487,7.58691492 87.5502425,7.8187159 84.5208415,10.8712391 C81.3989691,14.0172458 75.9181132,15.2268082 71.2203743,15.0646429 Z" id="Path" fill="#82A946" fill-rule="nonzero" opacity="0.1"></path>
                            <path d="M56,76 C56,76 51.5845652,68.1330387 44.9306969,65.8658945 C42.1384143,64.9142538 39.7012862,63.1248603 38.0349395,60.6791629 C37.2464261,59.5177607 36.5652724,58.2862375 36,57" id="Path" stroke="#535461" stroke-width="2"></path>
                            <path d="M32.455087,55.7404357 C33.08122,56.3593108 36,57 36,57 C36,57 35.2857798,54.0494363 34.657266,53.4297533 C34.0270195,52.8344933 33.0451548,52.8607727 32.4464997,53.4889242 C31.8478446,54.1170756 31.8516585,55.1170364 32.455087,55.7404357 L32.455087,55.7404357 Z" id="Path" fill="#82A946" fill-rule="nonzero"></path>
                            <path d="M33.8398997,62.9766112 C35.0514015,63.1917845 39,61.8514757 39,61.8514757 C39,61.8514757 35.9230097,59.2613516 34.7126297,59.0461782 C33.922391,58.891516 33.1005796,59.1315116 32.5636513,59.6737497 C32.0267231,60.2159879 31.858424,60.9758943 32.1235612,61.6608509 C32.3886984,62.3458075 33.0459178,62.84898 33.8421432,62.9766112 L33.8398997,62.9766112 Z" id="Path" fill="#82A946" fill-rule="nonzero"></path>
                            <path d="M40.5953203,69.9085633 C41.6367518,69.5436343 44,66.5765586 44,66.5765586 C44,66.5765586 40.3279528,65.7260712 39.2865214,66.0910002 C38.2789887,66.4790596 37.7579665,67.6069263 38.1097167,68.6384516 C38.4614669,69.6699768 39.5588474,70.2323101 40.5883107,69.9085633 L40.5953203,69.9085633 Z" id="Path" fill="#82A946" fill-rule="nonzero"></path>
                            <path d="M47.5772182,72.9790891 C48.805643,72.7986492 52,70.2936596 52,70.2936596 C52,70.2936596 48.0715291,68.8350197 46.8431043,69.0154596 C45.6362738,69.2151769 44.830527,70.2386234 45.0304223,71.3178987 C45.2303176,72.397174 46.362382,73.135582 47.5772182,72.9790891 L47.5772182,72.9790891 Z" id="Path" fill="#82A946" fill-rule="nonzero"></path>
                            <path d="M42,58.2178549 C42,59.4431891 40.002007,63 40.002007,63 C40.002007,63 38.0010035,59.4454169 38,58.2200827 C38,56.9939649 38.8954305,56 40,56 C41.1045695,56 42,56.9939649 42,58.2200827 L42,58.2178549 Z" id="Path" fill="#82A946" fill-rule="nonzero"></path>
                            <path d="M48.8838427,64.029689 C48.5538684,65.2207823 45.6904134,68 45.6904134,68 C45.6904134,68 44.7396059,63.8697421 45.0695803,62.6786488 C45.2588059,61.8756307 45.8223014,61.2547668 46.537001,61.0618327 C47.2517006,60.8688986 48.0023713,61.1350017 48.4918521,61.7548022 C48.9813329,62.3746026 49.1307035,63.2481683 48.8808338,64.029689 L48.8838427,64.029689 Z" id="Path" fill="#82A946" fill-rule="nonzero"></path>
                            <path d="M55.9790748,68.5304285 C55.8322316,69.7520516 53.4183699,73 53.4183699,73 C53.4183699,73 51.8594176,69.1580514 52.0102839,67.9353075 C52.1056858,67.1447034 52.5723519,66.4708697 53.2344937,66.1676332 C53.8966355,65.8643967 54.6536579,65.9778261 55.2203979,66.4651937 C55.7871378,66.9525613 56.0774941,67.7398244 55.9820922,68.5304285 L55.9790748,68.5304285 Z" id="Path" fill="#82A946" fill-rule="nonzero"></path>
                            <path d="M32.455087,55.7404357 C33.08122,56.3593108 36,57 36,57 C36,57 35.2857798,54.0494363 34.657266,53.4297533 C34.0270195,52.8344933 33.0451548,52.8607727 32.4464997,53.4889242 C31.8478446,54.1170756 31.8516585,55.1170364 32.455087,55.7404357 L32.455087,55.7404357 Z" id="Path" fill="#000000" fill-rule="nonzero" opacity="0.25"></path>
                            <path d="M33.8398997,62.9766112 C35.0514015,63.1917845 39,61.8514757 39,61.8514757 C39,61.8514757 35.9230097,59.2613516 34.7126297,59.0461782 C33.922391,58.891516 33.1005796,59.1315116 32.5636513,59.6737497 C32.0267231,60.2159879 31.858424,60.9758943 32.1235612,61.6608509 C32.3886984,62.3458075 33.0459178,62.84898 33.8421432,62.9766112 L33.8398997,62.9766112 Z" id="Path" fill="#000000" fill-rule="nonzero" opacity="0.25"></path>
                            <path d="M40.5953203,69.9085633 C41.6367518,69.5436343 44,66.5765586 44,66.5765586 C44,66.5765586 40.3279528,65.7260712 39.2865214,66.0910002 C38.2789887,66.4790596 37.7579665,67.6069263 38.1097167,68.6384516 C38.4614669,69.6699768 39.5588474,70.2323101 40.5883107,69.9085633 L40.5953203,69.9085633 Z" id="Path" fill="#000000" fill-rule="nonzero" opacity="0.25"></path>
                            <path d="M47.5772182,72.9790891 C48.805643,72.7986492 52,70.2936596 52,70.2936596 C52,70.2936596 48.0715291,68.8350197 46.8431043,69.0154596 C45.6362738,69.2151769 44.830527,70.2386234 45.0304223,71.3178987 C45.2303176,72.397174 46.362382,73.135582 47.5772182,72.9790891 L47.5772182,72.9790891 Z" id="Path" fill="#000000" fill-rule="nonzero" opacity="0.25"></path>
                            <path d="M42,58.2178549 C42,59.4431891 40.002007,63 40.002007,63 C40.002007,63 38.0010035,59.4454169 38,58.2200827 C38,56.9939649 38.8954305,56 40,56 C41.1045695,56 42,56.9939649 42,58.2200827 L42,58.2178549 Z" id="Path" fill="#000000" fill-rule="nonzero" opacity="0.25"></path>
                            <path d="M48.8838427,64.029689 C48.5538684,65.2207823 45.6904134,68 45.6904134,68 C45.6904134,68 44.7396059,63.8697421 45.0695803,62.6786488 C45.2588059,61.8756307 45.8223014,61.2547668 46.537001,61.0618327 C47.2517006,60.8688986 48.0023713,61.1350017 48.4918521,61.7548022 C48.9813329,62.3746026 49.1307035,63.2481683 48.8808338,64.029689 L48.8838427,64.029689 Z" id="Path" fill="#000000" fill-rule="nonzero" opacity="0.25"></path>
                            <path d="M55.9790748,68.5304285 C55.8322316,69.7520516 53.4183699,73 53.4183699,73 C53.4183699,73 51.8594176,69.1580514 52.0102839,67.9353075 C52.1056858,67.1447034 52.5723519,66.4708697 53.2344937,66.1676332 C53.8966355,65.8643967 54.6536579,65.9778261 55.2203979,66.4651937 C55.7871378,66.9525613 56.0774941,67.7398244 55.9820922,68.5304285 L55.9790748,68.5304285 Z" id="Path" fill="#000000" fill-rule="nonzero" opacity="0.25"></path>
                            <path d="M56,76 C56,76 55.1056934,67.1910975 49.7527712,62.5053702 C47.5070679,60.5388019 45.9469996,57.9671356 45.3905421,55.1080478 C45.1285111,53.7529558 44.9977912,52.3778351 45,51" id="Path" stroke="#535461" stroke-width="2"></path>
                            <path d="M42.149143,47.7506832 C42.5622184,48.7758849 45.6185745,51 45.6185745,51 C45.6185745,51 46.2768821,47.2797532 45.8638067,46.2545516 C45.5962998,45.5908904 44.9947246,45.1202226 44.2856888,45.0198444 C43.5766529,44.9194661 42.8678758,45.2046272 42.4263469,45.7679102 C41.9848179,46.3311932 41.8776159,47.087022 42.1451228,47.7506832 L42.149143,47.7506832 Z" id="Path" fill="#82A946" fill-rule="nonzero"></path>
                            <path d="M41.9480997,54.250535 C42.9244171,54.8153104 47,55 47,55 C47,55 45.4129418,51.9075648 44.4366243,51.3418972 C43.8055802,50.9630767 42.9751398,50.8937329 42.2644036,51.1605116 C41.5536675,51.4272903 41.0732096,51.9886869 41.0076481,52.6289822 C40.9420866,53.2692774 41.3016215,53.8888564 41.9480997,54.2496428 L41.9480997,54.250535 Z" id="Path" fill="#82A946" fill-rule="nonzero"></path>
                            <path d="M45.0731778,63.9964199 C46.2926883,64.0887478 50,62.3646257 50,62.3646257 C50,62.3646257 46.65965,60.1005864 45.4434655,60.0112692 C44.646906,59.9344987 43.8668345,60.2540102 43.4047227,60.8463231 C42.9426109,61.438636 42.8708485,62.2109645 43.2171694,62.8648294 C43.5634903,63.5186944 44.2736432,63.9516678 45.0731778,63.9964199 Z" id="Path" fill="#82A946" fill-rule="nonzero"></path>
                            <path d="M49.4338312,70.9560498 C50.4794887,71.2349815 54,70.0949999 54,70.0949999 C54,70.0949999 51.4604058,67.3360019 50.4157291,67.0570703 C49.3781877,66.7980942 48.3308488,67.4445358 48.0629884,68.5092357 C47.795128,69.5739356 48.4058049,70.6631519 49.4348121,70.9560498 L49.4338312,70.9560498 Z" id="Path" fill="#82A946" fill-rule="nonzero"></path>
                            <path d="M49.8326387,54.833886 C49.3855043,55.8564251 46.2635833,58 46.2635833,58 C46.2635833,58 45.7322352,54.2175193 46.1783671,53.1959957 C46.6283881,52.1798252 47.8044728,51.7229145 48.8099975,52.1736033 C49.8155221,52.624292 50.272544,53.8131815 49.8326387,54.833886 L49.8326387,54.833886 Z" id="Path" fill="#82A946" fill-rule="nonzero"></path>
                            <path d="M54.5893672,61.5354898 C53.9874082,62.1695997 51,63 51,63 C51,63 51.5049491,60.1530228 52.1069081,59.5196796 C52.4962957,59.1095964 53.0926817,58.9227694 53.6714132,59.0295747 C54.2501448,59.13638 54.7232989,59.5205912 54.9126428,60.0374798 C55.1019868,60.5543684 54.9787549,61.1254065 54.5893672,61.5354898 Z" id="Path" fill="#82A946" fill-rule="nonzero"></path>
                            <path d="M58.7183688,69.2238624 C58.1715804,70.2196625 55.0002072,72 55.0002072,72 C55.0002072,72 54.9738106,68.0061838 55.5168281,67.0103837 C56.0598767,66.0136452 57.217638,65.7013707 58.1027604,66.3128991 C58.9878828,66.9244275 59.2651884,68.2281855 58.7221398,69.2249241 L58.7183688,69.2238624 Z" id="Path" fill="#82A946" fill-rule="nonzero"></path>
                            <ellipse id="Oval" fill="#82A946" fill-rule="nonzero" opacity="0.1" cx="66" cy="81" rx="26" ry="2"></ellipse>
                            <path d="M102.564558,27.9082518 C102.639689,27.6993012 102.076208,26.5397722 102.076208,26.4828748 C102.076208,26.4259775 101.493463,25.7795057 101.493463,25.4185018 C101.493463,25.0574978 100.722891,24.2785925 100.722891,24.2785925 C100.722891,24.2785925 99.6893621,23.8410714 99.5766659,22.8904931 C99.4639698,21.9399148 98.338935,21.921276 98.3360454,21.921276 L98.3360454,21.921276 C98.3360454,21.921276 98.3408615,21.833968 98.3427879,21.7034964 C98.3427879,21.4091997 98.334119,20.8794657 98.204085,20.5910549 C98.011442,20.1731536 97.5645104,20.0397391 97.5645104,20.0397391 C97.5645104,20.0397391 97.4518143,19.2981114 97.226422,19.0695409 C96.9701032,18.797019 96.8706067,18.4087632 96.9634644,18.0434265 C97.0761605,17.6834035 96.8132029,16.7681408 96.2680234,16.6376692 C95.7228439,16.5071977 95.1025336,16.2953041 95.1025336,16.2953041 C95.1025336,16.2953041 95.0418511,16.3070759 94.9522721,16.3198288 L94.8771413,16.2953041 C94.7466087,16.3200476 94.6147302,16.3367548 94.4822233,16.3453345 C94.3669653,16.3485899 94.254206,16.3107725 94.1633992,16.2384067 C93.9707563,16.029456 92.4536931,15.6301935 92.1714712,15.6301935 C91.8892493,15.6301935 91.0811121,15.2495698 91.0811121,15.2495698 C91.0811121,15.2495698 90.5176315,14.8130297 90.2739382,14.6227178 C90.0466195,14.4471208 89.6276211,13.7339418 89.5669386,13.628976 L89.5592329,13.6152421 L89.5592329,13.6152421 L89.5544168,13.6152421 C89.4968313,13.4801932 89.4476109,13.3416023 89.407045,13.2002838 C89.398376,13.1708541 89.3916335,13.1414244 89.3839278,13.1119948 C89.658717,12.8180351 89.8938785,12.4881439 90.0832217,12.1310058 C90.102486,12.0937282 90.1198238,12.0554696 90.1381249,12.018192 C90.1796468,12.0180691 90.2209039,12.011452 90.2604532,11.9985722 C90.2771444,11.9928862 90.2935403,11.9863377 90.3095771,11.9789525 C90.5,11.8767679 90.6432664,11.7023189 90.708348,11.4933629 L90.708348,11.4933629 C90.721833,11.4521614 90.7333916,11.4099788 90.743987,11.3677963 L90.7526559,11.3256138 C90.7593984,11.2971651 90.7651777,11.2677354 90.770957,11.2383058 C90.7767363,11.2088761 90.7757731,11.2059331 90.7786627,11.1892563 C90.7815524,11.1725795 90.7873316,11.1323589 90.7911845,11.1039103 C90.7950374,11.0754616 90.7911845,11.0715376 90.797927,11.0558418 C90.8027431,11.0195452 90.8065959,10.9842296 90.811412,10.947933 L90.811412,10.947933 C90.8268234,10.8135375 90.8422349,10.679142 90.8701681,10.5476895 C90.8697505,10.5457506 90.8697505,10.5437425 90.8701681,10.5418036 L90.8701681,10.5418036 C90.981901,10.0258034 91.2872401,9.59024424 91.5030002,9.11348359 L91.5030002,9.11348359 C91.5338231,9.04481436 91.5627195,8.97516414 91.5896895,8.90551392 C91.6166595,8.8358637 91.6417031,8.75247963 91.663857,8.67400051 C91.6705995,8.65045678 91.6754156,8.62691304 91.6821581,8.60336931 C91.6962853,8.54581795 91.7088071,8.4879396 91.7197235,8.42973425 C91.7245396,8.40520953 91.7293556,8.3806848 91.7332085,8.35517909 C91.7466935,8.27669997 91.7572889,8.19723986 91.7630682,8.11777975 C91.8017563,7.66353341 91.7357917,7.20636075 91.5704252,6.78265372 C91.4297959,6.42557373 91.2198151,6.10380933 91.0772593,5.74771033 C90.8614992,5.2062044 90.8046695,4.59406726 90.5407487,4.08002903 C90.0986331,3.21577772 89.0564348,2.78316157 88.2001369,3.10786893 C87.7917339,3.26286519 87.4372709,3.56402881 87.0221253,3.69646233 C86.4673136,3.8769643 85.8730102,3.74158782 85.297971,3.66016574 C84.7229318,3.57874365 84.0881733,3.57187673 83.6258302,3.95446244 C83.0931725,4.3949265 82.9515799,5.22288121 82.4487818,5.7055278 C82.238801,5.90859252 81.9777698,6.03808307 81.7562305,6.22545197 C81.6006069,6.35273867 81.480672,6.51955027 81.4085099,6.70907955 C81.4085099,6.72281339 81.399841,6.73654724 81.3959882,6.75028109 C81.3921353,6.76401493 81.3873192,6.78265372 81.3834664,6.79933054 C81.3796135,6.81600735 81.3767239,6.83758911 81.3738342,6.8562279 C81.3709446,6.87486669 81.3738342,6.8827146 81.3738342,6.89546746 C81.371154,6.92811012 81.371154,6.96092369 81.3738342,6.99356636 L81.3738342,6.99356636 C81.3770131,7.02655406 81.3821597,7.05931422 81.3892456,7.09166526 C81.390928,7.10031177 81.3931806,7.10883298 81.3959882,7.11717097 C81.402228,7.14439924 81.4099456,7.17125416 81.4191053,7.19761207 C81.4191053,7.19761207 81.4191053,7.20742196 81.4191053,7.2123269 C81.4297007,7.24175657 81.4412592,7.27020526 81.4528178,7.29963493 L81.4711189,7.34181745 C81.4711189,7.35358932 81.4817143,7.36536119 81.4865303,7.37811405 C81.5597591,7.51859288 81.6181979,7.66656382 81.6608722,7.8195591 C81.6848631,7.91714757 81.6788103,8.01988895 81.6435343,8.1138558 C81.5931342,8.2199334 81.5223927,8.31466166 81.43548,8.39245667 C81.0613357,8.78847361 80.7723283,9.25955207 80.5868878,9.77565116 C80.5656971,9.8345105 80.5454696,9.89336984 80.5262053,9.95321017 C80.5262053,9.95321017 80.5262053,9.95321017 80.5262053,9.95811512 L80.5512488,9.96498204 C80.6052937,9.98081691 80.6603204,9.99294297 80.7159586,10.0012786 C80.7477446,10.0012786 80.7795307,10.0091265 80.81228,10.0110885 C80.9414213,10.0186562 81.0709777,10.0087601 81.1975659,9.98165885 C81.2303152,9.97479193 81.2621013,9.96694402 81.2938874,9.95811512 C81.4245732,9.92219469 81.5518906,9.87459549 81.6743572,9.81587171 C81.6743572,9.85511127 81.6743572,9.89336984 81.6743572,9.9326094 C81.6743572,9.95419116 81.6743572,9.97577292 81.6743572,9.99735468 C81.676418,11.712294 82.631565,13.2782295 84.1401869,14.0400103 C84.1459662,14.0821929 84.1507822,14.1224134 84.1565615,14.163615 C84.1623408,14.2048165 84.1652305,14.2332652 84.1690833,14.2675998 L84.1180329,14.2175694 C84.1180329,14.2175694 83.7799446,14.0468773 83.4601573,14.5412957 C83.14037,15.0357142 82.539324,15.2633036 82.539324,15.2633036 C82.539324,15.2633036 79.1189486,15.8146194 78.9879514,16.2707793 L77.3899781,16.3688782 C77.3899781,16.3688782 76.8264975,16.4444144 76.7706311,17.6441639 C76.7147646,18.8439135 76.4132784,18.9557462 76.4132784,18.9557462 C76.4132784,18.9557462 75.7554028,20.132933 75.8122324,20.7421272 C75.8690621,21.3513214 75.3046183,21.654447 75.3046183,21.654447 L75.2294875,22.7335349 C75.2294875,22.7335349 74.6091773,22.635436 74.4396515,23.3800066 C74.2701257,24.1245773 73.9705659,24.4590945 73.9705659,24.4590945 C73.9705659,24.4590945 72.9360733,25.3341367 72.8802068,26.0747834 L72.2415955,26.4740459 C72.2415955,26.4740459 70.7563184,26.1316808 70.41823,25.5234676 L70.3142028,25.4253687 C70.3107595,25.4208249 70.3078501,25.4158864 70.3055339,25.4106538 C70.3052873,25.4129359 70.3052873,25.4152387 70.3055339,25.4175208 C70.0839945,25.2046462 69.6120193,24.7573152 69.6842604,24.860319 C69.7277504,24.9559893 69.7385993,25.0637181 69.7150833,25.1663876 L69.6043136,25.041802 L69.3086067,24.7072847 C69.3086067,24.7072847 67.0999553,22.1233597 65.6907722,21.9418767 L65.5838554,21.7270401 C65.5233529,21.6060987 65.3781617,21.5578323 65.259252,21.6191314 L63.1334371,22.6982193 C63.0761995,22.7270761 63.0326267,22.7779914 63.012376,22.8396803 C62.9921254,22.9013693 62.9968695,22.9687364 63.0255571,23.0268506 L63.2634711,23.5026302 L63.258655,23.5026302 C63.2531518,23.5053467 63.2489958,23.5102592 63.2471717,23.5162041 C63.2453476,23.522149 63.2460175,23.5285974 63.2490229,23.5340219 L63.3328226,23.701771 C63.3384359,23.7133875 63.3522056,23.7182081 63.3636454,23.7125619 L63.3636454,23.7125619 L63.3636454,23.7125619 L63.451298,23.8881589 L63.451298,23.8881589 C63.4386027,23.8947237 63.4334507,23.910465 63.4397394,23.9234745 L63.5986698,24.241315 C63.6015635,24.2477226 63.6069331,24.2526239 63.6135028,24.2548542 C63.6200725,24.2570845 63.6272557,24.2564447 63.6333456,24.2530868 L63.6333456,24.2530868 L63.6978809,24.3815964 L63.6978809,24.3815964 C63.6862182,24.3880892 63.6815672,24.4027302 63.6872856,24.41495 L63.8491057,24.7386764 C63.8517725,24.744789 63.8568664,24.7494578 63.8631153,24.7515168 C63.8693641,24.7535758 63.8761779,24.7528306 63.881855,24.7494673 L63.881855,24.7494673 L65.4229985,27.8503735 C65.4835248,27.9712429 65.6283943,28.0198401 65.7476019,27.9592633 L67.3792876,27.1283656 L67.4370805,27.1715291 L67.9186878,27.802305 C67.8368146,27.9985028 67.7684263,28.1947006 67.7106335,28.3702977 C67.7093437,28.3759461 67.7077357,28.3815143 67.7058174,28.3869745 C67.6932956,28.4242521 67.681737,28.4615296 67.6711416,28.4968452 L67.6595831,28.5341228 C67.6480245,28.5704194 67.6374291,28.605735 67.627797,28.6390886 L67.6104591,28.7018719 C67.6104591,28.7136438 67.6027534,28.7263967 67.5998638,28.7381685 C67.546887,28.9284804 67.5131744,29.0756287 67.4948734,29.1570508 L67.3706187,29.1178113 L67.4919837,29.1707847 C67.4919837,29.1776516 67.4919837,29.1854995 67.4919837,29.1904045 C67.4862044,29.2159102 67.484278,29.230625 67.484278,29.230625 C67.5208802,29.2482828 67.5594087,29.2649596 67.5998638,29.2816364 C68.2577394,29.5759331 71.5432648,31.0415307 71.7118274,31.2642152 C71.8996543,31.5114244 73.1402748,32.2334323 74.2681992,31.6252192 C75.3961237,31.017006 75.639817,30.0860474 75.639817,30.0860474 C75.639817,30.0860474 76.7301761,28.5458947 76.7677414,28.3202672 C76.8053068,28.0946397 77.6510093,27.8297727 77.6510093,27.8297727 C77.6510093,27.8297727 77.7261401,30.3803441 77.2936567,31.3083597 C76.8611733,32.2363753 76.0530361,36.363396 76.0530361,36.363396 C76.1056536,36.3527803 76.1594415,36.3494802 76.2129298,36.3535861 L76.1657322,36.5919665 C76.2312913,36.5793325 76.2985954,36.5793325 76.3641545,36.5919665 C76.3044352,37.0598982 75.9596043,39.2406368 75.9596043,39.2406368 C75.9596043,39.2406368 75.8469082,40.2294737 75.6581181,40.5708579 C75.469328,40.912242 75.4519901,42.699604 75.4519901,42.699604 L75.1514671,43.9925475 C75.1514671,43.9925475 75.1909589,44.0818175 75.2651265,44.215232 L75.2651265,44.2201369 C75.2651265,44.2201369 75.5878034,44.9499927 76.1320197,45.3590652 C76.1070133,45.5611366 76.0561742,45.7590112 75.980795,45.9476586 C75.7881521,46.3273013 75.8305335,46.8599783 75.8305335,46.8599783 C75.8305335,46.8599783 75.5117094,48.3226329 75.5483116,48.7415152 C75.5849138,49.1603975 75.3344779,50.185531 75.3344779,50.185531 L74.9963896,53.492445 C74.9963896,53.492445 74.7709973,56.3618378 74.8836935,57.141724 C74.9963896,57.9216103 74.8085627,58.9850024 74.8085627,58.9850024 C74.8085627,58.9850024 75.0339549,61.247163 74.9771253,61.4933912 C74.9202956,61.7396195 74.6390369,62.8049735 74.8085627,63.3945479 C74.9780885,63.9841223 74.8836935,65.5988302 74.8836935,65.5988302 C74.8836935,65.5988302 74.9963896,67.7285573 75.1273868,68.4123067 C75.258384,69.096056 75.0898214,69.9710982 75.0898214,69.9710982 C75.0898214,69.9710982 74.957861,71.4347338 74.8971785,71.4347338 C74.8364959,71.4347338 74.3519989,72.4412285 75.3479629,73.4300654 C76.343927,74.4189023 75.729396,74.263906 75.729396,74.263906 C75.729396,74.263906 74.9395599,73.8646435 75.0339549,74.6818074 C75.1225707,75.4597316 75.2468254,75.2566669 75.258384,75.2350852 L75.065741,75.8599751 C75.065741,75.8599751 75.114865,75.8658611 75.1977014,75.8786139 L75.0888582,76.0120284 C74.9747167,76.1570506 74.8476756,76.2910334 74.7093516,76.412272 C74.4839593,76.582964 74.464695,76.9626068 74.464695,76.9626068 C74.464695,76.9626068 73.0747762,78.5027595 71.7782892,79.2816648 C71.0963332,79.6917182 70.5068458,80.0389883 70.2506307,80.3254371 C70.0194591,80.5834372 70.0579877,80.7923878 70.5395951,80.954251 C71.5548234,81.2966162 73.3396603,81.4673083 74.616883,81.0307682 C75.3789786,80.7719499 76.0642724,80.3207192 76.608811,79.7191859 C76.608811,79.7191859 77.4179114,79.3003036 78.2067842,79.4523569 C78.9956571,79.6044102 80.574366,78.5596569 80.574366,78.5596569 L80.5454696,78.2898849 L80.4616699,77.5139226 C80.4616699,77.5139226 80.2690269,77.2853522 80.3297095,77.0391239 C80.3557163,76.9272912 80.3162245,76.6388804 80.2651741,76.3524316 C80.2516891,76.2768955 80.2372408,76.2023403 80.2227926,76.1317091 L80.3672748,76.1042414 C80.3672748,76.1042414 80.1804112,75.1350243 80.5184995,74.9447124 C80.8565879,74.7544005 80.7621929,72.2646505 80.7621929,72.2646505 C80.7621929,72.2646505 80.3297095,71.6946959 80.1043172,71.5995399 C79.878925,71.504384 80.0850529,70.3242542 80.1235815,70.1741629 C80.1621101,70.0240716 80.4616699,67.0761996 80.4616699,67.0761996 C80.4616699,67.0761996 80.3489738,66.1452411 80.4992353,65.7459786 C80.6494967,65.346716 80.3114084,63.8075443 80.3114084,63.8075443 C80.3114084,63.8075443 80.1987123,63.6172324 80.4077299,63.388662 C80.6167474,63.1600916 80.5358374,61.1333683 80.5358374,61.1333683 C80.5358374,61.1333683 80.5175363,60.1072538 80.5175363,59.8404248 C80.5175363,59.5735958 80.7429286,58.6053596 80.9490565,58.2826142 C81.1551845,57.9598689 81.0251505,56.9514122 81.0251505,56.9514122 L81.0251505,56.9514122 L81.0367091,56.875876 C81.0367091,56.8474273 81.0463412,56.8101498 81.0530837,56.7679672 L81.0704216,56.6698683 C81.1605822,56.1130322 81.2828001,55.5620743 81.4364432,55.0198448 C81.6810997,54.2213198 81.9633216,52.8155625 81.9633216,52.8155625 L83.714446,48.1695986 L83.7346735,48.1146633 C83.7346735,48.1146633 84.5418474,49.6351962 84.5418474,51.0429154 C84.5418474,51.0429154 84.7499018,52.7341405 84.6930721,53.1903003 C84.6362425,53.6464602 84.8625979,55.7938452 84.8625979,55.7938452 C84.8625979,55.7938452 85.1062912,58.8721886 85.1062912,59.0056031 C85.1062912,59.1390176 85.4068142,61.514973 85.5956043,61.8769579 C85.7843944,62.2389429 85.4029614,63.3396125 85.2941181,63.4534073 C85.1852748,63.567202 85.3316835,66.3620397 85.3316835,66.3620397 C85.3316835,66.3620397 85.0494616,68.5663219 84.9935951,69.0224818 C84.9377287,69.4786417 84.7113732,71.2277451 84.8972736,71.9124754 C85.0831741,72.5972057 85.0099698,72.6913807 85.0099698,72.6913807 C85.0099698,72.6913807 85.6842201,73.3947498 85.2921917,73.4516472 C84.9001633,73.5085445 84.2971909,74.0216018 84.539921,74.8387656 C84.7826511,75.6559294 85.3682856,76.8733368 85.3682856,76.8733368 C85.3682856,76.8733368 85.4848346,76.8468501 85.679404,76.8066295 L85.679404,77.032257 L85.7025212,78.1652993 C85.7025212,78.1652993 85.8335184,79.2443872 85.7583876,79.4965014 C85.7034844,79.6760224 85.6283536,80.5285018 85.5917515,80.9679849 C85.5782665,81.130829 85.5705607,81.2397188 85.5705607,81.2397188 C85.5705607,81.2397188 85.5705607,82.2462135 87.6559206,81.9430879 C89.7412805,81.6399623 90.1178974,80.8021977 90.1178974,80.8021977 L90.1333089,80.6972319 C90.1641317,80.5010341 90.2296303,80.0978476 90.28646,79.8712392 C90.362554,79.5661516 89.6863772,78.1976719 89.6863772,78.1976719 C89.6863772,78.1976719 89.5727179,77.2676944 89.384891,77.0577627 C89.3070178,76.9372259 89.2554486,76.8010733 89.2336663,76.6585002 C89.2163284,76.5819831 89.2018802,76.5025229 89.1893584,76.4240438 C89.2384824,76.4309107 89.2856799,76.4397396 89.3280613,76.4495495 C89.3280613,76.4495495 89.2153652,75.784439 89.6488118,75.5745074 C90.0822585,75.3645757 89.9676359,74.9290166 89.9117695,74.7387047 C89.855903,74.5483929 90.080332,73.4850008 90.080332,73.4850008 C90.0188274,73.2695045 90.0762741,73.0369777 90.2305935,72.8767876 C90.4945144,72.6099586 90.7006423,70.7470605 90.7006423,70.7470605 L90.7459134,63.5711259 C90.7459134,63.5711259 90.8778738,62.2958402 90.7276123,61.783764 C90.5773508,61.2716877 90.4261261,60.2828508 90.6312909,60.0179838 C90.8364556,59.7531168 90.6505552,58.5170706 90.6505552,58.5170706 C90.6505552,58.5170706 90.6505552,55.9125448 90.9318139,55.2670541 C91.2130725,54.6215633 91.1244568,50.5337821 91.1244568,50.5337821 L91.1986243,47.8547012 C91.1986243,47.8547012 91.8121921,47.2661078 91.6667467,44.1779544 C92.3217327,44.1367529 93.0605184,44.1122281 93.1722513,44.2044411 C93.3783792,44.3751332 94.7133948,45.2501754 95.5022677,44.6949356 C95.6717935,44.6184185 96.441402,43.9533079 96.441402,43.9533079 L96.1100562,38.2547428 C96.3171473,38.5725833 96.4423652,38.7834959 96.4423652,38.7834959 C96.4423652,37.9849708 98.6577591,35.4000648 98.6577591,35.4000648 C98.6577591,35.4000648 100.724818,32.6827253 101.175602,32.3589989 C101.626387,32.0352726 102.509655,30.3254087 102.509655,30.3254087 C102.640531,29.9992216 102.791411,29.6817361 102.961402,29.3748304 C103.165604,29.0305033 102.489427,28.1181835 102.564558,27.9082518 Z M97.7157351,29.9045645 C97.1522545,29.9614618 95.9684636,31.2730441 95.9491993,31.5575309 C95.9395672,31.7076222 95.8153125,31.909706 95.6997267,32.0686262 C95.6910578,31.9538505 95.6814256,31.8371128 95.6717935,31.7184131 C95.5388698,30.0389599 95.3963141,27.9906549 95.4618127,27.7944571 C95.5745088,27.452092 95.5359802,25.9129202 95.5359802,25.9129202 L95.5359802,25.9129202 L95.5571709,25.8834905 C95.9366775,27.0763732 97.1127627,28.4831114 97.1127627,28.4831114 C97.1127627,28.4831114 97.3198539,29.0913246 97.5635472,29.1099634 C97.8072405,29.1286022 97.7157351,29.9045645 97.7157351,29.9045645 Z" id="Shape" fill="url(#linearGradient-1)" fill-rule="nonzero"></path>
                            <path d="M67,30.5579366 C67,30.5579366 67.6087329,27.0180317 69.5684932,27 L71,30.2665825 L70.0453767,30.9963913 C70.0453767,30.9963913 67.9708904,31.0694671 67,30.5579366 Z" id="Path" fill="#65617D" fill-rule="nonzero"></path>
                            <path d="M71,30.2651249 L70.0453767,30.9964065 C70.0453767,30.9964065 68.5898973,31.0476912 67.5419521,30.7627763 C67.3556191,30.7144886 67.1740756,30.645771 67,30.5576376 C67,30.5576376 67,30.5386432 67.0111301,30.5006546 C67.0108988,30.4962263 67.0108988,30.4917868 67.0111301,30.4873585 C67.1011423,30.0427555 67.2251646,29.6074752 67.3818493,29.1862471 C67.4417808,29.0276445 67.510274,28.8633435 67.5839041,28.6999923 C67.8707192,28.0874253 68.2739726,27.4872045 68.8253425,27.1899433 C69.0294057,27.0786704 69.2515644,27.0140744 69.4785959,27 L69.5368151,27 L69.5659247,27 L69.5967466,27.0721784 L70.0813356,28.1766986 L71,30.2651249 Z" id="Path" fill="#000000" fill-rule="nonzero" opacity="0.1"></path>
                            <path d="M89.9461545,44.3918697 C89.9461545,44.3918697 92.6151664,44.1668489 92.8542654,44.3353709 C93.0933644,44.503893 94.6080286,45.3659857 95.5054838,44.8224289 C96.4029391,44.2788722 95.8046356,42.3871389 95.8046356,42.312132 C95.8046356,42.237125 95.7201169,39.5592801 95.7201169,39.5592801 L94.1153735,37.6675468 L92.10583,34.3555523 L88,34 L88.1112088,39.2602265 L88.0900792,41.9575537 L89.9461545,44.3918697 Z" id="Path" fill="#65617D" fill-rule="nonzero"></path>
                            <path d="M89.9461545,44.3918697 C89.9461545,44.3918697 92.6151664,44.1668489 92.8542654,44.3353709 C93.0933644,44.503893 94.6080286,45.3659857 95.5054838,44.8224289 C96.4029391,44.2788722 95.8046356,42.3871389 95.8046356,42.312132 C95.8046356,42.237125 95.7201169,39.5592801 95.7201169,39.5592801 L94.1153735,37.6675468 L92.10583,34.3555523 L88,34 L88.1112088,39.2602265 L88.0900792,41.9575537 L89.9461545,44.3918697 Z" id="Path" fill="#000000" fill-rule="nonzero" opacity="0.1"></path>
                            <path d="M70,26.5851937 C70,26.5851937 69.7908443,28.961509 68.1898722,29 C68.1898722,29 67.736519,28.7467695 67.1265727,28.3253939 C65.7205206,27.3519757 63.4887962,25.4811085 64.1053128,23.7409083 C64.9901182,21.248107 69.2849283,25.8447476 69.2849283,25.8447476 L69.6134452,26.1871153 L70,26.5851937 Z" id="Path" fill="#FBBEBE" fill-rule="nonzero"></path>
                            <path d="M69,27.2830393 C69,27.2830393 68.8610404,28.9726323 67.7973809,29 C67.7973809,29 67.4961804,28.8199496 67.0909422,28.5203457 L67,28.4051134 C67.1802221,28.4982777 67.3789094,28.5511365 67.5820298,28.5599568 C67.849036,28.5657184 68.1495089,28.467771 68.3423063,28.0860641 C68.4528918,27.8685801 68.5500745,27.6446679 68.6333212,27.4155564 C68.684329,27.2813125 68.7204332,27.1419741 68.7409967,27 L69,27.2830393 Z" id="Path" fill="#000000" fill-rule="nonzero" opacity="0.1"></path>
                            <path d="M68.1409054,31 L67.7892539,30.6502684 L66.6028311,29.4720945 L66,28.8701923 C66.264569,28.97766 66.5565384,29.0386388 66.8550795,29.0487787 C67.2473473,29.055393 67.6887821,28.9429497 67.973096,28.5039249 C68.1356442,28.2542842 68.2784209,27.9972299 68.4006358,27.7341846 C68.5962353,27.3050813 68.5919599,27.0843287 68.5235535,27.0099177 C68.4551471,26.9355068 68.9596441,27.298467 69.2022729,27.4762266 L69.2108237,27.4828409 C69.2802989,27.5324482 69.3251906,27.5655197 69.3251906,27.5655197 L69.3668757,27.6300093 L69.9622248,28.5510519 L69.9686379,28.5899109 C70.0231492,28.8825941 70.2240929,30.7370812 68.1409054,31 Z" id="Path" fill="#E7EFFD" fill-rule="nonzero"></path>
                            <path d="M80,79.1618156 C80,79.1618156 78.4909569,80.2493321 77.7369026,80.0869242 C76.9828482,79.9245162 76.2091717,80.3644567 76.2091717,80.3644567 C75.6893262,80.9892552 75.0337632,81.458597 74.3039464,81.7284779 C73.0826961,82.182809 71.3764963,82.0049826 70.4065974,81.6483019 C69.9468765,81.4807544 69.9104352,81.26284 70.1309517,80.9955864 C70.3766968,80.6964679 70.9401352,80.3356756 71.5923408,79.9090977 C72.8313446,79.0991138 74.1609844,77.497648 74.1609844,77.497648 C74.1609844,77.497648 74.1787379,77.102935 74.3945824,76.9251086 C74.5268246,76.8007962 74.6482018,76.6631429 74.7571265,76.5139492 C74.9496113,76.263142 75.1308833,76 75.1308833,76 L79.5692453,76.1582964 C79.5692453,76.1582964 79.644931,76.5108655 79.7037977,76.87063 C79.7533205,77.1656368 79.7916306,77.4657832 79.766402,77.5819357 C79.7122073,77.8378824 79.8925449,78.0753269 79.8925449,78.0753269 L79.9719682,78.8822272 L80,79.1618156 Z" id="Path" fill="#65617D" fill-rule="nonzero"></path>
                            <path d="M88.9952817,79.5657921 C88.9480934,79.8255972 88.8909706,80.2921168 88.8653067,80.5112567 C88.8562002,80.5858095 88.8520609,80.630993 88.8520609,80.630993 C88.8520609,80.630993 88.5333324,81.5866239 86.7666662,81.9345368 C85,82.2824497 85,81.1302706 85,81.1302706 C85,81.1302706 85.0066229,81.006016 85.0182131,80.8196341 C85.0488441,80.3113198 85.1125898,79.3387451 85.1589503,79.1320306 C85.222696,78.8496337 85.1117619,77.611606 85.1117619,77.611606 L85.092721,76.3170989 L85.0794751,75.413429 L88.0084653,75 C88.0270951,75.2989749 88.0586085,75.596194 88.1028421,75.8901148 C88.1211568,76.0516187 88.1649372,76.2057769 88.2311613,76.3419498 C88.3901116,76.5825519 88.4861441,77.6454936 88.4861441,77.6454936 C88.4861441,77.6454936 89.0573717,79.2178792 88.9952817,79.5657921 Z" id="Path" fill="#65617D" fill-rule="nonzero"></path>
                            <path d="M78.8916682,76.1343151 C78.8916682,76.1343151 78.9526049,76.4315414 79,76.7348336 C78.6140681,76.8162892 76.9266504,77.1533768 76.5046079,76.9176754 C76.0276472,76.6507783 75,76.5008653 75,76.5008653 L75.017303,76.4332745 C75.1722776,76.2218366 75.3182246,76 75.3182246,76 L78.8916682,76.1343151 Z" id="Path" fill="#000000" fill-rule="nonzero" opacity="0.1"></path>
                            <path d="M89,76.6792453 C88.0142388,76.5488851 85.8652793,76.864494 85.0175246,77 L85,76.3138937 L88.8751369,76 C88.8996135,76.2281452 88.9413073,76.4549565 89,76.6792453 L89,76.6792453 Z" id="Path" fill="#000000" fill-rule="nonzero" opacity="0.1"></path>
                            <path d="M91.5051196,49.3611314 L91.4296548,52.0053645 C91.4296548,52.0053645 91.527661,56.0375518 91.2414828,56.675445 C90.9553046,57.3133382 90.9582448,59.8824677 90.9582448,59.8824677 C90.9582448,59.8824677 91.1473968,61.1016825 90.9396236,61.3630822 C90.7318504,61.6244818 90.88278,62.6018044 91.0376298,63.1080224 C91.1924797,63.6142404 91.0552709,64.8714948 91.0552709,64.8714948 L91.0180286,71.9604974 C91.0180286,71.9604974 90.8112354,73.798098 90.5466186,74.0614484 C90.3918644,74.2200047 90.3346049,74.4490638 90.3966691,74.6613021 C90.3966691,74.6613021 90.1702747,75.7108022 90.2271183,75.899049 C90.2839619,76.0872958 90.3966691,76.5174348 89.9634815,76.7232382 C89.530294,76.9290417 89.6420211,77.5864423 89.6420211,77.5864423 C88.6060952,77.3425994 85.6668883,78 85.6668883,78 C85.6668883,78 85.0788509,76.7993172 84.8367755,75.9926847 C84.5947001,75.1860522 85.1954783,74.6798342 85.5904434,74.6271641 C85.9854085,74.574494 85.3081854,73.8761278 85.3081854,73.8761278 C85.3081854,73.8761278 85.3836502,73.7785906 85.1954783,73.1075347 C85.0073063,72.4364789 85.2327206,70.7061692 85.2934845,70.2565228 C85.3542484,69.8068764 85.6325861,67.6308218 85.6325861,67.6308218 C85.6325861,67.6308218 85.4826365,64.8744209 85.5953437,64.7612777 C85.7080509,64.6481346 86.0853749,63.560595 85.8972029,63.2006828 C85.7090309,62.8407705 85.4071717,60.4998781 85.4071717,60.3721044 C85.4071717,60.2443307 85.1621562,57.2021458 85.1621562,57.2021458 C85.1621562,57.2021458 84.9367418,55.0826628 84.9926054,54.6330163 C85.0484689,54.1833699 84.8416758,52.5145087 84.8416758,52.5145087 C84.8416758,51.1255791 84.0321443,49.6254572 84.0321443,49.6254572 L84.011563,49.6791027 L82.2601916,54.2633504 C82.2601916,54.2633504 81.9779336,55.6503292 81.731938,56.4384297 C81.5775947,56.9734538 81.4548767,57.5170167 81.3644146,58.0663253 L81.3477536,58.1638625 C81.3408931,58.2058035 81.3350128,58.2418922 81.3310925,58.2692026 L81.3193318,58.3452816 L81.3193318,58.3452816 C81.3193318,58.3452816 81.4506601,59.3391856 81.243867,59.6581322 C81.0370738,59.9770788 80.8018589,60.9329432 80.8018589,61.1992197 C80.8018589,61.4654962 80.8195,62.4759815 80.8195,62.4759815 C80.8195,62.4759815 80.8959448,64.4823214 80.6881716,64.7076323 C80.4803984,64.9329432 80.5901654,65.1202146 80.5901654,65.1202146 C80.5901654,65.1202146 80.930247,66.6388686 80.7793174,67.0329188 C80.6283878,67.426969 80.742075,68.344794 80.742075,68.344794 C80.742075,68.344794 80.443156,71.2455499 80.4098339,71.3977079 C80.3765118,71.5498659 80.1648183,72.7105584 80.3902327,72.8041941 C80.615647,72.8978298 81.0498146,73.4606194 81.0498146,73.4606194 C81.0498146,73.4606194 81.1478209,75.9175811 80.8057791,76.1048525 C80.4637373,76.2921239 80.6538694,77.2489637 80.6538694,77.2489637 C80.6538694,77.2489637 77.9224357,77.7746891 77.3000961,77.4742746 C76.6777566,77.17386 75.3399715,77.0051207 75.3399715,77.0051207 L75.5271634,76.3886857 C75.5163827,76.4101439 75.3919148,76.6100951 75.3027291,75.8424774 C75.2047229,75.0358449 76.0005335,75.4298951 76.0005335,75.4298951 C76.0005335,75.4298951 76.621893,75.5801024 75.6222294,74.6047306 C74.6225659,73.6293587 75.1135771,72.6354548 75.1704207,72.6354548 C75.2272643,72.6354548 75.3585927,71.1919044 75.3585927,71.1919044 C75.3585927,71.1919044 75.5281435,70.3287003 75.395835,69.653743 C75.2635266,68.9787857 75.1517995,66.8778347 75.1517995,66.8778347 C75.1517995,66.8778347 75.2498058,65.2840771 75.0763347,64.7027554 C74.9028637,64.1214338 75.1890419,63.0709583 75.2458855,62.82614 C75.3027291,62.5813216 75.0763347,60.3506462 75.0763347,60.3506462 C75.0763347,60.3506462 75.2654867,59.3011461 75.1517995,58.532553 C75.0381123,57.76396 75.2654867,54.9314801 75.2654867,54.9314801 L75.6045883,51.6678859 C75.6045883,51.6678859 75.8486238,50.6554499 75.8113815,50.2428676 C75.7741391,49.8302853 76.0936394,48.3896611 76.0936394,48.3896611 C76.0936394,48.3896611 76.056397,47.8639356 76.244569,47.4893928 C76.432741,47.11485 76.5091858,45.8771031 76.5091858,45.8771031 L78.3183809,41.7503048 L79.200437,38.1121678 L91.1669981,38 C91.1669981,38 91.2111009,38.3150451 91.2826454,38.8885638 C91.35419,39.4620824 91.4580766,40.3116313 91.5766641,41.3591807 C91.6805507,42.3111436 91.7942379,43.4308705 91.9059651,44.675445 C92.2587875,48.6481346 91.5051196,49.3611314 91.5051196,49.3611314 Z" id="Path" fill="#3F3D56" fill-rule="nonzero"></path>
                            <path d="M91,15.5584781 L87.9335282,19 C87.9335282,19 84,17.344355 84.4136021,16.778129 C84.5740883,16.5584333 84.5482382,15.8721673 84.4556086,15.1043648 C84.3102016,13.8994357 84,12.509917 84,12.509917 C84,12.509917 90.8750577,11.3344317 90.2945068,12.5529502 C90.0790891,12.9991363 90.1200185,13.5189318 90.2514233,13.9990915 C90.4193644,14.5579164 90.672153,15.0845094 91,15.5584781 L91,15.5584781 Z" id="Path" fill="#FBBEBE" fill-rule="nonzero"></path>
                            <path d="M89.967009,12.4550177 C89.7627992,12.8221803 89.6709048,12.8575919 89.7964938,13.252711 C88.9439181,14.0914072 87.8565012,15 86.512801,15 C85.7906764,15.001034 85.0782153,14.8485233 84.4319036,14.5545539 C84.294062,13.5630286 84,12.4196061 84,12.4196061 C84,12.4196061 90.5173543,11.4523098 89.967009,12.4550177 Z" id="Path" fill="#000000" fill-rule="nonzero" opacity="0.1"></path>
                            <path d="M88.9995063,11.482722 C89.0235036,13.0885899 88.1711897,14.5827365 86.7691731,15.3926013 C85.3671565,16.2024662 83.6328435,16.2024662 82.2308269,15.3926013 C80.8288103,14.5827365 79.9764964,13.0885899 80.0004937,11.482722 C80.0004937,11.4613253 80.0004937,11.4399287 80.0004937,11.418532 C80.0184126,8.96058382 82.0472161,6.98239261 84.5319532,7.0001182 C87.0166904,7.01784379 89.0164418,9.02477385 88.9985231,11.482722 L88.9995063,11.482722 Z" id="Path" fill="#FBBEBE" fill-rule="nonzero"></path>
                            <path d="M90,40.9443126 C89.4350746,40.948152 87.5529223,40.9612063 85.4498337,40.9888505 L85.4246638,40.9888505 L84.7292276,40.9980653 L84.7077866,40.9980653 C82.2140978,41.0310848 79.7567657,40.6294752 78.7704768,40.7062648 C76.6729816,40.8682909 79.5227784,39.1113449 79.5227784,39.1113449 C79.5227784,39.1113449 81.7927343,39.6104773 84.3004064,39.509115 L84.9035528,39.4837745 C86.8099429,39.3946985 88.7256551,39.2472625 89.7249951,39 C89.7949116,39.4561302 89.8918625,40.1226639 90,40.9443126 Z" id="Path" fill="#000000" fill-rule="nonzero" opacity="0.1"></path>
                            <path d="M90,40.944334 C89.4350746,40.944334 87.5529223,40.9612212 85.4498337,40.9880873 L85.4246638,40.9880873 L84.7292276,40.9980661 L84.7077866,40.9980661 C82.2140978,41.0310729 79.7567657,40.6296175 78.7704768,40.70561 C76.6729816,40.8675739 79.5227784,39.1120698 79.5227784,39.1120698 C79.5227784,39.1120698 81.7927343,39.610243 84.3004064,39.5096872 L84.9035528,39.4835888 C86.8099429,39.3953146 88.7256551,39.2471676 89.7249951,39 C89.7949116,39.4559551 89.8918625,40.1199302 90,40.944334 Z" id="Path" fill="#E3A79F" fill-rule="nonzero"></path>
                            <path d="M83.8058129,17.6784892 L80.5286964,19.3001961 L78,40 C78,40 79.4959138,39.2842527 80.3508541,39.736252 C81.2057943,40.1882513 83.8410109,39.7744906 83.8410109,39.7744906 C83.8410109,39.7744906 85.764858,39.6607554 86.0501468,39.8872453 C86.3354356,40.1137352 89.682948,38.9450081 89.682948,38.9450081 C89.682948,38.9450081 90.2887237,37.5115526 89.8255925,37.2860431 C89.3624612,37.0605337 89.9682369,34.8348538 89.9682369,34.8348538 L89.682948,19.9031887 L89.1132967,17.9804757 L87.5812586,17 L86.01217,18.3197204 L85.2711601,18.4324751 L83.8058129,17.6784892 Z" id="Path" fill="#000000" fill-rule="nonzero" opacity="0.1"></path>
                            <path d="M83.8058129,16.6793828 L80.5286964,18.3008823 L78,39 C78,39 79.4959138,38.2833639 80.3508541,38.7362858 C81.2057943,39.1892076 83.8410109,38.7735391 83.8410109,38.7735391 C83.8410109,38.7735391 85.764858,38.6607988 86.0501468,38.8862794 C86.3354356,39.1117599 89.682948,37.9441627 89.682948,37.9441627 C89.682948,37.9441627 90.2887237,36.5118708 89.8255925,36.2854098 C89.3624612,36.0589489 89.9682369,33.8345339 89.9682369,33.8345339 L89.682948,18.9028174 L89.1132967,16.9803504 L87.5812586,16 L86.01217,17.3205319 L85.2711601,17.4322919 L83.8058129,16.6793828 Z" id="Path" fill="#E7EFFD" fill-rule="nonzero"></path>
                            <path d="M84.1375225,18.2901708 C84.1375225,18.2901708 85.3005402,19.4200641 85.2788548,19.6533204 C85.2571695,19.8865766 85.2137989,20.4426595 85.2137989,20.4426595 L84.334973,21.8963125 C84.334973,21.8963125 83.8521895,23.7082471 83.8521895,24.0851892 C83.8521895,24.4621314 83.0840728,27.7239869 83.0840728,27.7239869 L82.1630176,32.7473936 L81,39.3317512 L82.1847029,41 L83.589683,40.03152 L85.45462,28.2977972 L85.849521,25.9838952 C85.849521,25.9838952 86.2661073,21.8216705 86.2661073,21.391546 C86.2661073,20.9614214 86.0252862,19.8305951 86.0252862,19.8305951 C86.0252862,19.8305951 86.3106193,18.7538842 87.4953222,18.5029005 C88.6800251,18.2519168 87.4074396,18.448785 87.4074396,18.448785 L86.7226402,18 L86.1302888,18.1978013 C86.1302888,18.1978013 84.4890529,17.7882033 84.1375225,18.2901708 Z" id="Path" fill="#000000" fill-rule="nonzero" opacity="0.1"></path>
                            <path d="M83.6867061,18.2892378 C83.6867061,18.2892378 84.6840662,19.4191311 84.6654697,19.6523873 C84.6468732,19.8856436 84.6087014,20.4417265 84.6087014,20.4417265 L83.8560322,21.8953795 C83.8560322,21.8953795 83.446909,23.7054481 83.446909,24.0814571 C83.446909,24.4574662 82.7882011,27.7202548 82.7882011,27.7202548 L81.9924663,32.7511257 L81,39.3308182 L82.0169354,41 L83.2159208,40.0287209 L84.817178,28.2977972 L85.1558302,25.9838952 C85.1558302,25.9838952 85.5130789,21.8216705 85.5130789,21.390613 C85.5130789,20.9595554 85.3065598,19.8296621 85.3065598,19.8296621 C85.3065598,19.8296621 85.5512507,18.7538842 86.5672073,18.5019675 C87.5831639,18.2500507 86.4918425,18.448785 86.4918425,18.448785 L85.9045844,18 L85.4044362,18.1959353 C85.4044362,18.1959353 83.9881653,17.7844712 83.6867061,18.2892378 Z" id="Path" fill="#3F3D56" fill-rule="nonzero"></path>
                            <path d="M83.769,16 C83.769,16 83.615,16.1019504 83.577,16.7836879 C83.539,17.4654255 83,19 83,19 C83,19 85,17.7721631 86,17.9086879 L83.769,16 Z" id="Path" fill="#000000" fill-rule="nonzero" opacity="0.1"></path>
                            <path d="M83.769,16 C83.769,16 83.615,16.1019202 83.577,16.7843427 C83.539,17.4667651 83,19 83,19 C83,19 85,17.7734121 86,17.9098966 L83.769,16 Z" id="Path" fill="#E7EFFD" fill-rule="nonzero"></path>
                            <path d="M89.4171181,16 L86,18.3287503 C86,18.3287503 88.8754063,19.6550195 89.2502709,19.9788074 C89.6251354,20.3025954 90,16.8090494 90,16.8090494 L89.4171181,16 Z" id="Path" fill="#000000" fill-rule="nonzero" opacity="0.1"></path>
                            <path d="M89.409694,16 L86,18.328537 C86,18.328537 88.8735445,19.6548017 89.2493907,19.978794 C89.6252369,20.3027864 90,16.8070354 90,16.8070354 L89.409694,16 Z" id="Path" fill="#E7EFFD" fill-rule="nonzero"></path>
                            <path d="M83.9426325,15.0284211 C83.9426325,15.0284211 83.605579,14.8585072 83.2870343,15.3495878 C82.9684895,15.8406685 82.3693916,16.0665656 82.3693916,16.0665656 C82.3693916,16.0665656 78.9598912,16.6146116 78.829356,17.067388 L77.2376064,17.1656041 C77.2376064,17.1656041 76.6755259,17.2402484 76.6190256,18.4306279 C76.5625253,19.6210074 76.2595669,19.7310094 76.2595669,19.7310094 C76.2595669,19.7310094 75.6039686,20.9017457 75.6594948,21.5057749 C75.7150209,22.1098042 75.1539146,22.4123098 75.1539146,22.4123098 L77.4918577,28.5498359 C77.4918577,28.5498359 77.5668667,31.0808656 77.1353214,32.0060616 C76.7037761,32.9312575 75.899134,37.0298167 75.899134,37.0298167 C75.899134,37.0298167 76.2371616,36.9541903 76.2176787,37.1800874 C76.1981959,37.4059845 75.8056162,39.881031 75.8056162,39.881031 C75.8056162,39.881031 75.6935898,40.8631923 75.5065543,41.2030201 C75.3195189,41.5428479 75.300036,43.3185956 75.300036,43.3185956 L75,44.6022804 C75,44.6022804 75.7120985,46.2081142 76.7982679,45.9773063 C77.8844373,45.7464984 79.8638959,41.4691858 79.8638959,41.4691858 L81.118592,36.8422239 L82.092735,32.2722273 L82.3732882,29.1754727 L82.8233422,22.3199867 L83.4789404,17.7873122 C83.4789404,17.7873122 84.2056511,15.3495878 83.9426325,15.0284211 Z" id="Path" fill="#000000" fill-rule="nonzero" opacity="0.1"></path>
                            <path d="M83.943145,15.0284211 C83.943145,15.0284211 83.6057783,14.8585072 83.2869374,15.3495878 C82.9680965,15.8406685 82.3684417,16.0675477 82.3684417,16.0675477 C82.3684417,16.0675477 78.9557719,16.6146116 78.8251154,17.0683701 L77.230911,17.1665863 C77.230911,17.1665863 76.668308,17.2422127 76.6127303,18.43161 C76.5571525,19.6210074 76.2558625,19.7349381 76.2558625,19.7349381 C76.2558625,19.7349381 75.5996548,20.9056744 75.6562077,21.5097036 C75.7127605,22.1137328 75.1501575,22.4162385 75.1501575,22.4162385 L77.4902739,28.5537645 C77.4902739,28.5537645 77.5653527,31.0847943 77.1343812,32.0099902 C76.7034098,32.9351862 75.8970446,37.0337453 75.8970446,37.0337453 C75.8970446,37.0337453 76.2344114,36.9581189 76.2158855,37.1849982 C76.1973596,37.4118775 75.80344,39.8849596 75.80344,39.8849596 C75.80344,39.8849596 75.6913094,40.867121 75.503125,41.2069488 C75.3149407,41.5467766 75.2973898,43.3225242 75.2973898,43.3225242 L75,44.6022804 C75,44.6022804 75.7127605,46.2081142 76.7999396,45.9773063 C77.8871187,45.7464984 79.8557416,41.464275 79.8557416,41.464275 L81.1125792,36.8373131 L82.0876277,32.2663343 L82.3694167,29.1695797 L82.8189141,22.3140937 L83.4751218,17.7814192 C83.4751218,17.7814192 84.2054331,15.3495878 83.943145,15.0284211 Z" id="Path" fill="#65617D" fill-rule="nonzero"></path>
                            <path d="M71,30.2853176 L70.0677258,30.9965053 C70.0677258,30.9965053 68.6463211,31.0463808 67.6229097,30.7692947 L67.1045151,30.5143754 L67,30.4644999 L67.1070234,30.5014448 C67.6446488,30.6778562 68.0652174,30.6741618 68.3938127,30.5522439 C69.7132107,30.0618015 69.5643813,27.6548468 69.5167224,27.1099108 C69.5117057,27.0554172 69.5083612,27.0175488 69.5058528,27.0064653 C69.5056388,27.0043167 69.5056388,27.0021486 69.5058528,27 L69.5133779,27.0138543 C69.5312357,27.0465567 69.5516598,27.0774629 69.5744147,27.1062163 C69.5928094,27.1293068 69.6120401,27.153321 69.6329431,27.1754879 L69.6329431,27.1754879 L70.0986622,28.2044009 L70.1036789,28.2478111 L71,30.2853176 Z" id="Path" fill="#000000" fill-rule="nonzero" opacity="0.1"></path>
                            <path d="M75.4994607,23 L74.9638264,23.1468157 L74.887165,24.1954994 C74.887165,24.1954994 74.2549573,24.1001646 74.082718,24.8189896 C73.9104787,25.5378146 73.6048287,25.8676733 73.6048287,25.8676733 C73.6048287,25.8676733 72.551481,26.711387 72.493736,27.4254453 L71.8436074,27.8067849 C71.8436074,27.8067849 70.3302912,27.4692994 69.9868083,26.8868032 C69.9868083,26.8868032 70.6757654,31.6163668 67,30.460908 C67,30.460908 71.1158218,32.1845627 71.3069775,32.4228999 C71.4981332,32.6612372 72.7625487,33.3571818 73.9104787,32.7708723 C75.0584087,32.1845627 75.308305,31.2826947 75.308305,31.2826947 C75.308305,31.2826947 76.4184021,29.7973772 76.4572306,29.5771537 C76.4960591,29.3569301 77.353273,29.1004792 77.353273,29.1004792 L79,25.2870839 L75.4994607,23 Z" id="Path" fill="#65617D" fill-rule="nonzero"></path>
                            <path d="M88.4008998,16.502863 L88.9749387,14 C88.9749387,14 89.2325864,14.8155507 89.490234,15.0048926 L90.3425325,15.6301153 C90.3425325,15.6301153 91.1948309,16.0097852 91.491641,16.0097852 C91.7884511,16.0097852 93.3941113,16.4042475 93.5919847,16.6162709 C93.7898581,16.8282944 94.5834129,16.673468 94.5834129,16.673468 C94.5834129,16.673468 95.2368074,16.8815468 95.8118769,17.0146778 C96.3869465,17.1478088 96.6641754,18.0580305 96.5446269,18.4179773 C96.4473171,18.7822717 96.5524047,19.1688559 96.8228863,19.4416069 C97.0599222,19.6694088 97.1794707,20.4090256 97.1794707,20.4090256 C97.4708407,20.4998281 97.7127949,20.6973132 97.8524464,20.9583143 C98.0513504,21.3754581 97.9915761,22.2856798 97.9915761,22.2856798 L95.038934,26.2677763 C95.038934,26.2677763 95.0780964,27.8042068 94.9595785,28.141472 C94.8410606,28.4787372 95.3718147,34.2852217 95.3718147,34.2852217 L95.9901691,44.2591999 C95.9901691,44.2591999 95.1780637,44.9228827 94.9997715,44.9988167 C94.8214793,45.0747507 94.6421566,41.4713379 94.6421566,41.3391931 C94.6421566,41.2070482 90.0653036,34.7782995 90.0653036,34.7782995 C90.0653036,34.7782995 89.4469492,33.8296178 89.4469492,33.621539 C89.4469492,33.4134601 88.8718797,31.4973597 88.8718797,31.4973597 L88,27.8002622 L88.4008998,16.502863 Z" id="Path" fill="#000000" fill-rule="nonzero" opacity="0.1"></path>
                            <path d="M97.999114,22.0746012 C97.999114,22.2047571 97.9918974,22.2915278 97.9918974,22.2915278 L95.0403082,26.2701596 L95.0403082,26.2701596 C95.0403082,26.2701596 95.0815459,27.8054086 94.9619566,28.1436169 C94.8928834,28.340823 95.044432,30.3819054 95.1846402,32.0571707 C95.2877345,33.2670297 95.3784575,34.2865849 95.3784575,34.2865849 L95.639286,38.5166544 L95.9918684,44.2592942 C95.9918684,44.2592942 95.1794855,44.9228925 95.0011324,44.9988168 C94.8227793,45.0747412 94.6444262,41.4717869 94.6444262,41.3386728 C94.6444262,41.2055587 90.0649784,34.7796 90.0649784,34.7796 C90.0649784,34.7796 89.4464127,33.831039 89.4464127,33.6229866 C89.4464127,33.4149343 88.8721776,31.4990776 88.8721776,31.4990776 L88,27.8014644 L88.395882,16.5025446 L88.7330003,14 C88.7330003,14 89.2288838,14.815447 89.4866195,15.0037787 C89.7443552,15.1921105 90.3381782,15.6299079 90.3381782,15.6299079 C90.3381782,15.6299079 91.1907679,16.0095295 91.4887104,16.0095295 C91.7866528,16.0095295 93.3918307,16.4039416 93.5897717,16.6159381 C93.7877128,16.8279346 94.5815387,16.6731278 94.5815387,16.6731278 C94.5815387,16.6731278 95.2351564,16.8811802 95.8093915,17.0142943 C96.3836267,17.1474083 96.6619812,18.0575142 96.5434228,18.4164292 C96.4454318,18.7808147 96.5501847,19.1677914 96.8207464,19.4409145 C97.0588942,19.6686875 97.1774526,20.4072241 97.1774526,20.4072241 C97.4694519,20.4986405 97.7118154,20.6967735 97.8516892,20.958415 C97.9908665,21.253238 98.0042687,21.7787921 97.999114,22.0746012 Z" id="Path" fill="#65617D" fill-rule="nonzero"></path>
                            <path d="M75,72 C75.0985686,72 79.074825,72.1577245 78.9989272,72.8275418 C78.9230294,73.497359 75,72 75,72 Z" id="Path" fill="#000000" fill-rule="nonzero" opacity="0.1"></path>
                            <path d="M76,73 C76,73 78.5589211,73.4771176 77.8878061,73.9132161 C77.216691,74.3493146 76,73 76,73 Z" id="Path" fill="#000000" fill-rule="nonzero" opacity="0.1"></path>
                            <path d="M85,73 C85,73 89.6205891,73.2593884 88.9295543,73.5955827 C88.2385196,73.9317771 86.5997506,73.9843285 86.5206872,73.9998244 C86.4416238,74.0153203 85,73 85,73 Z" id="Path" fill="#000000" fill-rule="nonzero" opacity="0.1"></path>
                            <path d="M85,74 C85,74 86.9397868,74.422817 86.9987563,74.8996107 C87.0577259,75.3764044 85,74 85,74 Z" id="Path" fill="#000000" fill-rule="nonzero" opacity="0.1"></path>
                            <path d="M87,63 C87,63 88.8885679,63.5977778 89,64 L87,63 Z" id="Path" fill="#000000" fill-rule="nonzero" opacity="0.1"></path>
                            <path d="M77.5274276,64 C77.5274276,64 76.3658025,64.288 77.4903959,64.864 C78.6149893,65.44 77.5274276,64 77.5274276,64 Z" id="Path" fill="#000000" fill-rule="nonzero" opacity="0.1"></path>
                            <path d="M83,46.2426901 C83.1174935,46.2426901 84.9416884,45.517235 85.5770235,45.8401254 C86.2123586,46.1630158 87,46.1619675 87,46.1619675 L83,46.2426901 Z" id="Path" fill="#000000" fill-rule="nonzero" opacity="0.1"></path>
                            <path d="M84,49.0689971 L83.9845702,49.2620669 L82.671565,54.0380043 C82.671565,54.0380043 82.4599559,55.4829794 82.2755327,56.3040341 C82.1598214,56.8614302 82.0678195,57.4277222 82,58 L83.1660544,48 L84,49.0689971 Z" id="Path" fill="#000000" fill-rule="nonzero" opacity="0.1"></path>
                            <path d="M86,40.9868221 L85.3814262,41 L85.3623549,41 L85,39.035479 C85.1782753,39.0243284 85.3565506,39.0131779 85.5364842,39 L86,40.9868221 Z" id="Path" fill="#3F3D56" fill-rule="nonzero"></path>
                            <path d="M95,38.599296 L94.5052009,38.9406408 L92.8524271,40.0807673 C92.8524271,40.0807673 88.3827071,42.0803205 87.1513907,40.1812648 C86.0657249,38.5083284 91.1335424,37.3136214 92.353496,37.0528478 C92.5198064,37.0173272 92.6138079,37 92.6138079,37 L95,38.599296 Z" id="Path" fill="#FBBEBE" fill-rule="nonzero"></path>
                            <path d="M77,20 C77,20 77.7993594,20.3684123 77.9807743,20.8855326 C78.1621892,21.402653 77,20 77,20 Z" id="Path" fill="#000000" fill-rule="nonzero" opacity="0.1"></path>
                            <path d="M74,26 C74,26 72.5525819,27.3894773 73.1404852,27.9239628 C73.7283886,28.4584484 74,26 74,26 Z" id="Path" fill="#000000" fill-rule="nonzero" opacity="0.1"></path>
                            <path d="M96,21 C96,21 95.0318792,21.103139 95,22 L96,21 Z" id="Path" fill="#000000" fill-rule="nonzero" opacity="0.1"></path>
                            <path d="M85,36 C85.1019504,35.8761311 87.4547872,31.6505856 88,32.0232695 L85,36 Z" id="Path" fill="#000000" fill-rule="nonzero" opacity="0.1"></path>
                            <path d="M88.9998805,10.6143598 C89.0007971,11.3682058 88.8180118,12.1105302 88.4678727,12.7749396 L88.4344378,12.768938 C88.149258,12.7079216 88.0007679,12.3688306 87.7824578,12.1587743 C87.5080604,11.8927773 87.0975987,11.8340522 86.7617109,12.0127351 C86.4241056,12.2185526 86.2299128,12.6008275 86.2601878,13 C86.1166146,12.3838347 86.16185,11.7286588 86.0212269,11.1114932 C85.8806037,10.4943276 85.4567676,9.8701601 84.8775576,9.85915715 C84.6277795,9.85915715 84.335716,9.95318238 84.1557578,9.7591303 C84.0466027,9.64409943 84.023985,9.45904978 83.9423646,9.32401354 C83.5283622,8.64183047 82.2706211,8.98692308 81.753364,9.33601676 C81.2557744,9.67210695 80.6401794,10.2442605 80,10.544341 C80.0179225,8.01640762 82.0471434,5.98189127 84.5323917,6.00012156 C87.0176401,6.01835185 89.017803,8.08242534 88.9998805,10.6103587 L88.9998805,10.6143598 Z" id="Path" fill="#000000" fill-rule="nonzero" opacity="0.1"></path>
                            <path d="M84.9435401,9.46290808 C85.0238451,9.59672838 85.0448774,9.77194633 85.1509948,9.88169823 C85.325945,10.0646181 85.6098807,9.97123267 85.8527079,9.97797182 C86.4157992,9.98759918 86.8278405,10.5893092 86.9645503,11.1833172 C87.1012601,11.7773253 87.0601515,12.4069546 87.1968613,13 C87.1675385,12.6158432 87.356791,12.2481029 87.6853836,12.0507423 C88.0114845,11.8789783 88.4099587,11.9350874 88.6767685,12.1903391 C88.8890032,12.3934763 89.0333611,12.7188811 89.3106047,12.777608 C89.5878483,12.8363349 89.8555318,12.5686943 89.9549571,12.2740971 C90.0543823,11.9794999 90.0505583,11.6569833 90.1136551,11.351796 C90.2388927,10.7741545 90.6126936,10.3014511 90.8201483,9.75269161 C91.0663741,9.08443372 91.0595675,8.34825974 90.801028,7.68473477 C90.6633622,7.33718708 90.4578196,7.0242979 90.3230218,6.67675021 C90.1107871,6.14917091 90.0553384,5.55420009 89.798171,5.05165191 C89.3650974,4.21022069 88.3459882,3.78854234 87.5085213,4.10528247 C87.1089082,4.25643201 86.7618757,4.54910374 86.3565264,4.68292404 C85.8125554,4.85814199 85.2322558,4.72624716 84.6691645,4.64730281 C84.1060732,4.56835846 83.4856212,4.56065657 83.0334273,4.9361236 C82.5133566,5.3645411 82.3709107,6.1703511 81.8862125,6.64112898 C81.6806698,6.83848986 81.4254145,6.96460827 81.2083997,7.1475281 C80.9913849,7.33044793 80.8049624,7.60193947 80.8259947,7.89942488 C80.8584991,8.28451927 81.231344,8.63110421 81.0936782,8.98635378 C81.0438811,9.08898517 80.9747175,9.18087098 80.8900475,9.25688259 C80.4800517,9.68890231 80.1753559,10.2109566 80,10.7818563 C80.9837368,11.0908946 82.0487346,9.99915201 82.8183245,9.48312554 C83.316407,9.1394288 84.5410589,8.81113584 84.9435401,9.46290808 Z" id="Path" fill="#7C5C5C" fill-rule="nonzero"></path>
                            <path d="M95,38.6482143 L94.6362946,39 C94.3158694,38.375 93,37.11875 93,37.11875 L93.0569476,37.0544643 C93.1791951,37.0178571 93.2482916,37 93.2482916,37 L95,38.6482143 Z" id="Path" fill="#000000" fill-rule="nonzero" opacity="0.1"></path>
                            <path d="M96,37.7021168 C96,37.7021168 95.8268456,38.1188823 95.647651,38.4811177 C95.4684564,38.8433531 95.2741611,39.1685859 95.264094,38.9027519 C95.2449664,38.3779001 93,36.6173582 93,36.6173582 L93.3020134,36.3310754 L93.6553691,36 L96,37.7021168 Z" id="Path" fill="#E7EFFD" fill-rule="nonzero"></path>
                            <path d="M95.7694411,34.415967 L96,39 C95.4532199,38.0073271 93.9614216,35.4631354 93,35.5454129 L95.3311057,32.4028393 C95.4279569,32.2759707 95.5171753,32.141367 95.5981166,32 C95.6874241,33.3110975 95.7694411,34.415967 95.7694411,34.415967 Z" id="Path" fill="#000000" fill-rule="nonzero" opacity="0.1"></path>
                            <path d="M95,38.3720565 C95,38.3720565 94.8715459,38.7080063 94.7386109,39 C94.2382375,38.2786499 93.5496639,37.4262166 93,37.266876 L93.2621359,37 L95,38.3720565 Z" id="Path" fill="#000000" fill-rule="nonzero" opacity="0.1"></path>
                            <path d="M97.6605905,23 L98.3368599,23.5199545 C98.3368599,23.5199545 99.4636498,23.5392837 99.5770129,24.46805 C99.6903759,25.3968164 100.723348,25.8210915 100.723348,25.8210915 C100.723348,25.8210915 101.493435,26.5826606 101.493435,26.9354179 C101.493435,27.2881751 102.079796,27.9212052 102.079796,27.9762933 C102.079796,28.0313815 102.643679,29.1660034 102.56843,29.3699261 C102.49318,29.5738488 103.16945,30.4668562 102.959337,30.8012507 C102.789276,31.1011617 102.638479,31.4113641 102.507839,31.7300171 C102.507839,31.7300171 101.628298,33.4029562 101.173869,33.7189881 C100.719439,34.0350199 98.6564265,36.6918135 98.6564265,36.6918135 C98.6564265,36.6918135 96.4390057,39.2191018 96.4390057,40 C96.4390057,40 94.2772891,36.4318363 93,36.5207504 L95.498874,33.6774304 C95.498874,33.6774304 95.9318037,33.2135304 95.9503717,32.934224 C95.9689398,32.6549176 97.1524112,31.373394 97.7162948,31.3173394 C97.7162948,31.3173394 97.8140216,30.5557703 97.5657956,30.5374076 C97.3175695,30.5190449 97.1152751,29.9237067 97.1152751,29.9237067 C97.1152751,29.9237067 95.4617378,27.9907902 95.4431697,26.7643547 C95.4246016,25.5379193 97.6605905,23 97.6605905,23 Z" id="Path" fill="#65617D" fill-rule="nonzero"></path>
                            <path d="M98,26 C98,26 96.7737453,26.7331496 97.0370562,26.969332 C97.300367,27.2055144 98,26 98,26 Z" id="Path" fill="#000000" fill-rule="nonzero" opacity="0.1"></path>
                            <path d="M98,29.2426901 C98,29.2426901 100.7215,28.1505848 101,29.2426901 L98,29.2426901 Z" id="Path" fill="#000000" fill-rule="nonzero" opacity="0.1"></path>
                            <path d="M80,79.2726238 C80,79.2726238 78.4909569,80.3176816 77.7369026,80.1616143 C76.9828482,80.0055471 76.2091717,80.4283115 76.2091717,80.4283115 C75.6893262,81.0287166 75.0337632,81.4797344 74.3039464,81.7390787 C73.0826961,82.1756718 71.3764963,82.0047881 70.4065974,81.6620328 C69.9468765,81.5010268 69.9104352,81.2916201 70.1309517,81.0348006 C71.1858803,81.2570483 73.5433513,81.6985802 74.1787379,81.3775559 C75.0047404,80.9597303 76.1904838,80.0480211 76.1904838,80.0480211 C76.1904838,80.0480211 77.7369026,79.8198468 77.9518127,79.8198468 C78.105053,79.8198468 79.2982716,79.2992935 79.9719682,79 L80,79.2726238 Z" id="Path" fill="#000000" fill-rule="nonzero" opacity="0.1"></path>
                            <path d="M89,81 C88.9905761,81.0500777 88.9862926,81.0804277 88.9862926,81.0804277 C88.9862926,81.0804277 88.6564575,81.7223322 86.8282287,81.9560279 C85,82.1897236 85,81.4157963 85,81.4157963 C85,81.4157963 85.0068537,81.3323335 85.0188477,81.2071394 C85.59713,81.4006212 86.8599272,81.6183831 89,81 Z" id="Path" fill="#000000" fill-rule="nonzero" opacity="0.1"></path>
                            <path d="M77.2410714,25 C77.2410714,25 77.2410714,28.6213569 76.8643973,28.979032 C76.4877232,29.3367071 77.2410714,25 77.2410714,25 Z" id="Path" fill="#000000" fill-rule="nonzero" opacity="0.1"></path>
                            <path d="M94,26 L94.9500913,27 C94.9500913,27 95.3287633,26.0185067 94,26 Z" id="Path" fill="#000000" fill-rule="nonzero" opacity="0.1"></path>
                            <g id="Group" opacity="0.1" transform="translate(80.000000, 9.000000)" fill="#000000" fill-rule="nonzero">
                                <path d="M1.18534483,1.19894737 C1.31905172,0.818947368 0.969137931,0.447368421 0.92362069,0.0410526316 C0.877058805,0.155890283 0.85685909,0.281746452 0.864827586,0.407368421 C0.888534483,0.713684211 1.09241379,1.00105263 1.14931034,1.28421053 C1.1638161,1.2571726 1.17588593,1.22861351 1.18534483,1.19894737 Z" id="Path"></path>
                                <path d="M7.23724138,5.55789474 C7.10637931,4.91894737 7.14241379,4.24315789 7.01155172,3.60526316 C6.88068966,2.96736842 6.46818966,2.29789474 5.90965517,2.28736842 C5.6687931,2.28736842 5.38715517,2.38526316 5.21267241,2.18210526 C5.10836207,2.06210526 5.08655172,1.86631579 5.00784483,1.72421053 C4.60862069,1.00631579 3.39577586,1.37052632 2.89603448,1.73789474 C2.14974138,2.28842105 1.12560345,3.43894737 0.169741379,3.17789474 C0.123275862,3.30105263 0.0806034483,3.42526316 0.0455172414,3.55263158 C1.0212931,3.89052632 2.07767241,2.69684211 2.84103448,2.13263158 C3.33887931,1.76526316 4.55362069,1.39578947 4.95284483,2.11894737 C5.0325,2.26526316 5.05336207,2.45684211 5.15862069,2.57684211 C5.33215517,2.77684211 5.6137931,2.67473684 5.85465517,2.68210526 C6.41318966,2.69263158 6.82189655,3.35052632 6.9575,4 C7.09310345,4.64947368 7.05232759,5.33789474 7.18793103,5.98631579 C7.17852405,5.84128926 7.19528829,5.69563716 7.23724138,5.55789474 L7.23724138,5.55789474 Z" id="Path"></path>
                                <path d="M9.9787069,4.79789474 C9.88387931,5.12 9.61931034,5.41473684 9.33862069,5.34842105 C9.05793103,5.28210526 8.92043103,4.92736842 8.71086207,4.70631579 C8.44604067,4.42674525 8.0502528,4.36537261 7.72655172,4.55368421 C7.41690052,4.7590429 7.23180172,5.13452657 7.24293103,5.53473684 C7.31580251,5.28701055 7.46886531,5.07809617 7.6725,4.94842105 C7.9959619,4.76061857 8.39121144,4.82196683 8.65586207,5.10105263 C8.86637931,5.32315789 9.00956897,5.67894737 9.28456897,5.74315789 C9.55956897,5.80736842 9.82508621,5.51473684 9.9237069,5.19263158 C9.97591488,5.0035168 10.0096151,4.80870837 10.0242241,4.61157895 C10.0123973,4.67463221 9.99719799,4.73684762 9.9787069,4.79789474 L9.9787069,4.79789474 Z" id="Path"></path>
                                <path d="M10.8359483,2.04105263 C10.6311207,2.64105263 10.2593966,3.15894737 10.1361207,3.79052632 C10.1114655,3.91789474 10.0972414,4.04842105 10.0830172,4.17894737 C10.2081897,3.54736842 10.577069,3.03368421 10.7818966,2.43578947 C10.8729481,2.1650952 10.9297532,1.88169589 10.9506897,1.59368421 C10.9226699,1.74580814 10.8843131,1.89535848 10.8359483,2.04105263 L10.8359483,2.04105263 Z" id="Path"></path>
                            </g>
                            <path d="M65.8673367,23.9604989 C65.8699968,23.9604942 65.872157,23.9626468 65.8721616,23.9653069 C65.8721616,23.9653125 65.8721616,23.9653181 65.8721616,23.9653238 L65.8709577,24.6542955 C65.870953,24.6569676 65.868788,24.6591326 65.8661159,24.6591373 C65.8634559,24.659142 65.8612957,24.6569893 65.861291,24.6543293 C65.861291,24.6543237 65.861291,24.654318 65.861291,24.6543124 L65.8624949,23.9653407 C65.8624996,23.9626686 65.8646646,23.9605036 65.8673367,23.9604989 Z" id="Rectangle" fill="#3A3768" fill-rule="nonzero" transform="translate(65.866726, 24.309818) rotate(-26.730000) translate(-65.866726, -24.309818) "></path>
                            <path d="M62.9918168,24.7627886 L62.991817,24.7627886 L62.9914145,24.9930876 L62.9914143,24.9930876 L62.9918168,24.7627886 Z" id="Rectangle" fill="#3A3768" fill-rule="nonzero" transform="translate(62.991616, 24.877938) rotate(-26.740000) translate(-62.991616, -24.877938) "></path>
                            <path d="M63.22099,25.1398425 L63.220992,25.1398425 L63.220292,25.5404468 L63.22029,25.5404468 L63.22099,25.1398425 Z" id="Rectangle" fill="#3A3768" fill-rule="nonzero" transform="translate(63.220641, 25.340145) rotate(-26.730000) translate(-63.220641, -25.340145) "></path>
                            <path d="M63.4632105,25.6232857 L63.4632116,25.6232856 L63.4625065,26.0267929 L63.4625054,26.0267929 L63.4632105,25.6232857 Z" id="Rectangle" fill="#3A3768" fill-rule="nonzero" transform="translate(63.462859, 25.825039) rotate(-26.730000) translate(-63.462859, -25.825039) "></path>
                            <path d="M65.1610613,23.1602519 C65.9392233,23.1588886 66.5711534,23.7886084 66.5725167,24.5667704 C66.5725196,24.5684139 66.5725196,24.5700574 66.5725167,24.5717009 L66.5673873,27.5071318 C66.5660214,28.2888207 65.9326795,28.9221655 65.1509906,28.923535 C64.3728286,28.9248983 63.7408985,28.2951785 63.7395352,27.5170165 C63.7395324,27.515373 63.7395324,27.5137295 63.7395352,27.512086 L63.7446646,24.5766551 C63.7460305,23.7949662 64.3793725,23.1616214 65.1610613,23.1602519 Z" id="Rectangle" fill="#3A3768" fill-rule="nonzero" transform="translate(65.156026, 26.041893) rotate(-26.730000) translate(-65.156026, -26.041893) "></path>
                            <path d="M64.5423704,23.1383038 C64.5203937,23.1497144 64.5035958,23.171402 64.4961308,23.1980034 C64.4886658,23.2246048 64.4912306,23.2536361 64.5031911,23.277918 L64.5117083,23.2967313 C64.5236181,23.3211396 64.5260599,23.3502765 64.5184267,23.3768983 C64.5107936,23.40352 64.4938023,23.4251263 64.4716772,23.4363455 L63.5271143,23.9898515 C63.5062275,24.0037561 63.4812554,24.0067378 63.4583734,23.9980594 C63.4354915,23.9893809 63.4168362,23.9698525 63.4070211,23.9443036 L63.3985039,23.9245002 C63.3886887,23.8989512 63.3700335,23.8794228 63.3471516,23.8707444 C63.3242696,23.8620659 63.2992974,23.8650477 63.2784107,23.8789523 L63.0944381,23.9858908 C63.053722,24.009452 63.0228012,24.0509637 63.0085629,24.10118 C62.9943245,24.1513964 62.997951,24.206147 63.0186346,24.2532371 L65.0278536,28.8902111 C65.0481204,28.9375456 65.0838279,28.9734924 65.127023,28.9900453 C65.1702181,29.0065981 65.2173133,29.0023821 65.2578193,28.9783364 L66.905907,28.012919 C66.9463992,27.9893543 66.9771545,27.9480163 66.9913781,27.8980378 C67.0056017,27.8480593 67.002123,27.7935537 66.9817105,27.7465628 L64.9750466,23.1085987 C64.9546258,23.0616978 64.9190029,23.02616 64.8760271,23.0098158 C64.8330512,22.9934715 64.786249,22.9976618 64.7459327,23.0214636 L64.5423704,23.1383038 Z" id="Path" fill="#82A946" fill-rule="nonzero"></path>
                            <path d="M63.6973646,23.6885218 L64.0887241,23.6878361 C64.0896547,23.6878345 64.0904104,23.6885875 64.090412,23.6895181 C64.090412,23.68952 64.090412,23.689522 64.090412,23.689524 C64.0904104,23.6904587 64.089653,23.6912161 64.0887182,23.6912177 L63.6973587,23.6919034 C63.6964282,23.691905 63.6956725,23.691152 63.6956709,23.6902214 C63.6956709,23.6902195 63.6956709,23.6902175 63.6956709,23.6902155 C63.6956725,23.6892808 63.6964299,23.6885234 63.6973646,23.6885218 Z" id="Rectangle" fill="#E6E8EC" fill-rule="nonzero" transform="translate(63.893041, 23.689870) rotate(-26.730000) translate(-63.893041, -23.689870) "></path>
                            <ellipse id="Oval" fill="#E6E8EC" fill-rule="nonzero" cx="64" cy="24" rx="1" ry="1"></ellipse>
                            <path d="M16.187081,7.01267066 C16.187081,7.01267066 26.0693994,6.42539651 24.9045595,13.2471971 C24.9045595,13.2471971 25.1354928,14.4498063 24.0266059,15 C24.0266059,15 24.0093114,14.4989128 23.0092785,14.666276 C22.6543988,14.72429 22.2938373,14.7411077 21.9349808,14.7163847 C21.4501855,14.6845257 20.9892865,14.4972807 20.6226285,14.1832279 L20.6226285,14.1832279 C20.6226285,14.1832279 17.849394,13.0557818 16.7679749,8.5800713 C16.7679749,8.5800713 15.9693729,7.60395351 16.0009101,7.35340993 L17.6683097,8.05493195 C17.6683097,8.05493195 17.0986063,9.24050417 17.5472477,10.2256415 C17.5472477,10.2256415 17.6011661,8.09802545 17.9216242,8.14813416 C17.9867332,8.15915808 18.7883871,8.55902564 18.7883871,8.55902564 C18.7883871,8.55902564 17.8076835,10.6235047 18.5472806,12.1237597 C18.5472806,12.1237597 18.2664982,9.58024127 19.0946027,8.70834961 L20.2685985,9.3838151 C20.2685985,9.3838151 19.1220705,11.5154399 19.8993087,13.2562167 C19.8993087,13.2562167 19.6958432,10.5874265 20.5097051,9.54817169 L21.5738296,10.3649438 C21.5738296,10.3649438 20.4974972,12.4695098 21.1536734,13.9096343 C21.1536734,13.9096343 21.2391289,10.8028939 21.8037456,10.5683852 C21.8037456,10.5683852 22.7346001,11.3771398 22.877026,11.7088595 C22.877026,11.7088595 22.1394636,13.2341688 22.5972609,14.039917 C22.5972609,14.039917 22.877026,11.970427 23.1059246,11.9604053 C23.1059246,11.9604053 24.0337272,13.3323819 24.1303733,14.2714193 C24.1303733,14.2714193 24.0896802,12.8733861 23.330754,11.8291204 C23.330754,11.8291204 24.2270194,11.9804488 24.7550124,12.5536925 C24.7550124,12.5536925 24.6105519,11.5835877 23.1059246,11.4994051 C23.1059246,11.4994051 22.3398771,10.4591481 22.134377,10.3970133 C22.134377,10.3970133 23.6308656,10.2737459 24.5383216,10.6696048 C24.5383216,10.6696048 23.7397196,9.7546196 21.8607159,10.1685176 L20.810834,9.32468682 C20.810834,9.32468682 22.7803799,9.05810845 23.6156057,9.35174552 C23.6156057,9.35174552 22.6542313,8.54299085 20.5269997,9.13226935 L19.381489,8.45981038 C19.381489,8.45981038 21.0610966,8.10303632 22.0621467,8.23231681 C22.0621467,8.23231681 21.0061609,7.67109919 19.0467883,8.279419 L18.2329264,7.91763407 C18.2329264,7.91763407 19.4638925,7.67911658 19.8240264,7.64203613 C20.1841603,7.60495568 20.2034896,7.50574042 20.2034896,7.50574042 C19.4240556,7.37810339 18.6239597,7.4658715 17.8921217,7.75929053 C17.8921217,7.75929053 16.1575785,7.11990331 16.187081,7.01267066 Z" id="Path" fill="#82A946" fill-rule="nonzero" opacity="0.1"></path>
                            <path d="M22.0834507,25.0063488 C22.0834507,25.0063488 26.474934,24.7124534 25.9576415,28.1238588 C25.9576415,28.1238588 26.057698,28.7260672 25.5674208,29 C25.5674208,29 25.5594163,28.747139 25.1171662,28.832535 C24.9595842,28.8623173 24.7993324,28.870882 24.6398963,28.8580429 C24.4244965,28.8420706 24.2196842,28.7486162 24.0565664,28.5918735 L24.0565664,28.5918735 C24.0565664,28.5918735 22.8218682,28.0262633 22.3415966,25.7893307 C22.3415966,25.7893307 21.9863958,25.3024624 22.0004037,25.1771409 L22.741823,25.5275974 C22.741823,25.5275974 22.4886798,26.1198245 22.6877924,26.612238 C22.6877924,26.612238 22.711806,25.5486691 22.8538863,25.574177 C22.8829027,25.5797222 23.2391042,25.7793493 23.2391042,25.7793493 C23.2391042,25.7793493 22.803858,26.8118651 23.1320436,27.5615758 C23.1320436,27.5615758 23.0079735,26.2906165 23.3751811,25.853655 L23.8974765,26.191912 C23.8974765,26.191912 23.3841862,27.257699 23.730382,28.1338402 C23.730382,28.1338402 23.6413316,26.8029928 24.0035364,26.2795261 L24.4768041,26.6876527 C24.4768041,26.6876527 23.9985336,27.7390221 24.2896983,28.4621159 C24.2896983,28.4621159 24.3277198,26.9094606 24.5788618,26.7907934 C24.5788618,26.7907934 24.9920955,27.1944837 25.0561317,27.3608396 C25.0561317,27.3608396 24.7279461,28.1238588 24.9310609,28.5264401 C24.9310609,28.5264401 25.0561317,27.4917063 25.1581894,27.4872701 C25.1581894,27.4872701 25.5704225,28.1726565 25.6134468,28.6428893 C25.6134468,28.6428893 25.5954366,27.9430854 25.258246,27.4229459 C25.4957191,27.473289 25.7147857,27.5993221 25.8886024,27.7856018 C25.8886024,27.7856018 25.8245662,27.3009515 25.1561882,27.258808 C25.1561882,27.258808 24.8159959,26.7386685 24.7249444,26.7042883 C24.7249444,26.7042883 25.3893201,26.6421821 25.7925481,26.8407001 C25.7925481,26.8407001 25.4383478,26.3837759 24.6028754,26.5911662 L24.1356111,26.1686222 C24.1356111,26.1686222 25.0111062,26.0366465 25.3823161,26.1830397 C25.3823161,26.1830397 24.9550745,25.7782403 24.0105404,26.0721358 L23.502253,25.7394239 C23.502253,25.7394239 24.2486751,25.5619776 24.6929263,25.62852 C24.6929263,25.62852 24.2236609,25.347933 23.3531687,25.6518098 L22.9899633,25.4710364 C22.9899633,25.4710364 23.5362722,25.3512601 23.6973633,25.3324064 C23.8584544,25.3135528 23.8654584,25.264755 23.8654584,25.264755 C23.5193057,25.2006675 23.1638957,25.2444387 22.8388778,25.3911855 C22.8388778,25.3911855 22.0674416,25.0595827 22.0834507,25.0063488 Z" id="Path" fill="#82A946" fill-rule="nonzero" opacity="0.1"></path>
                            <path d="M8.08345065,8.00628603 C8.08345065,8.00628603 12.474934,7.71357629 11.9576415,11.1229795 C11.9576415,11.1229795 12.057698,11.726139 11.5674208,12 C11.5674208,12 11.5594163,11.7472052 11.1171662,11.8325789 C10.9595308,11.8618067 10.7993381,11.870366 10.6398963,11.8580801 C10.4243943,11.8417203 10.2195909,11.747905 10.0565664,11.5908716 L10.0565664,11.5908716 C10.0565664,11.5908716 8.82186822,11.0265184 8.34159663,8.79017159 C8.34159663,8.79017159 7.98639577,8.30232202 8.00040369,8.17703338 L8.74182295,8.52739807 C8.74182295,8.52739807 8.4886798,9.1205788 8.6877924,9.61286336 C8.6877924,9.61286336 8.71180598,8.54957305 8.85388632,8.57507428 C8.88290273,8.57507428 9.23910416,8.78019285 9.23910416,8.78019285 C9.23910416,8.78019285 8.80385803,9.81243818 9.13204362,10.5619525 C9.13204362,10.5619525 9.00797346,9.2902174 9.37518111,8.85447903 L9.89747646,9.18710374 C9.89747646,9.18710374 9.38818846,10.2537203 9.73338367,11.1229795 C9.73338367,11.1229795 9.64433331,9.7924807 10.0065381,9.27025991 L10.4798058,9.67827955 C10.4798058,9.67827955 10.0015353,10.7293736 10.2927,11.452278 C10.2927,11.452278 10.3307215,9.90002936 10.5818635,9.78250196 C10.5818635,9.78250196 10.9950971,10.1860866 11.0591334,10.352399 C11.0591334,10.352399 10.7309478,11.1152183 10.9340626,11.5176942 C10.9340626,11.5176942 11.0591334,10.4832313 11.1611911,10.4776876 C11.1611911,10.4776876 11.5734242,11.1640032 11.6164485,11.6330041 C11.6164485,11.6330041 11.5984383,10.9344922 11.2612477,10.4133802 C11.4988949,10.4631529 11.7180984,10.5892317 11.8916041,10.7759411 C11.8916041,10.7759411 11.8275679,10.290309 11.1591899,10.2481765 C11.1591899,10.2481765 10.8189976,9.72817326 10.7279461,9.69380204 C10.7279461,9.69380204 11.3923218,9.63171209 11.7955498,9.83017817 C11.7955498,9.83017817 11.4413495,9.37226482 10.6058771,9.58070964 L10.1426151,9.16271126 C10.1426151,9.16271126 11.0181102,9.02966138 11.3893201,9.177125 C11.3893201,9.177125 10.9620785,8.7724316 10.0175444,9.06625009 L9.50925693,8.73362539 C9.50925693,8.73362539 10.255679,8.5551168 10.6999302,8.62275049 C10.6999302,8.62275049 10.2306649,8.34223698 9.36017262,8.64603422 L8.99696723,8.46530812 C8.99696723,8.46530812 9.54427673,8.34667198 9.70436726,8.32782325 C9.86445779,8.30897451 9.87246231,8.26018956 9.87246231,8.26018956 C9.52556856,8.19317303 9.16868368,8.23464 8.84187953,8.37993445 C8.84187953,8.37993445 8.07044329,8.06061473 8.08345065,8.00628603 Z" id="Path" fill="#82A946" fill-rule="nonzero" opacity="0.1"></path>
                            <ellipse id="Oval" fill="#82A946" fill-rule="nonzero" cx="103.5" cy="75.5" rx="4.5" ry="1"></ellipse>
                            <path d="M105.61376,73.4931339 C105.782486,73.3639738 105.938558,73.2138689 105.987488,73.0267613 C106.036419,72.8396537 105.940245,72.6197325 105.726807,72.5520107 C105.487216,72.4766091 105.231596,72.6141472 105.037561,72.7523834 C104.843526,72.8906196 104.620808,73.0498006 104.366876,73.0204778 C104.632598,72.8212479 104.752393,72.521181 104.682393,72.2301577 C104.672532,72.1712575 104.643355,72.1157202 104.59803,72.0695803 C104.46558,71.9515908 104.224302,71.999764 104.064856,72.0947142 C103.558678,72.3893388 103.417792,72.9583413 103.415261,73.4707927 C103.3638,73.2857796 103.406825,73.0930867 103.405981,72.9038847 C103.405138,72.7146826 103.341866,72.5045356 103.152893,72.4026039 C103.032434,72.3492556 102.897162,72.3230143 102.760605,72.3265042 C102.532825,72.3195225 102.279736,72.3383729 102.124508,72.475911 C101.931317,72.6469608 101.981091,72.9339056 102.149817,73.1224096 C102.318543,73.3109135 102.571632,73.428903 102.807848,73.5587612 C102.996507,73.6517081 103.157413,73.7786642 103.278593,73.9301837 C103.293005,73.9524048 103.304597,73.9758018 103.313182,74 L104.73976,74 C105.057109,73.864064 105.351051,73.6935959 105.61376,73.4931339 L105.61376,73.4931339 Z" id="Path" fill="#82A946" fill-rule="nonzero"></path>
                            <ellipse id="Oval" fill="#82A946" fill-rule="nonzero" cx="14" cy="81.5" rx="4" ry="1"></ellipse>
                            <path d="M14.6151692,80.4963987 C14.7934365,80.3756845 14.9234758,80.2128264 14.9881055,80.029342 C15.0352583,79.8439454 14.9409526,79.621113 14.7276931,79.5533719 C14.4887138,79.4776089 14.2336597,79.6148737 14.0407616,79.7539211 C13.8478636,79.8929685 13.6249591,80.0516252 13.3720483,80.02132 C13.6369668,79.8218485 13.7565765,79.521369 13.6871152,79.2298192 C13.6760053,79.1703969 13.6456236,79.1146192 13.5992394,79.0684886 C13.466354,78.950833 13.2263031,79.0016388 13.0634114,79.0943371 C12.5586615,79.3893672 12.4204179,79.9598182 12.4150596,80.4732242 C12.3646917,80.2878276 12.407558,80.0953004 12.4054147,79.9054471 C12.4032714,79.7155939 12.342187,79.5043488 12.1492889,79.4027372 C12.0292788,79.3490176 11.8943557,79.3225768 11.7581345,79.3260828 C11.5320151,79.3189522 11.2791043,79.3385615 11.1237142,79.4758262 C10.9318878,79.6478529 10.9811839,79.9357523 11.1483623,80.1238229 C11.3155406,80.3118935 11.5705947,80.4313317 11.8052874,80.5614658 C11.9934878,80.6546717 12.1539428,80.7820333 12.2746726,80.9340416 C12.2885868,80.9551958 12.3004138,80.9772543 12.3100373,81 L13.7321247,81 C14.0525886,80.866244 14.349665,80.696821 14.6151692,80.4963987 L14.6151692,80.4963987 Z" id="Path" fill="#82A946" fill-rule="nonzero"></path>
                            <ellipse id="Oval" fill="#82A946" fill-rule="nonzero" cx="21" cy="76.5" rx="4" ry="1"></ellipse>
                            <path d="M24.6154278,75.4956869 C24.7936026,75.3749662 24.9234278,75.2121508 24.9877154,75.0287964 C25.0359947,74.8434658 24.9405089,74.6216037 24.7270068,74.5538867 C24.4888286,74.4772597 24.2334844,74.6153666 24.0392941,74.7543646 C23.8451038,74.8933625 23.6240916,75.0519627 23.3708932,75.0216683 C23.635903,74.8217995 23.7552289,74.5211201 23.6852455,74.2295582 C23.6741468,74.1704183 23.6437163,74.1149425 23.5972697,74.069176 C23.4653062,73.9506713 23.2249822,74.001459 23.0661968,74.0941243 C22.5608728,74.3899404 22.4224719,74.9592974 22.4171076,75.4725206 C22.3656096,75.28719 22.4085246,75.0947313 22.4074517,74.9049457 C22.4063788,74.71516 22.3430792,74.5048811 22.1510346,74.4024146 C22.0309316,74.3487024 21.8957549,74.3225589 21.7594354,74.3266786 C21.5319859,74.3195505 21.2787875,74.3382617 21.1242936,74.4763687 C20.9311761,74.6474431 20.9816012,74.9352401 21.1489697,75.1241347 C21.3163381,75.3130294 21.5716823,75.430643 21.8066419,75.5616219 C21.9947847,75.6547105 22.1553709,75.7816816 22.276561,75.9331741 C22.2907572,75.9544033 22.3022628,75.9767985 22.310893,76 L23.7345977,76 C24.054359,75.8658078 24.35068,75.6961513 24.6154278,75.4956869 Z" id="Path" fill="#82A946" fill-rule="nonzero"></path>
                            <path d="M62,25.0854574 L62,35.913563 C62.0004612,36.201863 61.8990092,36.4785051 61.7180587,36.6823643 C61.5371081,36.8862236 61.2915537,37.0005196 61.0356514,37 L60,37 L60,24 L61.0356514,24 C61.2914028,23.9994811 61.536825,24.1136427 61.7177504,24.3172898 C61.8986758,24.520937 62.0002299,24.797327 62,25.0854574 L62,25.0854574 Z" id="Path" fill="#C7CCE1" fill-rule="nonzero"></path>
                            <path d="M61.2410714,24.0205737 L61.2410714,36.9794263 C61.1547031,36.9932055 61.0668781,37 60.9788534,37 L60.7589286,37 L60.7589286,24 L60.9788534,24 C61.0668781,24 61.1547031,24.0067945 61.2410714,24.0205737 Z" id="Path" fill="#000000" fill-rule="nonzero" opacity="0.2"></path>
                            <rect id="Rectangle" fill="#DCDFED" fill-rule="nonzero" x="53" y="42" width="4" height="33"></rect>
                            <rect id="Rectangle" fill="#C7CCE1" fill-rule="nonzero" x="52" y="79" width="7" height="1"></rect>
                            <rect id="Rectangle" fill="#000000" fill-rule="nonzero" opacity="0.1" x="52" y="78.7573099" width="7" height="1"></rect>
                            <rect id="Rectangle" fill="#000000" fill-rule="nonzero" opacity="0.1" x="53" y="74" width="4" height="1"></rect>
                            <path d="M50.076341,75 L59.923659,75 C61.0047719,75 62.0416051,75.365249 62.8060674,76.0153964 C63.5705296,76.6655438 64,77.547333 64,78.4667802 L64,79 L46,79 L46,78.4667802 C46,77.547333 46.4294704,76.6655438 47.1939326,76.0153964 C47.9583949,75.365249 48.9952281,75 50.076341,75 L50.076341,75 Z" id="Path" fill="#DCDFED" fill-rule="nonzero"></path>
                            <rect id="Rectangle" fill="#000000" fill-rule="nonzero" opacity="0.1" x="53" y="47" width="4" height="4"></rect>
                            <rect id="Rectangle" fill="#000000" fill-rule="nonzero" opacity="0.1" x="53" y="47" width="4" height="4"></rect>
                            <rect id="Rectangle" fill="#DCDFED" fill-rule="nonzero" x="53" y="47" width="4" height="4"></rect>
                            <path d="M60,39.3035716 L60,40.6948053 C60,41.4156444 59.2732913,42 58.3768506,42 L52.6231494,42 C51.7267087,42 51,41.4156444 51,40.6948053 L51,39.3035716 C51.0002676,38.9576277 51.1714279,38.6259382 51.4758275,38.3814712 C51.7802271,38.1370041 52.1929311,37.9997849 52.6231494,38 L58.3768506,38 C58.8070689,37.9997849 59.2197729,38.1370041 59.5241725,38.3814712 C59.8285721,38.6259382 59.9997324,38.9576277 60,39.3035716 L60,39.3035716 Z" id="Path" fill="#C7CCE1" fill-rule="nonzero"></path>
                            <path d="M60,39.6108436 L60,39.7863708 C58.9293493,41.1813805 57.2652099,42 55.5,42 C53.7347901,42 52.0706507,41.1813805 51,39.7863708 L51,39.6108436 C51.0002675,39.1833566 51.1713702,38.773484 51.4756674,38.4713932 C51.7799646,38.1693023 52.1925298,37.9997389 52.6226034,38 L58.3743693,38 C58.804967,37.9989396 59.2183104,38.1681499 59.5232628,38.4703274 C59.8282151,38.7725049 59.9997334,39.1828344 60,39.6108436 L60,39.6108436 Z" id="Path" fill="#000000" fill-rule="nonzero" opacity="0.1"></path>
                            <path d="M50.4442364,24 L60.5557636,24 C60.8011086,24 61,24.2004321 61,24.4476776 L61,37.1961129 C61,39.8492265 58.8657589,42 56.2330391,42 L54.7669609,42 C52.1342411,42 50,39.8492265 50,37.1961129 L50,24.4476776 C50,24.2004321 50.1988914,24 50.4442364,24 L50.4442364,24 Z" id="Path" fill="#C7CCE1" fill-rule="nonzero"></path>
                            <path d="M51.7343248,18.0010968 L58.2656752,18.0010968 C59.2235164,18.0010968 60,18.8486499 60,19.8941596 L60,25.3177954 C60,25.6945666 59.720178,26 59.375,26 L50.625,26 C50.4592397,26 50.3002685,25.9281251 50.1830583,25.8001869 C50.065848,25.6722487 50,25.4987273 50,25.3177954 L50,19.8930628 C50,18.8475531 50.7764836,18 51.7343248,18 L51.7343248,18.0010968 Z" id="Path" fill="#C7CCE1" fill-rule="nonzero"></path>
                            <rect id="Rectangle" fill="#000000" fill-rule="nonzero" opacity="0.2" x="52" y="21.7573099" width="8" height="1"></rect>
                            <rect id="Rectangle" fill="#000000" fill-rule="nonzero" opacity="0.1" x="51" y="25" width="9" height="7"></rect>
                            <rect id="Rectangle" fill="#82A946" fill-rule="nonzero" x="51" y="25" width="9" height="7"></rect>
                            <g id="Group" opacity="0.1" transform="translate(51.000000, 33.000000)" fill="#000000" fill-rule="nonzero">
                                <rect id="Rectangle" x="0.00808988764" y="0.0703703704" width="2.02853933" height="1" rx="0.5"></rect>
                                <rect id="Rectangle" x="2.30359551" y="0.0703703704" width="2.02853933" height="1" rx="0.5"></rect>
                                <rect id="Rectangle" x="4.59910112" y="0.0703703704" width="2.02853933" height="1" rx="0.5"></rect>
                                <rect id="Rectangle" x="6.89561798" y="0.0703703704" width="2.02853933" height="1" rx="0.5"></rect>
                                <rect id="Rectangle" x="0.00808988764" y="1.10888889" width="2.02853933" height="1" rx="0.5"></rect>
                                <rect id="Rectangle" x="2.30359551" y="1.10888889" width="2.02853933" height="1" rx="0.5"></rect>
                                <rect id="Rectangle" x="4.59910112" y="1.10888889" width="2.02853933" height="1" rx="0.5"></rect>
                                <rect id="Rectangle" x="0.00808988764" y="2.12148148" width="2.02853933" height="1" rx="0.5"></rect>
                                <rect id="Rectangle" x="2.30359551" y="2.12148148" width="2.02853933" height="1" rx="0.5"></rect>
                                <rect id="Rectangle" x="4.59910112" y="2.12148148" width="2.02853933" height="1" rx="0.5"></rect>
                                <rect id="Rectangle" x="0.00808988764" y="3.23851852" width="2.02853933" height="1" rx="0.5"></rect>
                                <rect id="Rectangle" x="2.30359551" y="3.23851852" width="2.02853933" height="1" rx="0.5"></rect>
                                <rect id="Rectangle" x="4.59910112" y="3.23851852" width="2.02853933" height="1" rx="0.5"></rect>
                                <rect id="Rectangle" x="6.89561798" y="1.10888889" width="2.02853933" height="1" rx="0.5"></rect>
                                <rect id="Rectangle" x="7.02" y="2.06444444" width="1.79797753" height="1.89037037" rx="0.898988764"></rect>
                            </g>
                            <rect id="Rectangle" fill="#F2F3F3" fill-rule="nonzero" x="51" y="32" width="2" height="1" rx="0.5"></rect>
                            <rect id="Rectangle" fill="#F2F3F3" fill-rule="nonzero" x="53" y="32" width="2" height="1" rx="0.5"></rect>
                            <rect id="Rectangle" fill="#F2F3F3" fill-rule="nonzero" x="55" y="32" width="2" height="1" rx="0.5"></rect>
                            <rect id="Rectangle" fill="#D44F6A" fill-rule="nonzero" x="57" y="32" width="2" height="1" rx="0.5"></rect>
                            <rect id="Rectangle" fill="#F2F3F3" fill-rule="nonzero" x="51" y="33" width="2" height="1" rx="0.5"></rect>
                            <rect id="Rectangle" fill="#F2F3F3" fill-rule="nonzero" x="53" y="33" width="2" height="1" rx="0.5"></rect>
                            <rect id="Rectangle" fill="#F2F3F3" fill-rule="nonzero" x="55" y="33" width="2" height="1" rx="0.5"></rect>
                            <rect id="Rectangle" fill="#F2F3F3" fill-rule="nonzero" x="51" y="35" width="2" height="1" rx="0.5"></rect>
                            <rect id="Rectangle" fill="#F2F3F3" fill-rule="nonzero" x="53" y="35" width="2" height="1" rx="0.5"></rect>
                            <rect id="Rectangle" fill="#F2F3F3" fill-rule="nonzero" x="55" y="35" width="2" height="1" rx="0.5"></rect>
                            <rect id="Rectangle" fill="#F2F3F3" fill-rule="nonzero" x="51" y="37" width="2" height="1" rx="0.5"></rect>
                            <rect id="Rectangle" fill="#F2F3F3" fill-rule="nonzero" x="53" y="37" width="2" height="1" rx="0.5"></rect>
                            <rect id="Rectangle" fill="#F2F3F3" fill-rule="nonzero" x="55" y="37" width="2" height="1" rx="0.5"></rect>
                            <rect id="Rectangle" fill="#FECB42" fill-rule="nonzero" x="57" y="33" width="2" height="1" rx="0.5"></rect>
                            <rect id="Rectangle" fill="#97D25E" fill-rule="nonzero" x="57" y="36" width="1" height="2" rx="0.5"></rect>
                            <g id="Group"></g>
                            <rect id="Rectangle" fill="#C7CCE1" fill-rule="nonzero" x="55" y="30.9443116" width="1" height="1"></rect>
                            <rect id="Rectangle" fill="#C7CCE1" fill-rule="nonzero" x="56" y="30.9443116" width="1" height="1"></rect>
                            <rect id="Rectangle" fill="#C7CCE1" fill-rule="nonzero" x="57" y="30.9443116" width="1" height="1"></rect>
                        </g>
                    </g>
                </g>
            </g>
        </g>
    </g>
</svg>