<?xml version="1.0" encoding="UTF-8"?>
<svg width="118px" height="71px" viewBox="0 0 118 71" version="1.1" xmlns="http://www.w3.org/2000/svg" xmlns:xlink="http://www.w3.org/1999/xlink">
    <!-- Generator: sketchtool 58 (101010) - https://sketch.com -->
    <title>0452A060-4877-4EF9-AAE8-B5881E39C23C</title>
    <desc>Created with sketchtool.</desc>
    <g id="Page-1" stroke="none" stroke-width="1" fill="none" fill-rule="evenodd">
        <g id="Dashboard" transform="translate(-751.000000, -471.000000)" fill-rule="nonzero">
            <g id="Group-5" transform="translate(714.000000, 408.000000)">
                <g id="Group-18">
                    <g id="Request-Card" transform="translate(37.000000, 63.000000)">
                        <path d="M7.91446371,51.8574433 L7.18967319,49.12905 C5.90451786,48.6092286 4.58966603,48.1590025 3.25138198,47.7805167 L3.15986647,49.0485121 L2.7887827,47.6515691 C1.12908989,47.1992423 0,47 0,47 C0,47 1.52513837,52.5352725 4.72400871,56.767058 L8.45138629,57.3919505 L5.55568442,57.7904249 C5.95824149,58.2526132 6.39085895,58.6901782 6.85097463,59.1005285 C11.5044206,63.2230345 16.687495,65.1144644 18.427684,63.3251474 C20.167873,61.5358304 17.806207,56.7433558 13.1527557,52.6208485 C11.7101412,51.3428304 9.89790942,50.3172325 8.08387686,49.5100652 L7.91446371,51.8574433 Z" id="Path" fill="#E6E6E6"></path>
                        <path d="M14.1803789,49.3633125 L14.9929211,46.5697095 C14.2169609,45.450472 13.3811759,44.3778362 12.4895479,43.3569123 L11.7643458,44.4360104 L12.180374,43.0056837 C11.0658528,41.7547157 10.2519541,41 10.2519541,41 C10.2519541,41 8.64789252,46.6955681 9.07111299,52.090192 L11.7748372,54.5524969 L9.22060685,53.4245028 C9.30998611,54.0409087 9.43639734,54.650833 9.59909189,55.2506635 C11.2587076,61.2926098 14.4934277,65.6244684 16.8240466,64.926139 C19.1546655,64.2278095 19.698616,58.7637361 18.0390003,52.7217898 C17.5245029,50.8487271 16.5805048,49.010659 15.5229083,47.3656264 L14.1803789,49.3633125 Z" id="Path" fill="#E6E6E6"></path>
                        <rect id="Rectangle" fill="#3F3D56" x="0" y="64.8513167" width="118" height="1"></rect>
                        <path d="M18.1305666,34.1966837 C18.1305666,34.1966837 17.2087953,45.3676701 17.0108831,47.7614111 C16.8751735,49.2619466 16.5424132,50.7376812 16.0213234,52.1499371 C16.0213234,52.1499371 15.625499,52.9478516 15.625499,53.7457649 L15.625499,63.919166 C15.625499,63.919166 14.8338515,63.919166 15.0317637,64.7170805 C15.2296759,65.5149951 15.4275868,66.9113428 15.4275868,66.9113428 L18.3962672,66.9113428 C18.3962672,66.9113428 18.1983564,66.3129083 18.7920917,66.1134296 C19.3858269,65.913951 18.7920917,64.3181232 18.7920917,64.3181232 L21.9586843,52.3494157 L26.7085733,42.3754933 C26.7085733,42.3754933 29.4793415,51.3520239 30.0730781,52.3494157 C30.0730781,52.3494157 32.2501097,63.52021 32.6459355,64.5176019 C33.0417612,65.5149937 33.2396707,65.5149937 33.0417585,65.913951 C32.8438463,66.3129083 32.8438477,66.7118642 33.0417585,66.9113428 C33.2396694,67.1108215 37,66.9113428 37,66.9113428 L36.010439,52.748373 L34.2292318,35.7926982 L25.1252783,33 L18.1305666,34.1966837 Z" id="Path" fill="#2F2E41"></path>
                        <path d="M18.0176595,64.7997087 C18.0176595,64.7997087 17.0353177,61.3280481 15.4635688,64.028229 C13.8918198,66.72841 13.8918211,67.6927599 13.8918211,67.6927599 C13.8918211,67.6927599 11.3377304,71.3572921 14.8741629,70.9715516 C18.4105955,70.5858111 17.624721,68.8499814 17.624721,68.8499814 C17.624721,68.8499814 19,68.0785004 19,67.499891 C19,66.9212815 18.0176595,64.7997087 18.0176595,64.7997087 Z" id="Path" fill="#2F2E41"></path>
                        <path d="M33.9823405,64.7997098 C33.9823405,64.7997098 34.9646823,61.3280478 36.5364312,64.0282288 C38.1081802,66.7284098 38.1081789,67.6927611 38.1081789,67.6927611 C38.1081789,67.6927611 40.6622696,71.3572921 37.1258371,70.9715516 C33.5894045,70.5858111 34.375279,68.8499814 34.375279,68.8499814 C34.375279,68.8499814 33,68.0785003 33,67.4998908 C33,66.9212814 33.9823405,64.7997098 33.9823405,64.7997098 Z" id="Path" fill="#2F2E41"></path>
                        <path d="M25.0891097,7 C25.0891097,7 25.5113164,9.60000099 24.2446976,10.1999988 C22.9780788,10.7999967 26.9890401,13 28.0445556,13 C29.100071,13 31,11 31,11 C31,11 29.9444831,8 30.1555865,7.39999901 L25.0891097,7 Z" id="Path" fill="#A0616A"></path>
                        <circle id="Oval" fill="#A0616A" cx="27" cy="5" r="4"></circle>
                        <path d="M35,13.3089146 L29.962435,10.360827 C29.962435,10.360827 27.096202,13.5035569 23.995278,10 L18.6777534,11.3624946 L19.4837909,24.5981556 C19.4837909,24.5981556 18.274736,29.8534929 18.6777534,30.8267029 C19.0807708,31.7999129 17.6702078,32.1891975 18.0732266,32.3838397 C18.4762454,32.578482 18.0732266,33.9409766 18.0732266,33.9409766 C18.0732266,33.9409766 25.9320885,37.833818 34.5969772,34.9141866 L33.7909396,32.3838384 C34.0139764,31.7113606 33.8615716,30.9753057 33.3879209,30.4374171 C33.3879209,30.4374171 34.1939584,29.2695648 33.1864128,28.2963548 C33.1864128,28.2963548 33.5894302,26.5445757 32.5818847,25.7660066 L32.3803753,23.0410175 L32.9849034,21.6785229 L35,13.3089146 Z" id="Path" fill="#CFCCE0"></path>
                        <path d="M25.2046147,3.13297169 C25.2046147,3.13297169 24.7199369,4.16759881 26.6586506,3.75374745 C26.6586506,3.75374745 27.3856738,4.16759881 27.3856738,3.54682305 C27.3856738,3.54682305 28.3550306,4.58145017 28.5973695,3.96067313 C28.8397084,3.33989609 29.3243927,4.16759881 29.3243927,4.16759881 L29.8090704,3.13297169 L30.2937495,3.75374745 L31.9901086,3.75374745 C31.9901086,3.75374745 32.4747864,-0.384759726 26.6586454,0.0290916346 C20.8425044,0.442942995 23.7037447,7 23.7037447,7 C23.7037447,7 23.7505801,5.82300168 24.2352578,6.44377872 C24.7199356,7.06455576 25.2046147,3.13297169 25.2046147,3.13297169 Z" id="Path" fill="#2F2E41"></path>
                        <path d="M36.61503,22 L36.8075149,26.0821367 C36.8075149,26.0821367 37.5774546,33.6632512 36.0375765,36.9678295 L36.0375765,38.7173157 C36.0375765,38.7173157 35.6526067,43.1882278 33.7277588,42.9938401 C31.8029109,42.7994525 34.3052135,36.5790542 34.3052135,36.5790542 L33.9202437,28.0260054 L33.5352752,23.1663207 L36.61503,22 Z" id="Path" fill="#A0616A"></path>
                        <path d="M32.702703,13.3201675 L34.5899598,13 C35.949452,14.3639345 36.8755358,16.1304989 37.2432438,18.0613105 C37.8108106,21.2220725 38,21.8147146 38,21.8147146 L33.4594604,23 L31,18.0613092 L32.702703,13.3201675 Z" id="Path" fill="#CFCCE0"></path>
                        <rect id="Rectangle" fill="#FFFFFF" x="24" y="12" width="31" height="15"></rect>
                        <path d="M27.832024,12.399404 C27.1443659,11.9495899 26.3152092,11.9839472 26,12.0183046 C26.1200395,12.3370873 26.4802116,13.1501946 27.1678698,13.6002335 C27.8572072,14.0511858 28.6852626,14.0158033 29,13.9816771 C28.8800108,13.6630062 28.5197884,12.8495585 27.832024,12.399404 Z" id="Path" fill="#82A946"></path>
                        <path d="M31.9129787,22 L27.0870213,22 C26.6988068,21.999612 26.3399011,22.1901258 26.1456719,22.4996863 C25.9514427,22.8092468 25.9514427,23.1907532 26.1456719,23.5003137 C26.3399011,23.8098742 26.6988068,24.000388 27.0870213,24 L31.9129787,24 C32.3011932,24.000388 32.6600989,23.8098742 32.8543281,23.5003137 C33.0485573,23.1907532 33.0485573,22.8092468 32.8543281,22.4996863 C32.6600989,22.1901258 32.3011932,21.999612 31.9129787,22 L31.9129787,22 Z" id="Path" fill="#82A946"></path>
                        <path d="M54.5167312,10 L26.4832688,10 C25.8246645,10 25.1930346,10.2668952 24.727331,10.7419753 C24.2616275,11.2170554 24,11.8614027 24,12.5332674 L24,26.4667326 C24,27.1385969 24.2616294,27.7829433 24.7273326,28.2580231 C25.1930358,28.7331029 25.824665,29 26.4832688,29 L54.5167312,29 C55.8882027,29 57,27.8658175 57,26.4667326 L57,12.5332674 C57,11.8614027 56.7383725,11.2170554 56.272669,10.7419753 C55.8069654,10.2668952 55.1753355,10 54.5167312,10 Z M25.7896723,11.728077 C25.8450313,11.7178658 27.157715,11.4899786 28.2446889,12.1572008 C29.331603,12.824297 29.7492059,14.1142835 29.7664186,14.1688279 L29.8103631,14.3079241 L29.6693105,14.3334521 C29.4680839,14.3654973 29.2646299,14.3807404 29.0609732,14.3790298 C28.4148952,14.3916306 27.7772752,14.2276884 27.2142328,13.9042036 C26.1273187,13.2372308 25.7097769,11.9472443 25.6925656,11.8927012 L25.6486197,11.7536051 L25.7896723,11.728077 Z M31.874999,24.6644248 L26.8749997,24.6644248 C26.1156083,24.6644248 25.4999999,24.0364217 25.4999999,23.2617406 C25.4999999,22.4870594 26.1156083,21.8590563 26.8749997,21.8590563 L31.874999,21.8590563 C32.6343904,21.8590563 33.2499987,22.4870594 33.2499987,23.2617406 C33.2499987,24.0364217 32.6343904,24.6644248 31.874999,24.6644248 L31.874999,24.6644248 Z M54.6249999,24.4093922 C54.622576,25.2534727 53.952421,25.9371208 53.1249999,25.9395934 L49.3750001,25.9395934 C48.5475791,25.9371208 47.877424,25.2534727 47.8750001,24.4093922 L47.8750001,22.1140944 C47.8774211,21.2700126 48.5475779,20.5863628 49.3750001,20.5838931 L53.1249999,20.5838931 C53.9524222,20.5863628 54.6225789,21.2700126 54.6249999,22.1140944 L54.6249999,24.4093922 Z" id="Shape" fill="#82A946"></path>
                        <path d="M49.6499994,24 L48.3500006,24 C48.1567006,24 48,24.2238576 48,24.5 C48,24.7761424 48.1567006,25 48.3500006,25 L49.6499994,25 C49.8432994,25 50,24.7761424 50,24.5 C50,24.2238576 49.8432994,24 49.6499994,24 Z M49.6499994,24.714286 L48.3500006,24.714286 C48.2963154,24.7144895 48.2466471,24.6736915 48.2197632,24.6073073 C48.1928793,24.5409231 48.1928793,24.4590754 48.2197632,24.3926912 C48.2466471,24.326307 48.2963154,24.285509 48.3500006,24.2857124 L49.6499994,24.2857124 C49.7326865,24.2860277 49.7996011,24.3818746 49.7996011,24.4999992 C49.7996011,24.6181238 49.7326865,24.7139708 49.6499994,24.714286 L49.6499994,24.714286 Z" id="Shape" fill="#82A946"></path>
                        <path d="M52.65,24 L51.35,24 C51.1567003,24 51,24.2238576 51,24.5 C51,24.7761424 51.1567003,25 51.35,25 L52.65,25 C52.8432997,25 53,24.7761424 53,24.5 C53,24.2238576 52.8432997,24 52.65,24 Z M52.65,24.714286 L51.35,24.714286 C51.296315,24.7144895 51.2466467,24.6736915 51.2197628,24.6073073 C51.1928789,24.5409231 51.1928789,24.4590754 51.2197628,24.3926912 C51.2466467,24.326307 51.296315,24.285509 51.35,24.2857124 L52.65,24.2857124 C52.7326869,24.2860277 52.7996014,24.3818746 52.7996014,24.4999992 C52.7996014,24.6181238 52.7326869,24.7139708 52.65,24.714286 L52.65,24.714286 Z" id="Shape" fill="#82A946"></path>
                        <path d="M49.6499994,23 L48.3500006,23 C48.1567006,23 48,23.2238576 48,23.5 C48,23.7761424 48.1567006,24 48.3500006,24 L49.6499994,24 C49.8432994,24 50,23.7761424 50,23.5 C50,23.2238576 49.8432994,23 49.6499994,23 L49.6499994,23 Z M49.6499994,23.7142853 L48.3500006,23.7142853 C48.2964107,23.7142853 48.2468917,23.6734428 48.2200968,23.6071427 C48.1933019,23.5408425 48.1933019,23.4591575 48.2200968,23.3928573 C48.2468917,23.3265572 48.2964107,23.2857147 48.3500006,23.2857147 L49.6499994,23.2857147 C49.7035893,23.2857147 49.7531083,23.3265572 49.7799032,23.3928573 C49.8066981,23.4591575 49.8066981,23.5408425 49.7799032,23.6071427 C49.7531083,23.6734428 49.7035893,23.7142853 49.6499994,23.7142853 L49.6499994,23.7142853 Z" id="Shape" fill="#82A946"></path>
                        <path d="M52.65,23 L51.35,23 C51.1567003,23 51,23.2238576 51,23.5 C51,23.7761424 51.1567003,24 51.35,24 L52.65,24 C52.8432997,24 53,23.7761424 53,23.5 C53,23.2238576 52.8432997,23 52.65,23 L52.65,23 Z M52.65,23.7142853 L51.35,23.7142853 C51.2964103,23.7142853 51.2468913,23.6734428 51.2200964,23.6071427 C51.1933015,23.5408425 51.1933015,23.4591575 51.2200964,23.3928573 C51.2468913,23.3265572 51.2964103,23.2857147 51.35,23.2857147 L52.65,23.2857147 C52.7035897,23.2857147 52.7531087,23.3265572 52.7799036,23.3928573 C52.8066985,23.4591575 52.8066985,23.5408425 52.7799036,23.6071427 C52.7531087,23.6734428 52.7035897,23.7142853 52.65,23.7142853 L52.65,23.7142853 Z" id="Shape" fill="#82A946"></path>
                        <path d="M49.6499994,22 L48.3500006,22 C48.1567006,22 48,22.2238576 48,22.5 C48,22.7761424 48.1567006,23 48.3500006,23 L49.6499994,23 C49.8432994,23 50,22.7761424 50,22.5 C50,22.2238576 49.8432994,22 49.6499994,22 Z M49.6499994,22.714286 L48.3500006,22.714286 C48.2963154,22.7144895 48.2466471,22.6736915 48.2197632,22.6073073 C48.1928793,22.5409231 48.1928793,22.4590754 48.2197632,22.3926912 C48.2466471,22.326307 48.2963154,22.285509 48.3500006,22.2857124 L49.6499994,22.2857124 C49.7326865,22.2860277 49.7996011,22.3818746 49.7996011,22.4999992 C49.7996011,22.6181238 49.7326865,22.7139708 49.6499994,22.714286 L49.6499994,22.714286 Z" id="Shape" fill="#82A946"></path>
                        <path d="M52.65,22 L51.35,22 C51.1567003,22 51,22.2238576 51,22.5 C51,22.7761424 51.1567003,23 51.35,23 L52.65,23 C52.8432997,23 53,22.7761424 53,22.5 C53,22.2238576 52.8432997,22 52.65,22 Z M52.65,22.714286 L51.35,22.714286 C51.296315,22.7144895 51.2466467,22.6736915 51.2197628,22.6073073 C51.1928789,22.5409231 51.1928789,22.4590754 51.2197628,22.3926912 C51.2466467,22.326307 51.296315,22.285509 51.35,22.2857124 L52.65,22.2857124 C52.7326869,22.2860277 52.7996014,22.3818746 52.7996014,22.4999992 C52.7996014,22.6181238 52.7326869,22.7139708 52.65,22.714286 L52.65,22.714286 Z" id="Shape" fill="#82A946"></path>
                        <path d="M15.6809518,18.7784851 C15.6809518,18.7784851 13.9134192,26 16.0737373,26 C18.2340555,26 23.3402643,17.8282848 23.3402643,17.8282848 C23.3402643,17.8282848 28.6428645,15.1677264 26.4825464,14.2175273 C24.3222282,13.2673282 21.5727304,15.7378466 21.5727304,15.7378466 L18.4001978,20 L18.2340515,17.8282848 L15.6809518,18.7784851 Z" id="Path" fill="#A0616A"></path>
                        <path d="M20,13.213483 L18.7999994,12 C18.7999994,12 16.4000008,13.4157304 16.1999993,14.8314607 C16,16.2471911 15,20.6966296 15,20.6966296 L18.6999986,21 L19.8999979,19.1797749 L20,13.213483 Z" id="Path" fill="#CFCCE0"></path>
                        <path d="M76.2297705,10 C76.0822296,9.58112234 74.2320419,8.15725106 75.365789,7.9179252 L76.2955338,9.10990385 L80.5700874,5 L81,5.41336075 L76.2297705,10 Z" id="Path" fill="#82A946"></path>
                        <path d="M76.2297705,25 C76.0822296,24.5811235 74.2320419,23.1572519 75.365789,22.9179259 L76.2955338,24.1099049 L80.5700874,20 L81,20.4133609 L76.2297705,25 Z" id="Path" fill="#82A946"></path>
                        <path d="M76.2297705,39 C76.0822296,38.5811235 74.2320419,37.1572519 75.365789,36.9179259 L76.2955338,38.1099049 L80.5700874,34 L81,34.4133596 L76.2297705,39 Z" id="Path" fill="#82A946"></path>
                        <circle id="Oval" fill="#3F3D56" cx="89.5" cy="8.5" r="1.5"></circle>
                        <rect id="Rectangle" fill="#3F3D56" x="94" y="7.86728972" width="21" height="1"></rect>
                        <circle id="Oval" fill="#3F3D56" cx="89.5" cy="22.5" r="1.5"></circle>
                        <rect id="Rectangle" fill="#3F3D56" x="94" y="22.8672897" width="21" height="1"></rect>
                        <circle id="Oval" fill="#3F3D56" cx="89.5" cy="37.5" r="1.5"></circle>
                        <rect id="Rectangle" fill="#3F3D56" x="94" y="37.8672897" width="21" height="1"></rect>
                        <polygon id="Path" fill="#3F3D56" points="80 42 73 42 73 35 77.76 35 77.76 35.2745098 73.28 35.2745098 73.28 41.7254902 79.72 41.7254902 79.72 38.5686275 80 38.5686275"></polygon>
                        <polygon id="Path" fill="#3F3D56" points="80 27 73 27 73 20 77.76 20 77.76 20.2745098 73.28 20.2745098 73.28 26.7254902 79.72 26.7254902 79.72 23.5686275 80 23.5686275"></polygon>
                        <polygon id="Path" fill="#3F3D56" points="80 12 73 12 73 5 77.76 5 77.76 5.2745098 73.28 5.2745098 73.28 11.7254902 79.72 11.7254902 79.72 8.56862745 80 8.56862745"></polygon>
                    </g>
                </g>
            </g>
        </g>
    </g>
</svg>