<?xml version="1.0" encoding="UTF-8"?>
<svg width="20px" height="15px" viewBox="0 0 20 15" version="1.1" xmlns="http://www.w3.org/2000/svg" xmlns:xlink="http://www.w3.org/1999/xlink">
    <!-- Generator: sketchtool 58 (101010) - https://sketch.com -->
    <title>BFC7047F-9498-48CD-B4FA-64602CCA1F44</title>
    <desc>Created with sketchtool.</desc>
    <g id="Page-1" stroke="none" stroke-width="1" fill="none" fill-rule="evenodd">
        <g id="Dashboard" transform="translate(-22.000000, -490.000000)" fill="#FFFFFF" fill-rule="nonzero">
            <g id="Side-Bar" transform="translate(0.000000, 81.000000)">
                <g id="Group-3">
                    <g id="Group-5" transform="translate(22.000000, 407.000000)">
                        <g id="042-wifi" transform="translate(0.000000, 2.000000)">
                            <path d="M10,4.69703125 C8.54058594,4.69703125 7.35328125,5.88433594 7.35328125,7.34375 C7.35328125,8.80316406 8.54058594,9.99046875 10,9.99046875 C11.4594141,9.99046875 12.6467187,8.80316406 12.6467187,7.34375 C12.6467187,5.88433594 11.4594141,4.69703125 10,4.69703125 Z M10,8.37464844 C9.4315625,8.37464844 8.96910156,7.9121875 8.96910156,7.34375 C8.96910156,6.7753125 9.4315625,6.31285156 10,6.31285156 C10.5684375,6.31285156 11.0308984,6.7753125 11.0308984,7.34375 C11.0308984,7.9121875 10.5684375,8.37464844 10,8.37464844 Z" id="Shape"></path>
                            <path d="M14.4692187,2.87390625 C14.1534766,2.55855469 13.6419531,2.55882812 13.3266797,2.87453125 C13.0113672,3.19023437 13.0116797,3.70175781 13.3273437,4.01707031 C15.1642187,5.85195313 15.1658984,8.83910156 13.3313672,10.675625 L13.3270312,10.6799609 C13.0115625,10.9954688 13.0115625,11.5069922 13.3270312,11.8225 C13.4847656,11.9802734 13.6915625,12.0591406 13.8983203,12.0591406 C14.1050781,12.0591406 14.311875,11.9802734 14.4696094,11.8225 L14.4742969,11.8178516 C16.9386719,9.350625 16.9364453,5.33839844 14.4692187,2.87390625 Z" id="Path"></path>
                            <path d="M6.67265625,10.6705078 C5.78285156,9.78167969 5.29242188,8.59953125 5.29171875,7.34183594 C5.29101562,6.08414063 5.78011719,4.90144531 6.66894531,4.01164063 C6.66996094,4.01058594 6.671875,4.00867188 6.67292969,4.00761719 C6.9884375,3.69210938 6.9884375,3.18058594 6.67292969,2.86507813 C6.35746094,2.54957031 5.84589844,2.54957031 5.53042969,2.86507813 L5.52578125,2.86976563 C3.06128906,5.33699219 3.06351562,9.34917969 5.53074219,11.8137109 C5.68847656,11.9712891 5.89503906,12.05 6.10167969,12.05 C6.30855469,12.05 6.51550781,11.9710156 6.67328125,11.8130859 C6.98867188,11.4973437 6.98835938,10.9858203 6.67265625,10.6705078 Z" id="Path"></path>
                            <path d="M17.0715234,0.27234375 C16.7560937,-0.0431640625 16.2445312,-0.04328125 15.9290234,0.2721875 C15.6134766,0.58765625 15.6133594,1.09917969 15.9288281,1.41472656 C19.1971094,4.68398437 19.1971094,10.0034375 15.9288281,13.2727344 C15.6133594,13.5882812 15.6134766,14.0998047 15.9290234,14.4152344 C16.0867578,14.5729687 16.2934375,14.6517969 16.5001953,14.6517969 C16.7069922,14.6517969 16.9137891,14.5728516 17.0715234,14.4150781 C18.96,12.5261328 20,10.0148047 20,7.34375 C20,4.67269531 18.96,2.16136719 17.0715234,0.27234375 Z" id="Path"></path>
                            <path d="M4.07113281,1.41476562 C4.38660156,1.09917969 4.38652344,0.58765625 4.07097656,0.272226563 C3.75539062,-0.04328125 3.24386719,-0.0431640625 2.9284375,0.272382813 C1.04,2.16136719 0,4.67269531 0,7.34375 C0,10.0148047 1.04,12.5261328 2.9284375,14.4151172 C3.08617187,14.5729687 3.29296875,14.6518359 3.49976562,14.6518359 C3.70648438,14.6518359 3.91324219,14.5729297 4.07097656,14.4152734 C4.38652344,14.0998437 4.38660156,13.5883203 4.07113281,13.2727734 C0.802890625,10.0034766 0.802890625,4.68402344 4.07113281,1.41476562 Z" id="Path"></path>
                        </g>
                    </g>
                </g>
            </g>
        </g>
    </g>
</svg>