<?xml version="1.0" encoding="UTF-8"?>
<svg width="217px" height="131px" viewBox="0 0 217 131" version="1.1" xmlns="http://www.w3.org/2000/svg" xmlns:xlink="http://www.w3.org/1999/xlink">
    <!-- Generator: sketchtool 58 (101010) - https://sketch.com -->
    <title>D9EEC4F4-AA3C-42C5-B67B-65B376B0D28F</title>
    <desc>Created with sketchtool.</desc>
    <g id="Page-1" stroke="none" stroke-width="1" fill="none" fill-rule="evenodd">
        <g id="EMpty-state-Dashboard-Copy" transform="translate(-506.000000, -706.000000)">
            <g id="undraw_payments_21w6-copy" transform="translate(506.000000, 706.000000)">
                <path d="M0.311198067,7.11963163 C0.311198067,20.5903413 8.76201599,31.4906699 19.2056014,31.4906699" id="Path" fill="#46455B" fill-rule="nonzero"></path>
                <path d="M19.2055968,31.4906699 C19.2055968,17.8686028 28.6362172,6.84579772 40.2906533,6.84579772" id="Path" fill="#A3C23D" fill-rule="nonzero"></path>
                <path d="M7.15699578,8.34077258 C7.15699578,21.1365195 12.545923,31.4906699 19.2056014,31.4906699" id="Path" fill="#A3C23D" fill-rule="nonzero"></path>
                <path d="M19.2055968,31.4906699 C19.2055968,14.0846958 30.1059255,0 43.5766351,0" id="Path" fill="#46455B" fill-rule="nonzero"></path>
                <rect id="Rectangle" fill="#F2F2F2" fill-rule="nonzero" x="10.1098418" y="36.4156411" width="164.499121" height="93.2161687" rx="26.88144"></rect>
                <rect id="Rectangle" fill="#FFFFFF" fill-rule="nonzero" x="6.7970123" y="49.5527237" width="164.499121" height="13.0228471"></rect>
                <rect id="Rectangle" fill="#FFFFFF" fill-rule="nonzero" x="29.6441125" y="105.528119" width="125.202109" height="6.39718805" rx="3.19859402"></rect>
                <rect id="Rectangle" stroke="#3F3D56" x="13.7653779" y="31.3892791" width="164.499121" height="93.2161687" rx="11"></rect>
                <rect id="Rectangle" stroke="#3F3D56" x="13.6511424" y="45.4402457" width="164.499121" height="13.0228471"></rect>
                <rect id="Rectangle" fill="#A3C23D" fill-rule="nonzero" x="19.3629174" y="78.3400699" width="21.0193322" height="17.3637961" rx="8.68189807"></rect>
                <rect id="Rectangle" stroke="#3F3D56" x="21.8760984" y="75.3699469" width="21.0193322" height="17.3637961" rx="8.68189807"></rect>
                <rect id="Rectangle" stroke="#3F3D56" x="33.2996485" y="102.329525" width="125.202109" height="6.39718805" rx="3.19859402"></rect>
                <path d="M0,129.63181 L195.741027,129.63181" id="Path" stroke="#3F3D56"></path>
                <path d="M215.16942,102.079429 L209.651724,107.358563 C209.274211,107.721091 208.686937,107.749026 208.276717,107.423967 C202.948624,103.173737 198.215704,98.2269397 194.20496,92.7163176 C193.898338,92.2921405 193.952185,91.7066738 194.331035,91.3455418 L199.882969,86.0336482 C200.10326,85.8226435 200.404678,85.7183053 200.708276,85.7479623 C201.011873,85.7776194 201.287401,85.9383171 201.462693,86.1879643 C205.514713,91.9752856 210.00134,96.8337991 215.057469,100.47525 C215.309818,100.656683 215.468325,100.941016 215.489963,101.251064 C215.5116,101.561111 215.394122,101.864704 215.16942,102.079429 Z" id="Path" fill="#F2F2F2" fill-rule="nonzero"></path>
                <path d="M215.693217,100.313481 L210.175521,105.592617 C209.798007,105.955143 209.210734,105.983077 208.800514,105.658019 C203.472422,101.407789 198.739501,96.4609914 194.728757,90.9503692 C194.422134,90.526193 194.47598,89.9407256 194.85483,89.5795935 L200.406764,84.2676998 C200.627054,84.0566952 200.928473,83.9523569 201.232071,83.982014 C201.535668,84.011671 201.811196,84.1723688 201.986488,84.422016 C206.038508,90.2093373 210.525148,95.0678508 215.581266,98.7093039 C215.833614,98.8907368 215.992121,99.1750693 216.013758,99.4851165 C216.035396,99.7951637 215.917919,100.098756 215.693217,100.313481 Z" id="Path" stroke="#3F3D56"></path>
                <ellipse id="Oval" fill="#A3C23D" fill-rule="nonzero" transform="translate(205.373376, 96.274362) rotate(-43.734230) translate(-205.373376, -96.274362) " cx="205.373376" cy="96.2743619" rx="1.82776801" ry="3.42706503"></ellipse>
                <ellipse id="Oval" stroke="#3F3D56" transform="translate(205.236843, 95.140196) rotate(-43.734230) translate(-205.236843, -95.140196) " cx="205.236843" cy="95.1401963" rx="1.82776801" ry="3.42706503"></ellipse>
                <path d="M211.6694,83.5417675 L210.507494,91.0892293 C210.428812,91.6066771 209.979994,91.9864578 209.45666,91.9785499 C202.642195,91.8516902 195.875645,90.8100021 189.338585,88.881313 C188.837066,88.7315727 188.523255,88.2343886 188.603845,87.717235 L189.772963,80.1229366 C189.819205,79.8214197 189.994755,79.5551075 190.253629,79.3937545 C190.512504,79.2324015 190.828912,79.1920833 191.119978,79.2833605 C197.858273,81.406393 204.375712,82.5280211 210.603736,82.3374946 C210.914384,82.3277407 211.213257,82.4567525 211.419223,82.6895083 C211.625189,82.9222642 211.716878,83.2346141 211.6694,83.5417675 Z" id="Path" fill="#F2F2F2" fill-rule="nonzero"></path>
                <path d="M211.009498,81.8220388 L209.84759,89.3695007 C209.768909,89.8869489 209.32009,90.2667302 208.796756,90.2588212 C201.982289,90.1319628 195.215738,89.0902754 188.678676,87.1615866 C188.177158,87.0118464 187.863346,86.5146622 187.943936,85.9975086 L189.113054,78.4032102 C189.159297,78.1016933 189.334846,77.8353811 189.59372,77.6740281 C189.852595,77.5126752 190.169003,77.472357 190.460069,77.5636341 C197.198364,79.6866666 203.715805,80.8082947 209.943827,80.6177682 C210.254475,80.6080132 210.55335,80.737024 210.759317,80.9697794 C210.965285,81.2025348 211.056975,81.5148848 211.009498,81.8220388 Z" id="Path" stroke="#3F3D56"></path>
                <ellipse id="Oval" fill="#A3C23D" fill-rule="nonzero" transform="translate(200.364133, 84.902530) rotate(-81.248210) translate(-200.364133, -84.902530) " cx="200.364133" cy="84.9025305" rx="1.82776801" ry="3.42706503"></ellipse>
                <ellipse id="Oval" stroke="#3F3D56" transform="translate(199.565179, 84.086046) rotate(-81.248210) translate(-199.565179, -84.086046) " cx="199.565179" cy="84.0860464" rx="1.82776801" ry="3.42706503"></ellipse>
                <circle id="Oval" fill="#2F2E41" fill-rule="nonzero" cx="178.790282" cy="17.9317545" r="3.92435729"></circle>
                <path d="M182.27292,19.9704286 C183.457297,18.3157834 183.180333,16.0303061 181.635011,14.7064568 C181.732177,14.7640909 181.82805,14.8253554 181.921616,14.8923476 C183.683052,16.1543642 184.088283,18.6051717 182.826828,20.3670101 C181.565373,22.1288485 179.114695,22.5348605 177.352454,21.2739677 C177.258889,21.2069754 177.17,21.1359552 177.084136,21.0625383 C178.835276,22.0989136 181.088104,21.6247496 182.27292,19.9704286 L182.27292,19.9704286 Z" id="Path" fill="#2F2E41" fill-rule="nonzero"></path>
                <circle id="Oval" fill="#2F2E41" fill-rule="nonzero" cx="178.278408" cy="26.2923401" r="7.16621687"></circle>
                <path d="M179.643404,37.2122898 C179.643404,37.0416654 178.278408,35.8472967 178.278408,35.8472967 C178.278408,35.8472967 171.45344,33.9704302 170.088447,35.3354234 C169.296508,36.0834419 169.088504,37.2621342 169.576576,38.2360364 L175.889671,40.1129005 L179.643404,37.2122898 Z" id="Path" fill="#3F3D56" fill-rule="nonzero"></path>
                <path d="M178.704971,32.8613726 C178.704971,32.8613726 177.169353,37.1269787 178.704971,37.4682276 C180.240588,37.8094764 170.515007,39.3450917 170.515007,39.3450917 L168.97939,36.444481 C168.97939,36.444481 174.26874,33.7144947 173.586245,29.9607619 L178.704971,32.8613726 Z" id="Path" fill="#FBBEBE" fill-rule="nonzero"></path>
                <path d="M178.704971,32.8613726 C178.704971,32.8613726 177.169353,37.1269787 178.704971,37.4682276 C180.240588,37.8094764 170.515007,39.3450917 170.515007,39.3450917 L168.97939,36.444481 C168.97939,36.444481 174.26874,33.7144947 173.586245,29.9607619 L178.704971,32.8613726 Z" id="Path" fill="#000000" fill-rule="nonzero" opacity="0.1"></path>
                <path d="M161.286001,46.172975 L162.087566,56.9140822 C162.087566,56.9140822 161.645393,64.8993722 163.353373,72.2417608 C163.353373,72.2417608 163.197476,81.0486325 166.117459,80.9882334 C169.037442,80.9272093 166.56929,70.589655 166.56929,70.589655 L166.078834,48.4362613 L161.286001,46.172975 Z" id="Path" fill="#FBBEBE" fill-rule="nonzero"></path>
                <path d="M189.113047,45.9994445 L189.795543,56.7487766 C189.795543,56.7487766 191.33116,64.5974912 190.648665,72.1049547 C190.648665,72.1049547 192.013658,80.8067891 189.113047,81.148038 C186.212436,81.4892868 187.236181,70.9105859 187.236181,70.9105859 L184.676817,48.9000483 L189.113047,45.9994445 Z" id="Path" fill="#FBBEBE" fill-rule="nonzero"></path>
                <path d="M175.292487,78.247409 C175.292487,78.247409 176.828104,95.9923267 176.316231,97.0160733 C175.804358,98.0398199 176.316231,116.467233 176.316231,116.467233 C176.316231,116.467233 176.828104,123.462825 176.486855,123.462825 C176.145607,123.462825 173.244996,122.439079 173.244996,122.439079 C173.244996,122.439079 171.02688,113.737244 170.515007,112.031002 C170.003134,110.32476 170.003136,101.622928 170.003136,98.0398199 C170.003136,94.4567114 166.590652,79.6124067 166.590652,79.6124067 L175.292487,78.247409 Z" id="Path" fill="#FBBEBE" fill-rule="nonzero"></path>
                <path d="M175.292487,78.247409 C175.292487,78.247409 176.828104,95.9923267 176.316231,97.0160733 C175.804358,98.0398199 176.316231,116.467233 176.316231,116.467233 C176.316231,116.467233 176.828104,123.462825 176.486855,123.462825 C176.145607,123.462825 173.244996,122.439079 173.244996,122.439079 C173.244996,122.439079 171.02688,113.737244 170.515007,112.031002 C170.003134,110.32476 170.003136,101.622928 170.003136,98.0398199 C170.003136,94.4567114 166.590652,79.6124067 166.590652,79.6124067 L175.292487,78.247409 Z" id="Path" fill="#000000" fill-rule="nonzero" opacity="0.1"></path>
                <path d="M172.221249,122.609701 C172.221249,122.609701 174.951238,120.903459 175.633733,121.927206 C176.006889,122.506353 176.467324,123.024341 176.998729,123.462823 L177.339973,129.1571 C177.339973,129.1571 175.350034,128.891466 175.008785,129.403339 C174.667536,129.915212 172.050625,130.287791 170.344383,129.605293 C168.638141,128.922796 170.344383,125.680936 170.344383,125.680936 L172.221249,122.609701 Z" id="Path" fill="#2F2E41" fill-rule="nonzero"></path>
                <path d="M187.079292,75.9244141 C187.079292,75.9244141 186.894932,81.659893 184.676817,85.5842503 C182.458701,89.5086076 179.899339,92.7504717 180.240595,95.8217023 C180.581851,98.8929329 182.799957,97.6985687 181.434964,110.666007 C181.434964,110.666007 180.581853,115.955357 181.434964,118.685339 C182.288075,121.415321 177.339973,120.391588 177.339973,120.391588 C177.339973,120.391588 176.486862,109.130389 175.804355,107.594772 C175.121849,106.059154 172.221245,95.8217023 173.244993,91.5561076 C174.268742,87.2905128 177.339973,76.1999204 177.339973,76.1999204 L187.079292,75.9244141 Z" id="Path" fill="#FBBEBE" fill-rule="nonzero"></path>
                <path d="M177.681224,117.832224 C177.681224,117.832224 180.069964,118.002848 180.752459,118.173473 C181.131462,118.283356 181.538934,118.147532 181.776206,117.832224 C181.776206,117.832224 182.629317,123.121574 183.141199,124.315943 C183.653081,125.510312 182.629326,128.922796 180.069964,128.922796 C177.510602,128.922796 176.828104,127.387178 176.828104,126.875307 L176.828104,120.220964 L176.65748,118.685346 C176.65748,118.685346 177.681224,118.344102 177.681224,117.832224 Z" id="Path" fill="#2F2E41" fill-rule="nonzero"></path>
                <circle id="Oval" fill="#FBBEBE" fill-rule="nonzero" cx="177.93716" cy="28.1692065" r="6.1424703"></circle>
                <path d="M178.278408,35.8472967 C178.278408,35.8472967 178.363722,37.9800986 174.951238,37.4682276 C171.538754,36.9563566 170.003136,35.4207367 170.003136,35.4207367 C170.003136,35.4207367 162.49567,36.7857299 161.983804,39.6863406 C161.471938,42.5869513 165.225664,47.0231819 165.225664,47.0231819 C165.225664,47.0231819 165.225664,50.094417 165.737535,51.2887858 C166.249406,52.4831545 163.348797,61.6968622 165.225664,62.2087355 C167.10253,62.7206088 168.296899,62.7206088 172.050632,63.5737286 C175.804364,64.4268485 179.72872,64.5974752 180.923088,63.5737286 C182.117457,62.5499821 183.823701,62.2087355 185.01807,62.2087355 C186.212439,62.2087355 187.065561,60.3318691 186.212439,59.4787492 C185.359317,58.6256293 184.506197,56.4075118 184.506197,55.5543919 C184.506197,54.7012721 185.700568,51.4594102 185.01807,50.2650415 L187.236185,38.4919719 C187.236185,38.4919719 184.847446,36.6151054 183.482452,36.444481 C182.117459,36.2738566 178.278408,35.8472967 178.278408,35.8472967 Z" id="Path" fill="#3F3D56" fill-rule="nonzero"></path>
                <path d="M185.871185,38.3213475 L187.150867,38.4066585 C187.150867,38.4066585 190.819287,47.0231819 189.966167,47.5350552 C189.113047,48.0469285 184.506194,50.4356659 183.994321,50.2650415 C183.482448,50.094417 185.871185,38.3213475 185.871185,38.3213475 Z" id="Path" fill="#3F3D56" fill-rule="nonzero"></path>
                <path d="M163.690041,39.0038452 L162.239735,39.0891562 C162.239735,39.0891562 160.789428,47.1938063 160.618804,47.7056773 C160.44818,48.2175483 166.249403,50.6062903 166.761277,50.2650415 C167.27315,49.9237926 163.690041,39.0038452 163.690041,39.0038452 Z" id="Path" fill="#3F3D56" fill-rule="nonzero"></path>
                <path d="M184.676817,61.0143668 L186.523187,64.7788309 C186.523187,64.7788309 188.471848,77.2564023 187.171517,77.4106568 C185.871185,77.5649112 178.022473,76.7117914 177.169353,77.9061624 C176.316233,79.1005334 175.633733,79.2711555 175.633733,79.2711555 C175.633733,79.2711555 166.590652,81.148022 165.566906,79.953651 C164.543159,78.75928 165.566906,63.2324798 166.761277,62.0381111 C166.761277,62.0381111 175.121862,64.0856019 176.316231,63.2324798 C177.5106,62.3793576 184.676817,61.0143668 184.676817,61.0143668 Z" id="Path" fill="#2F2E41" fill-rule="nonzero"></path>
                <path d="M181.657645,22.938781 C181.755678,22.9978431 181.851325,23.0593337 181.945496,23.1222661 C178.578965,21.3064119 174.379758,22.4548265 172.405867,25.7311989 C170.431977,29.0075712 171.379406,33.256639 174.558206,35.3840991 C174.458556,35.3302645 174.359491,35.274449 174.261456,35.215387 C170.8763,33.1708246 169.787274,28.7705275 171.82807,25.3830998 C173.868867,21.9956721 178.26795,20.9017527 181.657645,22.938781 L181.657645,22.938781 Z" id="Path" fill="#2F2E41" fill-rule="nonzero"></path>
                <path d="M174.387301,22.938781 C174.289268,22.9978431 174.193621,23.0593337 174.099452,23.1222661 C177.465986,21.3063896 181.665212,22.4547991 183.639109,25.7311825 C185.613005,29.0075658 184.665562,33.2566482 181.48674,35.3840991 C181.58639,35.3302645 181.685455,35.274449 181.783489,35.215387 C185.168646,33.1708246 186.257672,28.7705275 184.216876,25.3830998 C182.176079,21.9956721 177.776996,20.9017527 174.387301,22.938781 L174.387301,22.938781 Z" id="Path" fill="#2F2E41" fill-rule="nonzero"></path>
                <ellipse id="Oval" fill="#2F2E41" fill-rule="nonzero" cx="178.278408" cy="24.5860981" rx="6.48371916" ry="4.09498172"></ellipse>
            </g>
        </g>
    </g>
</svg>