<?xml version="1.0" encoding="UTF-8"?>
<svg width="421px" height="311px" viewBox="0 0 421 311" version="1.1" xmlns="http://www.w3.org/2000/svg" xmlns:xlink="http://www.w3.org/1999/xlink">
    <!-- Generator: sketchtool 58 (101010) - https://sketch.com -->
    <title>9770983E-DA7E-497D-A2CC-860103DE4242</title>
    <desc>Created with sketchtool.</desc>
    <defs>
        <linearGradient x1="49.9987036%" y1="99.9974619%" x2="49.9987036%" y2="-0.00636991182%" id="linearGradient-1">
            <stop stop-color="#808080" stop-opacity="0.25" offset="0%"></stop>
            <stop stop-color="#808080" stop-opacity="0.12" offset="54%"></stop>
            <stop stop-color="#808080" stop-opacity="0.1" offset="100%"></stop>
        </linearGradient>
    </defs>
    <g id="Page-1" stroke="none" stroke-width="1" fill="none" fill-rule="evenodd">
        <g id="Forgot-Password-Step-1" transform="translate(-132.000000, -233.000000)">
            <g id="undraw_forgot_password_gi2d" transform="translate(132.000000, 233.000000)">
                <g id="Group" opacity="0.1" transform="translate(320.000000, 182.000000)">
                    <path d="M16.3849793,37.6306324 C16.3849793,37.6306324 -13.8380913,33.7314625 8.70186722,82.3311462 C8.70186722,82.3311462 29.2429046,73.5858103 30.0609959,53.8599209 C30.4052971,45.9144168 24.7140824,38.968652 16.8133195,37.6919763 L16.3849793,37.6306324 Z" id="Path" fill="#82A946" fill-rule="nonzero"></path>
                    <path d="M16.8287552,37.5577866 C16.8287552,37.5577866 23.6706224,64.6564427 8.72502075,82.3349802" id="Path" stroke="#535461"></path>
                    <path d="M8.3159751,84.8385771 C8.3159751,84.8385771 19.1981328,58.192332 39.5192116,48.3083004 C48.0758405,44.2166157 55.0646198,37.4761408 59.4351037,29.1 C61.4774769,25.1104505 63.1476527,20.9433761 64.4246888,16.6510277" id="Path" stroke="#535461" stroke-width="2"></path>
                    <path d="M77.1938589,10.3517787 C75.0753112,12.9972332 64.1121162,16.8695652 64.1121162,16.8695652 C64.1121162,16.8695652 65.4318672,5.36758893 67.5504149,2.74130435 C68.8672933,0.873164474 71.1186223,-0.114876166 73.3954346,0.176100835 C75.672247,0.467077836 77.5986136,1.98902867 78.3967698,4.12747032 C79.194926,6.26591196 78.7330866,8.66776194 77.1977178,10.3632806 L77.1938589,10.3517787 Z" id="Path" fill="#82A946" fill-rule="nonzero"></path>
                    <path d="M73.4314108,31.3045455 C70.2053527,32.3818972 58.8909959,29.7019368 58.8909959,29.7019368 C58.8909959,29.7019368 66.2808299,20.7764032 69.506888,19.6990514 C71.6364542,18.8319076 74.0746988,19.2135314 75.8328009,20.6891566 C77.590903,22.1647817 78.3770156,24.4894528 77.8723337,26.7204084 C77.3676518,28.9513639 75.6559532,30.7182626 73.4314108,31.3045455 Z" id="Path" fill="#82A946" fill-rule="nonzero"></path>
                    <path d="M53.0331535,56.0759684 C49.7029046,55.3896838 41.2943154,47.3996443 41.2943154,47.3996443 C41.2943154,47.3996443 52.2073444,43.4007905 55.5414523,44.0870751 C58.6721163,44.9539823 60.5904088,48.0837106 59.9287805,51.2450786 C59.2671521,54.4064467 56.252144,56.5170034 53.0331535,56.0721344 L53.0331535,56.0759684 Z" id="Path" fill="#82A946" fill-rule="nonzero"></path>
                    <path d="M33.3526556,71.3659289 C29.9529461,71.2470751 20.3056432,64.7867984 20.3056432,64.7867984 C20.3056432,64.7867984 30.3851452,59.0051383 33.7848548,59.1278261 C37.0192723,59.4548174 39.4443345,62.217748 39.3302946,65.4458767 C39.2162547,68.6740054 36.6021886,71.2612117 33.3526556,71.3620949 L33.3526556,71.3659289 Z" id="Path" fill="#82A946" fill-rule="nonzero"></path>
                    <path d="M48.3561411,22.1988142 C48.7921992,25.5535573 56.1588797,34.4944269 56.1588797,34.4944269 C56.1588797,34.4944269 61.0095436,23.9892885 60.5773444,20.6345455 C60.4328847,18.3517074 59.0220705,16.3383268 56.9173705,15.4113769 C54.8126705,14.484427 52.3637022,14.7978858 50.5641877,16.2245608 C48.7646733,17.6512357 47.9135352,19.9541377 48.3561411,22.1988142 L48.3561411,22.1988142 Z" id="Path" fill="#82A946" fill-rule="nonzero"></path>
                    <path d="M25.5653527,40.3872727 C26.9892946,43.4544664 36.7137759,49.7997233 36.7137759,49.7997233 C36.7137759,49.7997233 38.180166,38.332253 36.7562241,35.2650593 C35.9293987,33.131765 33.9772419,31.6322179 31.6910761,31.3742714 C29.4049102,31.116325 27.1640287,32.1427745 25.8767907,34.0375406 C24.5895528,35.9323066 24.4695216,38.3810322 25.5653527,40.3911067 L25.5653527,40.3872727 Z" id="Path" fill="#82A946" fill-rule="nonzero"></path>
                    <path d="M5.8539834,61.0678261 C6.73381743,64.3343874 15.2427386,72.2170751 15.2427386,72.2170751 C15.2427386,72.2170751 18.6385892,61.1636759 17.7548963,57.8971146 C17.3070577,55.6519383 15.6383971,53.8412044 13.4267757,53.2004888 C11.2151544,52.5597732 8.82845292,53.1956523 7.23622275,54.8498125 C5.64399259,56.5039727 5.11108499,58.9012613 5.8539834,61.0678261 Z" id="Path" fill="#82A946" fill-rule="nonzero"></path>
                    <path d="M77.1938589,10.3517787 C75.0753112,12.9972332 64.1121162,16.8695652 64.1121162,16.8695652 C64.1121162,16.8695652 65.4318672,5.36758893 67.5504149,2.74130435 C68.8672933,0.873164474 71.1186223,-0.114876166 73.3954346,0.176100835 C75.672247,0.467077836 77.5986136,1.98902867 78.3967698,4.12747032 C79.194926,6.26591196 78.7330866,8.66776194 77.1977178,10.3632806 L77.1938589,10.3517787 Z" id="Path" fill="#000000" fill-rule="nonzero" opacity="0.25"></path>
                    <path d="M73.4314108,31.3045455 C70.2053527,32.3818972 58.8909959,29.7019368 58.8909959,29.7019368 C58.8909959,29.7019368 66.2808299,20.7764032 69.506888,19.6990514 C71.6364542,18.8319076 74.0746988,19.2135314 75.8328009,20.6891566 C77.590903,22.1647817 78.3770156,24.4894528 77.8723337,26.7204084 C77.3676518,28.9513639 75.6559532,30.7182626 73.4314108,31.3045455 Z" id="Path" fill="#000000" fill-rule="nonzero" opacity="0.25"></path>
                    <path d="M53.0331535,56.0759684 C49.7029046,55.3896838 41.2943154,47.3996443 41.2943154,47.3996443 C41.2943154,47.3996443 52.2073444,43.4007905 55.5414523,44.0870751 C58.6721163,44.9539823 60.5904088,48.0837106 59.9287805,51.2450786 C59.2671521,54.4064467 56.252144,56.5170034 53.0331535,56.0721344 L53.0331535,56.0759684 Z" id="Path" fill="#000000" fill-rule="nonzero" opacity="0.25"></path>
                    <path d="M33.3526556,71.3659289 C29.9529461,71.2470751 20.3056432,64.7867984 20.3056432,64.7867984 C20.3056432,64.7867984 30.3851452,59.0051383 33.7848548,59.1278261 C37.0192723,59.4548174 39.4443345,62.217748 39.3302946,65.4458767 C39.2162547,68.6740054 36.6021886,71.2612117 33.3526556,71.3620949 L33.3526556,71.3659289 Z" id="Path" fill="#000000" fill-rule="nonzero" opacity="0.25"></path>
                    <path d="M48.3561411,22.1988142 C48.7921992,25.5535573 56.1588797,34.4944269 56.1588797,34.4944269 C56.1588797,34.4944269 61.0095436,23.9892885 60.5773444,20.6345455 C60.4328847,18.3517074 59.0220705,16.3383268 56.9173705,15.4113769 C54.8126705,14.484427 52.3637022,14.7978858 50.5641877,16.2245608 C48.7646733,17.6512357 47.9135352,19.9541377 48.3561411,22.1988142 L48.3561411,22.1988142 Z" id="Path" fill="#000000" fill-rule="nonzero" opacity="0.25"></path>
                    <path d="M25.5653527,40.3872727 C26.9892946,43.4544664 36.7137759,49.7997233 36.7137759,49.7997233 C36.7137759,49.7997233 38.180166,38.332253 36.7562241,35.2650593 C35.9293987,33.131765 33.9772419,31.6322179 31.6910761,31.3742714 C29.4049102,31.116325 27.1640287,32.1427745 25.8767907,34.0375406 C24.5895528,35.9323066 24.4695216,38.3810322 25.5653527,40.3911067 L25.5653527,40.3872727 Z" id="Path" fill="#000000" fill-rule="nonzero" opacity="0.25"></path>
                    <path d="M5.8539834,61.0678261 C6.73381743,64.3343874 15.2427386,72.2170751 15.2427386,72.2170751 C15.2427386,72.2170751 18.6385892,61.1636759 17.7548963,57.8971146 C17.3070577,55.6519383 15.6383971,53.8412044 13.4267757,53.2004888 C11.2151544,52.5597732 8.82845292,53.1956523 7.23622275,54.8498125 C5.64399259,56.5039727 5.11108499,58.9012613 5.8539834,61.0678261 Z" id="Path" fill="#000000" fill-rule="nonzero" opacity="0.25"></path>
                    <path d="M22.810083,96.9616601 C22.810083,96.9616601 33.6922407,70.315415 54.0133195,60.4313834 C62.5662371,56.3366805 69.5508046,49.5950042 73.9176349,41.219249 C75.960008,37.2296995 77.6301838,33.0626251 78.9072199,28.7702767" id="Path" stroke="#535461" stroke-width="2"></path>
                    <path d="M91.6686722,22.4671937 C89.5501245,25.1126482 78.5869295,28.9849802 78.5869295,28.9849802 C78.5869295,28.9849802 79.9066805,17.483004 82.0252282,14.8567194 C84.208433,12.4457907 87.9032445,12.1397681 90.4581028,14.1582669 C93.0129611,16.1767657 93.5450553,19.8223098 91.6725311,22.4786957 L91.6686722,22.4671937 Z" id="Path" fill="#82A946" fill-rule="nonzero"></path>
                    <path d="M87.9139419,43.4199605 C84.6878838,44.4973123 73.373527,41.8173518 73.373527,41.8173518 C73.373527,41.8173518 80.763361,32.8918182 83.9894191,31.8144664 C87.13528,30.9853681 90.3887162,32.7248429 91.4252656,35.7900992 C92.461815,38.8553554 90.9254913,42.1936797 87.9139419,43.4199605 Z" id="Path" fill="#82A946" fill-rule="nonzero"></path>
                    <path d="M67.5156846,68.2067194 C64.1854357,67.5204348 55.7768465,59.5303953 55.7768465,59.5303953 C55.7768465,59.5303953 66.6898755,55.5315415 70.0239834,56.2178261 C73.1546474,57.0847333 75.07294,60.2144616 74.4113116,63.3758296 C73.7496832,66.5371977 70.7346751,68.6477544 67.5156846,68.2028854 L67.5156846,68.2067194 Z" id="Path" fill="#82A946" fill-rule="nonzero"></path>
                    <path d="M47.8313278,83.4775099 C44.4316183,83.3586561 34.7843154,76.8983794 34.7843154,76.8983794 C34.7843154,76.8983794 44.8638174,71.1243874 48.263527,71.2432411 C51.4979445,71.5702325 53.9230067,74.3331631 53.8089668,77.5612917 C53.6949269,80.7894204 51.0808608,83.3766267 47.8313278,83.4775099 L47.8313278,83.4775099 Z" id="Path" fill="#82A946" fill-rule="nonzero"></path>
                    <path d="M62.8348133,34.3295652 C63.2708714,37.6843083 70.6375519,46.6251779 70.6375519,46.6251779 C70.6375519,46.6251779 75.4882158,36.1200395 75.0560166,32.7652964 C74.9115569,30.4824583 73.5007427,28.4690778 71.3960427,27.5421279 C69.2913427,26.615178 66.8423744,26.9286368 65.0428599,28.3553118 C63.2433455,29.7819867 62.3922074,32.0848887 62.8348133,34.3295652 L62.8348133,34.3295652 Z" id="Path" fill="#82A946" fill-rule="nonzero"></path>
                    <path d="M40.0478838,52.4873518 C41.4718257,55.5545455 51.1963071,61.8998024 51.1963071,61.8998024 C51.1963071,61.8998024 52.6626971,50.432332 51.2387552,47.3651383 C49.6881845,44.5209386 46.1812402,43.3616474 43.2246722,44.7159216 C40.2681041,46.0701957 38.8779488,49.4726335 40.0478838,52.4911858 L40.0478838,52.4873518 Z" id="Path" fill="#82A946" fill-rule="nonzero"></path>
                    <path d="M20.3365145,73.1909091 C21.2163485,76.4574704 29.7252697,84.3401581 29.7252697,84.3401581 C29.7252697,84.3401581 33.1211203,73.2867589 32.2374274,70.0201976 C31.1890381,66.9627091 27.9339255,65.2367386 24.7938177,66.0733447 C21.6537098,66.9099507 19.704518,70.0224827 20.3365145,73.1909091 L20.3365145,73.1909091 Z" id="Path" fill="#82A946" fill-rule="nonzero"></path>
                </g>
                <path d="M4,164 C10.6742462,192.466235 24.8031949,217.073033 47.1327008,229.000462 C93.5371663,253.787571 198.191347,241.00462 276.298482,226.314968 C315.763238,218.919742 351.586064,198.487768 378,168.3083 L4,164 Z" id="Path" fill="#82A946" fill-rule="nonzero" opacity="0.1"></path>
                <path d="M413.565017,30.7249728 L370.734138,30.7249728 C368.689513,30.7249728 367.032017,29.0832042 367.032017,27.0579801 C367.032017,25.032756 368.689513,23.3909875 370.734138,23.3909875 L378.138382,23.3909875 C376.093757,23.3909875 374.43626,21.749219 374.43626,19.7239949 C374.43626,17.6987708 376.093757,16.0570023 378.138382,16.0570023 L372.851283,16.0570023 C370.806658,16.0570023 369.149161,14.4152338 369.149161,12.3900097 C369.149161,10.3647856 370.806658,8.72301705 372.851283,8.72301705 L395.206182,8.72301705 C390.245684,6.43947208 384.447551,4.81434925 377.769515,3.9618258 C316.814185,-3.79461526 295.051011,1.33574909 287.373959,6.62596159 C277.902521,13.1340647 267.336008,17.9218973 256.043288,20.2282778 C218.430345,27.9047947 148.095794,37.1531518 84.3470624,17.2596693 C52.6628937,7.36430779 29.1130186,24.0798569 15,52 L421,52 C420.469753,43.8858036 418.882855,36.3957761 415.97034,29.8343902 C415.302486,30.4076145 414.448725,30.7237237 413.565017,30.7249728 Z" id="Path" fill="#82A946" fill-rule="nonzero" opacity="0.1"></path>
                <path d="M0.91921692,105 C-0.722041176,121.452518 -0.163640691,138.048667 2.57984792,154.355401 L377.920806,168 C388.369115,156.052312 397.141875,142.753284 404,128.465356 L0.91921692,105 Z M149.371191,140.207564 L141.980808,140.207564 C144.021606,140.207564 145.676,141.852136 145.676,143.880817 C145.676,145.909498 144.021606,147.55407 141.980808,147.55407 L99.2301064,147.55407 C97.1893084,147.55407 95.5349148,145.909498 95.5349148,143.880817 C95.5349148,141.852136 97.1893084,140.207564 99.2301064,140.207564 L106.62049,140.207564 C104.579692,140.207564 102.925298,138.562993 102.925298,136.534312 C102.925298,134.50563 104.579692,132.861059 106.62049,132.861059 L101.343288,132.861059 C99.3024901,132.861059 97.6480965,131.216488 97.6480965,129.187806 C97.6480965,127.159125 99.3024901,125.514554 101.343288,125.514554 L144.09399,125.514554 C146.134788,125.514554 147.789181,127.159125 147.789181,129.187806 C147.789181,131.216488 146.134788,132.861059 144.09399,132.861059 L149.371191,132.861059 C151.411989,132.861059 153.066383,134.50563 153.066383,136.534312 C153.066383,138.562993 151.411989,140.207564 149.371191,140.207564 L149.371191,140.207564 Z" id="Shape" fill="#82A946" fill-rule="nonzero" opacity="0.1"></path>
                <path d="M420.809509,52 L10.8078982,61.9171129 C5.82336779,74.6606029 2.53488235,89.0671166 1,104 L413.62626,104 C416.32037,95.2280495 418.312965,86.2582038 419.585441,77.1742096 C420.813347,68.3975647 421.304509,59.9069904 420.809509,52 Z M84.23667,84.4861733 L76.8423742,84.4861733 C78.8842526,84.4861733 80.5395221,86.1315506 80.5395221,88.1612264 C80.5395221,90.1909023 78.8842526,91.8362796 76.8423742,91.8362796 L34.0690403,91.8362796 C32.0271619,91.8362796 30.3718924,90.1909023 30.3718924,88.1612264 C30.3718924,86.1315506 32.0271619,84.4861733 34.0690403,84.4861733 L41.463336,84.4861733 C39.4214576,84.4861733 37.7661882,82.8407959 37.7661882,80.8111201 C37.7661882,78.7814443 39.4214576,77.1360669 41.463336,77.1360669 L36.1833407,77.1360669 C34.1414623,77.1360669 32.4861929,75.4906895 32.4861929,73.4610137 C32.4861929,71.4313379 34.1414623,69.7859605 36.1833407,69.7859605 L78.9566747,69.7859605 C80.9985531,69.7859605 82.6538226,71.4313379 82.6538226,73.4610137 C82.6538226,75.4906895 80.9985531,77.1360669 78.9566747,77.1360669 L84.23667,77.1360669 C86.2785484,77.1360669 87.9338179,78.7814443 87.9338179,80.8111201 C87.9338179,82.8407959 86.2785484,84.4861733 84.23667,84.4861733 Z" id="Shape" fill="#82A946" fill-rule="nonzero" opacity="0.1"></path>
                <path d="M360,310.800708 C360,310.800708 342.88268,217.133506 310.242224,201.933665 C282.584076,189.044844 252.674862,180.356482 244.169982,177.999472 C242.899993,175.958513 241.431912,174.047099 239.786934,172.292825 C228.162829,160.185841 221.179146,160.41196 220.049772,160.561429 C219.51375,158.160518 219.128857,155.728491 218.897349,153.279609 C218.862776,152.896356 218.828204,152.53993 218.797473,152.160509 L218.897349,152.110686 C218.828204,151.386336 218.766741,150.638991 218.712962,149.868652 C223.458103,147.34199 227.826886,144.167458 231.693084,140.436778 C231.743022,140.601577 231.785278,140.766376 231.839058,140.935008 C240.215891,133.870365 248.419861,126.614095 256.450968,119.166198 C258.755813,117.016145 261.175901,114.68213 261.959549,111.650594 C262.210511,110.60734 262.307569,109.533136 262.247654,108.461923 C262.351373,106.162401 261.805892,103.813056 261.713699,101.482873 C261.713699,101.09962 261.755954,100.743194 261.805892,100.379103 C262.34369,96.5657284 265.001945,93.4345458 267.183866,90.2343775 C272.635053,82.1472112 275.48042,72.5918485 275.339178,62.8470689 C275.398865,58.177775 274.751327,53.5262682 273.418473,49.0499361 C271.716729,43.3701164 268.174949,37.4028564 262.278386,36.1611145 C259.996589,35.6820474 257.626439,35.9809853 255.298545,35.8315163 C245.660449,35.2183104 238.446282,27.3999352 230.759621,21.6702925 C221.378162,14.7112141 210.283772,10.4150816 198.653122,9.23754284 C195.02299,8.85428915 191.273774,8.82746139 187.820347,9.97722246 C180.064541,12.5526872 175.354973,20.5052013 167.883432,23.7743553 C162.359485,26.2041837 155.975063,25.8094324 150.212949,27.6337199 C141.635082,30.3548211 134.355611,39.1313306 134.16354,48.1492899 C134.16354,48.4827206 134.16354,48.8161513 134.16354,49.149582 C134.16354,49.2070701 134.16354,49.2645581 134.16354,49.3182136 C134.067505,53.8751 135.700104,58.5163022 135.830712,63.1804996 C135.830712,63.6020786 135.837114,64.0249352 135.849919,64.4490693 C135.807663,69.4850228 135.204562,74.5363064 133.364527,79.2694894 C132.373443,81.8181265 131.098095,84.7691799 131.305532,87.3178169 C131.190289,88.8776594 131.493761,90.3416885 132.58088,91.5336075 L134.43628,89.9009468 C133.814023,93.2610164 133.501564,96.6708893 133.502818,100.08783 C133.502818,117.311251 141.354659,132.733379 153.739363,143.111889 C153.811069,144.259095 153.880214,145.488062 153.946799,146.798789 C154.238746,152.478609 154.46923,159.603295 154.403926,167.368015 L136.28784,183.982062 L89.7145918,205.061015 C89.7145918,205.061015 47.1210441,214.036817 56.2943298,273.736244 L60.6735366,310.804541 L99.5601241,310.804541 L99.4717717,311 L157.188948,311 L157.223521,310.804541 L294.546225,310.804541 L294.519335,311 L299.897308,311 L299.897308,310.804541 L360,310.800708 Z M220.391657,161.511899 C221.568882,163.941361 222.495581,166.483898 223.157472,169.100322 C221.798348,166.582548 220.79395,163.889706 220.172697,161.097985 L220.230318,161.201463 L220.391657,161.511899 Z M154.388561,169.176972 C154.388561,169.907709 154.375756,170.644834 154.350147,171.388346 L154.257953,171.518652 C154.251741,170.729749 154.295363,169.941239 154.388561,169.15781 L154.388561,169.176972 Z" id="Shape" fill="url(#linearGradient-1)" fill-rule="nonzero"></path>
                <path d="M236,178.769339 L228.286648,251.969589 L187.020214,265 C187.020214,265 133.412417,255.035568 147.29645,226.292014 C157.173398,205.845766 156.899574,169.306961 155.919978,149.914643 C155.53431,142.042742 155.009803,136.995374 155.009803,136.995374 C155.009803,136.995374 225.201307,76.0590398 219.416293,130.863416 C218.297857,141.475536 218.232293,149.772842 218.853218,156.257387 C221.456475,183.253333 236,178.769339 236,178.769339 Z" id="Path" fill="#FDC2CC" fill-rule="nonzero"></path>
                <path d="M236,178.769339 L228.286648,251.969589 L187.020214,265 C187.020214,265 133.412417,255.035568 147.29645,226.292014 C157.173398,205.845766 156.899574,169.306961 155.919978,149.914643 C155.53431,142.042742 155.009803,136.995374 155.009803,136.995374 C155.009803,136.995374 225.201307,76.0590398 219.416293,130.863416 C218.297857,141.475536 218.232293,149.772842 218.853218,156.257387 C221.456475,183.253333 236,178.769339 236,178.769339 Z" id="Path" fill="#000000" fill-rule="nonzero" opacity="0.03"></path>
                <path d="M218.664995,128.839851 C217.559435,139.441034 217.494627,147.729788 218.108403,154.207651 C198.05905,165.200153 173.343091,162.682733 155.899697,147.871444 C155.518469,140.007655 155,134.96549 155,134.96549 C155,134.96549 224.383408,74.09196 218.664995,128.839851 Z" id="Path" fill="#000000" fill-rule="nonzero" opacity="0.1"></path>
                <circle id="Oval" fill="#FDC2CC" fill-rule="nonzero" cx="191.5" cy="103.5" r="55.5"></circle>
                <circle id="Oval" fill="#000000" fill-rule="nonzero" opacity="0.03" cx="191.5" cy="103.5" r="55.5"></circle>
                <path d="M354,311 L65.4636936,311 L61.2430828,274.473878 C52.4181692,215.647598 93.4732021,206.804432 93.4732021,206.804432 L138.365154,186.042215 L156.206827,169.317097 C150.451449,191.23277 194.000479,236.7943 194.000479,236.7943 L194.000479,236.7943 C194.2803,236.533704 194.545456,236.257731 194.794721,235.967656 C195.968818,234.683475 198.773606,231.469176 205.342412,223.494947 C207.690606,220.63822 210.526089,217.174006 213.940947,212.967734 C230.36296,192.743798 221.937086,168.848024 219.420067,163.907386 L219.262754,163.599797 C219.166831,163.422934 219.093929,163.280674 219.036375,163.180708 C219.020513,163.144357 219.001242,163.109597 218.978822,163.076897 C218.962933,163.052311 218.948828,163.026612 218.936615,163 L240.03967,179.532876 C240.03967,179.532876 240.84926,179.748188 242.341821,180.171122 C250.552828,182.478035 279.398785,191.055906 306.034676,203.755462 C337.501248,218.723482 354,311 354,311 Z" id="Path" fill="#82A946" fill-rule="nonzero"></path>
                <path d="M256.245603,222.986005 C252.794595,219.52694 229.404428,215.299193 229.404428,215.299193 C230.171319,224.523368 201.796364,238.743969 201.796364,238.743969 L203.905313,311 L190.300672,311 L188,246.046441 L194.518571,236.822266 L194.518571,236.822266 L195.312303,235.995934 C199.089696,232.071387 202.61064,227.906741 205.853215,223.527925 C208.199901,220.672275 211.033562,217.209366 214.446225,213.00468 C230.857686,192.788365 222.437226,168.901598 219.921825,163.962821 L219.764612,163.655349 C219.672586,163.474709 219.599731,163.336346 219.53838,163.236417 C219.522528,163.20008 219.503269,163.165333 219.480863,163.132645 C219.464984,163.108069 219.450888,163.08238 219.438684,163.055777 L219.438684,163.055777 C219.438684,163.055777 226.3407,161.518415 238.610951,174.585995 C240.197142,176.321548 241.609858,178.208708 242.82885,180.220428 C252.798429,196.255117 259.286324,226.033826 256.245603,222.986005 Z" id="Path" fill="#82A946" fill-rule="nonzero"></path>
                <path d="M256.245603,222.986005 C252.794595,219.52694 229.404428,215.299193 229.404428,215.299193 C230.171319,224.523368 201.796364,238.743969 201.796364,238.743969 L203.905313,311 L190.300672,311 L188,246.046441 L194.518571,236.822266 L194.518571,236.822266 L195.312303,235.995934 C199.089696,232.071387 202.61064,227.906741 205.853215,223.527925 C208.199901,220.672275 211.033562,217.209366 214.446225,213.00468 C230.857686,192.788365 222.437226,168.901598 219.921825,163.962821 L219.764612,163.655349 C219.672586,163.474709 219.599731,163.336346 219.53838,163.236417 C219.522528,163.20008 219.503269,163.165333 219.480863,163.132645 C219.464984,163.108069 219.450888,163.08238 219.438684,163.055777 L219.438684,163.055777 C219.438684,163.055777 226.3407,161.518415 238.610951,174.585995 C240.197142,176.321548 241.609858,178.208708 242.82885,180.220428 C252.798429,196.255117 259.286324,226.033826 256.245603,222.986005 Z" id="Path" fill="#000000" fill-rule="nonzero" opacity="0.1"></path>
                <path d="M100,252 C100,252 118.040404,289.140984 119,311" id="Path" fill="#000000" fill-rule="nonzero" opacity="0.1"></path>
                <polygon id="Path" fill="#000000" fill-rule="nonzero" opacity="0.1" points="296 274 291 311 296 311"></polygon>
                <path d="M104,311 L132.521873,245.847531 C132.521873,245.847531 140.561595,230.472317 142.475815,215.097103 C144.390034,199.721889 154.72682,175.505927 154.72682,175.505927 C154.72682,175.505927 180.377363,142.833597 192.245525,147.446162 C204.113687,152.058726 181.908739,169.355841 181.908739,169.355841 C181.908739,169.355841 214.450473,182.040393 192.245525,219.709667 C170.040577,257.378941 169.657733,250.460095 169.657733,250.460095 L158.746682,311 L104,311 Z" id="Path" fill="#000000" fill-rule="nonzero" opacity="0.1"></path>
                <path d="M103,311 L131.521873,245.850737 C131.521873,245.850737 139.561595,230.476279 141.475815,215.101822 C142.693258,205.32751 147.314185,191.978638 150.518588,183.549591 C152.610237,178.038958 155.687862,172.958724 159.599646,168.559495 C167.892046,159.242574 182.953126,144.217885 191.245525,147.446522 C203.113687,152.058859 180.908739,169.355123 180.908739,169.355123 C180.908739,169.355123 213.450473,182.039051 191.245525,219.706472 C169.040577,257.373892 168.657733,250.455387 168.657733,250.455387 L157.746682,310.992313 L103,311 Z" id="Path" fill="#FDC2CC" fill-rule="nonzero"></path>
                <circle id="Oval" fill="#FFFFFF" fill-rule="nonzero" opacity="0.15" cx="209" cy="72" r="1"></circle>
                <circle id="Oval" fill="#FFFFFF" fill-rule="nonzero" opacity="0.15" cx="203" cy="75" r="1"></circle>
                <path d="M152.272758,33.3901688 C157.830046,31.5885051 163.997983,31.9773257 169.328678,29.5828068 C176.537406,26.3413521 181.080786,18.4956457 188.562194,15.9548379 C191.895799,14.8230236 195.513605,14.8653704 199.012353,15.227243 C210.263201,16.4009553 220.977614,20.6444703 229.990297,27.4962647 C237.406415,33.1514868 244.365507,40.8624534 253.663499,41.4668577 C255.910225,41.6131466 258.195357,41.316719 260.395997,41.7902332 C266.095386,43.0144406 269.509642,48.9006452 271.149561,54.494272 C274.988788,67.9093345 272.792049,82.3360588 265.135246,93.9922836 C263.03062,97.1490448 260.465127,100.240361 259.946652,104.001526 C259.439698,107.689547 261.006646,111.512308 260.092593,115.123335 C259.324482,118.114558 257.020147,120.416684 254.777261,122.537874 C247.032135,129.880552 239.116744,137.034594 231.031088,144 C226.829517,130.618412 232.993614,116.208953 232.033474,102.215261 C231.649418,96.7640739 229.729139,90.8124242 224.932282,88.2408188 C220.442669,85.8386005 214.704875,87.0859061 210.161494,84.7760809 C205.091957,82.2160246 203.010374,76.1527333 199.177497,71.9565508 C192.648548,64.7960926 181.31506,63.8721625 172.186053,67.1059178 C163.057046,70.3396732 155.594841,76.9919698 148.374591,83.4787291 L135.251403,95.2780863 C132.689751,92.3831053 134.633074,87.9405415 136.019515,84.3218153 C138.085736,78.8975757 138.538921,73.0498681 138.400661,67.2907038 C138.289285,62.6710534 136.699294,58.1091485 136.791467,53.6126887 C136.975814,44.7429598 143.996355,36.0734158 152.272758,33.3901688 Z" id="Path" fill="#000000" fill-rule="nonzero" opacity="0.1"></path>
                <path d="M152.272758,32.3901688 C157.830046,30.5885051 163.997983,30.9773257 169.328678,28.5828068 C176.537406,25.3413521 181.080786,17.4956457 188.562194,14.9548379 C191.895799,13.8230236 195.513605,13.8653704 199.012353,14.227243 C210.263201,15.4009553 220.977614,19.6444703 229.990297,26.4962647 C237.406415,32.1514868 244.365507,39.8624534 253.663499,40.4668577 C255.910225,40.6131466 258.195357,40.316719 260.395997,40.7902332 C266.095386,42.0144406 269.509642,47.9006452 271.149561,53.494272 C274.988788,66.9093345 272.792049,81.3360588 265.135246,92.9922836 C263.03062,96.1490448 260.465127,99.2403609 259.946652,103.001526 C259.439698,106.689547 261.006646,110.512308 260.092593,114.123335 C259.324482,117.114558 257.020147,119.416684 254.777261,121.537874 C247.032135,128.880552 239.116744,136.034594 231.031088,143 C226.829517,129.618412 232.993614,115.208953 232.033474,101.215261 C231.649418,95.7640739 229.729139,89.8124242 224.932282,87.2408188 C220.442669,84.8386005 214.704875,86.0859061 210.161494,83.7760809 C205.091957,81.2160246 203.010374,75.1527333 199.177497,70.9565508 C192.648548,63.7960926 181.31506,62.8721625 172.186053,66.1059178 C163.057046,69.3396732 155.594841,75.9919698 148.374591,82.4787291 L135.251403,94.2780863 C132.689751,91.3831053 134.633074,86.9405415 136.019515,83.3218153 C138.085736,77.8975757 138.538921,72.0498681 138.400661,66.2907038 C138.289285,61.6710534 136.699294,57.1091485 136.791467,52.6126887 C136.975814,43.7429598 143.996355,35.0734158 152.272758,32.3901688 Z" id="Path" fill="#865A61" fill-rule="nonzero"></path>
            </g>
        </g>
    </g>
</svg>