<?xml version="1.0" encoding="UTF-8"?>
<svg width="21px" height="18px" viewBox="0 0 21 18" version="1.1" xmlns="http://www.w3.org/2000/svg" xmlns:xlink="http://www.w3.org/1999/xlink">
    <!-- Generator: sketchtool 58 (101010) - https://sketch.com -->
    <title>5AE0BE31-E59E-4A11-AD43-69B1203AE1F7</title>
    <desc>Created with sketchtool.</desc>
    <g id="Page-1" stroke="none" stroke-width="1" fill="none" fill-rule="evenodd">
        <g id="Dashboard" transform="translate(-21.000000, -259.000000)">
            <g id="Side-Bar" transform="translate(0.000000, 81.000000)">
                <g id="Group-3">
                    <g id="Cash-Copy" transform="translate(20.000000, 175.000000)">
                        <g id="ic-history-48px">
                            <polygon id="Path" points="0 0 24 0 24 24 0 24"></polygon>
                            <path d="M12.995,3 C8.02,3 4,7.03 4,12 L1,12 L4.895,15.895 L4.965,16.04 L9,12 L6,12 C6,8.135 9.135,5 13,5 C16.865,5 20,8.135 20,12 C20,15.865 16.865,19 13,19 C11.065,19 9.32,18.21 8.055,16.945 L6.64,18.36 C8.265,19.99 10.51,21 12.995,21 C17.97,21 22,16.97 22,12 C22,7.03 17.97,3 12.995,3 Z M12,8 L12,13 L16.28,15.54 L17,14.325 L13.5,12.25 L13.5,8 L12,8 Z" id="Shape" fill="#FFFFFF" fill-rule="nonzero"></path>
                        </g>
                    </g>
                </g>
            </g>
        </g>
    </g>
</svg>