<?xml version="1.0" encoding="UTF-8"?>
<svg width="24px" height="24px" viewBox="0 0 24 24" version="1.1" xmlns="http://www.w3.org/2000/svg" xmlns:xlink="http://www.w3.org/1999/xlink">
    <!-- Generator: sketchtool 58 (101010) - https://sketch.com -->
    <title>D9DD5B41-AE7D-45A0-B6D5-1C061793E6A1</title>
    <desc>Created with sketchtool.</desc>
    <defs>
        <path d="M1.55709825,4.81510672 L9.07854993,0.218663892 C9.39866233,0.0230396678 9.80133753,0.0230396678 10.1214499,0.218663892 L17.6428999,4.81510567 C18.2374093,5.17841695 18.5999999,5.82493666 18.5999999,6.52166934 L18.5999999,15.4000645 C18.5999999,16.5046341 17.7045694,17.4000677 16.5999999,17.4000677 L2.59998155,17.4000677 C1.49541204,17.4000677 0.599981546,16.5046372 0.599981546,15.4000676 L0.599981546,6.52166734 C0.599981546,5.82493573 0.962589834,5.17841743 1.55709825,4.81510672 Z M7.59999986,9.39999977 C7.04771511,9.39999977 6.59999986,9.84771505 6.59999986,10.3999998 L6.59999986,13.3999998 C6.59999986,13.9522843 7.04771511,14.3999998 7.59999986,14.3999998 L11.5999999,14.3999998 C12.1522846,14.3999998 12.5999999,13.9522843 12.5999999,13.3999998 L12.5999999,10.3999998 C12.5999999,9.84771505 12.1522846,9.39999977 11.5999999,9.39999977 L7.59999986,9.39999977 Z" id="path-1"></path>
    </defs>
    <g id="Asset-Artboard-Page" stroke="none" stroke-width="1" fill="none" fill-rule="evenodd">
        <g id="Menu-Icon/Home">
            <g id="home">
                <rect id="bound" x="0" y="0" width="24" height="24"></rect>
                <g id="Neutral-/-N020" transform="translate(2.400000, 3.600000)">
                    <mask id="mask-2" fill="white">
                        <use xlink:href="#path-1"></use>
                    </mask>
                    <use id="Mask" fill="#ED6638" fill-rule="nonzero" xlink:href="#path-1"></use>
                    <g mask="url(#mask-2)" fill="#F4F5F7" id="N20">
                        <g transform="translate(-1.200000, -1.200000)">
                            <polygon points="0 20.3999996 20.3999996 20.3999996 20.3999996 0 0 0"></polygon>
                        </g>
                    </g>
                </g>
            </g>
        </g>
    </g>
</svg>