<?xml version="1.0" encoding="UTF-8"?>
<svg width="440px" height="315px" viewBox="0 0 440 315" version="1.1" xmlns="http://www.w3.org/2000/svg" xmlns:xlink="http://www.w3.org/1999/xlink">
    <!-- Generator: sketchtool 58 (101010) - https://sketch.com -->
    <title>98D7B1F8-8CBF-47D7-8A21-808CA1493482</title>
    <desc>Created with sketchtool.</desc>
    <defs>
        <linearGradient x1="49.9994739%" y1="100%" x2="49.9994739%" y2="0%" id="linearGradient-1">
            <stop stop-color="#808080" stop-opacity="0.25" offset="0%"></stop>
            <stop stop-color="#808080" stop-opacity="0.12" offset="54%"></stop>
            <stop stop-color="#808080" stop-opacity="0.1" offset="100%"></stop>
        </linearGradient>
        <linearGradient x1="49.9995454%" y1="100.007969%" x2="49.9995454%" y2="0.00176883159%" id="linearGradient-2">
            <stop stop-color="#808080" stop-opacity="0.25" offset="0%"></stop>
            <stop stop-color="#808080" stop-opacity="0.12" offset="54%"></stop>
            <stop stop-color="#808080" stop-opacity="0.1" offset="100%"></stop>
        </linearGradient>
    </defs>
    <g id="Page-1" stroke="none" stroke-width="1" fill="none" fill-rule="evenodd">
        <g id="Set-Transaction-PIN" transform="translate(-122.000000, -165.000000)">
            <g id="undraw_security_o890-2" transform="translate(123.000000, 165.000000)">
                <path d="M432.04476,211.749036 C421.861334,232.804202 401.184036,246.883236 379.755533,256.1681 C350.906964,268.672126 319.137895,273.63148 287.805752,271.53403 C282.314802,271.167809 276.84046,270.582623 271.382726,269.778473 C252.427817,267.006841 233.948116,261.613219 216.471947,253.751807 C211.428142,251.475088 206.486542,248.989649 201.647148,246.295489 C193.564124,241.805036 185.819368,236.728438 178.474776,231.106267 C176.627425,229.692602 174.805625,228.243082 173.009377,226.757709 C171.763756,225.728191 170.529634,224.675625 169.276348,223.653791 C166.6318,221.498719 163.910599,219.451209 160.875118,217.918457 C159.959224,217.45567 159.020263,217.040245 158.061932,216.673817 C148.449575,213.009043 137.36547,214.391976 127.358348,217.250039 C119.746649,219.424318 112.326584,222.401468 104.722551,224.525807 C101.340232,225.499477 97.8938318,226.233728 94.4088138,226.723135 C86.6279989,227.710354 78.7264541,227.014793 71.2364419,224.683308 L70.5963846,224.483551 C69.5232348,224.145501 68.4590278,223.775438 67.4037638,223.373363 L66.7637065,223.127508 C65.741659,222.733116 64.74133,222.309272 63.7627195,221.855977 L63.1226623,221.564024 C62.1006148,221.08768 61.1002858,220.584446 60.1216753,220.054322 C59.7690689,219.86993 59.4202952,219.670173 59.0753542,219.481941 C53.5074967,216.3651 48.4464013,212.415476 44.0665867,207.76926 C43.9401083,207.642491 43.8212953,207.511881 43.6833189,207.385112 C43.073923,206.724377 42.4760253,206.052117 41.8972909,205.364492 C41.6826609,205.110954 41.4680309,204.857416 41.2572336,204.596196 C40.5699067,203.756191 39.9068534,202.89698 39.2680737,202.018561 C39.1722567,201.891792 39.0802724,201.761181 38.9882882,201.634412 C36.3711694,198.005519 34.2014564,194.072748 32.5263929,189.921732 C32.4727354,189.794963 32.4229106,189.664353 32.3769184,189.537584 C31.8658947,188.218675 31.3995855,186.877997 30.9779909,185.515551 C30.8055204,184.947012 30.6407152,184.363107 30.4950735,183.794567 C30.4452486,183.625542 30.3992565,183.452675 30.357097,183.28365 C28.2414587,174.936108 28,166.258199 28,157.630229 C28,156.623761 28,155.618573 28,154.614665 C28.0613228,140.658559 28.2759528,126.464281 30.3302683,112.700248 C30.3302683,112.604211 30.357097,112.508174 30.3724278,112.415979 C31.0599953,107.782305 31.9952367,103.188966 33.1741155,98.6557879 C34.4079274,93.8992485 35.9847501,89.2387971 37.8921422,84.711206 C42.6178344,73.5709064 49.4898262,63.4332337 57.1206884,54.0369672 C76.3415691,30.3926417 101.549093,10.543701 131.053049,3.11427362 C162.845114,-4.88753468 198.178574,2.78006463 223.823023,23.2436425 C231.641687,29.4822103 238.666986,36.8693814 247.447651,41.6520273 C255.113007,45.8161944 264.085307,47.5410201 272.294903,44.2642354 C279.078744,41.5559902 283.493989,40.2114713 291.113353,40.6225099 C306.887169,41.516912 322.437416,44.7814708 337.243467,50.3068876 C337.841365,50.5258521 338.439262,50.7524996 339.033327,50.9791471 C377.632229,65.7803796 410.811723,95.1869291 428.058775,132.975594 C428.516141,133.974379 428.959454,134.980848 429.388714,135.994999 C439.67179,160.069571 443.389487,188.28526 432.04476,211.749036 Z" id="Path" fill="#548E4E" fill-rule="nonzero" opacity="0.1"></path>
                <ellipse id="Oval" fill="#548E4E" fill-rule="nonzero" opacity="0.1" cx="46" cy="280.5" rx="34" ry="5.5"></ellipse>
                <ellipse id="Oval" fill="#548E4E" fill-rule="nonzero" opacity="0.1" cx="350" cy="309.5" rx="60" ry="5.5"></ellipse>
                <rect id="Rectangle" fill="url(#linearGradient-1)" fill-rule="nonzero" x="44" y="42" width="364" height="207" rx="12.49"></rect>
                <rect id="Rectangle" fill="#FFFFFF" fill-rule="nonzero" x="44" y="44" width="364" height="203" rx="12.49"></rect>
                <rect id="Rectangle" fill="#FFFFFF" fill-rule="nonzero" x="44" y="44" width="364" height="203" rx="12.49"></rect>
                <rect id="Rectangle" fill="#FFFFFF" fill-rule="nonzero" opacity="0.04" x="44" y="44" width="364" height="203" rx="12.49"></rect>
                <path d="M406.167282,43 L45.8480863,43 C44.8274164,43 44,43.7709464 44,44.721957 L44,52 L408,52 L408,44.721957 C408,43.7765107 407.181945,43.0078623 406.167282,43 Z" id="Path" fill="#5A5773" fill-rule="nonzero"></path>
                <g id="6c975d28-8d47-4ade-9154-b3b78f637b65" transform="translate(51.000000, 45.000000)" fill="#FFFFFF" fill-rule="nonzero">
                    <ellipse id="Oval" cx="2.41346939" cy="2.92285714" rx="2.3877551" ry="2.78571429"></ellipse>
                    <ellipse id="Oval" cx="8.84204082" cy="2.92285714" rx="2.3877551" ry="2.78571429"></ellipse>
                    <ellipse id="Oval" cx="15.2706122" cy="2.92285714" rx="2.3877551" ry="2.78571429"></ellipse>
                </g>
                <rect id="Rectangle" fill="#548E4E" fill-rule="nonzero" opacity="0.2" x="75" y="69" width="98" height="9"></rect>
                <rect id="Rectangle" fill="#5A5773" fill-rule="nonzero" opacity="0.1" x="75" y="103" width="302" height="128"></rect>
                <path d="M252.378347,111.498373 L247.19541,111.498373 L247.19541,101.283901 C247.19541,89.7576923 238.137702,80.1758037 226.777316,80.0011641 C221.244374,79.9421842 215.917114,82.1264437 211.978036,86.0691 C208.038958,90.0117563 205.813964,95.3866094 205.79694,101.000597 L205.79694,111.498373 L200.625478,111.498373 C195.86786,111.513288 192.0147,115.422691 192,120.249754 L192,162.248619 C192.0147,167.075682 195.86786,170.985085 200.625478,171 L252.378347,171 C257.13534,170.985074 260.987399,167.075054 261,162.248619 L261,120.249754 C260.987399,115.423319 257.13534,111.513299 252.378347,111.498373 Z M229.523699,138.800352 L229.523699,153.842637 C229.534075,155.495462 228.279658,156.873401 226.654914,156.99391 C225.828908,157.033154 225.023062,156.727678 224.42478,156.148521 C223.826497,155.569364 223.487917,154.766998 223.487776,153.928016 L223.487776,138.79259 C220.606281,137.366829 219.075984,134.111929 219.797087,130.942592 C220.51819,127.773256 223.299846,125.528282 226.505738,125.528282 C229.71163,125.528282 232.493285,127.773256 233.214388,130.942592 C233.935491,134.111929 232.405194,137.366829 229.523699,138.79259 L229.523699,138.800352 Z M241.167138,111.498373 L211.832862,111.498373 L211.832862,101.000597 C211.832862,92.7851367 218.396995,86.1251902 226.494262,86.1251902 C234.59153,86.1251902 241.155663,92.7851367 241.155663,101.000597 L241.167138,111.498373 Z" id="Shape" fill="#000000" fill-rule="nonzero" opacity="0.1"></path>
                <path d="M252.378347,109.498373 L247.19541,109.498373 L247.19541,99.2839011 C247.19541,87.7576923 238.137702,78.1758037 226.777316,78.0011641 C221.244374,77.9421842 215.917114,80.1264437 211.978036,84.0691 C208.038958,88.0117563 205.813964,93.3866094 205.79694,99.000597 L205.79694,109.498373 L200.625478,109.498373 C195.86786,109.513288 192.0147,113.422691 192,118.249754 L192,160.248619 C192.0147,165.075682 195.86786,168.985085 200.625478,169 L252.378347,169 C257.13534,168.985074 260.987399,165.075054 261,160.248619 L261,118.249754 C260.987399,113.423319 257.13534,109.513299 252.378347,109.498373 L252.378347,109.498373 Z M229.523699,136.800352 L229.523699,151.842637 C229.534075,153.495462 228.279658,154.873401 226.654914,154.99391 C225.828908,155.033154 225.023062,154.727678 224.42478,154.148521 C223.826497,153.569364 223.487917,152.766998 223.487776,151.928016 L223.487776,136.79259 C220.606281,135.366829 219.075984,132.111929 219.797087,128.942592 C220.51819,125.773256 223.299846,123.528282 226.505738,123.528282 C229.71163,123.528282 232.493285,125.773256 233.214388,128.942592 C233.935491,132.111929 232.405194,135.366829 229.523699,136.79259 L229.523699,136.800352 Z M241.167138,109.498373 L211.832862,109.498373 L211.832862,99.000597 C211.832862,90.7851367 218.396995,84.1251902 226.494262,84.1251902 C234.59153,84.1251902 241.155663,90.7851367 241.155663,99.000597 L241.167138,109.498373 Z" id="Shape" fill="#548E4E" fill-rule="nonzero"></path>
                <rect id="Rectangle" fill="#5A5773" fill-rule="nonzero" opacity="0.1" x="347" y="90" width="31" height="8"></rect>
                <path d="M388.970703,311.967607 C388.769486,310.950046 388.425295,309.966507 387.948497,309.046611 L383.371458,302.168262 L383.398157,302.168262 C383.398157,302.168262 382.677273,298.713734 383.398157,297.017177 C384.119041,295.32062 380.827386,291.148318 380.827386,291.148318 C380.827386,291.148318 380.426895,290.100444 381.471986,288.810754 C382.517077,287.521063 380.827386,283.744112 380.827386,283.744112 C380.827386,283.744112 380.026404,275.856273 379.946306,274.651027 C379.866208,273.44578 379.221608,266.767026 379.221608,266.767026 L377.695928,252.607299 L374.980218,215.079609 L374.930633,214.377188 C375.266283,214.212138 375.44555,214.108503 375.44555,214.108503 L374.903934,193.358304 L375.37308,192.932245 C379.469531,189.201355 388.917304,180.565035 388.821949,180.376955 C388.726594,180.188875 387.677689,165.956219 387.555635,162.394217 C387.45073,159.862858 386.900597,157.370275 385.930786,155.032234 C385.694305,154.560115 385.011564,151.447201 384.729313,150.130642 C384.653029,149.769836 384.603444,149.543372 384.603444,149.543372 C384.603444,149.543372 381.834335,144.231076 382.07463,141.816745 C382.314924,139.402413 382.795513,137.594544 376.891132,136.750103 C376.891132,136.750103 371.932672,136.005461 368.980481,133.974966 C367.234529,132.758714 365.326304,131.797264 363.31258,131.119223 C363.31258,131.119223 361.657218,128.048531 360.505329,129.088728 C360.01756,127.993026 359.65295,126.845918 359.418282,125.668745 L359.383955,125.453796 C361.570527,123.919434 363.144071,121.652997 363.823683,119.059081 C363.861825,118.913223 363.892339,118.763527 363.926667,118.617669 C364.041114,118.656703 364.160619,118.678686 364.281387,118.682921 C365.284522,118.682921 365.902422,117.558281 366.840715,117.201313 C367.222135,117.051616 367.691282,117.028586 367.984975,116.725355 C368.180601,116.489121 368.271571,116.182579 368.236712,115.877077 C368.24621,115.772379 368.24621,115.667029 368.236712,115.562331 C368.238538,115.52525 368.238538,115.4881 368.236712,115.451018 L368.236712,115.489402 C367.981161,114.092237 366.905557,112.852446 367.023797,111.432251 C367.138223,110.0965 368.305368,108.92196 368.210013,107.620755 C368.208699,107.517873 368.199775,107.415233 368.183314,107.313686 L368.183314,107.359746 C368.041166,106.851738 367.779505,106.385664 367.420474,106.000965 C367.009887,105.438032 366.470957,104.982568 365.849023,104.672891 C365.31885,104.438751 364.704763,104.385013 364.208917,104.104813 C362.751893,103.306433 362.755707,101.226039 361.889884,99.8058445 C361.133521,98.597051 359.767943,97.9166071 358.354121,98.0440352 C357.270888,98.1515094 356.290638,98.7311024 355.218848,98.9191823 C353.754196,99.1801911 352.262843,98.7003955 350.874475,98.1515094 C349.486106,97.6026232 348.078666,97 346.587314,97 C345.095962,97 343.482555,97.7676729 343.03248,99.1840294 C342.792185,99.9517023 342.910425,100.776951 342.727344,101.556139 C342.399323,102.930273 341.201664,103.912895 339.962049,104.596123 C339.199209,105.022182 338.291429,105.509654 338.054949,106.315711 C338.054949,106.292681 338.054949,106.273489 338.054949,106.254297 C338.037857,106.318607 338.025113,106.384009 338.016807,106.450054 C338.009182,106.535605 338.009182,106.621672 338.016807,106.707224 C338.016807,107.259948 338.306686,107.785804 338.50121,108.31166 C338.863677,109.312089 338.855552,110.410495 338.478325,111.405382 C338.196074,112.134671 337.715485,112.775678 337.440863,113.501129 C337.31145,113.839063 337.22681,114.192672 337.189125,114.552841 L337.189125,114.491427 C337.179649,114.655059 337.179649,114.819107 337.189125,114.982738 C337.184405,115.543293 337.315311,116.096583 337.570545,116.594851 C337.924049,117.289946 338.541656,117.811802 339.283121,118.041914 C340.045961,118.218479 340.522736,117.46616 341.327532,117.658078 C341.471568,117.692978 341.613031,117.737866 341.750909,117.792421 C341.777608,117.965147 341.804307,118.137874 341.834821,118.306762 C342.321436,120.890028 343.689422,123.221106 345.70242,124.897234 C345.70242,124.989354 345.732933,125.081475 345.744376,125.177434 L345.744376,125.177434 C345.987983,126.70774 346.093939,128.257039 346.060954,129.806502 C346.060954,129.806502 344.859481,128.037016 343.211747,131.45316 C343.211747,131.45316 338.913144,133.948097 337.42942,134.232136 C335.945696,134.516175 330.678286,136.362429 330.678286,136.362429 C329.883751,136.940594 328.92781,137.250959 327.947319,137.249091 C326.303399,137.249091 324.937915,140.868668 325.136254,142.83775 C325.334592,144.806831 325.018014,146.257732 323.48852,146.338338 C321.959025,146.418944 322.794335,149.539534 322.805778,149.593271 L322.664652,150.264985 C322.367145,151.639119 321.718731,154.586983 321.489879,155.047587 C320.520066,157.385804 319.968692,159.878158 319.861215,162.40957 C319.742975,165.971573 318.716955,180.150491 318.598715,180.392308 C318.518617,180.549681 324.991314,186.502985 329.541655,190.663772 L330.201511,191.262557 L328.107516,210.94569 C328.231078,212.48054 329.017424,213.883604 330.258724,214.784055 C330.258724,215.014357 330.258724,215.248497 330.235839,215.490314 C330.144298,217.793333 329.961217,220.579985 329.595054,221.309274 C328.954268,222.598965 329.114464,229.515698 329.114464,229.515698 C329.114464,229.515698 328.469865,243.594819 327.668883,245.126327 C326.867901,246.657834 326.70389,249.870545 326.944185,250.500037 C327.184479,251.129529 326.139388,268.037525 326.139388,268.037525 L325.338406,275.602941 C325.338406,275.602941 325.578701,282.842097 324.854003,283.003308 C324.129305,283.164519 323.728814,288.154393 323.728814,288.154393 C323.728814,288.154393 321.161858,291.693365 322.283232,292.979217 C323.404607,294.26507 322.119222,294.833148 322.000982,295.151732 C321.882741,295.470316 319.552265,296.687078 321.238142,301.185641 C321.253623,301.230067 321.271448,301.27363 321.29154,301.316145 C319.712462,303.523205 314.708231,310.643371 315.013367,311.72579 C315.238584,312.414373 315.715919,312.990805 316.348337,313.337903 C317.526925,314.048 319.548451,314.3781 322.763822,313.337903 C328.103701,311.606801 327.722281,310.359332 327.722281,310.359332 C327.779056,309.148203 328.767836,308.193636 329.972659,308.186818 C332.181081,308.025607 333.828815,305.97592 333.828815,305.97592 L333.56945,305.004814 L333.214729,303.661386 C333.256685,303.27755 333.527494,302.605836 334.740409,302.233514 C336.590296,301.669275 336.105893,298.130303 336.105893,298.130303 C336.105893,298.130303 335.945696,294.430119 336.746678,293.946485 C337.54766,293.462851 337.231082,287.348337 337.231082,287.348337 C337.231082,287.348337 338.115976,282.922702 339.397547,279.944131 C340.679118,276.965561 342.212427,259.2707 342.212427,259.2707 C342.212427,259.2707 343.253703,250.580643 344.218696,248.085706 C345.183688,245.590769 346.068583,238.59343 346.068583,238.59343 C346.068583,238.59343 352.01492,227.005407 352.091204,224.429865 C352.091204,224.429865 352.854044,222.015534 353.616884,224.671682 C354.379724,227.32783 356.523305,233.684162 356.523305,233.684162 L358.609672,241.487557 L361.100345,253.152347 L362.709937,262.970883 C362.709937,262.970883 362.465828,266.671067 363.091357,267.960757 C363.716886,269.250448 364.617037,272.221342 364.136448,272.785582 C363.655858,273.349821 365.097626,276.005969 365.501931,276.566371 C365.906236,277.126772 365.501931,289.037217 365.501931,289.037217 C365.501931,289.037217 367.348004,299.174338 369.998873,300.936147 C370.183746,301.058402 370.380567,301.161295 370.58626,301.243216 C370.548118,302.340989 370.509976,303.811082 370.55956,304.578755 C370.553691,304.750334 370.582229,304.921344 370.643473,305.081581 C370.883767,305.404004 373.614734,307.576518 374.179236,307.576518 C374.743737,307.576518 376.746192,308.985198 376.830105,309.668427 C376.914017,310.351655 382.700158,313.245782 383.520211,313.330226 C384.340264,313.41467 388.314661,314.132445 388.860091,313.007804 C388.995004,312.678839 389.033391,312.317851 388.970703,311.967607 Z M374.75518,166.984901 L375.167114,167.341869 C375.167114,167.341869 375.59049,170.662054 375.891812,171.656191 C376.193133,172.650327 375.830784,174.584863 375.830784,174.584863 C375.858492,175.306858 376.001444,176.019666 376.254161,176.695963 C376.612695,177.421414 375.529463,178.998982 375.529463,178.998982 L374.56447,178.998982 L374.263148,166.570358 L374.75518,166.984901 Z M346.060954,129.875592 L346.060954,129.802663 C346.053326,129.825694 346.049512,129.852562 346.049512,129.875592 L346.060954,129.875592 Z M331.242788,177.720807 C331.094315,177.39927 331.072506,177.033042 331.181761,176.695963 C331.267514,176.513742 331.335225,176.323464 331.383913,176.127885 C331.502439,175.623658 331.576468,175.109879 331.605137,174.592539 C331.605706,174.586155 331.605706,174.579732 331.605137,174.573348 C331.570809,174.389106 331.261859,172.608105 331.547924,171.663867 C331.833989,170.71963 332.268808,167.349546 332.268808,167.349546 L332.54343,167.115405 L333.180401,166.558842 C333.180401,166.558842 333.180401,166.351571 333.226172,166.009956 C333.359669,168.927113 333.466466,172.15134 333.294827,172.312551 C332.974435,172.631135 331.807289,175.767079 332.08954,175.889907 C332.181081,175.932129 332.055212,177.187274 331.841617,178.876154 C331.601708,178.513588 331.40096,178.126276 331.242788,177.720807 L331.242788,177.720807 Z" id="Shape" fill="url(#linearGradient-2)" fill-rule="nonzero"></path>
                <path d="M362,132.307898 L362,137.079158 L351.92666,142 C351.92666,142 341.924371,136.120304 344.391392,133.780698 C345.970285,132.300227 345.666348,128.234683 345.240047,125.438663 L345.240047,125.438663 C344.991371,123.812446 344.703223,122.619631 344.703223,122.619631 C344.703223,122.619631 362.67103,117.633587 359.955333,121.419145 C359.047469,122.684833 358.976419,124.322556 359.280356,125.944938 C359.896125,129.162854 362,132.307898 362,132.307898 Z" id="Path" fill="#C37098" fill-rule="nonzero"></path>
                <path d="M335,179.348644 L333.700263,195 C333.700263,195 331.752632,193.273407 329.232168,191.025359 C324.558645,186.857587 317.921688,180.897556 318.000699,180.739189 C318.123167,180.495843 319.18587,166.296834 319.300436,162.727769 C319.40845,160.194384 319.972816,157.699506 320.967577,155.357881 C321.204611,154.894366 321.872257,151.94332 322.152748,150.564363 C322.247561,150.135612 322.30682,149.857503 322.30682,149.857503 L324.487534,149 C324.487534,149 333.573844,158.911496 333.573844,159.093039 C333.573844,159.274582 332.953605,166.887816 332.953605,166.887816 L332.309662,167.436309 L332.029172,167.671929 C332.029172,167.671929 331.594609,170.997649 331.286465,171.994206 C330.97832,172.990763 331.310168,174.721219 331.345723,174.906625 L331.345723,174.906625 C331.31666,175.427055 331.241315,175.944023 331.120541,176.451675 C331.068987,176.646907 330.998889,176.837002 330.91116,177.019481 C330.799823,177.357614 330.822381,177.724293 330.97437,178.046939 C331.149929,178.49477 331.377947,178.921213 331.653868,179.317743 L335,179.348644 Z" id="Path" fill="#3F3D56" fill-rule="nonzero"></path>
                <path d="M387.999309,180.735595 C388.094189,180.924912 378.396676,189.575508 374.194289,193.311608 L372.288785,195 L371,179.3447 L374.340562,179.3447 C374.340562,179.3447 375.4554,177.772216 375.083787,177.045859 C374.824737,176.368643 374.679228,175.655004 374.652875,174.932471 C374.652875,174.932471 375.020534,173.000672 374.712175,172 C374.403815,170.999328 373.968949,167.676634 373.968949,167.676634 L373.545943,167.321183 L373.04387,166.892323 C373.04387,166.892323 372.423198,159.277171 372.423198,159.095582 C372.423198,158.913993 381.515851,149 381.515851,149 L383.682275,149.846128 C383.682275,149.846128 383.729715,150.07408 383.808781,150.437259 C384.101328,151.754746 384.801067,154.872669 385.04222,155.347892 C386.037675,157.690107 386.602435,160.185614 386.710524,162.719637 C386.81331,166.289602 387.872802,180.492189 387.999309,180.735595 Z" id="Path" fill="#3F3D56" fill-rule="nonzero"></path>
                <path d="M387.872268,313.370112 C387.320709,314.514665 383.448538,313.762082 382.64934,313.699367 C381.850141,313.636651 376.206977,310.669435 376.128183,309.975648 C376.049389,309.28186 374.094543,307.851168 373.546735,307.851168 C372.998928,307.851168 370.338687,305.640455 370.102304,305.315119 C370.042401,305.152839 370.015564,304.979288 370.02351,304.805558 C369.940964,303.461099 370.102304,300 370.102304,300 L381.452418,300.654591 L386.968011,309.321057 C387.432883,310.256054 387.768894,311.25501 387.966071,312.288273 C388.033002,312.650916 388.000485,313.025935 387.872268,313.370112 L387.872268,313.370112 Z" id="Path" fill="#3F3D56" fill-rule="nonzero"></path>
                <path d="M387.872268,313.370112 C387.320709,314.514665 383.448538,313.762082 382.64934,313.699367 C381.850141,313.636651 376.206977,310.669435 376.128183,309.975648 C376.049389,309.28186 374.094543,307.851168 373.546735,307.851168 C372.998928,307.851168 370.338687,305.640455 370.102304,305.315119 C370.042401,305.152839 370.015564,304.979288 370.02351,304.805558 C369.940964,303.461099 370.102304,300 370.102304,300 L381.452418,300.654591 L386.968011,309.321057 C387.432883,310.256054 387.768894,311.25501 387.966071,312.288273 C388.033002,312.650916 388.000485,313.025935 387.872268,313.370112 L387.872268,313.370112 Z" id="Path" fill="#000000" fill-rule="nonzero" opacity="0.1"></path>
                <path d="M387.872111,312.383432 C387.319872,313.503781 383.442931,312.767113 382.642748,312.705724 C381.842566,312.644336 376.19245,309.739869 376.113559,309.060754 C376.034667,308.381638 374.077413,306.981202 373.528931,306.981202 C372.980449,306.981202 370.316931,304.817241 370.080257,304.498785 C370.02028,304.339937 369.99341,304.170056 370.001366,304 L373.682957,306.378823 C373.682957,306.378823 376.034667,307.913547 376.662041,308.822872 C377.289414,309.732196 382.233265,311.623744 382.642748,311.662112 C382.947043,311.692806 386.192854,311.055896 387.966029,311.324472 C388.033043,311.679446 388.000486,312.046534 387.872111,312.383432 L387.872111,312.383432 Z" id="Path" fill="#000000" fill-rule="nonzero" opacity="0.1"></path>
                <path d="M333,305.812762 C333,305.812762 331.422434,307.906459 329.314098,308.067815 C328.158677,308.077087 327.212503,309.05101 327.161531,310.283512 C327.161531,310.283512 327.530121,311.558621 322.432518,313.325669 C319.35479,314.384324 317.419691,314.049804 316.291805,313.325669 C315.686505,312.969058 315.229687,312.381503 315.012797,311.680622 C314.666322,310.370094 321.470498,300.393552 321.470498,300.393552 L327.662813,300 L332.085896,302.133052 L332.764102,304.836753 L333,305.812762 Z" id="Path" fill="#3F3D56" fill-rule="nonzero"></path>
                <path d="M333,305.812762 C333,305.812762 331.422434,307.906459 329.314098,308.067815 C328.158677,308.077087 327.212503,309.05101 327.161531,310.283512 C327.161531,310.283512 327.530121,311.558621 322.432518,313.325669 C319.35479,314.384324 317.419691,314.049804 316.291805,313.325669 C315.686505,312.969058 315.229687,312.381503 315.012797,311.680622 C314.666322,310.370094 321.470498,300.393552 321.470498,300.393552 L327.662813,300 L332.085896,302.133052 L332.764102,304.836753 L333,305.812762 Z" id="Path" fill="#000000" fill-rule="nonzero" opacity="0.1"></path>
                <path d="M334,304.972412 C334,304.972412 332.300463,307.025282 330.02912,307.183491 C328.784367,307.192582 327.765039,308.147515 327.710126,309.355983 C327.710126,309.355983 328.107214,310.606227 322.615486,312.338818 C319.299801,313.376829 317.215089,313.048833 316,312.338818 C319.125083,312.022398 326.030443,310.104586 326.721377,309.440876 C327.551291,308.634392 328.58769,306.419453 329.290536,306.380866 C329.778954,306.349995 332.260754,304.899095 333.749835,304 L334,304.972412 Z" id="Path"></path>
                <path d="M334,304.972412 C334,304.972412 332.300463,307.025282 330.02912,307.183491 C328.784367,307.192582 327.765039,308.147515 327.710126,309.355983 C327.710126,309.355983 328.107214,310.606227 322.615486,312.338818 C319.299801,313.376829 317.215089,313.048833 316,312.338818 C319.125083,312.022398 326.030443,310.104586 326.721377,309.440876 C327.551291,308.634392 328.58769,306.419453 329.290536,306.380866 C329.778954,306.349995 332.260754,304.899095 333.749835,304 L334,304.972412 Z" id="Path" fill="#000000" fill-rule="nonzero" opacity="0.1"></path>
                <path d="M381.896488,296.772622 C381.171614,298.442792 381.896488,301.86321 381.896488,301.86321 C381.896488,301.86321 371.100484,302.419934 368.463175,300.669686 C365.825865,298.919439 363.959699,288.894603 363.959699,288.894603 C363.959699,288.894603 364.34527,277.123333 363.959699,276.56661 C363.574127,276.009886 362.108955,273.386422 362.59092,272.829699 C363.072884,272.272975 362.205348,269.329204 361.546021,268.055604 C360.886693,266.782004 361.160449,263.125169 361.160449,263.125169 L359.54876,253.416826 L357.057968,241.885786 L354.94118,234.167921 C354.94118,234.167921 352.770412,227.883809 352.03397,225.260345 C351.297529,222.636881 350.518674,225.020115 350.518674,225.020115 C350.44156,227.567316 344.488335,239.022092 344.488335,239.022092 C344.488335,239.022092 343.60152,245.943004 342.637591,248.406315 C341.673662,250.869626 340.624908,259.464521 340.624908,259.464521 C340.624908,259.464521 339.082622,276.96318 337.810235,279.906951 C336.537849,282.850721 335.662602,287.224433 335.662602,287.224433 C335.662602,287.224433 335.986482,293.272128 335.180637,293.748775 C334.374793,294.225421 334.505887,297.886069 334.505887,297.886069 C334.505887,297.886069 334.987852,301.38275 333.137108,301.943287 C331.286364,302.503823 331.594822,303.693534 331.594822,303.693534 C331.594822,303.693534 321.300061,305.363704 319.611258,300.906103 C317.922454,296.448502 320.255162,295.262605 320.382401,294.942298 C320.509639,294.621991 321.793593,294.069081 320.667724,292.791668 C319.541855,291.514254 322.113617,288.021386 322.113617,288.021386 C322.113617,288.021386 322.518467,283.090951 323.239486,282.930798 C323.960505,282.770645 323.725306,275.613316 323.725306,275.613316 L324.527295,268.135681 C324.527295,268.135681 325.57605,251.430163 325.33314,250.793362 C325.090229,250.156562 325.252169,246.980188 326.058014,245.454918 C326.863859,243.929648 327.503907,230.019187 327.503907,230.019187 C327.503907,230.019187 327.341967,223.182165 327.985872,221.908565 C328.371443,221.187875 328.533384,218.415697 328.625921,216.154484 C328.695324,214.427116 328.710746,212.997175 328.710746,212.997175 L337.717698,209.656834 L349.284845,206 L359.016671,210.613941 L373.255829,213.317482 L373.433192,215.746474 L376.151472,252.852477 L377.693758,266.850641 C377.693758,266.850641 378.337663,273.451246 378.418633,274.64477 C378.499603,275.838293 379.301591,283.636235 379.301591,283.636235 C379.301591,283.636235 380.990395,287.373147 379.945496,288.646747 C378.900597,289.920347 379.301591,290.934652 379.301591,290.934652 C379.301591,290.934652 382.621363,295.102452 381.896488,296.772622 Z" id="Path" fill="#3F3D56" fill-rule="nonzero"></path>
                <path d="M358.730057,119.595079 C357.853268,121.018631 357.78465,122.860622 358.078184,124.685358 C353.960214,127.972813 348.407971,127.737889 344.518449,124.111623 L344.518449,124.111623 C344.278285,122.282574 344,120.940983 344,120.940983 C344,120.940983 361.3528,115.341676 358.730057,119.595079 Z" id="Path" fill="#000000" fill-rule="nonzero" opacity="0.1"></path>
                <path d="M364,116.500066 C364,122.851304 358.851172,128 352.499934,128 C346.148696,128 341,122.851304 341,116.500066 C341,110.148828 346.148696,105 352.499934,105 C355.554388,104.985432 358.487991,106.192308 360.647841,108.352159 C362.807692,110.512009 364.014568,113.445612 364,116.500066 L364,116.500066 Z" id="Path" fill="#C37098" fill-rule="nonzero"></path>
                <polygon id="Path" fill="#000000" fill-rule="nonzero" opacity="0.1" points="366 134.203989 362.27081 200 342.012764 195.785514 338 169.409377 341.973918 134 344.965039 134.381036 350.240289 135.046886 355.465039 135.36634 361.128746 134.742827"></polygon>
                <polygon id="Path" fill="#548E4E" fill-rule="nonzero" points="366 134.200152 362.27081 200 342.012764 195.785269 338 169.407593 341.973918 134 344.965039 134.377209 350.240289 135.043098 355.465039 135.362571 361.128746 134.739021"></polygon>
                <path d="M348,137 L356,137.241131 L353.750799,140.069642 C353.750799,140.069642 353.908413,145.784074 354.977636,147.422237 C356.046858,149.0604 355.731629,174.367718 355.731629,174.367718 L353.601704,178 L349.959531,173.927558 L350.00639,140.51363 L348,137 Z" id="Path" fill="#3F3D56" fill-rule="nonzero"></path>
                <path d="M348,137 L356,137.241131 L353.750799,140.069642 C353.750799,140.069642 353.908413,145.784074 354.977636,147.422237 C356.046858,149.0604 355.731629,174.367718 355.731629,174.367718 L353.601704,178 L349.959531,173.927558 L350.00639,140.51363 L348,137 Z" id="Path" fill="#000000" fill-rule="nonzero" opacity="0.1"></path>
                <polygon id="Path" fill="#000000" fill-rule="nonzero" opacity="0.1" points="360.245113 130 353 137.153872 357.139474 141 364 135.037211"></polygon>
                <polygon id="Path" fill="#548E4E" fill-rule="nonzero" points="360.245113 129 353 136.153872 357.139474 140 364 134.037211"></polygon>
                <polygon id="Path" fill="#000000" fill-rule="nonzero" opacity="0.1" points="352 136.584402 344.688305 130 344 133.44632 347.354972 141"></polygon>
                <polygon id="Path" fill="#548E4E" fill-rule="nonzero" points="352 135.584402 344.68866 129 344 132.44632 347.356701 140"></polygon>
                <path d="M375,214.674161 C371.705208,216.368301 368.176031,217.470001 364.551982,217.93571 C357.892338,218.850281 353.535128,209.704579 353.535128,209.704579 L350.992777,213.275161 C350.184023,217.067078 337.87471,218.023409 332.87127,216.586824 C331.833075,216.310067 330.856775,215.811654 330,215.121006 C330.069653,213.229224 330.085132,211.663179 330.085132,211.663179 L339.124602,208.004899 L350.733511,204 L360.500473,209.053104 L374.79104,212.013973 L375,214.674161 Z" id="Path" fill="#000000" fill-rule="nonzero" opacity="0.1"></path>
                <path d="M366,134.204001 L362.275728,200 L342.019417,195.785269 L338,169.411442 L341.968932,134 L344.959223,134.384907 C344.882782,135.674809 344.736291,136.959694 344.520388,138.233977 C344.034951,140.485683 347.03301,156.463171 347.03301,156.463171 C347.03301,156.463171 352.730097,174.380591 355.293204,171.797866 C357.856311,169.21514 361.506796,155.577885 361.506796,155.577885 C363.980583,150.520208 361.549515,136.332536 361.36699,136.047705 C361.23982,135.628139 361.161639,135.195497 361.133981,134.758267 L366,134.204001 Z" id="Path" fill="#000000" fill-rule="nonzero" opacity="0.1"></path>
                <polygon id="Path" fill="#000000" fill-rule="nonzero" opacity="0.1" points="373.836431 185.187423 374 191.383477 372.208178 193 371 178 373.67658 178"></polygon>
                <path d="M332.145181,173 L332.145181,173 C332.116999,173.673674 332.04394,174.342867 331.92683,175 C331.92683,174.815 331.92683,174.71 331.896184,174.695 C331.781263,174.655 331.919168,173.89 332.145181,173 Z" id="Path" fill="#000000" fill-rule="nonzero" opacity="0.1"></path>
                <path d="M335,178.276649 L333.647945,194 C333.647945,194 331.621918,192.265465 329,190.007076 L329.312329,187.220954 C329.312329,187.220954 330.417808,180.375942 330.820548,177 C331.003174,177.449891 331.24037,177.878295 331.527397,178.276649 L335,178.276649 Z" id="Path" fill="#000000" fill-rule="nonzero" opacity="0.1"></path>
                <path d="M346.085373,129.911626 C346.085373,129.911626 344.903618,128.132289 343.282494,131.566913 C343.282494,131.566913 339.055448,134.075042 337.600981,134.35803 C336.146514,134.641018 330.97255,136.501762 330.97255,136.501762 C330.191145,137.07987 329.251273,137.390563 328.287088,137.389493 C326.665963,137.389493 325.321339,141.029574 325.518298,143.010492 C325.715257,144.991409 325.40088,146.448993 323.90096,146.5304 C322.401041,146.611808 323.226754,149.802209 323.226754,149.802209 L333.222429,161.528776 C333.222429,161.528776 333.85497,172.324971 333.540593,172.650601 C333.226216,172.976232 332.078551,176.139497 332.355051,176.248041 C332.631551,176.356584 330.839981,188.296362 330.839981,188.296362 L328.43102,211.466507 C328.43102,211.466507 328.43102,215.343059 333.332271,216.680469 C338.233523,218.017879 350.289692,217.134025 351.066166,213.614117 L353.554668,210.295789 C353.554668,210.295789 357.81959,218.789312 364.338179,217.940348 C370.856768,217.091383 375.00806,214.664662 375.00806,214.664662 L374.295977,186.896927 L373.822517,166.882293 L384,149.76732 C384,149.76732 381.272874,144.429309 381.511498,142.014218 C381.750121,139.599127 382.219793,137.769395 376.413287,136.92043 C376.413287,136.92043 371.515823,136.172256 368.629615,134.129313 C366.914382,132.910418 365.040029,131.944727 363.061732,131.260665 C363.061732,131.260665 361.433032,128.159425 360.300517,129.2216 C360.300517,129.2216 361.43682,133.605979 361.342128,134.261116 C361.247436,134.916253 361.520149,137.877938 361.698169,138.184186 C361.87619,138.490433 364.247275,152.760018 361.834526,157.853806 C361.834526,157.853806 358.29305,171.588426 355.774246,174.189592 C353.255442,176.790758 347.717861,158.745413 347.717861,158.745413 C347.717861,158.745413 344.793776,142.649973 345.267235,140.386067 C345.740695,138.122161 346.085373,129.911626 346.085373,129.911626 Z" id="Path" fill="#3F3D56" fill-rule="nonzero"></path>
                <circle id="Oval" fill="#3F3D56" fill-rule="nonzero" cx="353.5" cy="179.5" r="1.5"></circle>
                <circle id="Oval" fill="#3F3D56" fill-rule="nonzero" cx="353.5" cy="187.5" r="1.5"></circle>
                <circle id="Oval" fill="#000000" fill-rule="nonzero" opacity="0.1" cx="353.5" cy="179.5" r="1.5"></circle>
                <circle id="Oval" fill="#000000" fill-rule="nonzero" opacity="0.1" cx="353.5" cy="187.5" r="1.5"></circle>
                <path d="M370,293 C370,293 378.144071,293.907407 378.952426,294.814815 C379.760782,295.722222 370,293 370,293 Z" id="Path" stroke="#548E4E" fill="#000000" fill-rule="nonzero" opacity="0.1"></path>
                <path d="M327,287 C327,287 329.940313,288.959271 328.69068,289.860536 C327.441047,290.7618 327,287 327,287 Z" id="Path" stroke="#548E4E" fill="#000000" fill-rule="nonzero" opacity="0.1"></path>
                <path d="M330,294.747197 C330,294.747197 332.057613,291.645921 332.880658,293.706977 C333.703704,295.768033 330,294.747197 330,294.747197 Z" id="Path" stroke="#548E4E" fill="#000000" fill-rule="nonzero" opacity="0.1"></path>
                <path d="M363.99215,115.173289 C363.994355,116.127002 363.870359,117.077031 363.623214,118 C363.127532,117.780233 362.824108,117.284663 362.861792,116.7564 C362.912815,116.302448 363.222879,115.886643 363.156156,115.436505 C363.058035,114.742226 362.194567,114.459936 361.739283,113.910616 C361.178029,113.246854 361.2997,112.281729 361.346798,111.423416 C361.393896,110.565103 361.170179,109.516054 360.342035,109.22232 C360.094769,109.134581 359.823954,109.126952 359.584538,109.027769 C358.933012,108.760738 358.732844,107.974905 358.297185,107.433214 C357.425868,106.342203 355.695006,106.365092 354.37233,106.883894 C353.796617,107.152168 353.207113,107.391539 352.606145,107.601062 C351.997824,107.809615 351.327464,107.761198 350.757539,107.467547 C350.498498,107.307329 350.290481,107.086075 350.023591,106.925856 C349.136574,106.407054 347.974816,106.925856 347.205545,107.593433 C346.436273,108.26101 345.820071,109.15747 344.850632,109.565645 C344.414973,109.756381 343.877268,109.870823 343.673175,110.282813 C343.572154,110.507105 343.529039,110.751989 343.54758,110.996167 C343.54758,112.480094 343.728123,113.98691 343.41021,115.44032 C343.206117,116.374928 342.531042,117.435421 341.553753,117.320979 C341.43197,117.303465 341.312312,117.27407 341.196592,117.23324 C340.394296,113.066464 342.086294,108.817155 345.565582,106.260894 C349.044869,103.704633 353.71258,103.281413 357.618302,105.168076 C361.524024,107.05474 363.995493,110.926548 364,115.16566 L363.99215,115.173289 Z" id="Path" fill="#000000" fill-rule="nonzero" opacity="0.1"></path>
                <path d="M340.169576,117.935421 C340.457161,118.001957 340.729408,118.154599 341.024663,118.193738 C341.979445,118.311155 342.638974,117.223092 342.838366,116.264188 C343.148958,114.772994 342.98791,113.227006 342.976407,111.704501 C342.954991,111.454209 342.995879,111.202452 343.095275,110.972603 C343.31384,110.549902 343.839162,110.432485 344.245616,110.236791 C345.173557,109.81409 345.779403,108.913894 346.546297,108.213307 C347.313191,107.51272 348.429021,106.996086 349.295611,107.528376 C349.55252,107.684932 349.759582,107.919765 350.012657,108.084149 C350.57207,108.381016 351.226333,108.430537 351.822526,108.221135 C352.416868,108.041096 352.972866,107.72407 353.544202,107.485323 C354.824914,106.953033 356.51975,106.933464 357.37867,108.04501 C357.804296,108.604697 357.999854,109.407045 358.636376,109.681018 C358.870279,109.782779 359.134857,109.794521 359.376428,109.88454 C360.185501,110.193738 360.392563,111.262231 360.358052,112.142857 C360.323542,113.023483 360.208508,114.013699 360.741499,114.694716 C361.186298,115.250489 362.029881,115.540117 362.125742,116.260274 C362.187094,116.722114 361.888005,117.152642 361.838157,117.614481 C361.815082,117.961206 361.929037,118.302918 362.154563,118.563269 C362.380088,118.823619 362.698388,118.980911 363.038346,119 C364.035308,119 364.652657,117.861057 365.584433,117.497065 C365.96788,117.344423 366.43185,117.320939 366.734773,117.011742 C366.962688,116.710936 367.049615,116.323111 366.97251,115.951076 C366.784622,114.452055 365.60744,113.148728 365.733977,111.645793 C365.852846,110.205479 367.160399,108.949119 366.884318,107.53229 C366.743687,107.009862 366.480465,106.530277 366.117424,106.135029 C365.706398,105.566405 365.1706,105.103956 364.552961,104.784736 C364.01997,104.549902 363.40262,104.495108 362.915643,104.209393 C361.466214,103.399217 361.470048,101.285714 360.614962,99.8454012 C359.866794,98.6319209 358.517499,97.9463194 357.117927,98.0684932 C356.040441,98.1780822 355.062651,98.7612524 353.996669,98.9569472 C352.535737,99.223092 351.055632,98.7338552 349.671389,98.1741683 C348.287146,97.6144814 346.887565,97 345.403625,97 C343.919686,97 342.313044,97.7827789 341.860577,99.2152642 C341.62284,99.9980431 341.741708,100.835616 341.557654,101.622309 C341.235558,103.019569 340.023866,104.013699 338.804505,104.706458 C337.964757,105.183953 336.956292,105.731898 336.856595,106.706458 C336.791409,107.324853 337.125008,107.880626 337.335904,108.479452 C337.694596,109.492509 337.686435,110.603116 337.312897,111.610568 C337.032981,112.350294 336.565176,113 336.281425,113.735812 C335.87406,114.745973 335.910355,115.885897 336.381121,116.866928 C336.742299,117.581603 337.376264,118.11259 338.133473,118.334638 C338.888864,118.518591 339.364338,117.755382 340.169576,117.935421 Z" id="Path" fill="#3F3D56" fill-rule="nonzero"></path>
                <g id="Group" opacity="0.1" transform="translate(336.000000, 106.000000)" fill="#000000" fill-rule="nonzero">
                    <path d="M7.03170732,8.73454545 C6.83512195,9.62545455 6.18109756,10.6363636 5.2397561,10.5272727 C4.94865854,10.4909091 4.68402439,10.3490909 4.39670732,10.2872727 C3.60658537,10.12 3.13780488,10.8327273 2.39304878,10.6509091 C1.64551012,10.4447076 1.01924947,9.95148798 0.661585366,9.28727273 C0.463862633,8.9171464 0.34436528,8.51299643 0.31,8.09818182 C0.234701425,8.74205012 0.356918133,9.39304014 0.661585366,9.97090909 C1.01924947,10.6351243 1.64551012,11.128344 2.39304878,11.3345455 C3.14914634,11.5018182 3.60658537,10.7890909 4.39670732,10.9709091 C4.67332771,11.0635387 4.9547152,11.1424306 5.2397561,11.2072727 C6.18109756,11.32 6.83512195,10.3090909 7.03170732,9.41818182 C7.18669814,8.63107801 7.24758165,7.82950476 7.21317073,7.02909091 C7.20951626,7.60184915 7.14875015,8.17294958 7.03170732,8.73454545 Z" id="Path"></path>
                    <path d="M1.85243902,3.25818182 C1.90059469,2.66230674 1.81551602,2.06342185 1.60292683,1.50181818 C1.43191138,1.12839442 1.28667771,0.744531633 1.16817073,0.352727273 C1.15193785,0.413809068 1.139316,0.475726475 1.13036585,0.538181818 C1.06609756,1.10909091 1.39878049,1.62909091 1.60292683,2.18545455 C1.73493512,2.53087617 1.81883431,2.89158379 1.85243902,3.25818182 L1.85243902,3.25818182 Z" id="Path"></path>
                    <path d="M30.7353659,1.34181818 C30.5576829,2.37454545 29.6881707,3.34545455 29.6012195,4.43272727 C29.5802593,4.61884956 29.5802593,4.80660499 29.6012195,4.99272727 C29.7902439,3.72363636 30.9584146,2.6 30.7353659,1.34181818 Z" id="Path"></path>
                    <path d="M30.7996341,9.01454545 C30.7675745,9.16660206 30.6930815,9.3073942 30.5841463,9.42181818 C30.3043902,9.70909091 29.8280488,9.73090909 29.45,9.87272727 C28.5313415,10.2109091 27.9378049,11.28 26.9397561,11.2690909 C26.4166852,11.2405916 25.9658539,10.9052401 25.8056098,10.4254545 C25.7825641,10.5042632 25.7648843,10.5844332 25.7526829,10.6654545 C25.730985,10.9869881 25.8438121,11.3035236 26.0660525,11.5446101 C26.2882929,11.7856966 26.6015043,11.9313278 26.9359756,11.9490909 C27.9226829,11.9490909 28.527561,10.8909091 29.4462195,10.5563636 C29.8242683,10.4145455 30.2854878,10.3927273 30.5803659,10.1054545 C30.8050718,9.82597849 30.890775,9.46565369 30.8147561,9.12 C30.8109756,9.07636364 30.8034146,9.04727273 30.7996341,9.01454545 Z" id="Path"></path>
                    <path d="M26.0589024,8.71272727 C25.9643902,8.05090909 25.1326829,7.78181818 24.6941463,7.25818182 C24.425273,6.91422653 24.2793824,6.49579162 24.2782927,6.06545455 C24.2480488,6.74181818 24.2593902,7.43272727 24.6941463,7.94181818 C25.1289024,8.45090909 25.7904878,8.66909091 26.0021951,9.19272727 C26.0556885,9.03828131 26.0750046,8.87478032 26.0589024,8.71272727 L26.0589024,8.71272727 Z" id="Path"></path>
                    <path d="M24.3009756,4.90545455 C24.3312195,4.08727273 24.1270732,3.08727273 23.3293902,2.80727273 C23.095,2.72363636 22.8341463,2.71272727 22.6035366,2.62181818 C21.9759756,2.36727273 21.7793902,1.61818182 21.3635366,1.10181818 C20.5204878,0.0654545455 18.8532927,0.0836363636 17.5830488,0.578181818 C17.0159756,0.8 16.4753659,1.09454545 15.8856098,1.26181818 C15.2996645,1.46061971 14.6539614,1.41446676 14.105,1.13454545 C13.8554878,0.981818182 13.6513415,0.770909091 13.3980488,0.618181818 C12.539878,0.123636364 11.4208537,0.618181818 10.6836585,1.25454545 C9.94646341,1.89090909 9.34914634,2.74181818 8.41536585,3.13454545 C7.99195122,3.31636364 7.47780488,3.42545455 7.25853659,3.81818182 C7.16237591,4.03225586 7.1221406,4.26571274 7.14134146,4.49818182 C7.14134146,4.64 7.14134146,4.78181818 7.14134146,4.92363636 C7.14635119,4.77713992 7.18372409,4.63334739 7.25097561,4.50181818 C7.4702439,4.10909091 7.98439024,4 8.40780488,3.81818182 C9.32268293,3.42545455 9.92,2.58909091 10.6760976,1.93818182 C11.4321951,1.28727273 12.5323171,0.807272727 13.3904878,1.30181818 C13.6437805,1.44727273 13.8479268,1.66545455 14.097439,1.81454545 C14.64587,2.09623067 15.2923571,2.14243966 15.8780488,1.94181818 C16.4558798,1.74397073 17.0224774,1.51698974 17.5754878,1.26181818 C18.8419512,0.767272727 20.5091463,0.745454545 21.3559756,1.78181818 C21.7718293,2.29818182 21.9684146,3.04727273 22.5959756,3.30181818 C22.8265854,3.39636364 23.087439,3.40727273 23.3218293,3.49090909 C23.9682927,3.72363636 24.2253659,4.42181818 24.2820732,5.11272727 L24.3009756,4.90545455 Z" id="Path"></path>
                </g>
                <g id="Group" opacity="0.1" transform="translate(342.000000, 112.000000)" fill="#000000" fill-rule="nonzero">
                    <path d="M0.0113207547,3.184 C0.0557407059,1.82021401 0.944597332,0.651444439 2.19245283,0.316 C3.87517121,-0.120005828 5.64055522,-0.0353250197 7.27924528,0.56 C10.8603774,1.816 6.82641509,6.336 6.82641509,6.336 C6.82641509,6.336 4.14339623,9.136 1.64150943,7.18 C0.902545291,6.58797571 0.385186248,5.73774224 0.181132075,4.78 C0.0586311335,4.25821729 0.00153580624,3.72159734 0.0113207547,3.184 L0.0113207547,3.184 Z" id="Path"></path>
                    <path d="M19.6981132,3.184 C19.6532268,1.81906672 18.7625558,0.649934094 17.5132075,0.316 C15.8316843,-0.119223218 14.0677175,-0.0345475723 12.4301887,0.56 C8.8490566,1.816 12.8830189,6.336 12.8830189,6.336 C12.8830189,6.336 15.5622642,9.136 18.0679245,7.18 C18.8068887,6.58797571 19.3242477,5.73774224 19.5283019,4.78 C19.6508028,4.25821729 19.7078982,3.72159734 19.6981132,3.184 L19.6981132,3.184 Z" id="Path"></path>
                    <polygon id="Path" points="6.60377358 0.192 6.60377358 0.38 13.1433962 0.38 13.1433962 0.156"></polygon>
                    <path d="M8.69056604,2.196 L8.89811321,2.196 L8.89811321,1.56 C8.89811321,1.56 9.56226415,1.012 10.6641509,1.56 L10.6641509,2.128 L11.0415094,2.128 L11.0415094,1.756 L10.8566038,1.756 C10.8566038,1.756 10.9320755,0.984 9.70188679,1.108 C9.70188679,1.108 8.71320755,1.008 8.73584906,1.672 L8.50943396,1.672 L8.69056604,2.196 Z" id="Path"></path>
                </g>
                <path d="M342.001189,115.208456 C342.046872,113.815136 342.960997,112.621056 344.244327,112.278347 C345.975156,111.835875 347.789923,111.922351 349.475727,112.527631 C353.158664,113.814917 349.010024,118.428715 349.010024,118.428715 C349.010024,118.428715 346.250732,121.289352 343.677721,119.290993 C342.916243,118.687623 342.383786,117.818339 342.175828,116.839019 C342.049442,116.306013 341.990717,115.757716 342.001189,115.208456 L342.001189,115.208456 Z" id="Path" fill="#548E4E" fill-rule="nonzero"></path>
                <path d="M361.998811,115.208506 C361.952648,113.814028 361.036657,112.619589 359.751792,112.278427 C358.022277,111.835843 356.20872,111.922325 354.524273,112.527708 C350.841336,113.814981 354.989976,118.428732 354.989976,118.428732 C354.989976,118.428732 357.745387,121.289339 360.322279,119.291 C361.083757,118.687636 361.616214,117.818362 361.824172,116.839052 C361.950558,116.306051 362.009283,115.757759 361.998811,115.208506 Z" id="Path" fill="#548E4E" fill-rule="nonzero"></path>
                <polygon id="Path" fill="#548E4E" fill-rule="nonzero" points="349 111.925091 349 112.109482 355 112.109482 355 111.890518"></polygon>
                <path d="M350.214605,114 L350.460507,114 L350.460507,112.844402 C350.460507,112.844402 351.247392,111.855965 352.552906,112.844402 L352.552906,113.883713 L353,113.883713 L353,113.200529 L352.780924,113.200529 C352.780924,113.200529 352.870343,111.80509 351.412817,112.023127 C351.412817,112.023127 350.241431,111.848697 350.268256,113.047903 L350,113.047903 L350.214605,114 Z" id="Path" fill="#548E4E" fill-rule="nonzero"></path>
                <rect id="Rectangle" fill="#535461" fill-rule="nonzero" x="44" y="175" width="2" height="49"></rect>
                <path d="M60.9934653,224.277073 L60.8580792,226.46432 L60.670043,229.551527 L60.5910679,230.838812 L60.4030317,233.929816 L60.3202958,235.217102 L60.1322596,238.304309 L57.977365,273.417965 C57.7865734,276.554614 55.2116418,279 52.0993541,279 L40.8999193,279 C37.7883408,279 35.2145509,276.554015 35.0256691,273.417965 L32.8594924,238.304309 L32.6714562,235.217102 L32.592481,233.929816 L32.4082055,230.831218 L32.3292303,229.543932 L32.1411942,226.456725 L32.0058081,224.269479 C31.9539027,223.421005 32.2516508,222.588606 32.8285273,221.969443 C33.4054038,221.35028 34.2100925,221 35.0519942,221 L57.9510399,221 C58.7940356,220.999228 59.5996576,221.351224 60.1761936,221.972225 C60.7527295,222.593226 61.0486246,223.427702 60.9934653,224.277073 L60.9934653,224.277073 Z" id="Path" fill="#3F3D56" fill-rule="nonzero"></path>
                <polygon id="Path" fill="#9D9CB5" fill-rule="nonzero" points="61 226 60.8101349 229 32.1898651 229 32 226"></polygon>
                <polygon id="Path" fill="#9D9CB5" fill-rule="nonzero" points="61 231 60.8065377 234 32.1973316 234 32 231"></polygon>
                <polygon id="Path" fill="#9D9CB5" fill-rule="nonzero" points="60 237 59.8095497 240 32.1942593 240 32 237"></polygon>
                <path d="M28.0160187,194.341179 C40.7114967,203.176532 46,217 46,217 C46,217 30.6986484,216.494173 17.9839813,207.658821 C5.2693142,198.823468 0,185 0,185 C0,185 15.3167028,185.505827 28.0160187,194.341179 Z" id="Path" fill="#548E4E" fill-rule="nonzero"></path>
                <path d="M0,185 C0,185 15.8874885,193.491001 20.9823888,200.505307 C26.077289,207.519612 46,217 46,217" id="Path" stroke="#535461" stroke-width="2"></path>
                <path d="M35.8288606,176.254611 C43.005674,181.215391 46,189 46,189 C46,189 37.3479528,188.717617 30.1671523,183.745389 C22.9863518,178.773161 20,171 20,171 C20,171 28.6520472,171.263303 35.8288606,176.254611 Z" id="Path" fill="#548E4E" fill-rule="nonzero"></path>
                <path d="M20,171 C20,171 28.978991,175.769981 31.8576905,179.719525 C34.7363901,183.669069 46,189 46,189" id="Path" stroke="#535461" stroke-width="2"></path>
                <path d="M55.7028037,186.619048 C47.6919893,195.45481 46,207 46,207 C46,207 57.2902537,204.220603 65.2971963,195.38484 C73.3041389,186.549077 75,175 75,175 C75,175 63.7097463,177.779397 55.7028037,186.619048 Z" id="Path" fill="#548E4E" fill-rule="nonzero"></path>
                <path d="M75,177 C75,177 64.5692924,186.052938 61.9170895,192.292861 C59.2648865,198.532783 46,209 46,209" id="Path" stroke="#535461" stroke-width="2"></path>
            </g>
        </g>
    </g>
</svg>