<?xml version="1.0" encoding="UTF-8"?>
<svg width="445px" height="349px" viewBox="0 0 445 349" version="1.1" xmlns="http://www.w3.org/2000/svg" xmlns:xlink="http://www.w3.org/1999/xlink">
    <!-- Generator: sketchtool 58 (101010) - https://sketch.com -->
    <title>0D872F0C-CDF2-41CA-B68A-C8DE39D7C364</title>
    <desc>Created with sketchtool.</desc>
    <defs>
        <linearGradient x1="49.9897195%" y1="100.003707%" x2="49.9897195%" y2="0.00740009191%" id="linearGradient-1">
            <stop stop-color="#808080" stop-opacity="0.25" offset="0%"></stop>
            <stop stop-color="#808080" stop-opacity="0.12" offset="54%"></stop>
            <stop stop-color="#808080" stop-opacity="0.1" offset="100%"></stop>
        </linearGradient>
    </defs>
    <g id="Page-1" stroke="none" stroke-width="1" fill="none" fill-rule="evenodd">
        <g id="Login-Screen" transform="translate(-113.000000, -210.000000)">
            <g id="undraw_mobile_payments_edgf-3-copy" transform="translate(78.000000, 192.000000)">
                <path d="M316.377327,63.5436753 C292.725786,62.7287557 270.196227,55.1171503 248.68159,46.8143566 C227.166953,38.5115629 205.85787,29.2701182 182.771603,24.8584591 C167.920337,22.0211734 150.940732,21.6201135 138.971502,29.5517135 C127.460486,37.1846518 123.739105,50.3641636 121.739237,62.5879581 C120.231842,71.7867368 119.349674,81.4719073 123.473598,90.0818958 C126.334223,96.0551287 131.417398,101.085444 134.933225,106.811215 C147.16368,126.74048 138.517571,151.3118 125.26363,170.767473 C119.045625,179.872386 111.829829,188.580506 107.037854,198.278477 C102.24588,207.976447 100.019047,219.129326 104.215771,229.03636 C108.378237,238.849528 118.291928,246.23927 129.053529,251.431716 C150.872214,261.970206 176.587858,264.986689 201.644016,266.697593 C257.134993,270.477796 312.921453,268.830891 368.562312,267.201051 C389.151956,266.595195 409.831531,265.980805 430.08715,262.806459 C441.336942,261.044355 452.950734,258.249735 461.117218,251.499982 C471.48484,242.932659 474.054264,228.42197 467.112539,217.678684 C455.460204,199.656587 423.239638,195.180929 415.098848,175.840454 C410.615205,165.1953 415.218755,153.334166 421.732243,143.461265 C435.709905,122.281888 459.13448,103.700867 460.367803,79.4922072 C461.224277,62.852487 449.953074,46.2127667 432.532385,38.3451657 C414.280915,30.0978376 388.976379,31.1346202 375.508319,44.787724 C361.629152,58.8589541 337.262455,64.2689965 316.377327,63.5436753 Z" id="Path" fill="#82A946" fill-rule="nonzero" opacity="0.1"></path>
                <path d="M251,340 C251,340 230.909772,305.21975 200.634671,295.196586 C187.929785,290.989333 176.840852,283.07833 169.258975,272.265773 C165.671239,267.131153 162.57199,261.686524 160,256" id="Path" stroke="#535461" stroke-width="2"></path>
                <path d="M142.502978,248.331961 C145.94671,251.116899 162,254 162,254 C162,254 158.071789,240.722463 154.614963,237.93389 C151.148607,235.25522 145.748352,235.373477 142.455748,238.200159 C139.163145,241.02684 139.184122,245.526664 142.502978,248.331961 L142.502978,248.331961 Z" id="Path" fill="#82A946" fill-rule="nonzero"></path>
                <path d="M150.096756,275.89475 C154.769691,276.86303 170,270.831641 170,270.831641 C170,270.831641 158.131609,259.176082 153.463,258.207802 C150.414937,257.511822 147.245093,258.591802 145.174084,261.031874 C143.103075,263.471945 142.453921,266.891524 143.476593,269.973829 C144.499265,273.056134 147.034254,275.32041 150.105409,275.89475 L150.096756,275.89475 Z" id="Path" fill="#82A946" fill-rule="nonzero"></path>
                <path d="M181.246388,308.588535 C185.759258,306.946354 196,293.594514 196,293.594514 C196,293.594514 180.087796,289.76732 175.574926,291.409501 C171.208951,293.155768 168.951188,298.231168 170.475439,302.873032 C171.99969,307.514896 176.755005,310.045396 181.216013,308.588535 L181.246388,308.588535 Z" id="Path" fill="#82A946" fill-rule="nonzero"></path>
                <path d="M214.940699,323.905901 C219.678909,323.093921 232,311.821468 232,311.821468 C232,311.821468 216.847326,305.257589 212.109116,306.069568 C207.454199,306.968296 204.346318,311.573805 205.117343,316.430544 C205.888368,321.287283 210.254902,324.610119 214.940699,323.905901 L214.940699,323.905901 Z" id="Path" fill="#82A946" fill-rule="nonzero"></path>
                <path d="M188,260.554583 C188,265.280872 179.009032,279 179.009032,279 C179.009032,279 170.004516,265.289465 170,260.563176 C170,255.833865 174.029437,252 179,252 C183.970563,252 188,255.833865 188,260.563176 L188,260.554583 Z" id="Path" fill="#82A946" fill-rule="nonzero"></path>
                <path d="M221.477292,282.685943 C219.992408,287.28016 207.10686,298 207.10686,298 C207.10686,298 202.828227,282.069005 204.313111,277.474788 C205.164627,274.377433 207.700356,271.982672 210.916505,271.238498 C214.132653,270.494323 217.510671,271.520721 219.713335,273.91138 C221.915998,276.302039 222.588166,279.671506 221.463752,282.685943 L221.477292,282.685943 Z" id="Path" fill="#82A946" fill-rule="nonzero"></path>
                <path d="M249.905837,304.760224 C249.245042,309.472199 238.382665,322 238.382665,322 C238.382665,322 231.367379,307.181055 232.046278,302.464757 C232.475586,299.415284 234.575584,296.816212 237.555222,295.646585 C240.53486,294.476959 243.941461,294.914472 246.49179,296.794319 C249.04212,298.674165 250.348723,301.710751 249.919415,304.760224 L249.905837,304.760224 Z" id="Path" fill="#82A946" fill-rule="nonzero"></path>
                <path d="M142.502978,248.331961 C145.94671,251.116899 162,254 162,254 C162,254 158.071789,240.722463 154.614963,237.93389 C151.148607,235.25522 145.748352,235.373477 142.455748,238.200159 C139.163145,241.02684 139.184122,245.526664 142.502978,248.331961 L142.502978,248.331961 Z" id="Path" fill="#000000" fill-rule="nonzero" opacity="0.25"></path>
                <path d="M150.096756,275.89475 C154.769691,276.86303 170,270.831641 170,270.831641 C170,270.831641 158.131609,259.176082 153.463,258.207802 C150.414937,257.511822 147.245093,258.591802 145.174084,261.031874 C143.103075,263.471945 142.453921,266.891524 143.476593,269.973829 C144.499265,273.056134 147.034254,275.32041 150.105409,275.89475 L150.096756,275.89475 Z" id="Path" fill="#000000" fill-rule="nonzero" opacity="0.25"></path>
                <path d="M181.246388,308.588535 C185.759258,306.946354 196,293.594514 196,293.594514 C196,293.594514 180.087796,289.76732 175.574926,291.409501 C171.208951,293.155768 168.951188,298.231168 170.475439,302.873032 C171.99969,307.514896 176.755005,310.045396 181.216013,308.588535 L181.246388,308.588535 Z" id="Path" fill="#000000" fill-rule="nonzero" opacity="0.25"></path>
                <path d="M214.940699,323.905901 C219.678909,323.093921 232,311.821468 232,311.821468 C232,311.821468 216.847326,305.257589 212.109116,306.069568 C207.454199,306.968296 204.346318,311.573805 205.117343,316.430544 C205.888368,321.287283 210.254902,324.610119 214.940699,323.905901 L214.940699,323.905901 Z" id="Path" fill="#000000" fill-rule="nonzero" opacity="0.25"></path>
                <path d="M188,260.554583 C188,265.280872 179.009032,279 179.009032,279 C179.009032,279 170.004516,265.289465 170,260.563176 C170,255.833865 174.029437,252 179,252 C183.970563,252 188,255.833865 188,260.563176 L188,260.554583 Z" id="Path" fill="#000000" fill-rule="nonzero" opacity="0.25"></path>
                <path d="M221.477292,282.685943 C219.992408,287.28016 207.10686,298 207.10686,298 C207.10686,298 202.828227,282.069005 204.313111,277.474788 C205.164627,274.377433 207.700356,271.982672 210.916505,271.238498 C214.132653,270.494323 217.510671,271.520721 219.713335,273.91138 C221.915998,276.302039 222.588166,279.671506 221.463752,282.685943 L221.477292,282.685943 Z" id="Path" fill="#000000" fill-rule="nonzero" opacity="0.25"></path>
                <path d="M249.905837,304.760224 C249.245042,309.472199 238.382665,322 238.382665,322 C238.382665,322 231.367379,307.181055 232.046278,302.464757 C232.475586,299.415284 234.575584,296.816212 237.555222,295.646585 C240.53486,294.476959 243.941461,294.914472 246.49179,296.794319 C249.04212,298.674165 250.348723,301.710751 249.919415,304.760224 L249.905837,304.760224 Z" id="Path" fill="#000000" fill-rule="nonzero" opacity="0.25"></path>
                <path d="M250,339 C250,339 246.178872,299.183761 223.307295,278.004274 C213.712017,269.115385 207.046271,257.491453 204.66868,244.568376 C203.549093,238.44336 202.990562,232.227814 203,226" id="Path" stroke="#535461" stroke-width="2"></path>
                <path d="M187.671144,211.919627 C189.529983,216.362168 203.283585,226 203.283585,226 C203.283585,226 206.245969,209.878931 204.38713,205.43639 C203.183349,202.560525 200.476261,200.520965 197.285599,200.085992 C194.094938,199.65102 190.905441,200.886718 188.918561,203.327611 C186.931681,205.768504 186.449272,209.043762 187.653053,211.919627 L187.671144,211.919627 Z" id="Path" fill="#82A946" fill-rule="nonzero"></path>
                <path d="M185.634382,241.627408 C189.376932,244.168897 205,245 205,245 C205,245 198.916277,231.084042 195.173727,228.538538 C192.754724,226.833845 189.571369,226.521798 186.846881,227.722302 C184.122392,228.922806 182.280637,231.449091 182.029318,234.33042 C181.777999,237.211749 183.156216,239.999854 185.634382,241.623393 L185.634382,241.627408 Z" id="Path" fill="#82A946" fill-rule="nonzero"></path>
                <path d="M200.996543,282.98389 C205.700369,283.399365 220,275.640815 220,275.640815 C220,275.640815 207.115793,265.452639 202.424796,265.050712 C199.352352,264.705244 196.343504,266.143046 194.561073,268.808454 C192.778642,271.473862 192.501844,274.94934 193.837653,277.891733 C195.173462,280.834125 197.912624,282.782505 200.996543,282.98389 Z" id="Path" fill="#82A946" fill-rule="nonzero"></path>
                <path d="M221.213268,313.802224 C225.744451,315.057417 241,309.9275 241,309.9275 C241,309.9275 229.995092,297.512009 225.46816,296.256816 C220.972147,295.091424 216.433678,298.000411 215.27295,302.791561 C214.112221,307.58271 216.758488,312.484184 221.217519,313.802224 L221.213268,313.802224 Z" id="Path" fill="#82A946" fill-rule="nonzero"></path>
                <path d="M222.246874,240.280173 C220.234769,244.711175 206.186125,254 206.186125,254 C206.186125,254 203.795058,237.60925 205.802652,233.182648 C207.827747,228.779243 213.120128,226.799296 217.644989,228.752281 C222.16985,230.705265 224.226448,235.85712 222.246874,240.280173 L222.246874,240.280173 Z" id="Path" fill="#82A946" fill-rule="nonzero"></path>
                <path d="M242.152153,271.945194 C239.443337,275.432798 226,280 226,280 C226,280 228.272271,264.341625 230.981087,260.858238 C232.733331,258.60278 235.417068,257.575232 238.02136,258.162661 C240.625652,258.75009 242.754845,260.863252 243.606893,263.706139 C244.458941,266.549026 243.904397,269.689736 242.152153,271.945194 Z" id="Path" fill="#82A946" fill-rule="nonzero"></path>
                <path d="M263.73266,308.358139 C261.272112,312.175373 247.000933,319 247.000933,319 C247.000933,319 246.882148,303.690371 249.325726,299.873138 C251.769445,296.052307 256.979371,294.855254 260.962422,297.199447 C264.945473,299.543639 266.193348,304.541378 263.749629,308.362209 L263.73266,308.358139 Z" id="Path" fill="#82A946" fill-rule="nonzero"></path>
                <ellipse id="Oval" fill="#82A946" fill-rule="nonzero" opacity="0.1" cx="291.5" cy="358" rx="115.5" ry="9"></ellipse>
                <path d="M455.062283,126.776543 C455.396615,125.864037 452.889126,120.800271 452.889126,120.551795 C452.889126,120.303319 450.295911,117.48012 450.295911,115.903584 C450.295911,114.327047 446.866867,110.925499 446.866867,110.925499 C446.866867,110.925499 442.267661,109.014806 441.766163,104.863546 C441.264666,100.712286 436.258261,100.630889 436.245402,100.630889 L436.245402,100.630889 C436.245402,100.630889 436.266833,100.249607 436.275406,99.6798261 C436.275406,98.3946063 436.236829,96.0812108 435.658178,94.8216954 C434.800917,92.9966833 432.812071,92.4140504 432.812071,92.4140504 C432.812071,92.4140504 432.310574,89.1752966 431.307578,88.1771092 C430.166959,86.9869815 429.7242,85.2914342 430.137417,83.6959763 C430.638914,82.1237241 429.468753,78.1266906 427.042704,77.5569099 C424.616655,76.9871291 421.856274,76.0617709 421.856274,76.0617709 C421.856274,76.0617709 421.586237,76.1131797 421.187611,76.1688725 L420.853279,76.0617709 C420.272409,76.1698283 419.685549,76.2427898 419.095894,76.2802582 C418.582996,76.2944751 418.081217,76.129323 417.677127,75.8132951 C416.819865,74.900789 410.068934,73.1571742 408.813047,73.1571742 C407.557159,73.1571742 403.960949,71.4949566 403.960949,71.4949566 C403.960949,71.4949566 401.45346,69.5885473 400.369025,68.7574385 C399.357457,67.9905907 397.492914,64.8760748 397.222877,64.4176798 L397.188586,64.3577029 L397.188586,64.3577029 L397.167155,64.3577029 C396.910899,63.7679325 396.691868,63.1626934 396.51135,62.545543 C396.472773,62.417021 396.442769,62.2884991 396.408479,62.1599771 C397.63129,60.8762293 398.677759,59.4355651 399.520337,57.8759112 C399.606063,57.7131167 399.683216,57.5460381 399.764656,57.3832436 C399.949428,57.3827066 400.133022,57.3538093 400.309017,57.2975623 C400.383292,57.2727307 400.456254,57.2441332 400.527618,57.211881 C401.375032,56.765632 402.012536,56.0037977 402.302149,55.0912684 L402.302149,55.0912684 C402.362157,54.9113376 402.413593,54.7271228 402.460742,54.5429079 L402.499319,54.3586931 C402.529323,54.2344552 402.555041,54.1059332 402.580759,53.9774112 C402.606476,53.8488893 402.60219,53.8360371 402.615049,53.7632079 C402.627908,53.6903788 402.653626,53.5147321 402.670771,53.3904942 C402.687916,53.2662563 402.670771,53.24912 402.700775,53.180575 C402.722207,53.0220645 402.739352,52.8678382 402.760783,52.7093277 L402.760783,52.7093277 C402.829364,52.1224107 402.897945,51.5354937 403.022248,50.9614289 C403.02039,50.9529614 403.02039,50.9441919 403.022248,50.9357245 L403.022248,50.9357245 C403.51946,48.6823058 404.878218,46.7801805 405.838351,44.6981245 L405.838351,44.6981245 C405.975513,44.3982399 406.104102,44.0940712 406.224118,43.7899026 C406.344135,43.4857339 406.455579,43.1215883 406.554164,42.778863 C406.584168,42.6760454 406.605599,42.5732278 406.635604,42.4704103 C406.698469,42.2190784 406.754191,41.9663185 406.80277,41.7121306 C406.824201,41.605029 406.845633,41.4979273 406.862778,41.3865416 C406.922786,41.0438163 406.969935,40.696807 406.995653,40.3497977 C407.167816,38.3660636 406.874273,36.3695501 406.138392,34.519184 C405.512592,32.959784 404.578177,31.5546104 403.943804,29.9994945 C402.983671,27.6346901 402.730779,24.961433 401.556332,22.7165825 C399.588917,18.9423204 394.951135,17.0530474 391.140609,18.4710732 C389.323216,19.1479556 387.745855,20.4631638 385.898458,21.0415127 C383.429546,21.8297808 380.784895,21.2385797 378.225971,20.8830023 C375.667046,20.5274248 372.842371,20.4974363 370.784944,22.168222 C368.414618,24.0917676 367.784531,27.7075192 365.547079,29.8152796 C364.612665,30.7020813 363.451076,31.267578 362.465226,32.0858346 C361.772701,32.6417069 361.23899,33.3701879 360.917869,34.197879 C360.917869,34.257856 360.879293,34.3178329 360.862147,34.3778098 C360.845002,34.4377867 360.823571,34.519184 360.806425,34.5920131 C360.78928,34.6648422 360.776421,34.7590917 360.763562,34.8404889 C360.750703,34.9218862 360.763562,34.9561587 360.763562,35.0118516 C360.751635,35.154405 360.751635,35.2977047 360.763562,35.4402581 L360.763562,35.4402581 C360.777708,35.5843184 360.800611,35.7273849 360.832143,35.8686647 C360.83963,35.9064248 360.849654,35.9436377 360.862147,35.9800504 C360.889915,36.0989587 360.924258,36.2162365 360.965019,36.3313438 C360.965019,36.3313438 360.965019,36.3741845 360.965019,36.3956048 C361.012168,36.5241268 361.063604,36.6483647 361.115039,36.7768867 L361.196479,36.9611015 C361.196479,37.0125103 361.243628,37.0639191 361.26506,37.119612 C361.590928,37.7330955 361.850981,38.3792977 362.040881,39.0474416 C362.147641,39.4736191 362.120706,39.9222999 361.963728,40.3326614 C361.739447,40.7959117 361.424648,41.2095984 361.037886,41.5493361 C359.372944,43.2787772 358.086861,45.3360185 357.261651,47.589869 C357.167352,47.846913 357.07734,48.1039569 356.991613,48.3652849 C356.991613,48.3652849 356.991613,48.3652849 356.991613,48.3867053 L357.103057,48.4166937 C357.343557,48.485846 357.588426,48.5388016 357.836016,48.5752042 C357.977464,48.5752042 358.118912,48.6094767 358.264646,48.6180448 C358.839325,48.6510933 359.415851,48.6078765 359.979168,48.4895228 C360.124903,48.4595344 360.266351,48.4252618 360.407799,48.3867053 C360.989351,48.2298376 361.555913,48.0219677 362.10089,47.7655157 C362.10089,47.9368783 362.10089,48.1039569 362.10089,48.2753195 C362.10089,48.369569 362.10089,48.4638184 362.10089,48.5580679 C362.11006,56.0473599 366.360464,62.885939 373.073832,66.2127034 C373.099549,66.3969182 373.120981,66.5725649 373.146699,66.7524957 C373.172417,66.9324265 373.185276,67.0566644 373.202421,67.2066067 L372.975247,66.9881193 C372.975247,66.9881193 371.470753,66.2426919 370.0477,68.4018611 C368.624647,70.5610303 365.949992,71.5549336 365.949992,71.5549336 C365.949992,71.5549336 350.729321,73.9625786 350.146384,75.9546692 L343.035403,76.3830758 C343.035403,76.3830758 340.527914,76.7129489 340.279308,81.9523615 C340.030703,87.1917741 338.689089,87.6801576 338.689089,87.6801576 C338.689089,87.6801576 335.761542,92.8210366 336.014434,95.4814415 C336.267326,98.1418465 333.755551,99.4656228 333.755551,99.4656228 L333.42122,104.178095 C333.42122,104.178095 330.660839,103.749689 329.906449,107.001295 C329.152059,110.252901 327.819018,111.713767 327.819018,111.713767 C327.819018,111.713767 323.215526,115.535154 322.96692,118.769624 L320.1251,120.513239 C320.1251,120.513239 313.515617,119.0181 312.011124,116.361979 L311.548203,115.933572 C311.53288,115.913729 311.519933,115.892162 311.509626,115.869311 C311.508529,115.879277 311.508529,115.889333 311.509626,115.8993 C310.523776,114.969657 308.423486,113.016123 308.744959,113.46595 C308.938489,113.883751 308.986767,114.354212 308.882121,114.802579 L308.389195,114.258502 L307.0733,112.797636 C307.0733,112.797636 297.244801,101.513406 290.973936,100.720854 L290.498156,99.7826437 C290.228921,99.2544815 289.582819,99.0436981 289.053671,99.3113964 L279.593795,104.023869 C279.339088,104.149889 279.145189,104.372241 279.055073,104.641642 C278.964958,104.911043 278.986069,105.205241 279.113729,105.459031 L280.172446,107.536803 L280.151015,107.536803 C280.126525,107.548666 280.108031,107.570119 280.099914,107.596081 C280.091797,107.622043 280.094778,107.650204 280.108152,107.673893 L280.48106,108.406468 C280.50604,108.457198 280.567315,108.478251 280.618222,108.453593 L280.618222,108.453593 L280.618222,108.453593 L281.008276,109.220441 L281.008276,109.220441 C280.951782,109.24911 280.928856,109.317853 280.95684,109.374667 L281.664081,110.762705 C281.676957,110.790687 281.700852,110.812092 281.730088,110.821832 C281.759323,110.831571 281.791288,110.828777 281.818388,110.814113 L281.818388,110.814113 L282.10557,111.375326 L282.10557,111.375326 C282.053671,111.403681 282.032974,111.467619 282.058421,111.520984 L282.77852,112.934726 C282.790388,112.96142 282.813056,112.98181 282.840863,112.990801 C282.86867,112.999793 282.898992,112.996539 282.924255,112.981851 L282.924255,112.981851 L289.782343,126.523783 C290.051685,127.05163 290.696355,127.263859 291.226828,126.999314 L298.48783,123.37071 L298.745008,123.559209 L300.888161,126.313864 C300.523825,127.170677 300.219497,128.02749 299.962319,128.794338 C299.95658,128.819005 299.949424,128.843322 299.940887,128.867167 C299.885165,129.029961 299.83373,129.192756 299.78658,129.346982 L299.735145,129.509777 C299.683709,129.668287 299.63656,129.822514 299.593697,129.968172 L299.516543,130.242352 C299.516543,130.293761 299.482253,130.349454 299.469394,130.400863 C299.233647,131.231971 299.083626,131.874581 299.002186,132.230159 L298.449253,132.058796 L298.989328,132.290136 C298.989328,132.320124 298.989328,132.354397 298.989328,132.375817 C298.96361,132.487203 298.955037,132.551464 298.955037,132.551464 C299.117917,132.628577 299.289369,132.701406 299.469394,132.774235 C302.39694,134.059455 317.017528,140.459849 317.767632,141.432332 C318.603461,142.511917 324.124223,145.664989 329.143487,143.008868 C334.16275,140.352748 335.247186,136.287169 335.247186,136.287169 C335.247186,136.287169 340.099283,129.561186 340.266449,128.575851 C340.433615,127.590515 344.196992,126.433818 344.196992,126.433818 C344.196992,126.433818 344.531323,137.572389 342.606772,141.625115 C340.682221,145.677842 337.086011,163.700907 337.086011,163.700907 C337.320158,163.654547 337.559515,163.640135 337.797537,163.658066 L337.587508,164.699094 C337.879246,164.64392 338.178749,164.64392 338.470487,164.699094 C338.204736,166.742593 336.670239,176.266072 336.670239,176.266072 C336.670239,176.266072 336.168741,180.58441 335.328625,182.075265 C334.48851,183.56612 334.411356,191.371688 334.411356,191.371688 L333.074029,197.018087 C333.074029,197.018087 333.249767,197.407937 333.579813,197.99057 L333.579813,198.01199 C333.579813,198.01199 335.015725,201.199335 337.437488,202.985791 C337.326209,203.868255 337.099975,204.732391 336.764538,205.55623 C335.907277,207.214164 336.095874,209.540412 336.095874,209.540412 C336.095874,209.540412 334.677107,215.927954 334.839987,217.75725 C335.002866,219.586546 333.888427,224.063395 333.888427,224.063395 L332.383934,238.504981 C332.383934,238.504981 331.380938,251.035874 331.882436,254.441706 C332.383934,257.847539 331.548104,262.491466 331.548104,262.491466 C331.548104,262.491466 332.5511,272.370522 332.298207,273.445823 C332.045315,274.521123 330.793714,279.173619 331.548104,281.748342 C332.302494,284.323066 331.882436,291.374638 331.882436,291.374638 C331.882436,291.374638 332.383934,300.675345 332.966871,303.661339 C333.549809,306.647333 332.799705,310.46872 332.799705,310.46872 C332.799705,310.46872 332.212481,316.860546 331.942444,316.860546 C331.672407,316.860546 329.516395,321.255998 333.948435,325.574336 C338.380475,329.892675 335.645812,329.215792 335.645812,329.215792 C335.645812,329.215792 332.131042,327.472177 332.5511,331.040804 C332.94544,334.438069 333.498373,333.551267 333.549809,333.457017 L332.692548,336.185967 C332.692548,336.185967 332.911149,336.211672 333.279771,336.267365 L332.795419,336.849998 C332.287489,337.483322 331.722156,338.068437 331.106615,338.597897 C330.103619,339.343324 330.017893,341.001257 330.017893,341.001257 C330.017893,341.001257 323.832754,347.727241 318.063387,351.128789 C315.028683,352.919529 312.405464,354.436088 311.265306,355.687035 C310.236593,356.813745 310.408045,357.726251 312.551198,358.433122 C317.068964,359.928261 325.011488,360.673688 330.695129,358.767279 C334.086455,357.636997 337.136012,355.666432 339.559209,353.039483 C339.559209,353.039483 343.159706,351.210186 346.67019,351.874217 C350.180674,352.538247 357.205929,347.975717 357.205929,347.975717 L357.07734,346.797599 L356.704431,343.408903 C356.704431,343.408903 355.84717,342.410715 356.117207,341.335415 C356.232937,340.847031 356.057199,339.587516 355.830025,338.336568 C355.770016,338.006695 355.705722,337.681106 355.641427,337.372654 L356.284373,337.2527 C356.284373,337.2527 355.45283,333.020043 356.957323,332.188934 C358.461816,331.357825 358.041758,320.484866 358.041758,320.484866 C358.041758,320.484866 356.117207,317.995824 355.114212,317.580269 C354.111216,317.164715 355.028486,312.010984 355.199938,311.355522 C355.37139,310.700059 356.704431,297.826441 356.704431,297.826441 C356.704431,297.826441 356.202933,293.760863 356.871597,292.017248 C357.540261,290.273633 356.035767,283.551934 356.035767,283.551934 C356.035767,283.551934 355.53427,282.720825 356.464398,281.722638 C357.394526,280.72445 357.034476,271.87357 357.034476,271.87357 C357.034476,271.87357 356.953037,267.392437 356.953037,266.227172 C356.953037,265.061906 357.956032,260.833533 358.873302,259.424075 C359.790571,258.014617 359.21192,253.610597 359.21192,253.610597 L359.21192,253.610597 L359.263355,253.280724 C359.263355,253.156486 359.306218,252.993692 359.336223,252.809477 L359.413376,252.381071 C359.814591,249.949318 360.358461,247.543236 361.042172,245.175272 C362.130894,241.688042 363.386781,235.548976 363.386781,235.548976 L371.179285,215.25964 L371.269297,215.019732 C371.269297,215.019732 374.861221,221.660034 374.861221,227.807669 C374.861221,227.807669 375.787063,235.193398 375.534171,237.185489 C375.281279,239.177579 376.288561,248.5554 376.288561,248.5554 C376.288561,248.5554 377.372996,261.998798 377.372996,262.581431 C377.372996,263.164064 378.710323,273.540072 379.550439,275.120892 C380.390555,276.701713 378.693178,281.508435 378.208826,282.005386 C377.724473,282.502338 378.375992,294.707642 378.375992,294.707642 C378.375992,294.707642 377.120104,304.333938 376.871498,306.326028 C376.622893,308.318119 375.615611,315.956608 376.442868,318.946886 C377.270125,321.937164 376.944365,322.348435 376.944365,322.348435 C376.944365,322.348435 379.944779,325.42011 378.200253,325.668586 C376.455727,325.917061 373.772499,328.157628 374.852648,331.726255 C375.932797,335.294882 378.538871,340.611407 378.538871,340.611407 C378.538871,340.611407 379.057514,340.495738 379.923348,340.320091 L379.923348,341.305426 L380.026219,346.253522 C380.026219,346.253522 380.609157,350.965995 380.274825,352.067 C380.030505,352.850984 379.696174,356.573837 379.533294,358.493098 C379.473286,359.204253 379.438995,359.679785 379.438995,359.679785 C379.438995,359.679785 379.438995,364.075236 388.718847,362.75146 C397.998698,361.427684 399.674644,357.769091 399.674644,357.769091 L399.743224,357.310696 C399.880386,356.453883 400.171855,354.693132 400.424747,353.703513 C400.763365,352.371168 397.754379,346.394896 397.754379,346.394896 C397.754379,346.394896 397.248595,342.333602 396.412765,341.416812 C396.066229,340.890417 395.836746,340.295827 395.739815,339.673197 C395.662662,339.33904 395.598367,338.992031 395.542645,338.649305 C395.761247,338.679294 395.971276,338.71785 396.159873,338.760691 C396.159873,338.760691 395.658375,335.856094 397.587213,334.939304 C399.51605,334.022514 399.00598,332.120389 398.757374,331.28928 C398.508768,330.458171 399.507478,325.814244 399.507478,325.814244 C399.233782,324.873153 399.48942,323.857687 400.176141,323.158123 C401.350589,321.992857 402.267858,313.857416 402.267858,313.857416 L402.469315,282.519474 C402.469315,282.519474 403.056539,276.950188 402.387875,274.713906 C401.719211,272.477624 401.046261,268.159285 401.959244,267.002587 C402.872227,265.84589 402.04497,260.447967 402.04497,260.447967 C402.04497,260.447967 402.04497,249.073772 403.296572,246.254856 C404.548173,243.435941 404.153833,225.584238 404.153833,225.584238 L404.483878,213.884455 C404.483878,213.884455 407.214255,211.314015 406.567023,197.827776 C409.48171,197.647845 412.769307,197.540743 413.266518,197.943445 C414.183788,198.688873 420.124607,202.51026 423.635091,200.085478 C424.389481,199.751321 427.814239,196.846724 427.814239,196.846724 L426.33975,171.960586 C427.261306,173.348623 427.818525,174.269697 427.818525,174.269697 C427.818525,170.782468 437.677028,159.493954 437.677028,159.493954 C437.677028,159.493954 446.87544,147.627092 448.881431,146.21335 C450.887422,144.799608 454.817964,137.332481 454.817964,137.332481 C455.400362,135.907993 456.071778,134.521506 456.828241,133.181221 C457.736938,131.677514 454.727951,127.693333 455.062283,126.776543 Z M433.485021,135.494617 C430.977533,135.743093 425.709663,141.470889 425.623937,142.713268 C425.581074,143.36873 425.02814,144.251248 424.513784,144.945266 C424.475207,144.444031 424.432344,143.934231 424.389481,143.415855 C423.797971,136.081534 423.163598,127.136404 423.455066,126.279591 C423.956564,124.784452 423.785112,118.062753 423.785112,118.062753 L423.785112,118.062753 L423.879411,117.934231 C425.568215,123.143655 430.801794,129.287005 430.801794,129.287005 C430.801794,129.287005 431.72335,131.943126 432.807785,132.024524 C433.89222,132.105921 433.485021,135.494617 433.485021,135.494617 Z" id="Shape" fill="url(#linearGradient-1)" fill-rule="nonzero"></path>
                <path d="M300,133.010715 C300,133.010715 302.739298,117.081143 311.558219,117 L318,131.699621 L313.704195,134.983761 C313.704195,134.983761 304.369007,135.312602 300,133.010715 Z" id="Path" fill="#65617D" fill-rule="nonzero"></path>
                <path d="M318,131.693062 L313.704195,134.983829 C313.704195,134.983829 307.154538,135.21461 302.438784,133.932493 C301.600286,133.715199 300.78334,133.40597 300,133.009369 C300,133.009369 300,132.923895 300.050086,132.752946 C300.049045,132.733018 300.049045,132.713041 300.050086,132.693113 C300.455141,130.6924 301.013241,128.733638 301.718322,126.838112 C301.988014,126.1244 302.296233,125.385046 302.627568,124.649965 C303.918236,121.893414 305.732877,119.19242 308.214041,117.854745 C309.132326,117.354017 310.13204,117.063335 311.153682,117 L311.415668,117 L311.546661,117 L311.68536,117.324803 L313.86601,122.295144 L318,131.693062 Z" id="Path" fill="#000000" fill-rule="nonzero" opacity="0.1"></path>
                <path d="M399.271157,198.401625 C399.271157,198.401625 410.614457,197.440172 411.630628,198.160221 C412.646798,198.88027 419.084122,202.563757 422.898306,200.241287 C426.712491,197.918818 424.169701,189.835957 424.169701,189.515473 C424.169701,189.194989 423.810497,177.753288 423.810497,177.753288 L416.990337,169.670427 L408.449777,155.519178 L391,154 L391.472638,176.475513 L391.382836,188.000457 L399.271157,198.401625 Z" id="Path" fill="#65617D" fill-rule="nonzero"></path>
                <path d="M399.271157,198.401625 C399.271157,198.401625 410.614457,197.440172 411.630628,198.160221 C412.646798,198.88027 419.084122,202.563757 422.898306,200.241287 C426.712491,197.918818 424.169701,189.835957 424.169701,189.515473 C424.169701,189.194989 423.810497,177.753288 423.810497,177.753288 L416.990337,169.670427 L408.449777,155.519178 L391,154 L391.472638,176.475513 L391.382836,188.000457 L399.271157,198.401625 Z" id="Path" fill="#000000" fill-rule="nonzero" opacity="0.1"></path>
                <path d="M309,117.535839 C309,117.535839 308.198236,127.833205 302.061177,128 C302.061177,128 300.323323,126.902668 297.985195,125.076707 C292.595329,120.858561 284.040386,112.75147 286.403699,105.210603 C289.795453,94.4084636 306.258892,114.32724 306.258892,114.32724 L307.518207,115.810833 L309,117.535839 Z" id="Path" fill="#FBBEBE" fill-rule="nonzero"></path>
                <path d="M309,117.556716 C309,117.556716 308.235722,126.849478 302.385595,127 C302.385595,127 300.728992,126.009723 298.500182,124.361901 L298,123.728124 C298.991222,124.240527 300.084002,124.531251 301.201164,124.579762 C302.669698,124.611451 304.322299,124.07274 305.382685,121.973353 C305.990905,120.777191 306.52541,119.545673 306.983267,118.28556 C307.263809,117.547219 307.462382,116.780857 307.575482,116 L309,117.556716 Z" id="Path" fill="#000000" fill-rule="nonzero" opacity="0.1"></path>
                <path d="M304.634074,135 L303.051643,133.426208 L297.71274,128.124425 L295,125.415865 C296.19056,125.89947 297.504423,126.173875 298.847858,126.219504 C300.613063,126.249268 302.599519,125.743274 303.878932,123.767662 C304.610399,122.644279 305.252894,121.487534 305.802861,120.303831 C306.683059,118.372866 306.663819,117.379479 306.355991,117.04463 C306.048162,116.70978 308.318398,118.343101 309.410228,119.14302 L309.448707,119.172784 C309.761345,119.396017 309.963358,119.544839 309.963358,119.544839 L310.150941,119.835042 L312.830012,123.979733 L312.858871,124.154599 C313.104172,125.471674 314.008418,133.816865 304.634074,135 Z" id="Path" fill="#E7EFFD" fill-rule="nonzero"></path>
                <path d="M355,346.701201 C355,346.701201 348.209306,351.413772 344.816062,350.710005 C341.422817,350.006237 337.941273,351.912646 337.941273,351.912646 C335.601968,354.620106 332.651934,356.65392 329.367759,357.823404 C323.872132,359.792173 316.194233,359.021591 311.829688,357.475975 C309.760944,356.749936 309.596959,355.80564 310.589283,354.647541 C311.695136,353.351361 314.230608,351.787927 317.165534,349.939423 C322.741051,346.429493 328.72443,339.489808 328.72443,339.489808 C328.72443,339.489808 328.80432,337.779385 329.775621,337.008804 C330.370711,336.470117 330.916908,335.873619 331.407069,335.227113 C332.273251,334.140282 333.088975,333 333.088975,333 L353.061604,333.685951 C353.061604,333.685951 353.40219,335.213751 353.66709,336.77273 C353.889942,338.051093 354.062338,339.351727 353.948809,339.855055 C353.704933,340.964157 354.516452,341.993083 354.516452,341.993083 L354.873857,345.489651 L355,346.701201 Z" id="Path" fill="#65617D" fill-rule="nonzero"></path>
                <path d="M395.978768,353.610912 C395.76642,354.613018 395.509368,356.41245 395.39388,357.257705 C395.352901,357.545265 395.334274,357.719544 395.334274,357.719544 C395.334274,357.719544 393.899996,361.405549 385.949998,362.747499 C378,364.089449 378,359.645329 378,359.645329 C378,359.645329 378.029803,359.166062 378.081959,358.44716 C378.219798,356.486519 378.506654,352.735159 378.715276,351.937832 C379.002132,350.848587 378.502929,346.073337 378.502929,346.073337 L378.417245,341.080238 L378.357638,337.594655 L391.538094,336 C391.621928,337.153189 391.763738,338.299606 391.962789,339.4333 C392.045206,340.056243 392.242217,340.650854 392.540226,341.176092 C393.255502,342.104129 393.687648,346.204047 393.687648,346.204047 C393.687648,346.204047 396.258173,352.268963 395.978768,353.610912 Z" id="Path" fill="#65617D" fill-rule="nonzero"></path>
                <path d="M353.404175,333.805891 C353.404175,333.805891 353.739327,335.589249 354,337.409002 C351.877374,337.897735 342.596577,339.920261 340.275343,338.506053 C337.652059,336.90467 332,336.005192 332,336.005192 L332.095166,335.599647 C332.947527,334.331019 333.750235,333 333.750235,333 L353.404175,333.805891 Z" id="Path" fill="#000000" fill-rule="nonzero" opacity="0.1"></path>
                <path d="M396,337.075472 C391.564074,336.29331 381.893757,338.186964 378.078861,339 L378,334.883362 L395.438116,333 C395.548261,334.368871 395.735883,335.729739 396,337.075472 L396,337.075472 Z" id="Path" fill="#000000" fill-rule="nonzero" opacity="0.1"></path>
                <path d="M401.816704,213.988978 L401.483771,225.623604 C401.483771,225.623604 401.916151,243.365228 400.653601,246.171958 C399.39105,248.978688 399.404021,260.282858 399.404021,260.282858 C399.404021,260.282858 400.238515,265.647403 399.321869,266.797562 C398.405222,267.94772 399.071088,272.24794 399.754249,274.475299 C400.43741,276.702658 399.832078,282.234577 399.832078,282.234577 L399.667773,313.426189 C399.667773,313.426189 398.75545,321.511631 397.588023,322.670373 C396.905284,323.368021 396.652669,324.375881 396.926481,325.309729 C396.926481,325.309729 395.927682,329.92753 396.178463,330.755816 C396.429244,331.584101 396.926481,333.476713 395.01536,334.382248 C393.104238,335.287783 393.597152,338.180346 393.597152,338.180346 C389.026891,337.107437 376.059801,340 376.059801,340 C376.059801,340 373.465518,334.716996 372.397539,331.167813 C371.329559,327.61863 373.980051,325.39127 375.722544,325.159522 C377.465038,324.927774 374.477289,321.854962 374.477289,321.854962 C374.477289,321.854962 374.810222,321.425799 373.980051,318.473153 C373.149881,315.520507 374.144356,307.907145 374.412432,305.9287 C374.680508,303.950256 375.908468,294.375616 375.908468,294.375616 C375.908468,294.375616 375.246926,282.247452 375.744163,281.749622 C376.241401,281.251792 377.906066,276.466618 377.075895,274.883004 C376.245725,273.29939 374.913993,262.999464 374.913993,262.437259 C374.913993,261.875055 373.833042,248.489442 373.833042,248.489442 C373.833042,248.489442 372.838567,239.163716 373.085024,237.185272 C373.331481,235.206828 372.419158,227.863838 372.419158,227.863838 C372.419158,221.752548 368.847695,215.152012 368.847695,215.152012 L368.756896,215.388052 L361.030257,235.558742 C361.030257,235.558742 359.785001,241.661448 358.699726,245.12909 C358.0188,247.483197 357.477397,249.874874 357.0783,252.291831 L357.004795,252.720995 C356.974529,252.905535 356.948586,253.064326 356.93129,253.184492 L356.879405,253.519239 L356.879405,253.519239 C356.879405,253.519239 357.458795,257.892416 356.546472,259.295782 C355.634149,260.699147 354.596436,264.90495 354.596436,266.076567 C354.596436,267.248183 354.674265,271.694318 354.674265,271.694318 C354.674265,271.694318 355.011521,280.522214 354.094875,281.513582 C353.178228,282.50495 353.662494,283.328944 353.662494,283.328944 C353.662494,283.328944 355.162854,290.011022 354.496989,291.744843 C353.831123,293.478664 354.332684,297.517093 354.332684,297.517093 C354.332684,297.517093 353.013924,310.280419 352.866914,310.949915 C352.719905,311.61941 351.785963,316.726457 352.780438,317.138454 C353.774913,317.550451 355.690359,320.026725 355.690359,320.026725 C355.690359,320.026725 356.122739,330.837357 354.613731,331.661351 C353.104724,332.485345 353.943542,336.69544 353.943542,336.69544 C353.943542,336.69544 341.893099,339.008632 339.147483,337.686808 C336.401867,336.364984 330.499874,335.622531 330.499874,335.622531 L331.325721,332.910217 C331.278159,333.004633 330.729036,333.884418 330.33557,330.506901 C329.903189,326.957718 333.414118,328.691539 333.414118,328.691539 C333.414118,328.691539 336.15541,329.352451 331.74513,325.060814 C327.334849,320.769178 329.501075,316.396001 329.751856,316.396001 C330.002637,316.396001 330.582026,310.044379 330.582026,310.044379 C330.582026,310.044379 331.330045,306.246281 330.746331,303.276469 C330.162617,300.306657 329.669704,291.062473 329.669704,291.062473 C329.669704,291.062473 330.102084,284.049939 329.336771,281.492124 C328.571457,278.934309 329.834008,274.312217 330.084789,273.235016 C330.33557,272.157815 329.336771,262.342843 329.336771,262.342843 C329.336771,262.342843 330.171265,257.725043 329.669704,254.343233 C329.168142,250.961424 330.171265,238.498513 330.171265,238.498513 L331.667301,224.138698 C331.667301,224.138698 332.743929,219.68398 332.579624,217.868617 C332.41532,216.053255 333.82488,209.714509 333.82488,209.714509 C333.82488,209.714509 333.660575,207.401317 334.490746,205.753328 C335.320916,204.10534 335.658173,198.659254 335.658173,198.659254 L343.639916,180.501341 L347.53134,164.493538 L400.324991,164 C400.324991,164 400.519563,165.386198 400.8352,167.909681 C401.150838,170.433163 401.609161,174.171178 402.132342,178.780395 C402.590665,182.969032 403.092226,187.89583 403.58514,193.371958 C405.14171,210.851792 401.816704,213.988978 401.816704,213.988978 Z" id="Path" fill="#3F3D56" fill-rule="nonzero"></path>
                <path d="M399,70.7255582 L387.17218,84 C387.17218,84 372,77.6139408 373.595322,75.429926 C374.214341,74.5825283 374.114633,71.9355024 373.757347,68.9739784 C373.196492,64.3263949 372,58.9668227 372,58.9668227 C372,58.9668227 398.51808,54.432808 396.278812,59.1328078 C395.447915,60.8538114 395.605786,62.858737 396.112633,64.7107815 C396.760405,66.8662491 397.735447,68.8973933 399,70.7255582 L399,70.7255582 Z" id="Path" fill="#FBBEBE" fill-rule="nonzero"></path>
                <path d="M395.857039,58.2750886 C394.97213,60.1109014 394.573921,60.2879595 395.11814,62.2635549 C391.423645,66.4570359 386.711505,71 380.888804,71 C377.759598,71.0051702 374.672266,70.2426163 371.871582,68.7727693 C371.274269,63.8151429 370,58.0980305 370,58.0980305 C370,58.0980305 398.241868,53.2615491 395.857039,58.2750886 Z" id="Path" fill="#000000" fill-rule="nonzero" opacity="0.1"></path>
                <path d="M399.997751,50.4212892 C400.107072,57.7369096 396.224308,64.5435772 389.837344,68.2329616 C383.450379,71.9223461 375.549621,71.9223461 369.162656,68.2329616 C362.775692,64.5435772 358.892928,57.7369096 359.002249,50.4212892 C359.002249,50.3238155 359.002249,50.2263417 359.002249,50.1288679 C359.08388,38.9315485 368.326207,29.9197886 379.645565,30.0005385 C390.964923,30.0812884 400.074902,39.2239698 399.993272,50.4212892 L399.997751,50.4212892 Z" id="Path" fill="#FBBEBE" fill-rule="nonzero"></path>
                <path d="M404,180.693719 C401.363682,180.714836 392.580304,180.786635 382.765891,180.938678 L382.648431,180.938678 L379.403062,180.989359 L379.303004,180.989359 C367.66579,181.170966 356.19824,178.962114 351.595558,179.384457 C341.807248,180.2756 355.106299,170.612397 355.106299,170.612397 C355.106299,170.612397 365.699427,173.357625 377.401896,172.800133 L380.21658,172.660759 C389.113067,172.170842 398.053057,171.359944 402.716644,170 C403.042921,172.508716 403.495358,176.174651 404,180.693719 Z" id="Path" fill="#000000" fill-rule="nonzero" opacity="0.1"></path>
                <path d="M404,180.693837 C401.363682,180.693837 392.580304,180.786717 382.765891,180.93448 L382.648431,180.93448 L379.403062,180.989363 L379.303004,180.989363 C367.66579,181.170901 356.19824,178.962896 351.595558,179.380855 C341.807248,180.271656 355.106299,170.616384 355.106299,170.616384 C355.106299,170.616384 365.699427,173.356337 377.401896,172.80328 L380.21658,172.659738 C389.113067,172.174231 398.053057,171.359422 402.716644,170 C403.042921,172.507753 403.495358,176.159616 404,180.693837 Z" id="Path" fill="#E3A79F" fill-rule="nonzero"></path>
                <path d="M375.093794,75.9794526 L359.800583,83.1008611 L348,174 C348,174 354.980931,170.856936 358.970652,172.841802 C362.960373,174.826669 375.258051,173.009719 375.258051,173.009719 C375.258051,173.009719 384.236004,172.510274 385.567352,173.50486 C386.8987,174.499446 402.520424,169.367209 402.520424,169.367209 C402.520424,169.367209 405.347377,163.07247 403.186098,162.082189 C401.024819,161.091909 403.851772,151.318271 403.851772,151.318271 L402.520424,85.7487851 L399.862051,77.3055674 L392.71254,73 L385.390127,78.7952937 L381.93208,79.290434 L375.093794,75.9794526 Z" id="Path" fill="#000000" fill-rule="nonzero" opacity="0.1"></path>
                <path d="M375.093794,73.9833767 L359.800583,81.1038745 L348,172 C348,172 354.980931,168.853033 358.970652,170.84195 C362.960373,172.830868 375.258051,171.005541 375.258051,171.005541 C375.258051,171.005541 384.236004,170.510464 385.567352,171.500618 C386.8987,172.490772 402.520424,167.363497 402.520424,167.363497 C402.520424,167.363497 405.347377,161.073867 403.186098,160.079408 C401.024819,159.084949 403.851772,149.316866 403.851772,149.316866 L402.520424,83.7471549 L399.862051,75.3050168 L392.71254,71 L385.390127,76.7988577 L381.93208,77.2896296 L375.093794,73.9833767 Z" id="Path" fill="#E7EFFD" fill-rule="nonzero"></path>
                <path d="M375.101873,80.3246927 C375.101873,80.3246927 379.587798,85.4829013 379.504154,86.5477668 C379.420511,87.6126323 379.253224,90.1512718 379.253224,90.1512718 L375.863467,96.7875137 C375.863467,96.7875137 374.001302,105.059389 374.001302,106.780212 C374.001302,108.501034 371.038567,123.392114 371.038567,123.392114 L367.485925,146.325058 L363,176.384082 L367.569568,184 L372.988777,179.578678 L380.182106,126.011683 L381.705295,115.448217 C381.705295,115.448217 383.312128,96.4467567 383.312128,94.4831447 C383.312128,92.5195327 382.383247,87.3570646 382.383247,87.3570646 C382.383247,87.3570646 383.483817,82.4416454 388.053386,81.2958501 C392.622954,80.1500548 387.71441,81.0488013 387.71441,81.0488013 L385.073041,79 L382.788257,79.903006 C382.788257,79.903006 376.457775,78.0331021 375.101873,80.3246927 Z" id="Path" fill="#000000" fill-rule="nonzero" opacity="0.1"></path>
                <path d="M374.642393,78.3204332 C374.642393,78.3204332 378.964287,83.4786418 378.883702,84.5435074 C378.803117,85.6083729 378.637706,88.1470123 378.637706,88.1470123 L375.376139,94.7832542 C375.376139,94.7832542 373.603272,103.046611 373.603272,104.763174 C373.603272,106.479737 370.748871,121.375076 370.748871,121.375076 L367.300687,144.342096 L363,174.379822 L367.40672,182 L372.602323,177.5659 L379.541105,124.011683 L381.008598,113.448217 C381.008598,113.448217 382.556675,94.4467567 382.556675,92.4788852 C382.556675,90.5110138 381.661759,85.3528052 381.661759,85.3528052 C381.661759,85.3528052 382.722086,80.4416454 387.124565,79.2915906 C391.527044,78.1415358 386.797984,79.0488013 386.797984,79.0488013 L384.253199,77 L382.08589,77.894487 C382.08589,77.894487 375.948716,76.0160643 374.642393,78.3204332 Z" id="Path" fill="#3F3D56" fill-rule="nonzero"></path>
                <path d="M372.332333,68 C372.332333,68 371.665,68.5097518 371.500333,71.9184397 C371.335667,75.3271277 369,83 369,83 C369,83 377.666667,76.8608156 382,77.5434397 L372.332333,68 Z" id="Path" fill="#000000" fill-rule="nonzero" opacity="0.1"></path>
                <path d="M372.332333,68 C372.332333,68 371.665,68.5096012 371.500333,71.9217134 C371.335667,75.3338257 369,83 369,83 C369,83 377.666667,76.8670606 382,77.549483 L372.332333,68 Z" id="Path" fill="#E7EFFD" fill-rule="nonzero"></path>
                <path d="M397.377031,70 L382,80.4793764 C382,80.4793764 394.939328,86.4475876 396.626219,87.9046334 C398.313109,89.3616792 400,73.6407223 400,73.6407223 L397.377031,70 Z" id="Path" fill="#000000" fill-rule="nonzero" opacity="0.1"></path>
                <path d="M397.343623,67 L382,77.4784167 C382,77.4784167 394.93095,83.4466077 396.622258,84.9045732 C398.313566,86.3625387 400,70.6316594 400,70.6316594 L397.343623,67 Z" id="Path" fill="#E7EFFD" fill-rule="nonzero"></path>
                <path d="M372.738659,71.124686 C372.738659,71.124686 371.203193,70.3792572 369.752045,72.5336756 C368.300897,74.688094 365.571673,75.6791264 365.571673,75.6791264 C365.571673,75.6791264 350.039504,78.0834573 349.444844,80.069831 L342.19354,80.5007147 C342.19354,80.5007147 339.632951,80.8281863 339.375561,86.0504964 C339.118171,91.2728066 337.738027,91.7553963 337.738027,91.7553963 C337.738027,91.7553963 334.751413,96.8915297 335.004365,99.5414643 C335.257318,102.191399 332.701166,103.518521 332.701166,103.518521 L343.351796,130.444441 C343.351796,130.444441 343.693504,141.548314 341.727575,145.607238 C339.761646,149.666162 336.096055,167.646938 336.096055,167.646938 C336.096055,167.646938 337.635958,167.315157 337.547203,168.30619 C337.458448,169.297222 335.67003,180.155491 335.67003,180.155491 C335.67003,180.155491 335.159687,184.464328 334.307636,185.955185 C333.455586,187.446043 333.366831,195.236419 333.366831,195.236419 L332,200.868069 C332,200.868069 335.244004,207.913017 340.192109,206.90044 C345.140215,205.887864 354.157748,187.12288 354.157748,187.12288 L359.873586,166.82395 L364.311348,146.774933 L365.589424,133.18917 L367.63967,103.11349 L370.626284,83.2282084 C370.626284,83.2282084 373.936855,72.5336756 372.738659,71.124686 Z" id="Path" fill="#000000" fill-rule="nonzero" opacity="0.1"></path>
                <path d="M372.740994,71.124686 C372.740994,71.124686 371.204101,70.3792572 369.751604,72.5336756 C368.299106,74.688094 365.567345,75.6834352 365.567345,75.6834352 C365.567345,75.6834352 350.020738,78.0834573 349.425525,80.0741399 L342.163039,80.5050236 C342.163039,80.5050236 339.60007,80.836804 339.346882,86.0548053 C339.093695,91.2728066 337.721151,91.7726316 337.721151,91.7726316 C337.721151,91.7726316 334.731761,96.908765 334.98939,99.5586996 C335.24702,102.208634 332.684051,103.535756 332.684051,103.535756 L343.344581,130.461677 C343.344581,130.461677 343.686607,141.565549 341.723292,145.624473 C339.759978,149.683397 336.086537,167.664173 336.086537,167.664173 C336.086537,167.664173 337.62343,167.332393 337.539034,168.327734 C337.454638,169.323075 335.660115,180.172726 335.660115,180.172726 C335.660115,180.172726 335.149298,184.481563 334.292014,185.97242 C333.43473,187.463278 333.354776,195.253655 333.354776,195.253655 L332,200.868069 C332,200.868069 335.24702,207.913017 340.199725,206.90044 C345.15243,205.887864 354.120601,187.101336 354.120601,187.101336 L359.846194,166.802406 L364.288082,146.74908 L365.571787,133.163317 L367.619498,103.087637 L370.608888,83.2023554 C370.608888,83.2023554 373.935862,72.5336756 372.740994,71.124686 Z" id="Path" fill="#65617D" fill-rule="nonzero"></path>
                <path d="M318,131.783929 L313.804766,134.984274 C313.804766,134.984274 307.408445,135.208713 302.803094,133.961826 L300.470318,132.814689 L300,132.59025 L300.481605,132.756501 C302.90092,133.550353 304.793478,133.533728 306.272157,132.985097 C312.209448,130.778107 311.539716,119.946811 311.325251,117.494599 C311.302676,117.249377 311.287625,117.07897 311.276338,117.029094 C311.275375,117.019425 311.275375,117.009669 311.276338,117 L311.310201,117.062344 C311.390561,117.209505 311.482469,117.348583 311.584866,117.477974 C311.667642,117.581881 311.754181,117.689944 311.848244,117.789695 L311.848244,117.789695 L313.94398,122.419804 L313.966555,122.61515 L318,131.783929 Z" id="Path" fill="#000000" fill-rule="nonzero" opacity="0.1"></path>
                <path d="M334.830996,101 L332.509915,101.660671 L332.177715,106.379748 C332.177715,106.379748 329.438148,105.950741 328.691778,109.185453 C327.945408,112.420166 326.620924,113.90453 326.620924,113.90453 C326.620924,113.90453 322.056417,117.701242 321.806189,120.914504 L318.988965,122.630532 C318.988965,122.630532 312.431262,121.111847 310.942836,118.490615 C310.942836,118.490615 313.928317,139.773651 298,134.574086 C298,134.574086 315.835228,142.330532 316.663569,143.40305 C317.491911,144.475567 322.971045,147.607318 327.945408,144.968925 C332.919771,142.330532 334.002655,138.272126 334.002655,138.272126 C334.002655,138.272126 338.813076,131.588198 338.981332,130.597191 C339.149589,129.606185 342.864183,128.452157 342.864183,128.452157 L350,111.291877 L334.830996,101 Z" id="Path" fill="#65617D" fill-rule="nonzero"></path>
                <path d="M390.723869,75.9803024 L393.192237,65 C393.192237,65 394.300121,68.5778999 395.408006,69.4085611 L399.07289,72.1514735 C399.07289,72.1514735 402.737773,73.8171222 404.014056,73.8171222 C405.29034,73.8171222 412.194679,75.5476663 413.045534,76.4778338 C413.89639,77.4080012 417.308675,76.7287627 417.308675,76.7287627 C417.308675,76.7287627 420.118272,77.6416247 422.591071,78.2256833 C425.06387,78.809742 426.255954,82.8029725 425.741896,84.382094 C425.323464,85.9802889 425.77534,87.676271 426.938411,88.872856 C427.957665,89.8722452 428.471724,93.1170154 428.471724,93.1170154 C429.724615,93.5153748 430.765018,94.381761 431.365519,95.5267981 C432.220807,97.3568484 431.963777,101.350079 431.963777,101.350079 L419.267416,118.819922 C419.267416,118.819922 419.435815,125.560391 418.926187,127.040006 C418.41656,128.519621 420.698803,153.993231 420.698803,153.993231 L423.357727,197.750038 C423.357727,197.750038 419.865674,200.661679 419.099018,200.994809 C418.332361,201.327938 417.561273,185.519418 417.561273,184.939686 C417.561273,184.359953 397.880806,156.156411 397.880806,156.156411 C397.880806,156.156411 395.221882,151.994452 395.221882,151.08159 C395.221882,150.168728 392.749083,141.76261 392.749083,141.76261 L389,125.543086 L390.723869,75.9803024 Z" id="Path" fill="#000000" fill-rule="nonzero" opacity="0.1"></path>
                <path d="M434.99619,100.424057 C434.99619,100.995064 434.965159,101.375735 434.965159,101.375735 L422.273325,118.830377 L422.273325,118.830377 C422.273325,118.830377 422.450648,125.565663 421.936413,127.049416 C421.639399,127.914578 422.291058,136.869004 422.893953,144.218555 C423.337258,149.526324 423.727367,153.999211 423.727367,153.999211 L424.84893,172.556936 L426.365034,197.750452 C426.365034,197.750452 422.871788,200.661722 422.104869,200.994809 C421.337951,201.327897 420.571033,185.521388 420.571033,184.937403 C420.571033,184.353419 400.879407,156.162116 400.879407,156.162116 C400.879407,156.162116 398.219575,152.000687 398.219575,151.087941 C398.219575,150.175195 395.750364,141.770147 395.750364,141.770147 L392,125.54836 L393.702293,75.9789053 L395.151901,65 C395.151901,65 397.2842,68.5774447 398.392464,69.4036744 C399.500727,70.2299041 402.054166,72.1505636 402.054166,72.1505636 C402.054166,72.1505636 405.720302,73.8160004 407.001455,73.8160004 C408.282607,73.8160004 415.184872,75.5463244 416.036019,76.4763735 C416.887165,77.4064226 420.300616,76.7272704 420.300616,76.7272704 C420.300616,76.7272704 423.111173,77.6400163 425.580384,78.2240006 C428.049595,78.807985 429.246519,82.8007074 428.736718,84.3753022 C428.315357,85.9738967 428.765794,87.6716012 429.92921,88.8698186 C430.953245,89.8690807 431.463046,93.1091123 431.463046,93.1091123 C432.718643,93.5101648 433.760806,94.3793935 434.362264,95.5272399 C434.960726,96.8206571 435.018356,99.1263137 434.99619,100.424057 Z" id="Path" fill="#65617D" fill-rule="nonzero"></path>
                <path d="M332,320 C332.443559,320 350.336713,320.630898 349.995172,323.310167 C349.653632,325.989436 332,320 332,320 Z" id="Path" fill="#000000" fill-rule="nonzero" opacity="0.1"></path>
                <path d="M337,324 C337,324 345.956224,325.908471 343.607321,327.652864 C341.258419,329.397258 337,324 337,324 Z" id="Path" fill="#000000" fill-rule="nonzero" opacity="0.1"></path>
                <path d="M379,320 C379,320 399.792651,321.55633 396.682994,323.573496 C393.573338,325.590662 386.198878,325.905971 385.843092,325.998946 C385.487307,326.091922 379,320 379,320 Z" id="Path" fill="#000000" fill-rule="nonzero" opacity="0.1"></path>
                <path d="M377,329 C377,329 387.668828,330.691268 387.99316,332.598443 C388.317492,334.505617 377,329 377,329 Z" id="Path" fill="#000000" fill-rule="nonzero" opacity="0.1"></path>
                <path d="M386,276 C386,276 392.609988,278.391111 393,280 L386,276 Z" id="Path" fill="#000000" fill-rule="nonzero" opacity="0.1"></path>
                <path d="M345.10971,285 C345.10971,285 340.46321,286.728 344.961584,290.184 C349.459957,293.64 345.10971,285 345.10971,285 Z" id="Path" fill="#000000" fill-rule="nonzero" opacity="0.1"></path>
                <path d="M370,207 C370.528721,207 378.737598,204.010776 381.596606,205.34124 C384.455614,206.671704 388,206.667384 388,206.667384 L370,207 Z" id="Path" fill="#000000" fill-rule="nonzero" opacity="0.1"></path>
                <path d="M371,215.596687 L370.915136,216.426888 L363.693608,236.963418 C363.693608,236.963418 362.529758,243.176811 361.51543,246.707347 C360.879018,249.10415 360.373008,251.539205 360,254 L366.413299,211 L371,215.596687 Z" id="Path" fill="#000000" fill-rule="nonzero" opacity="0.1"></path>
                <path d="M384,179.953877 L380.288557,180 L380.174129,180 L378,173.124176 C379.069652,173.08515 380.139303,173.046123 381.218905,173 L384,179.953877 Z" id="Path" fill="#3F3D56" fill-rule="nonzero"></path>
                <path d="M421,169.196832 L418.897104,170.732884 L411.872815,175.863453 C411.872815,175.863453 392.876505,184.861442 387.64341,176.315692 C383.029331,168.787478 404.567555,163.411296 409.752358,162.237815 C410.459177,162.077972 410.858684,162 410.858684,162 L421,169.196832 Z" id="Path" fill="#FBBEBE" fill-rule="nonzero"></path>
                <path d="M341,89 C341,89 345.796156,91.2104737 346.884646,94.3131959 C347.973135,97.415918 341,89 341,89 Z" id="Path" fill="#000000" fill-rule="nonzero" opacity="0.1"></path>
                <path d="M330,113 C330,113 324.210327,117.86317 326.561941,119.73387 C328.913555,121.604569 330,113 330,113 Z" id="Path" fill="#000000" fill-rule="nonzero" opacity="0.1"></path>
                <path d="M426,92 C426,92 420.191275,92.6188341 420,98 L426,92 Z" id="Path" fill="#000000" fill-rule="nonzero" opacity="0.1"></path>
                <path d="M378,161 C378.509752,160.44259 390.273936,141.427635 393,143.104713 L378,161 Z" id="Path" fill="#000000" fill-rule="nonzero" opacity="0.1"></path>
                <path d="M399.999456,49.435022 C400.003631,52.7734828 399.170942,56.0609196 397.575864,59.003304 L397.42355,58.9767254 C396.124398,58.70651 395.447943,57.2048213 394.453419,56.2745717 C393.203386,55.0965854 391.333505,54.8365169 389.80335,55.6278267 C388.26537,56.5393042 387.380714,58.232236 387.518634,60 C386.864578,57.2712677 387.07065,54.3697748 386.430033,51.6366128 C385.789417,48.9034508 383.858608,46.1392804 381.219985,46.0905531 C380.082106,46.0905531 378.751595,46.5069505 377.931785,45.6475771 C377.434524,45.1381546 377.331487,44.318649 376.959661,43.7206314 C375.07365,40.699535 369.34394,42.2278022 366.987547,43.7737885 C364.72075,45.2621879 361.916373,47.7960107 359,49.1249388 C359.081647,37.9298052 368.325875,28.9198042 379.647562,29.0005384 C390.969249,29.0812725 400.081102,38.2221694 399.999456,49.417303 L399.999456,49.435022 Z" id="Path" fill="#000000" fill-rule="nonzero" opacity="0.1"></path>
                <path d="M377.021224,42.8865813 C377.378946,43.4962071 377.472636,44.2944222 377.94534,44.794403 C378.724664,45.6277045 379.989469,45.2022822 381.071153,45.2329827 C383.579469,45.2768407 385.414926,48.0179639 386.023906,50.7240008 C386.632886,53.4300376 386.449766,56.298349 387.058746,59 C386.928126,57.2499523 387.77116,55.5746912 389.234891,54.675604 C390.687522,53.8931236 392.462543,54.1487316 393.65106,55.3115446 C394.596469,56.2369478 395.239518,57.7193472 396.474512,57.9868809 C397.709506,58.2544145 398.901914,57.0351629 399.344809,55.6931089 C399.787703,54.351055 399.770669,52.881813 400.051736,51.4915153 C400.609613,48.860037 402.274726,46.7066106 403.198842,44.2067062 C404.295667,41.1624203 404.265346,37.8087388 403.11367,34.7860139 C402.500432,33.2027412 401.584833,31.7773571 400.98437,30.1940843 C400.038961,27.7906675 399.791962,25.0802448 398.646398,22.7908587 C396.717252,18.957672 392.177584,17.0366929 388.44705,18.4796201 C386.666955,19.1681903 385.121082,20.5014726 383.315436,21.1110984 C380.892292,21.9093135 378.307321,21.3084593 375.799006,20.9488239 C373.29069,20.5891886 370.526858,20.5541022 368.51254,22.2645631 C366.195861,24.2162428 365.56133,27.887155 363.402219,30.0318098 C362.48662,30.9308982 361.349574,31.5054377 360.382871,32.3387391 C359.416169,33.1720406 358.585742,34.4088354 358.679431,35.7640467 C358.824223,37.5183656 360.485078,39.0972525 359.871839,40.7156117 C359.650016,41.1831547 359.341923,41.6017456 358.964757,41.9480207 C357.138412,43.9161105 355.781131,46.2943576 355,48.8951234 C359.3821,50.3029642 364.126181,45.3294703 367.554355,42.978683 C369.773086,41.4129534 375.228353,39.9173966 377.021224,42.8865813 Z" id="Path" fill="#7C5C5C" fill-rule="nonzero"></path>
                <path d="M423,168.76875 L420.99962,170 C419.237282,167.8125 412,163.415625 412,163.415625 L412.313212,163.190625 C412.985573,163.0625 413.365604,163 413.365604,163 L423,168.76875 Z" id="Path" fill="#000000" fill-rule="nonzero" opacity="0.1"></path>
                <path d="M424,165.37584 C424,165.37584 423.249664,167.181823 422.473154,168.75151 C421.696644,170.321197 420.854698,171.730539 420.811074,170.578592 C420.728188,168.304234 411,160.675219 411,160.675219 L412.308725,159.43466 L413.839933,158 L424,165.37584 Z" id="Path" fill="#E7EFFD" fill-rule="nonzero"></path>
                <path d="M423.847205,153.31873 L425,171 C422.2661,167.171119 414.807108,157.357808 410,157.675164 L421.655529,145.553809 C422.139785,145.064459 422.585877,144.545273 422.990583,144 C423.43712,149.057091 423.847205,153.31873 423.847205,153.31873 Z" id="Path" fill="#000000" fill-rule="nonzero" opacity="0.1"></path>
                <path d="M423,166.546311 C423,166.546311 422.293503,168.394035 421.56236,170 C418.810306,166.032575 415.023152,161.344192 412,160.467818 L413.441748,159 L423,166.546311 Z" id="Path" fill="#000000" fill-rule="nonzero" opacity="0.1"></path>
                <path d="M430.972657,101 L434.01587,103.293917 C434.01587,103.293917 439.086424,103.379193 439.596558,107.476691 C440.106692,111.57419 444.755066,113.445992 444.755066,113.445992 C444.755066,113.445992 448.220458,116.805856 448.220458,118.362138 C448.220458,119.91842 450.859082,122.7112 450.859082,122.954235 C450.859082,123.197271 453.396558,128.202956 453.057934,129.102615 C452.719311,130.002274 455.762523,133.942013 454.817017,135.417283 C454.051744,136.740419 453.373155,138.108959 452.785277,139.514781 C452.785277,139.514781 448.827342,146.895395 446.782409,148.289653 C444.737476,149.683911 435.453919,161.40506 435.453919,161.40506 C435.453919,161.40506 425.475526,172.554861 425.475526,176 C425.475526,176 415.747801,160.258101 410,160.65037 L421.244933,148.10631 C421.244933,148.10631 423.193116,146.059693 423.276673,144.827459 C423.360229,143.595225 428.685851,137.941444 431.223327,137.694144 C431.223327,137.694144 431.663097,134.334281 430.54608,134.253269 C429.429063,134.172257 428.518738,131.545765 428.518738,131.545765 C428.518738,131.545765 421.07782,123.018192 420.994264,117.607447 C420.910707,112.196703 430.972657,101 430.972657,101 Z" id="Path" fill="#65617D" fill-rule="nonzero"></path>
                <path d="M437,111 C437,111 429.642472,115.398897 431.222337,116.815992 C432.802202,118.233086 437,111 437,111 Z" id="Path" fill="#000000" fill-rule="nonzero" opacity="0.1"></path>
                <path d="M435,129 C435,129 448.607499,124.5 450,129 L435,129 Z" id="Path" fill="#000000" fill-rule="nonzero" opacity="0.1"></path>
                <path d="M355,349.18137 C355,349.18137 348.209306,353.709953 344.816062,353.033662 C341.422817,352.357371 337.941273,354.18935 337.941273,354.18935 C335.601968,356.791105 332.651934,358.745516 329.367759,359.869341 C323.872132,361.761245 316.194233,361.020748 311.829688,359.535476 C309.760944,358.837783 309.596959,357.930354 310.589283,356.817469 C315.336461,357.780542 325.945081,359.693848 328.80432,358.302742 C332.521332,356.492165 337.857177,352.541425 337.857177,352.541425 C337.857177,352.541425 344.816062,351.55267 345.783157,351.55267 C346.472739,351.55267 351.842222,349.296938 354.873857,348 L355,349.18137 Z" id="Path" fill="#000000" fill-rule="nonzero" opacity="0.1"></path>
                <path d="M396,359 C395.957593,359.300466 395.938317,359.482566 395.938317,359.482566 C395.938317,359.482566 394.454059,363.333993 386.227029,364.736167 C378,366.138342 378,361.494778 378,361.494778 C378,361.494778 378.030842,360.994001 378.084815,360.242836 C380.687085,361.403727 386.369672,362.710299 396,359 Z" id="Path" fill="#000000" fill-rule="nonzero" opacity="0.1"></path>
                <path d="M344,111 C344,111 344,127.296106 342.4375,128.905644 C340.875,130.515182 344,111 344,111 Z" id="Path" fill="#000000" fill-rule="nonzero" opacity="0.1"></path>
                <path d="M419,114 L422.800365,120 C422.800365,120 424.315053,114.11104 419,114 Z" id="Path" fill="#000000" fill-rule="nonzero" opacity="0.1"></path>
                <g id="Group" opacity="0.1" transform="translate(355.000000, 37.000000)" fill="#000000" fill-rule="nonzero">
                    <path d="M5.28017241,5.1954386 C5.87577586,3.54877193 4.31706897,1.93859649 4.11431034,0.177894737 C3.90689831,0.675524561 3.81691776,1.22090129 3.85241379,1.76526316 C3.95801724,3.09263158 4.8662069,4.33789474 5.11965517,5.56491228 C5.18427171,5.44774794 5.23803733,5.32399188 5.28017241,5.1954386 Z" id="Path"></path>
                    <path d="M32.2386207,24.0842105 C31.6556897,21.3154386 31.8162069,18.3870175 31.2332759,15.622807 C30.6503448,12.8585965 28.8128448,9.95754386 26.3248276,9.91192982 C25.2518966,9.91192982 23.9973276,10.3361404 23.2200862,9.45578947 C22.755431,8.93578947 22.6582759,8.08736842 22.3076724,7.47157895 C20.5293103,4.36070175 15.1266379,5.93894737 12.9005172,7.53087719 C9.57612069,9.91649123 5.01405172,14.9021053 0.75612069,13.7708772 C0.549137931,14.3045614 0.359051724,14.842807 0.202758621,15.3947368 C4.54939655,16.8589474 9.25508621,11.6863158 12.6555172,9.24140351 C14.8731897,7.64947368 20.2843103,6.04842105 22.0626724,9.18210526 C22.4175,9.81614035 22.510431,10.6463158 22.9793103,11.1663158 C23.7523276,12.0329825 25.0068966,11.5905263 26.0798276,11.6224561 C28.5678448,11.6680702 30.3884483,14.5189474 30.9925,17.3333333 C31.5965517,20.1477193 31.4149138,23.1308772 32.0189655,25.9407018 C31.9770617,25.3122535 32.0517388,24.6810944 32.2386207,24.0842105 L32.2386207,24.0842105 Z" id="Path"></path>
                    <path d="M44.4506034,20.7908772 C44.0281897,22.1866667 42.8496552,23.4638596 41.5993103,23.1764912 C40.3489655,22.8891228 39.7364655,21.3519298 38.802931,20.3940351 C37.6232721,19.1825628 35.860217,18.9166146 34.4182759,19.7326316 C33.0389205,20.6225192 32.2143895,22.2496151 32.2639655,23.9838596 C32.5885748,22.9103791 33.2704,22.0050834 34.1775,21.4431579 C35.6183757,20.6293471 37.3790328,20.8951896 38.557931,22.1045614 C39.4956897,23.0670175 40.1335345,24.6087719 41.3585345,24.8870175 C42.5835345,25.1652632 43.7662931,23.897193 44.2056034,22.5014035 C44.4381663,21.6819061 44.5882855,20.8377363 44.6533621,19.9835088 C44.6006789,20.2567396 44.5329728,20.5263397 44.4506034,20.7908772 L44.4506034,20.7908772 Z" id="Path"></path>
                    <path d="M48.2692241,8.8445614 C47.3568103,11.4445614 45.7009483,13.6887719 45.1518103,16.425614 C45.0419828,16.9775439 44.9786207,17.5431579 44.9152586,18.1087719 C45.4728448,15.3719298 47.1160345,13.1459649 48.0284483,10.5550877 C48.4340415,9.38207922 48.6870823,8.15401553 48.7803448,6.90596491 C48.6555293,7.56516861 48.4846673,8.21322006 48.2692241,8.8445614 L48.2692241,8.8445614 Z" id="Path"></path>
                </g>
                <path d="M292.740522,105.944211 C292.752375,105.944211 292.761985,105.953817 292.761988,105.96567 L292.762942,109.015131 C292.762946,109.026979 292.753344,109.036586 292.741496,109.03659 C292.741494,109.03659 292.741492,109.03659 292.741489,109.03659 C292.729637,109.03659 292.720027,109.026983 292.720024,109.015131 L292.71907,105.96567 C292.719066,105.953822 292.728668,105.944215 292.740516,105.944211 C292.740518,105.944211 292.74052,105.944211 292.740522,105.944211 Z" id="Rectangle" fill="#3A3768" fill-rule="nonzero" transform="translate(292.741006, 107.490400) rotate(-26.730000) translate(-292.741006, -107.490400) "></path>
                <path d="M279.962576,109.492766 L279.962577,109.492766 L279.962896,110.512133 L279.962895,110.512133 L279.962576,109.492766 Z" id="Rectangle" fill="#3A3768" fill-rule="nonzero" transform="translate(279.962736, 110.002449) rotate(-26.740000) translate(-279.962736, -110.002449) "></path>
                <path d="M280.980345,111.159589 L280.980354,111.159589 L280.980908,112.932774 L280.980899,112.932774 L280.980345,111.159589 Z" id="Rectangle" fill="#3A3768" fill-rule="nonzero" transform="translate(280.980627, 112.046182) rotate(-26.730000) translate(-280.980627, -112.046182) "></path>
                <path d="M282.056867,113.297217 L282.056872,113.297217 L282.05743,115.083251 L282.057426,115.083251 L282.056867,113.297217 Z" id="Rectangle" fill="#3A3768" fill-rule="nonzero" transform="translate(282.057149, 114.190234) rotate(-26.730000) translate(-282.057149, -114.190234) "></path>
                <path d="M285.540766,102.392896 L293.615933,102.39542 C294.852503,102.397207 295.854845,103.399549 295.856633,104.63612 L295.863209,125.665995 C295.864996,126.903112 294.862427,127.906308 293.62531,127.906695 C293.624843,127.906695 293.624376,127.906695 293.623909,127.905294 L285.548743,127.902771 C284.312172,127.900983 283.30983,126.898641 283.308042,125.662071 L283.301466,104.632196 C283.299679,103.395078 284.302248,102.391882 285.539366,102.391496 C285.539833,102.391495 285.540299,102.391495 285.540766,102.392896 Z" id="Rectangle" fill="#3A3768" fill-rule="nonzero" transform="translate(289.582338, 115.149095) rotate(-26.730000) translate(-289.582338, -115.149095) "></path>
                <path d="M287.940667,102.599317 C287.841772,102.648762 287.766181,102.742742 287.732589,102.858015 C287.698996,102.973287 287.710538,103.09909 287.76436,103.204312 L287.802687,103.285836 C287.856281,103.391605 287.86727,103.517865 287.83292,103.633226 C287.798571,103.748587 287.722111,103.842214 287.622548,103.890831 L283.372014,106.289356 C283.278024,106.34961 283.165649,106.362531 283.06268,106.324924 C282.959712,106.287317 282.875763,106.202694 282.831595,106.091982 L282.793267,106.006167 C282.749099,105.895455 282.665151,105.810832 282.562182,105.773226 C282.459213,105.735619 282.346838,105.74854 282.252848,105.808793 L281.424971,106.272193 C281.241749,106.374292 281.102606,106.554176 281.038533,106.77178 C280.97446,106.989384 280.990779,107.226637 281.083856,107.430694 L290.125341,127.524248 C290.216542,127.729364 290.377226,127.885134 290.571603,127.956863 C290.765981,128.028592 290.97791,128.010322 291.160187,127.906124 L298.576581,123.722649 C298.758797,123.620535 298.897195,123.441404 298.961202,123.22483 C299.025208,123.008257 299.009554,122.772066 298.917697,122.568439 L289.88771,102.470594 C289.795816,102.267357 289.635513,102.11336 289.442122,102.042535 C289.248731,101.97171 289.03812,101.989868 288.856697,102.093009 L287.940667,102.599317 Z" id="Path" fill="#82A946" fill-rule="nonzero"></path>
                <path d="M283.100264,104.741428 L284.837882,104.741971 C284.842016,104.741972 284.845366,104.745323 284.845366,104.749457 C284.845366,104.753589 284.842016,104.756939 284.837884,104.756939 C284.837884,104.756939 284.837883,104.756939 284.837882,104.756939 L283.100264,104.756395 C283.09613,104.756394 283.09278,104.753043 283.09278,104.748909 C283.09278,104.744777 283.09613,104.741428 283.100262,104.741428 C283.100262,104.741428 283.100263,104.741428 283.100264,104.741428 Z" id="Rectangle" fill="#E6E8EC" fill-rule="nonzero" transform="translate(283.969073, 104.749183) rotate(-26.730000) translate(-283.969073, -104.749183) "></path>
                <ellipse id="Oval" fill="#E6E8EC" fill-rule="nonzero" cx="285" cy="105" rx="1" ry="1"></ellipse>
                <path d="M75.8106842,29.0538503 C75.8106842,29.0538503 118.634064,26.5579352 113.586424,55.5505877 C113.586424,55.5505877 114.587136,60.6616768 109.781959,63 C109.781959,63 109.707016,60.8703796 105.37354,61.5816728 C103.835728,61.8282323 102.273295,61.8997078 100.71825,61.7946348 C98.6174706,61.6592343 96.6202414,60.863443 95.03139,59.5287187 L95.03139,59.5287187 C95.03139,59.5287187 83.0140405,54.7370727 78.3278913,35.715303 C78.3278913,35.715303 74.8672826,31.5668024 75.0039436,30.5019922 L82.2293419,33.4834608 C82.2293419,33.4834608 79.7606274,38.5221427 81.7047401,42.7089765 C81.7047401,42.7089765 81.9383863,33.6666082 83.3270382,33.8795702 C83.609177,33.9264218 87.083011,35.625859 87.083011,35.625859 C87.083011,35.625859 82.8332953,44.3998951 86.0382157,50.7759787 C86.0382157,50.7759787 84.8214922,39.9660254 88.409945,36.2604858 L93.4972603,39.1312142 C93.4972603,39.1312142 88.5289723,48.1906195 91.8970042,55.5889209 C91.8970042,55.5889209 91.0153205,44.2465625 94.5420555,39.8297297 L99.1532615,43.301011 C99.1532615,43.301011 94.4891545,52.2454168 97.3325846,58.3659459 C97.3325846,58.3659459 97.7028917,45.1622993 100.149564,44.1656369 C100.149564,44.1656369 104.183267,47.6028443 104.800446,49.012653 C104.800446,49.012653 101.604342,55.4952176 103.588131,58.9196473 C103.588131,58.9196473 104.800446,50.1243149 105.79234,50.0817225 C105.79234,50.0817225 109.812818,55.9126232 110.231618,59.9035319 C110.231618,59.9035319 110.055281,53.9618909 106.766601,49.5237619 C106.766601,49.5237619 110.650418,50.1669073 112.938387,52.603193 C112.938387,52.603193 112.312391,48.4802479 105.79234,48.1224717 C105.79234,48.1224717 102.472801,43.7013796 101.5823,43.4373067 C101.5823,43.4373067 108.067084,42.9134201 111.999394,44.5958202 C111.999394,44.5958202 108.538785,40.7071333 100.396436,42.4661998 L95.8469474,38.879919 C95.8469474,38.879919 104.381646,37.7469609 108.000958,38.9949185 C108.000958,38.9949185 103.835002,35.5577111 94.6169986,38.0621447 L89.6531191,35.2041941 C89.6531191,35.2041941 96.9314185,33.6879044 101.269303,34.2373464 C101.269303,34.2373464 96.6933638,31.8521715 88.2027493,34.4375308 L84.6760143,32.8999448 C84.6760143,32.8999448 90.010201,31.8862455 91.5707813,31.7286536 C93.1313615,31.5710616 93.2151215,31.1493968 93.2151215,31.1493968 C89.8375744,30.6069394 86.3704922,30.9799539 83.1991941,32.2269847 C83.1991941,32.2269847 75.6828401,29.5095891 75.8106842,29.0538503 Z" id="Path" fill="#82A946" fill-rule="nonzero" opacity="0.1"></path>
                <path d="M99.3755279,106.02857 C99.3755279,106.02857 119.137203,104.70604 116.809387,120.057365 C116.809387,120.057365 117.259641,122.767303 115.053394,124 C115.053394,124 115.017373,122.862125 113.027248,123.246408 C112.318129,123.380428 111.596996,123.418969 110.879533,123.361193 C109.910234,123.289318 108.988579,122.868773 108.254549,122.163431 L108.254549,122.163431 C108.254549,122.163431 102.698407,119.618185 100.537185,109.551988 C100.537185,109.551988 98.938781,107.361081 99.0018166,106.797134 L102.338203,108.374188 C102.338203,108.374188 101.199059,111.03921 102.095066,113.255071 C102.095066,113.255071 102.203127,108.469011 102.842488,108.583797 C102.973062,108.60875 104.575969,109.507072 104.575969,109.507072 C104.575969,109.507072 102.617361,114.153393 104.094196,117.527091 C104.094196,117.527091 103.535881,111.807774 105.188315,109.841447 L107.538644,111.363604 C107.538644,111.363604 105.228838,116.159645 106.786719,120.102281 C106.786719,120.102281 106.385992,114.113468 108.015914,111.757868 L110.145618,113.594437 C110.145618,113.594437 107.993401,118.325599 109.303642,121.579521 C109.303642,121.579521 109.474739,114.592573 110.604878,114.05857 C110.604878,114.05857 112.46443,115.875177 112.752592,116.623778 C112.752592,116.623778 111.275757,120.057365 112.189774,121.868981 C112.189774,121.868981 112.752592,117.212678 113.211852,117.192716 C113.211852,117.192716 115.066901,120.276954 115.260511,122.393002 C115.260511,122.393002 115.179465,119.243884 113.662107,116.903256 C114.730736,117.1298 115.716536,117.696949 116.498711,118.535208 C116.498711,118.535208 116.210548,116.354282 113.202847,116.164636 C113.202847,116.164636 111.671981,113.824008 111.26225,113.669297 C111.26225,113.669297 114.25194,113.389819 116.066466,114.283151 C116.066466,114.283151 114.472565,112.226991 110.712939,113.160248 L108.61025,111.2588 C108.61025,111.2588 112.549978,110.664909 114.220423,111.323679 C114.220423,111.323679 112.297835,109.502081 108.047432,110.824611 L105.760138,109.327408 C105.760138,109.327408 109.119038,108.528899 111.118168,108.82834 C111.118168,108.82834 109.006474,107.565698 105.089259,108.933144 L103.454835,108.119664 C103.454835,108.119664 105.913225,107.58067 106.638135,107.495829 C107.363045,107.410987 107.394563,107.191398 107.394563,107.191398 C105.836876,106.903004 104.237531,107.099974 102.77495,107.760335 C102.77495,107.760335 99.3034872,106.268122 99.3755279,106.02857 Z" id="Path" fill="#82A946" fill-rule="nonzero" opacity="0.1"></path>
                <path d="M35.3755279,36.0282871 C35.3755279,36.0282871 55.1372029,34.7110933 52.8093866,50.0534079 C52.8093866,50.0534079 53.2596412,52.7676255 51.0533936,54 C51.0533936,54 51.0173732,52.8624235 49.0272478,53.246605 C48.3178885,53.3781301 47.5970214,53.4166471 46.8795333,53.3613606 C45.9097744,53.2877412 44.9881589,52.8655726 44.2545489,52.1589223 L44.2545489,52.1589223 C44.2545489,52.1589223 38.698407,49.6193326 36.5371848,39.5557721 C36.5371848,39.5557721 34.938781,37.3604491 35.0018166,36.7966502 L38.3382033,38.3732913 C38.3382033,38.3732913 37.1990591,41.0426046 38.0950658,43.2578851 C38.0950658,43.2578851 38.2031269,38.4730787 38.8424884,38.5878343 C38.9730623,38.5878343 40.5759687,39.5108678 40.5759687,39.5108678 C40.5759687,39.5108678 38.6173611,44.1559718 40.0941963,47.5287863 C40.0941963,47.5287863 39.5358806,41.8059783 41.188315,39.8451556 L43.5386441,41.3419668 C43.5386441,41.3419668 41.2468481,46.1417413 42.8002265,50.0534079 C42.8002265,50.0534079 42.3994999,44.0661632 44.0294216,41.7161696 L46.1591259,43.552258 C46.1591259,43.552258 44.0069089,48.2821813 45.3171498,51.5352509 C45.3171498,51.5352509 45.4882465,44.5501321 46.6183856,44.0212588 C46.6183856,44.0212588 48.4779372,45.8373897 48.7661001,46.5857953 C48.7661001,46.5857953 47.289265,50.0184823 48.2032819,51.8296238 C48.2032819,51.8296238 48.7661001,47.174541 49.2253598,47.1495942 C49.2253598,47.1495942 51.0804088,50.2380146 51.2740183,52.3485183 C51.2740183,52.3485183 51.1929725,49.2052149 49.6756144,46.8602107 C50.745027,47.084188 51.7314427,47.6515428 52.5122185,48.4917349 C52.5122185,48.4917349 52.2240556,46.3063906 49.2163547,46.1167945 C49.2163547,46.1167945 47.6854891,43.7767797 47.2757574,43.6221092 C47.2757574,43.6221092 50.265448,43.3427044 52.0799741,44.2358018 C52.0799741,44.2358018 50.4860727,42.1751917 46.7264467,43.1131934 L44.6417679,41.2322007 C44.6417679,41.2322007 48.5814957,40.6334762 50.2519403,41.2970625 C50.2519403,41.2970625 48.3293532,39.4759422 44.0789496,40.7981254 L41.7916562,39.3013142 C41.7916562,39.3013142 45.1505556,38.4980256 47.1496861,38.8023772 C47.1496861,38.8023772 45.0379919,37.5400664 41.1207768,38.907154 L39.4863525,38.0938866 C39.4863525,38.0938866 41.9492453,37.5600239 42.6696527,37.4752046 C43.39006,37.3903853 43.4260804,37.170853 43.4260804,37.170853 C41.8650585,36.8692786 40.2590766,37.05588 38.7884579,37.709705 C38.7884579,37.709705 35.3169948,36.2727663 35.3755279,36.0282871 Z" id="Path" fill="#82A946" fill-rule="nonzero" opacity="0.1"></path>
                <ellipse id="Oval" fill="#82A946" fill-rule="nonzero" cx="459.5" cy="333" rx="20.5" ry="3"></ellipse>
                <path d="M470.261922,327.212237 C471.021188,326.501856 471.72351,325.676279 471.943698,324.647187 C472.163885,323.618095 471.731103,322.408529 470.77063,322.036059 C469.692472,321.62135 468.542183,322.377809 467.669026,323.138108 C466.795869,323.898408 465.793637,324.773904 464.650941,324.612628 C465.846693,323.516863 466.38577,321.866495 466.070769,320.265867 C466.026396,319.941916 465.895096,319.636461 465.691136,319.382692 C465.095112,318.733749 464.00936,318.998702 463.291853,319.520928 C461.014053,321.141363 460.380065,324.270877 460.368676,327.08936 C460.1371,326.071788 460.330713,325.011977 460.326917,323.971366 C460.32312,322.930754 460.038395,321.774946 459.188016,321.214321 C458.645954,320.920906 458.037231,320.776579 457.422721,320.795773 C456.397711,320.757374 455.258811,320.861051 454.560286,321.61751 C453.690925,322.558284 453.914909,324.136481 454.674176,325.173253 C455.433442,326.210024 456.572343,326.858966 457.635316,327.573187 C458.484283,328.084395 459.208358,328.782653 459.75367,329.616011 C459.818525,329.738227 459.870686,329.86691 459.90932,330 L466.32892,330 C467.756991,329.252352 469.079729,328.314778 470.261922,327.212237 L470.261922,327.212237 Z" id="Path" fill="#82A946" fill-rule="nonzero"></path>
                <ellipse id="Oval" fill="#82A946" fill-rule="nonzero" cx="59" cy="360" rx="17" ry="3"></ellipse>
                <path d="M67.2682614,356.237396 C68.0704645,355.814896 68.6556409,355.244892 68.9464746,354.602697 C69.1586625,353.953809 68.7342867,353.173895 67.7746188,352.936802 C66.6992121,352.671631 65.5514686,353.152058 64.6834273,353.638724 C63.815386,354.12539 62.8123161,354.680688 61.6742175,354.57462 C62.8663506,353.87647 63.4045941,352.824792 63.0920183,351.804367 C63.0420241,351.596389 62.9053062,351.401167 62.6965772,351.23971 C62.0985932,350.827916 61.018364,351.005736 60.2853514,351.33018 C58.0139766,352.362785 57.3918804,354.359364 57.3677681,356.156285 C57.1411129,355.507397 57.3340109,354.833551 57.324366,354.169065 C57.3147211,353.504579 57.0398414,352.765221 56.1718001,352.40958 C55.6317547,352.221562 55.0246006,352.129019 54.4116052,352.14129 C53.3940679,352.116333 52.2559693,352.184965 51.5567138,352.665392 C50.693495,353.267485 50.9153277,354.275133 51.6676302,354.93338 C52.4199327,355.591627 53.5676762,356.009661 54.6237931,356.46513 C55.4706952,356.791351 56.1927427,357.237116 56.7360269,357.769146 C56.7986406,357.843185 56.8518623,357.92039 56.8951678,358 L63.2945612,358 C64.7366486,357.531854 66.0734927,356.938873 67.2682614,356.237396 L67.2682614,356.237396 Z" id="Path" fill="#82A946" fill-rule="nonzero"></path>
                <ellipse id="Oval" fill="#82A946" fill-rule="nonzero" cx="96" cy="340" rx="17" ry="3"></ellipse>
                <path d="M108.269425,334.234904 C109.071212,333.812382 109.655425,333.242528 109.944719,332.600787 C110.161976,331.95213 109.73229,331.175613 108.771531,330.938604 C107.699729,330.670409 106.55068,331.153783 105.676824,331.640276 C104.802967,332.126769 103.808412,332.68187 102.669019,332.575839 C103.861563,331.876298 104.39853,330.82392 104.083605,329.803454 C104.033661,329.596464 103.896723,329.402299 103.687714,329.242116 C103.093878,328.82735 102.01242,329.005107 101.297885,329.329435 C99.0239275,330.364792 98.4011238,332.357541 98.3769841,334.153822 C98.1452431,333.505165 98.3383606,332.83156 98.3335327,332.16731 C98.3287047,331.50306 98.0438565,330.767084 97.1796559,330.408451 C96.6391923,330.220458 96.0308973,330.128956 95.4174592,330.143375 C94.3939368,330.118427 93.2545438,330.183916 92.559321,330.66729 C91.6902925,331.266051 91.9172055,332.27334 92.6703636,332.934472 C93.4235216,333.595603 94.5725704,334.007251 95.6298884,334.465677 C96.476531,334.791487 97.1991693,335.235886 97.7445244,335.766109 C97.8084072,335.840412 97.8601824,335.918795 97.8990184,336 L104.30569,336 C105.744615,335.530327 107.07806,334.936529 108.269425,334.234904 Z" id="Path" fill="#82A946" fill-rule="nonzero"></path>
                <path d="M273,113.84281 L273,162.152819 C273.001614,163.439081 272.646532,164.67333 272.013205,165.582856 C271.379878,166.492382 270.520438,167.002318 269.62478,167 L266,167 L266,109 L269.62478,109 C270.51991,108.997685 271.378887,109.507021 272.012126,110.415601 C272.645365,111.32418 273.000805,112.557305 273,113.84281 L273,113.84281 Z" id="Path" fill="#C7CCE1" fill-rule="nonzero"></path>
                <path d="M272,109.09179 L272,166.90821 C271.641731,166.969686 271.27742,167 270.912281,167 L270,167 L270,109 L270.912281,109 C271.27742,109 271.641731,109.030314 272,109.09179 Z" id="Path" fill="#000000" fill-rule="nonzero" opacity="0.2"></path>
                <rect id="Rectangle" fill="#DCDFED" fill-rule="nonzero" x="235" y="184" width="18" height="148"></rect>
                <rect id="Rectangle" fill="#C7CCE1" fill-rule="nonzero" x="230" y="349" width="31" height="4"></rect>
                <rect id="Rectangle" fill="#000000" fill-rule="nonzero" opacity="0.1" x="230" y="349" width="31" height="2"></rect>
                <rect id="Rectangle" fill="#000000" fill-rule="nonzero" opacity="0.1" x="235" y="329" width="18" height="4"></rect>
                <path d="M224.211217,330 L265.788783,330 C270.353481,330 274.731222,331.643621 277.958951,334.569284 C281.186681,337.494947 283,341.462998 283,345.600511 L283,348 L207,348 L207,345.600511 C207,341.462998 208.813319,337.494947 212.041049,334.569284 C215.268778,331.643621 219.646519,330 224.211217,330 L224.211217,330 Z" id="Path" fill="#DCDFED" fill-rule="nonzero"></path>
                <rect id="Rectangle" fill="#000000" fill-rule="nonzero" opacity="0.1" x="235" y="207" width="18" height="18"></rect>
                <rect id="Rectangle" fill="#000000" fill-rule="nonzero" opacity="0.1" x="235" y="206" width="18" height="18"></rect>
                <rect id="Rectangle" fill="#DCDFED" fill-rule="nonzero" x="234" y="206" width="22" height="18"></rect>
                <path d="M265,173.866072 L265,180.126624 C265,183.3704 261.850929,186 257.966353,186 L233.033647,186 C229.149071,186 226,183.3704 226,180.126624 L226,173.866072 C226.00116,172.309325 226.742854,170.816722 228.061919,169.71662 C229.380984,168.616518 231.169368,167.999032 233.033647,168 L257.966353,168 C259.830632,167.999032 261.619016,168.616518 262.938081,169.71662 C264.257146,170.816722 264.99884,172.309325 265,173.866072 L265,173.866072 Z" id="Path" fill="#C7CCE1" fill-rule="nonzero"></path>
                <path d="M265,174.248796 L265,175.038669 C260.360514,181.316212 253.149243,185 245.5,185 C237.850757,185 230.639486,181.316212 226,175.038669 L226,174.248796 C226.001159,172.325105 226.742604,170.480678 228.061226,169.121269 C229.379847,167.76186 231.167629,166.998825 233.031282,167 L257.9556,167 C259.821524,166.995228 261.612679,167.756675 262.934139,169.116473 C264.255599,170.476272 264.998845,172.322755 265,174.248796 L265,174.248796 Z" id="Path" fill="#000000" fill-rule="nonzero" opacity="0.1"></path>
                <path d="M223.898101,104 L267.101899,104 C268.150191,104 269,104.890809 269,105.989678 L269,162.649391 C269,174.441007 259.88097,184 248.632076,184 L242.367924,184 C231.11903,184 222,174.441007 222,162.649391 L222,105.989678 C222,104.890809 222.849809,104 223.898101,104 L223.898101,104 Z" id="Path" fill="#C7CCE1" fill-rule="nonzero"></path>
                <path d="M231.457596,76.0046614 L259.542404,76.0046614 C263.66112,76.0046614 267,79.606762 267,84.0501782 L267,107.100631 C267,108.701908 265.796765,110 264.3125,110 L226.6875,110 C225.974731,110 225.291155,109.694532 224.787151,109.150794 C224.283147,108.607057 224,107.869591 224,107.100631 L224,84.0455169 C224,79.6021006 227.33888,76 231.457596,76 L231.457596,76.0046614 Z" id="Path" fill="#C7CCE1" fill-rule="nonzero"></path>
                <rect id="Rectangle" fill="#000000" fill-rule="nonzero" opacity="0.2" x="228" y="98" width="34" height="2"></rect>
                <rect id="Rectangle" fill="#000000" fill-rule="nonzero" opacity="0.1" x="226" y="112" width="39" height="27"></rect>
                <rect id="Rectangle" fill="#82A946" fill-rule="nonzero" x="226" y="112" width="39" height="27"></rect>
                <g id="Group" opacity="0.1" transform="translate(226.000000, 146.000000)" fill="#000000" fill-rule="nonzero">
                    <rect id="Rectangle" x="0.0350561798" y="0.387037037" width="8.79033708" height="2.91703704" rx="0.79"></rect>
                    <rect id="Rectangle" x="9.98224719" y="0.387037037" width="8.79033708" height="2.91703704" rx="0.79"></rect>
                    <rect id="Rectangle" x="19.9294382" y="0.387037037" width="8.79033708" height="2.91703704" rx="0.79"></rect>
                    <rect id="Rectangle" x="29.8810112" y="0.387037037" width="8.79033708" height="2.91703704" rx="0.79"></rect>
                    <rect id="Rectangle" x="0.0350561798" y="6.09888889" width="8.79033708" height="2.91703704" rx="0.79"></rect>
                    <rect id="Rectangle" x="9.98224719" y="6.09888889" width="8.79033708" height="2.91703704" rx="0.79"></rect>
                    <rect id="Rectangle" x="19.9294382" y="6.09888889" width="8.79033708" height="2.91703704" rx="0.79"></rect>
                    <rect id="Rectangle" x="0.0350561798" y="11.6681481" width="8.79033708" height="2.91703704" rx="0.79"></rect>
                    <rect id="Rectangle" x="9.98224719" y="11.6681481" width="8.79033708" height="2.91703704" rx="0.79"></rect>
                    <rect id="Rectangle" x="19.9294382" y="11.6681481" width="8.79033708" height="2.91703704" rx="0.79"></rect>
                    <rect id="Rectangle" x="0.0350561798" y="17.8118519" width="8.79033708" height="2.91703704" rx="0.79"></rect>
                    <rect id="Rectangle" x="9.98224719" y="17.8118519" width="8.79033708" height="2.91703704" rx="0.79"></rect>
                    <rect id="Rectangle" x="19.9294382" y="17.8118519" width="8.79033708" height="2.91703704" rx="0.79"></rect>
                    <rect id="Rectangle" x="29.8810112" y="6.09888889" width="8.79033708" height="2.91703704" rx="0.79"></rect>
                    <rect id="Rectangle" x="30.42" y="11.3544444" width="7.79123596" height="10.397037" rx="1.97"></rect>
                </g>
                <rect id="Rectangle" fill="#F2F3F3" fill-rule="nonzero" x="226" y="144" width="7" height="4" rx="0.79"></rect>
                <rect id="Rectangle" fill="#F2F3F3" fill-rule="nonzero" x="237" y="144" width="7" height="4" rx="0.79"></rect>
                <rect id="Rectangle" fill="#F2F3F3" fill-rule="nonzero" x="247" y="144" width="7" height="4" rx="0.79"></rect>
                <rect id="Rectangle" fill="#D44F6A" fill-rule="nonzero" x="258" y="144" width="7" height="4" rx="0.79"></rect>
                <rect id="Rectangle" fill="#F2F3F3" fill-rule="nonzero" x="226" y="148" width="7" height="4" rx="0.79"></rect>
                <rect id="Rectangle" fill="#F2F3F3" fill-rule="nonzero" x="237" y="148" width="7" height="4" rx="0.79"></rect>
                <rect id="Rectangle" fill="#F2F3F3" fill-rule="nonzero" x="247" y="148" width="7" height="4" rx="0.79"></rect>
                <rect id="Rectangle" fill="#F2F3F3" fill-rule="nonzero" x="226" y="156" width="7" height="4" rx="0.79"></rect>
                <rect id="Rectangle" fill="#F2F3F3" fill-rule="nonzero" x="237" y="156" width="7" height="4" rx="0.79"></rect>
                <rect id="Rectangle" fill="#F2F3F3" fill-rule="nonzero" x="247" y="156" width="7" height="4" rx="0.79"></rect>
                <rect id="Rectangle" fill="#F2F3F3" fill-rule="nonzero" x="226" y="161" width="7" height="4" rx="0.79"></rect>
                <rect id="Rectangle" fill="#F2F3F3" fill-rule="nonzero" x="237" y="161" width="7" height="4" rx="0.79"></rect>
                <rect id="Rectangle" fill="#F2F3F3" fill-rule="nonzero" x="247" y="161" width="7" height="4" rx="0.79"></rect>
                <rect id="Rectangle" fill="#FECB42" fill-rule="nonzero" x="258" y="148" width="7" height="4" rx="0.79"></rect>
                <rect id="Rectangle" fill="#97D25E" fill-rule="nonzero" x="255" y="156" width="6" height="11" rx="1.97"></rect>
                <g id="Group"></g>
                <rect id="Rectangle" fill="#C7CCE1" fill-rule="nonzero" x="245" y="136" width="4" height="1"></rect>
                <rect id="Rectangle" fill="#C7CCE1" fill-rule="nonzero" x="249" y="136" width="4" height="1"></rect>
                <rect id="Rectangle" fill="#C7CCE1" fill-rule="nonzero" x="256" y="136" width="4" height="1"></rect>
            </g>
        </g>
    </g>
</svg>