<?xml version="1.0" encoding="UTF-8"?>
<svg width="17px" height="16px" viewBox="0 0 17 16" version="1.1" xmlns="http://www.w3.org/2000/svg" xmlns:xlink="http://www.w3.org/1999/xlink">
    <!-- Generator: sketchtool 58 (101010) - https://sketch.com -->
    <title>A3757A17-6963-4672-A808-37FE02C56A1A</title>
    <desc>Created with sketchtool.</desc>
    <g id="Page-1" stroke="none" stroke-width="1" fill="none" fill-rule="evenodd">
        <g id="Dashboard" transform="translate(-22.000000, -718.000000)">
            <g id="Side-Bar" transform="translate(0.000000, 81.000000)">
                <g id="Group-3">
                    <g id="Group-11" transform="translate(22.000000, 635.000000)">
                        <g id="logout-circle-line">
                            <polygon id="Path" points="0 0 19 0 19 19 0 19"></polygon>
                            <path d="M3.86363636,9.20000248 L10.0454545,9.20000248 L10.0454545,10.8000032 L3.86363636,10.8000032 L3.86363636,13.2000014 L0,10.0000023 L3.86363636,6.80000316 L3.86363636,9.20000248 Z M3.09090909,14.8000009 L5.18345455,14.8000009 C7.66873051,17.0691655 11.4402043,16.9059529 13.7338939,14.4299759 C16.0275835,11.9539989 16.0275835,8.04600565 13.7338939,5.57002862 C11.4402043,3.09405158 7.66873051,2.93083896 5.18345455,5.20000361 L3.09090909,5.20000361 C4.54903499,3.18406517 6.84008068,1.99811244 9.27272727,2.00000226 C13.5405,2.00000226 17,5.5816035 17,10.0000023 C17,14.418401 13.5405,18.0000023 9.27272727,18.0000023 C6.84008068,18.0018921 4.54903499,16.8159393 3.09090909,14.8000009 L3.09090909,14.8000009 Z" id="Shape" fill="#FFFFFF" fill-rule="nonzero"></path>
                        </g>
                    </g>
                </g>
            </g>
        </g>
    </g>
</svg>