<?xml version="1.0" encoding="UTF-8"?>
<svg width="27px" height="26px" viewBox="0 0 27 26" version="1.1" xmlns="http://www.w3.org/2000/svg" xmlns:xlink="http://www.w3.org/1999/xlink">
    <!-- Generator: sketchtool 58 (101010) - https://sketch.com -->
    <title>0C45E590-F0DF-454E-AAB8-FB96778C26E3</title>
    <desc>Created with sketchtool.</desc>
    <g id="Page-1" stroke="none" stroke-width="1" fill="none" fill-rule="evenodd">
        <g id="Dashboard" transform="translate(-1218.000000, -30.000000)" fill="#8F92A1" fill-rule="nonzero">
            <g id="Header" transform="translate(0.000000, 6.000000)">
                <g id="Group">
                    <path d="M1224.15385,35.7500037 L1234,35.7500037 L1234,38.2500037 L1224.15385,38.2500037 L1224.15385,42.0000037 L1218,37.0000037 L1224.15385,32.0000037 L1224.15385,35.7500037 Z M1223,44.8000015 L1226.30978,44.8000015 C1230.24074,48.487394 1236.20607,48.2221735 1239.834,44.1987108 C1243.46193,40.1752481 1243.46193,33.8247592 1239.834,29.8012965 C1236.20607,25.7778338 1230.24074,25.5126133 1226.30978,29.2000059 L1223,29.2000059 C1225.30632,25.9241059 1228.93006,23.9969327 1232.77778,24.0000037 C1239.52811,24.0000037 1245,29.8201057 1245,37.0000037 C1245,44.1799016 1239.52811,50.0000037 1232.77778,50.0000037 C1228.93006,50.0030746 1225.30632,48.0759014 1223,44.8000015 L1223,44.8000015 Z" id="Shape"></path>
                </g>
            </g>
        </g>
    </g>
</svg>