<?xml version="1.0" encoding="UTF-8"?>
<svg width="23px" height="18px" viewBox="0 0 23 18" version="1.1" xmlns="http://www.w3.org/2000/svg" xmlns:xlink="http://www.w3.org/1999/xlink">
    <!-- Generator: sketchtool 58 (101010) - https://sketch.com -->
    <title>5DDCCE9B-28C2-451F-A762-9A2493180C53</title>
    <desc>Created with sketchtool.</desc>
    <g id="Page-1" stroke="none" stroke-width="1" fill="none" fill-rule="evenodd">
        <g id="Dashboard" transform="translate(-21.000000, -305.000000)">
            <g id="Side-Bar" transform="translate(0.000000, 81.000000)">
                <g id="Group-3">
                    <g id="Cash" transform="translate(20.000000, 221.000000)">
                        <g id="money">
                            <rect id="bound" x="1" y="0" width="24" height="24"></rect>
                            <path d="M3,6 L22,6 C22.5522847,6 23,6.44771525 23,7 L23,17 C23,17.5522847 22.5522847,18 22,18 L3,18 C2.44771525,18 2,17.5522847 2,17 L2,7 C2,6.44771525 2.44771525,6 3,6 Z M12.5,16 C14.709139,16 16.5,14.209139 16.5,12 C16.5,9.790861 14.709139,8 12.5,8 C10.290861,8 8.5,9.790861 8.5,12 C8.5,14.209139 10.290861,16 12.5,16 Z" id="Combined-Shape-Copy" fill="#FFFFFF" fill-rule="nonzero" opacity="0.3" transform="translate(12.500000, 12.000000) rotate(15.000000) translate(-12.500000, -12.000000) "></path>
                            <path d="M3,6 L22,6 C22.5522847,6 23,6.44771525 23,7 L23,17 C23,17.5522847 22.5522847,18 22,18 L3,18 C2.44771525,18 2,17.5522847 2,17 L2,7 C2,6.44771525 2.44771525,6 3,6 Z M12.5,16 C14.709139,16 16.5,14.209139 16.5,12 C16.5,9.790861 14.709139,8 12.5,8 C10.290861,8 8.5,9.790861 8.5,12 C8.5,14.209139 10.290861,16 12.5,16 Z M12.5,14 C13.6045695,14 14.5,13.1045695 14.5,12 C14.5,10.8954305 13.6045695,10 12.5,10 C11.3954305,10 10.5,10.8954305 10.5,12 C10.5,13.1045695 11.3954305,14 12.5,14 Z" id="Combined-Shape" fill="#FFFFFF" fill-rule="nonzero"></path>
                        </g>
                    </g>
                </g>
            </g>
        </g>
    </g>
</svg>