<?xml version="1.0" encoding="UTF-8"?>
<svg width="139px" height="81px" viewBox="0 0 139 81" version="1.1" xmlns="http://www.w3.org/2000/svg" xmlns:xlink="http://www.w3.org/1999/xlink">
    <!-- Generator: sketchtool 58 (101010) - https://sketch.com -->
    <title>790DDFA9-EBD1-41B6-A89E-6CC3113FC64E</title>
    <desc>Created with sketchtool.</desc>
    <g id="Page-1" stroke="none" stroke-width="1" fill="none" fill-rule="evenodd">
        <g id="Empty-states-Transfer-Phone-to-bank-New-or-Saved-beneficiary-Copy-3" transform="translate(-545.000000, -645.000000)" fill-rule="nonzero">
            <g id="undraw_friends_online_klj6" transform="translate(545.000000, 645.000000)">
                <path d="M109.044442,3 L109.044433,3 C105.706185,3 103,5.89411374 103,9.46418806 L103,14 L104.447626,14 L105.285717,12.3194456 L105.076193,14 L114.380956,14 L115.142857,12.472222 L114.952383,14 L116,14 L116,10.4385734 C116,6.33036583 112.885888,3 109.044442,3 Z" id="Path" fill="#2F2E41"></path>
                <ellipse id="Oval" fill="#3F3D56" cx="74" cy="76.5" rx="65" ry="4.5"></ellipse>
                <path d="M29.8633299,75 C29.8389421,74.9529455 29.2639036,73.8192269 29.064544,71.4650313 C28.8816859,69.3051808 28.9992668,65.6645842 30.5982925,60.5862517 C33.6275985,50.9656894 29.9001715,43.2032892 29.8620845,43.125968 L30.0459808,43 C30.0556322,43.019606 31.0174549,44.9987133 31.5856443,48.1501389 C32.3364003,52.3282659 32.0630224,56.6725091 30.7975491,60.673743 C27.7734354,70.2778802 30.0216982,74.8244039 30.0447353,74.8692525 L29.8633299,75 Z" id="Path" fill="#3F3D56"></path>
                <circle id="Oval" fill="#A3C23D" cx="28.5" cy="40.5" r="1.5"></circle>
                <circle id="Oval" fill="#3F3D56" cx="33.5" cy="46.5" r="1.5"></circle>
                <circle id="Oval" fill="#A3C23D" cx="29.5" cy="51.5" r="1.5"></circle>
                <circle id="Oval" fill="#A3C23D" cx="34.5" cy="54.5" r="1.5"></circle>
                <circle id="Oval" fill="#3F3D56" cx="28.5" cy="59.5" r="1.5"></circle>
                <path d="M31.2222222,75 C31.2222222,75 29.8333333,71 34,68 L31.2222222,75 Z" id="Path" fill="#3F3D56"></path>
                <path d="M29,75 C29,75 28.1990704,70.9656432 22,71.000221 L29,75 Z" id="Path" fill="#3F3D56"></path>
                <path d="M106.634921,10.3783784 C106.634921,10.3783784 108.539683,14.7927928 106,15.6756757 L108.539683,24 L112.857143,23.7477477 L114,20.972973 L113.746032,16.8108108 L113.365079,14.036036 C113.365079,14.036036 110.698413,14.6666667 110.952381,10 L106.634921,10.3783784 Z" id="Path" fill="#FFB8B8"></path>
                <path d="M105.394125,16.0142743 C105.394125,16.0142743 101.182587,15.6574176 101.565454,18.5122711 C101.948321,21.3671247 102.331188,21.9618858 102.331188,21.9618858 L102.714055,26.2441661 L100.416853,27.5526407 L98.2472724,27.5526407 C98.2472724,27.5526407 91.6109093,28.9800674 94.9290908,30.5264464 C98.2472724,32.0728254 99.3958737,29.3369241 99.3958737,29.3369241 C99.3958737,29.3369241 105.521747,29.3369241 105.904614,28.3853063 C106.287482,27.4336884 105.394125,16.0142743 105.394125,16.0142743 Z" id="Path" fill="#FFB8B8"></path>
                <path d="M113,14.3185989 C113,14.3185989 117.16114,12.9257161 117.4296,15.9647331 C117.698061,19.00375 117.698061,19.2570014 117.698061,19.2570014 L118.503443,23.5622754 C118.503443,23.5622754 120.114206,27.3610466 120.114206,28.5006779 C120.114206,29.6403093 121.322279,33.185829 121.322279,33.185829 C121.322279,33.185829 122.933043,38.1242316 121.188049,37.9976059 C119.443055,37.8709802 119.174594,32.6793262 119.174594,32.6793262 L115.550376,25.8415381 L114.476533,21.6628898 L113,14.3185989 Z" id="Path" fill="#FFB8B8"></path>
                <path d="M105.795576,15.3628319 L104.768201,15.3628319 L104.639779,20.5663717 C104.639779,20.5663717 102.970296,22.7964602 105.025045,24.7787611 L105.538732,28 L114.913525,27.6283186 L115.555634,24.2831858 C115.555634,24.2831858 116.839852,21.5575221 115.041947,19.079646 L113.372463,14 L112.47351,14 C112.47351,14 114.555571,21.4061388 110.161918,21.5575221 C106.566107,21.6814159 105.795576,15.3628319 105.795576,15.3628319 Z" id="Path" fill="#A3C23D"></path>
                <path d="M106.547108,28.2461152 L105.795709,30.7072673 C105.795709,30.7072673 90.1415763,74.0235442 94.9004327,75.1310626 C99.6592892,76.2385811 106.296642,77.7152723 106.922807,76.6077539 C107.548972,75.5002354 110.805032,43.1360854 110.805032,43.1360854 C110.805032,43.1360854 110.3041,76.9769267 111.932129,76.9769267 C113.560159,76.9769267 124.330203,77.2230419 124.956368,75.623293 C125.582533,74.0235442 119.32088,31.1994977 115.689121,30.2150369 L114.687257,28 L106.547108,28.2461152 Z" id="Path" fill="#2F2E41"></path>
                <path d="M114.640113,26 L105.191656,26.3746536 C105.191656,26.3746536 104.76043,29.7465361 105.191656,29.7465361 C105.311257,29.7465361 115.118516,30.6207279 114.998915,29.1221134 C114.879314,27.623499 114.640113,26 114.640113,26 Z" id="Path" fill="#3F3D56"></path>
                <path d="M64,50.0004861 C64.0011125,55.3772906 60.9233704,60.279747 56.0807159,62.6149101 C56.0794771,62.6149101 56.0794771,62.6149101 56.0782384,62.616149 C55.6528303,62.8215969 55.2170305,63.0047875 54.7726033,63.1649792 C54.7019949,63.1922349 54.6301479,63.2170128 54.557062,63.2405518 C54.4084129,63.2938243 54.25728,63.3421412 54.1049208,63.3879802 C53.7915189,63.484614 53.4735748,63.5700977 53.1510887,63.6444314 L53.14985,63.6444314 L53.1411788,63.6469092 L53.1213589,63.6506259 C53.0792417,63.660537 53.0358857,63.6704482 52.9925296,63.6791205 C52.7522135,63.7323929 52.5094199,63.778232 52.2641488,63.8166378 C51.516431,63.9393668 50.7599245,64.0006903 50.0022041,64 C49.5958964,64 49.1920662,63.9826496 48.7944297,63.9479606 C48.7728574,63.9471295 48.7513505,63.9450612 48.7300151,63.9417661 C47.6396611,63.8431004 46.5645724,63.617329 45.5266258,63.2690464 C45.3730216,63.2170128 45.2194175,63.1625014 45.0682909,63.1042734 C38.4396803,60.608176 34.7196197,53.5537442 36.4035209,46.6730819 C38.0874221,39.7924196 44.6446544,35.2537603 51.6766348,36.1016308 C58.7086151,36.9495013 63.9994266,42.9167208 64,50.0004861 L64,50.0004861 Z" id="Path" fill="#3F3D56"></path>
                <path d="M49,49.7462507 C49,49.7462507 52.225181,48.0035182 53.7400387,49.8444524 C55.2548964,51.6853866 49.6841296,51.0794051 49,49.7462507 Z" id="Path" fill="#3F3D56"></path>
                <path d="M53.3745497,43.0641266 C52.289262,41.0989972 50.1421061,41.0074128 50.1421061,41.0074128 C50.1421061,41.0074128 48.0498311,40.7206935 46.70764,43.7136098 C45.4566128,46.5032538 43.7300443,49.1967118 46.429676,49.8497506 L46.9173086,48.2233292 L47.2192963,49.970836 C47.6036719,50.0004616 47.9892725,50.0075233 48.3743683,49.9919892 C51.2654546,49.8919683 54.0187793,50.0212551 53.9301266,48.9095172 C53.8122763,47.4316086 54.4188131,44.9549741 53.3745497,43.0641266 Z" id="Path" fill="#2F2E41"></path>
                <path d="M54.7743191,63.3948649 C54.8508431,63.3761088 54.92607,63.3563656 55,63.334648 L54.9831388,63.3168791 L54.7743191,63.3079946 L53.4228275,63.2527135 L53.4215305,63.2527135 L53.1945525,63.2438291 L52.1193256,63.1994068 L49.7782101,63.1026649 L48.5239948,63.0513324 L48.460441,63.048371 L48.4448768,63.048371 L47.5616083,63.0118459 L47.2736706,63 L47,63.7640636 C47.5522756,63.8524806 48.1109831,63.9157712 48.6731518,63.9535987 C48.6954914,63.9562208 48.7180098,63.9578687 48.7405966,63.9585345 C49.156939,63.9861751 49.5797665,64 50.0051881,64 C50.7985536,64.0005483 51.5906481,63.9516852 52.3735409,63.8538953 C52.6303502,63.8232933 52.8845655,63.7867683 53.1361868,63.7443203 C53.1815824,63.7374102 53.226978,63.7295129 53.2710765,63.7216156 L53.2918288,63.7186541 L53.3009079,63.7166798 L53.3022049,63.7166798 C53.6394293,63.6574501 53.9723303,63.5893359 54.3009079,63.5123372 L54.7743191,63.3948649 Z" id="Path" fill="#2F2E41"></path>
                <path d="M48.7035072,46.80678 C48.7035072,46.80678 49.2030983,50.3305088 48.2039148,50.7576276 C47.2047314,51.1847464 50.2022842,53 50.2022842,53 L51.9008969,53 L53,50.5440682 C53,50.5440682 52.0008153,48.6220349 52.6003261,46.80678 C53.1998369,44.991525 48.7035072,46.80678 48.7035072,46.80678 Z" id="Path" fill="#A0616A"></path>
                <path d="M55,63.4186266 L55,51.4337012 C55,51.4337012 54.8626956,50.20281 53.7736833,50.5229693 C53.6623553,50.5566881 53.5542722,50.5993612 53.4506142,50.6505228 C53.2702998,50.7428408 53.0983128,50.849069 52.9363958,50.968131 C52.8744742,51.0127747 52.8112065,51.061245 52.7452465,51.1135419 C52.739862,51.1173685 52.7344775,51.1224707 52.7290931,51.1262973 C50.6749117,52.7653596 49.7030119,51.6390623 49.4862864,51.4337012 C49.4068652,51.3597202 49.1995625,51.1492569 48.9666835,50.9120074 L48.9666835,50.9107319 C48.8657244,50.8086891 48.7607269,50.7015442 48.6611139,50.5969503 C48.3528521,50.2818932 48.0809356,50 48.0809356,50 L47,50.8188934 L47.2638398,57.028197 L47.3257614,58.492511 L47.3257614,58.4937866 L47.3459532,58.9491525 L47.3459532,58.9517036 L47.5142184,62.9237191 L47.5397947,63.5232205 C47.9057377,63.6334816 48.2772849,63.726287 48.6530372,63.8012871 C48.7634191,63.8229712 48.8805317,63.8446553 49.0003365,63.8650638 C49.9372371,64.0257812 51.1164395,64.108691 51.8648831,63.7273061 C52.0160739,63.6504657 52.1747587,63.5876717 52.3387178,63.5398024 C52.6642847,63.4471323 53.0030373,63.4028134 53.3429244,63.4084224 C53.415615,63.4096979 53.4869594,63.412249 53.5583039,63.4160756 L53.55965,63.4160756 C53.8806037,63.4376019 54.1985048,63.4893026 54.5086657,63.5704153 L55,63.4186266 Z" id="Path" fill="#3F3D56"></path>
                <path d="M49.5484636,62.9254119 C49.3020925,63.216092 49.0275696,63.4856344 48.7282656,63.7307297 C48.636078,63.8080202 48.5438905,63.8828175 48.4503472,63.9563682 C48.4313674,63.9713277 48.4123877,63.9850405 48.3934079,64 C47.2001079,63.9007188 46.0235144,63.6735393 44.8875698,63.3230843 C44.7194631,63.2707262 44.5513564,63.2158748 44.3859611,63.1572836 C44.4906264,62.9135126 44.572712,62.6620477 44.6313427,62.4055705 C45.3810443,59.1743265 43.20108,54.2701157 43.0112822,53.4834973 C42.9421415,53.2005141 43.1970129,52.8078282 43.6050703,52.3902098 C44.4957646,51.4814224 46.1158251,50.4542059 46.7136885,50.1799491 C47.1670016,49.9934385 47.6747924,49.9504717 48.1575081,50.0577802 L48.1588638,50.0577802 C48.310284,50.0863285 48.4586405,50.1272128 48.6021774,50.1799491 L48.6021774,50.1811957 C48.6035331,50.1998951 48.6184458,50.34201 48.6442041,50.5851013 C48.6577611,50.7184898 48.6740295,50.8805507 48.6943649,51.0700372 L48.6943649,51.0712838 C48.7309688,51.4253244 48.7770626,51.8666286 48.8312906,52.3702639 L48.8312906,52.3715105 C49.1580141,55.4743525 49.7490989,60.8747188 49.9795678,61.7934792 C50.0649849,62.1338069 49.875183,62.5277395 49.5484636,62.9254119 Z" id="Path" fill="#D0CDE1"></path>
                <path d="M54.5868243,63.4073737 C54.6592987,63.3831589 54.7305448,63.3576695 54.8005625,63.3296313 C55.2412725,63.1648421 55.6734267,62.9763917 56.0952753,62.7650432 C55.4638878,60.8507965 57.3297975,54.7652253 57.8641429,52.8815658 L57.8641429,52.8790168 C57.9267903,52.6585344 57.971012,52.4954028 57.9906661,52.4049158 C58.1884353,51.4834775 55.1789036,50.6142922 55.0806332,50.4091033 C55.0044736,50.2536186 53.7822352,50.0968594 53.2061249,50.0318616 C53.0280097,50.0114702 52.9113136,50 52.9113136,50 C52.7589944,50.1223487 52.6422983,50.474101 52.5513982,50.9851616 C52.5427995,51.0259445 52.5354292,51.0692763 52.5292873,51.1126081 C52.4641832,51.5076923 52.4138196,51.9856168 52.373283,52.5221666 C52.1497178,55.4483386 52.2258774,60.0720983 52.0219662,61.9761493 C51.9806789,62.3694737 51.9976635,62.7670376 52.0723298,63.1550296 C52.094746,63.2809619 52.1234468,63.4056024 52.1583165,63.5284479 C52.2012242,63.6885575 52.2529001,63.8459973 52.3130924,64 C52.5563117,63.9604916 52.7970742,63.9133364 53.03538,63.8585344 C53.0783733,63.8496131 53.1213666,63.8394174 53.1631315,63.8292217 L53.1827856,63.8253983 L53.1913843,63.8228493 L53.1926127,63.8228493 C53.5119915,63.7463814 53.8272758,63.6584433 54.1384655,63.559035 L54.5868243,63.4073737 Z" id="Path" fill="#D0CDE1"></path>
                <ellipse id="Oval" fill="#A0616A" cx="54" cy="45.5" rx="1" ry="1"></ellipse>
                <ellipse id="Oval" fill="#A0616A" cx="48" cy="45.5" rx="1" ry="1"></ellipse>
                <path d="M54.467955,62.6008978 C54.5441956,62.5776372 54.619144,62.5531524 54.6928002,62.5262191 C55.156412,62.3679241 55.6110234,62.1869003 56.0547936,61.9838808 C56.0546178,61.9852271 56.0550926,61.9865766 56.0560858,61.9875536 C56.0558938,61.985828 56.0563515,61.9840936 56.0573781,61.9826566 C56.8327064,58.1042644 57.6545544,53.9553152 57.9155816,52.4899 L57.9155816,52.4874515 C57.9608091,52.2328096 57.9892378,52.0601918 57.9969911,51.9830647 C58.1003682,51 55.5056027,51 55.5056027,51 L55.0920943,52.979596 L54.467955,55.9704142 L54.2534475,56.9975515 L53.1201759,62.4246072 L53.0839939,62.5984493 L53,63 L53.0012922,63 C53.3372678,62.9265456 53.6689361,62.842073 53.9962969,62.7465823 L54.467955,62.6008978 Z" id="Path" fill="#D0CDE1"></path>
                <path d="M48.9401335,63.9938813 C47.9267672,63.8964224 46.9275882,63.6734127 45.9629289,63.3293902 C45.8903983,63.0320212 45.8178678,62.730981 45.7453373,62.4287171 C44.8461893,58.6779523 44,54.7093616 44,53.9653274 C44,53.3497858 44.4040985,52.905568 44.8738199,52.5971854 C45.3208788,52.3195794 45.8060683,52.118078 46.3117661,52 C46.3117661,52 46.6064932,53.3032837 47.0301635,55.1829492 C47.2569652,56.1864165 47.5194566,57.353865 47.7923095,58.5751581 L47.7923095,58.5763818 C48.1100622,59.9934734 48.4427815,61.4815419 48.751324,62.8717112 C48.8008289,63.0968795 48.8499501,63.3187844 48.8986875,63.5374261 L48.8986875,63.542321 C48.8993879,63.5438496 48.8997801,63.5455169 48.8998388,63.547216 C48.909049,63.5875945 48.9182593,63.627978 48.9274695,63.6683663 C48.9481925,63.7638181 48.9689155,63.8580461 48.9884872,63.9510504 C48.9930923,63.966959 48.9965462,63.9828676 49,64 C48.9799509,63.9991791 48.9599625,63.9971361 48.9401335,63.9938813 L48.9401335,63.9938813 Z" id="Path" fill="#D0CDE1"></path>
                <path d="M46,54 L49,63 C49,63 47.6000004,55.1251133 46,54 Z" id="Path" fill="#000000" opacity="0.2"></path>
                <path d="M52,64.0709217 L53,63.9290783 L53,63.9328111 C52.670068,63.9863134 52.3367347,64.0323502 52,64.0709217 Z" id="Path" fill="#000000" opacity="0.2"></path>
                <path d="M56,53 L55.1701093,55.9756395 L54.8848851,56.9975639 L53.3797262,62.3970767 L53.378008,62.3970767 L53.3316161,62.5700365 L53.3298979,62.5700365 L53.2199319,62.9695493 L53.2182137,62.9695493 L53.2061862,62.9719854 L53.1786947,62.9756395 L53,63 C53.015464,62.863581 53.0343644,62.7174178 53.054983,62.5627284 C53.0618558,62.5054811 53.0687287,62.4470158 53.0773198,62.3861145 C53.4003448,59.8976857 54.0893502,55.5992692 55.1701093,53.7990256 C55.4244021,53.3751523 55.7010318,53.090134 56,53 Z" id="Path" fill="#000000" opacity="0.2"></path>
                <circle id="Oval" fill="#A0616A" cx="51" cy="46" r="3"></circle>
                <polygon id="Path" fill="#2F2E41" points="53.8947368 43.0645161 51.6842105 42 48.6315789 42.4354255 48 45 49.5722176 44.9444336 50.0114278 44.0022569 50.0114278 44.9289077 50.7368421 44.9032258 51.1578947 43.4031674 51.4211161 45 54 44.9516713"></polygon>
                <path d="M28,32.000486 C28,36.5096609 25.8281708,40.7427454 22.1655451,43.3722837 C21.6725148,43.7281135 21.1564859,44.0509306 20.620839,44.3386201 C17.6866892,45.9094134 14.2898831,46.3862641 11.0367249,45.6840578 C10.3441138,45.5354259 9.66407209,45.3332932 9.00271742,45.079478 C2.39502858,42.5533756 -1.28999784,35.4940967 0.414715248,28.6277364 C2.11942833,21.761376 8.67811163,17.2459425 15.6998123,18.1044596 C22.721513,18.9629767 27.9994013,24.9256235 28,32.000486 L28,32.000486 Z" id="Path" fill="#3F3D56"></path>
                <circle id="Oval" fill="#FFB8B8" cx="13.5" cy="28.5" r="3.5"></circle>
                <path d="M12,29.9523811 C12,29.9523811 12.3478264,31.7619047 12.3478264,31.9523805 C12.3478264,32.1428562 14,33 14,33 L15.4782609,32.7142858 L16,31 C16,31 15.1304356,29.5714284 15.1304356,29 L12,29.9523811 Z" id="Path" fill="#FFB8B8"></path>
                <path d="M13.4413949,46 C12.3823463,46.0005325 11.3262619,45.895308 10.2910988,45.6860985 C10.2397782,44.7075176 10.2055644,43.6292323 10.2055644,43.6292323 L9.16336122,40.8005797 L7,34.9327872 L11.454366,31.7520917 C11.454366,31.7520917 12.5571012,33.4322966 14.1598834,32.9325433 C15.0741638,32.6729924 15.7068332,31.8935167 15.7284519,31 L21,32.7331344 L20.0893881,39.6447464 L20.0380675,40.0312551 L20.4723188,44.3493201 C18.3112452,45.4363454 15.8950986,46.0035885 13.4413949,46 Z" id="Path" fill="#D0CDE1"></path>
                <path d="M10.7659847,24.7939269 C10.7659847,24.7939269 11.8000501,22.562133 13.78201,23.0771626 C15.7639699,23.5921923 16.8842151,24.3647368 16.970381,25.13728 C17.056547,25.9098233 16.9272943,27.0686406 16.9272943,27.0686406 C16.9272943,27.0686406 16.7118669,25.4806331 15.3331088,25.8239862 C13.9543507,26.1673394 11.8000488,25.9098245 11.8000488,25.9098245 L11.4553599,29 C11.4553599,29 11.0675856,28.4420518 10.6367244,28.7854074 C10.2058633,29.128763 9.38722906,25.4806331 10.7659847,24.7939269 Z" id="Path" fill="#2F2E41"></path>
                <path d="M6,43.4978177 L6.57966196,38.1510669 C6.4898864,36.0826867 7.66029371,35 7.66029371,35 L9.01025215,35 L10,38.6433075 L9.4824051,40.7795829 L8.83070103,43.4675073 L8.65004156,43.7633366 C8.65004156,43.7633366 8.83070103,44.0579534 8.73981712,44.1573715 C8.65004156,44.2555771 8.560266,44.649612 8.560266,44.649612 C8.560266,44.649612 8.57910779,44.7902522 8.61235799,45 C7.69005283,44.6147147 6.81306791,44.1104227 6,43.4978177 L6,43.4978177 Z" id="Path" fill="#D0CDE1"></path>
                <path d="M25,40.7335131 C24.3279354,41.5854536 23.5635651,42.3464412 22.7234382,43 C22.5969414,42.7566389 22.4908756,42.5014463 22.4065207,42.2375014 L20.9701322,39.2406471 L20,37.2188518 L20.1846785,32 L21.7590059,32.3015392 C21.7590059,32.3015392 22.6846785,33.3050219 23.0551756,34.5099427 L23.7961696,38.1222335 L24.99886,40.7322773 L25,40.7335131 Z" id="Path" fill="#D0CDE1"></path>
                <path d="M97,24.000682 C97.0025009,28.8886035 94.4537162,33.4233547 90.2770419,35.9620428 C90.0292823,36.1131859 89.7765675,36.2556568 89.5188976,36.3919333 C89.1348702,36.5951092 88.7396937,36.7809408 88.3358455,36.9457115 L88.3358455,36.9469503 C88.2070106,37.0002221 88.0781756,37.051016 87.9481018,37.0993323 C87.8874007,37.1228709 87.8254608,37.1464096 87.7635209,37.1687094 C86.236247,37.7192142 84.6250293,38.0004828 83.0015817,38 C81.9355039,38.0007914 80.8727981,37.8802578 79.8339755,37.6407217 C79.2944166,37.5157893 78.7628424,37.3585822 78.2421201,37.1699483 L78.2408813,37.1699483 C77.5799507,36.9305289 76.9380743,36.6414589 76.3207446,36.3052119 C76.1597008,36.2184905 76.0011347,36.1280524 75.8450462,36.0338977 C75.736032,35.9694761 75.6294953,35.9038156 75.5229587,35.8369162 C69.8391161,32.2453075 67.5110902,25.1199992 69.9778023,18.865048 C72.4445143,12.6100967 79.0092468,8.99219993 85.6144276,10.2475306 C92.2196083,11.5028613 96.9996183,17.276854 97,24.000682 L97,24.000682 Z" id="Path" fill="#3F3D56"></path>
                <path d="M81.439253,21 C81.439253,21 81.5166605,23.2033901 81.0522156,23.7118642 C80.5877708,24.2203383 83.374442,26 83.374442,26 L85,23.2033965 C85,23.2033965 84.3807403,22.0169557 84.5355552,21 L81.439253,21 Z" id="Path" fill="#A0616A"></path>
                <circle id="Oval" fill="#A0616A" cx="83" cy="20" r="3"></circle>
                <path d="M88.7275758,35.4804427 C88.7472727,35.7003999 88.766532,35.9203509 88.7853535,36.1402955 C88.7210101,36.1627636 88.6553535,36.1852317 88.589697,36.2065173 C86.9707798,36.7319846 85.2628819,37.0004608 83.5420202,37 C82.4119729,37.0007554 81.2855001,36.8857038 80.1843434,36.657062 C79.6124087,36.5378117 79.0489376,36.3877545 78.4969697,36.2076998 L78.4956566,36.2183426 C78.4943427,36.2148937 78.4943427,36.2111488 78.4956566,36.2076998 C78.5157931,35.9664923 78.566008,35.7280916 78.6453535,35.4969981 L78.6453535,35.4958156 C78.7188889,35.252214 78.8186869,34.9707714 78.9329293,34.6597655 C79.0563636,34.327474 79.0642424,33.6013993 79.0379798,32.9190784 C79.0353535,32.867047 79.0340404,32.813833 79.0314141,32.7629841 C79.0209091,32.5418507 79.0077712,32.3301774 78.9946465,32.1421548 C78.9644444,31.7176259 78.9329293,31.4160802 78.9329293,31.4160802 L77,26.7486264 L81.6681818,23.6787734 C81.9439394,24.4840777 82.5348485,24.4556969 82.5348485,24.4556969 C85.040303,24.6106086 85.5012121,23.0520314 85.5156566,23.0011825 L85.5156566,23 L90,25.6417765 L88.1563636,29.6753931 C88.1563636,29.6753931 88.2312121,30.3588966 88.3375758,31.4018898 C88.3533333,31.555619 88.3690909,31.7176259 88.3874747,31.8867279 C88.489899,32.9108006 88.6146478,34.1867527 88.7275758,35.4804427 Z" id="Path" fill="#D0CDE1"></path>
                <path d="M79,33.3553191 L78.9137223,33.8957447 L78.8927691,34.0319149 L78.526705,36.3404255 L78.5242399,36.35 L78.5242399,36.3510638 L78.384963,36.9904255 L78.3837305,37 C78.3824973,36.9968973 78.3824973,36.9935283 78.3837305,36.9904255 C77.7261391,36.784835 77.0875058,36.5366092 76.473295,36.2478723 C76.3130649,36.1734043 76.1552999,36.0957447 76,36.0148936 C76.1023814,35.7395102 76.2233778,35.4695436 76.3623665,35.206383 L76.6138044,33.5170213 L76.6914544,33 L78.8520953,33.3329787 L79,33.3553191 Z" id="Path" fill="#A0616A"></path>
                <path d="M78.6765226,27 L77.5503361,27.1340629 C77.5503361,27.1340629 76.8124895,33.4350573 77.0454935,33.4350573 C77.2784975,33.4350573 79.9192117,34.1500629 79.9968797,33.9713115 C80.0745477,33.7925601 78.6765226,27 78.6765226,27 Z" id="Path" fill="#D0CDE1"></path>
                <path d="M80.1173058,16.6510386 L79.5408277,16.4649833 C79.5408277,16.4649833 80.7461755,15.3951764 82.4231942,15.4882076 L81.9515234,15.0695814 C81.9515234,15.0695814 83.1044689,14.6974802 84.152598,15.6742547 C84.7035788,16.187726 85.3410711,16.7912831 85.7384771,17.471184 L86.3558399,17.471184 L86.098175,17.9285644 L87,18.3859448 L86.0743656,18.3037926 C86.1620511,18.6986688 86.1318694,19.1070321 85.9868155,19.4883579 L85.7771958,20 C85.7771958,20 84.9386865,18.511574 84.9386865,18.3255187 L84.9386865,18.7906534 C84.9386865,18.7906534 84.3622084,18.3720343 84.3622084,18.0929549 L84.0477709,18.4185499 L83.8905521,17.906896 L81.9515141,18.4185499 L82.2659503,17.9999307 L81.0606038,18.1394705 L81.5322746,17.6278166 C81.5322746,17.6278166 80.1697094,18.2324899 80.1172925,18.7441402 C80.0648756,19.2557905 79.3836156,19.9069712 79.3836156,19.9069712 L79.0691794,19.4418376 C79.0691794,19.4418376 78.5975218,17.348736 80.1173058,16.6510386 Z" id="Path" fill="#2F2E41"></path>
                <path d="M90.980862,36.6972804 C90.7385155,36.8604547 90.4913221,37.0142666 90.2392817,37.161391 C89.8636446,37.3807401 89.477102,37.5813642 89.0820771,37.759251 L89.0820771,37.7605885 C88.956057,37.8181008 88.8300368,37.872938 88.7028049,37.9251003 C88.64343,37.9505127 88.5828433,37.9759251 88.5222567,38 L88.6494886,37.1787784 L88.072704,33.1328578 L88,32.6259474 L88.2896041,32.5657601 L90.999038,32 L90.999038,35.6687472 C90.999038,35.6687472 91.0063108,36.0659831 90.980862,36.6972804 Z" id="Path" fill="#A0616A"></path>
                <path d="M87.6959512,25 L89.3923233,25.2134138 C89.3923233,25.2134138 91.4366704,31.3170738 90.91471,31.5731711 C90.3927495,31.8292684 87,32 87,32 L87.6959512,25 Z" id="Path" fill="#D0CDE1"></path>
                <circle id="Oval" fill="#A3C23D" cx="23.5" cy="21.5" r="4.5"></circle>
                <circle id="Oval" fill="#A3C23D" cx="59.5" cy="39.5" r="4.5"></circle>
                <circle id="Oval" fill="#A3C23D" cx="93.5" cy="13.5" r="4.5"></circle>
                <circle id="Oval" fill="#FFB8B8" cx="108.5" cy="8.5" r="3.5"></circle>
                <path d="M110.397207,4.29482472 C109.839523,3.49171572 108.964817,3.01302882 108.031172,3 L107.918917,3 C105.754554,3 104,5.10030411 104,7.69116692 L104,7.69117585 L104.725221,7.69117585 L104.842342,6.73514123 L105.014066,7.69117585 L109.315315,7.69117585 L109.675678,6.88235234 L109.585585,7.69117585 L110.431763,7.69117585 C110.826618,9.79411766 110.259275,11.897059 108.729732,14 L110.171176,14 L110.891894,12.382353 L110.711716,14 L113.45946,14 L114,10.2794014 C114,7.49301455 112.490333,5.1302174 110.397207,4.29482472 Z" id="Path" fill="#2F2E41"></path>
                <circle id="Oval" fill="#2F2E41" cx="112" cy="2" r="2"></circle>
            </g>
        </g>
    </g>
</svg>