<?xml version="1.0" encoding="UTF-8"?>
<svg width="21px" height="20px" viewBox="0 0 21 20" version="1.1" xmlns="http://www.w3.org/2000/svg" xmlns:xlink="http://www.w3.org/1999/xlink">
    <!-- Generator: sketchtool 58 (101010) - https://sketch.com -->
    <title>DBF6FDC8-3B66-4B14-9E31-84F66D361032</title>
    <desc>Created with sketchtool.</desc>
    <g id="Page-1" stroke="none" stroke-width="1" fill="none" fill-rule="evenodd">
        <g id="Dashboard" transform="translate(-21.000000, -626.000000)">
            <g id="Side-Bar" transform="translate(0.000000, 81.000000)">
                <g id="Group-3">
                    <g id="Group-9" transform="translate(20.000000, 543.000000)">
                        <g id="settings-2">
                            <rect id="bound" x="0" y="0" width="24" height="24"></rect>
                            <path d="M5,8.6862915 L5,5 L8.6862915,5 L11.5857864,2.10050506 L14.4852814,5 L19,5 L19,9.51471863 L21.4852814,12 L19,14.4852814 L19,19 L14.4852814,19 L11.5857864,21.8994949 L8.6862915,19 L5,19 L5,15.3137085 L1.6862915,12 L5,8.6862915 Z M12,15 C13.6568542,15 15,13.6568542 15,12 C15,10.3431458 13.6568542,9 12,9 C10.3431458,9 9,10.3431458 9,12 C9,13.6568542 10.3431458,15 12,15 Z" id="Combined-Shape" fill="#FFFFFF" fill-rule="nonzero"></path>
                        </g>
                    </g>
                </g>
            </g>
        </g>
    </g>
</svg>