<?xml version="1.0" encoding="UTF-8"?>
<svg width="490px" height="425px" viewBox="0 0 490 425" version="1.1" xmlns="http://www.w3.org/2000/svg" xmlns:xlink="http://www.w3.org/1999/xlink">
    <!-- Generator: sketchtool 58 (101010) - https://sketch.com -->
    <title>8E568444-1E8E-4BB2-9893-FC9D5FB0E2DA</title>
    <desc>Created with sketchtool.</desc>
    <defs>
        <linearGradient x1="-0.028064714%" y1="49.9946923%" x2="100.009953%" y2="49.9946923%" id="linearGradient-1">
            <stop stop-color="#808080" stop-opacity="0.25" offset="0%"></stop>
            <stop stop-color="#808080" stop-opacity="0.12" offset="54%"></stop>
            <stop stop-color="#808080" stop-opacity="0.1" offset="100%"></stop>
        </linearGradient>
    </defs>
    <g id="Page-1" stroke="none" stroke-width="1" fill="none" fill-rule="evenodd">
        <g id="Open-account-step-2" transform="translate(-97.000000, -138.000000)">
            <g id="Group-9" transform="translate(97.000000, 138.000000)">
                <rect id="Rectangle-Copy-3" fill="#82A946" x="0" y="0" width="490" height="425" rx="5"></rect>
                <g id="undraw_personalization_triu-(1)-copy" transform="translate(69.000000, 99.000000)" fill-rule="nonzero">
                    <path d="M206.839243,39.2405789 C184.016735,38.4480318 162.280342,31.0896725 141.524272,23.0373942 C120.768203,14.9851159 100.209609,6.0627971 77.9336844,1.79713262 C63.6061427,-0.946841475 47.2192153,-1.33430893 35.6774866,6.33754675 C24.565972,13.7346528 20.9761523,26.4682425 19.0472413,38.2965672 C17.594387,47.1942291 16.7410114,56.5603743 20.7187291,64.8874022 C23.4833839,70.6712346 28.3850041,75.53219 31.7773485,81.0729747 C43.5800268,100.34772 35.2366934,124.117087 22.4501647,142.937438 C16.4553774,151.768174 9.49084506,160.197352 4.86075345,169.588154 C0.230661846,178.978957 -1.90982986,189.754074 2.14194109,199.342133 C6.15492224,208.852698 15.7218975,215.982099 26.0858269,221.001564 C47.134583,231.199003 71.928318,234.115576 96.1225743,235.767596 C149.663078,239.427403 203.485689,237.842309 257.167246,236.257214 C277.034676,235.668968 296.986739,235.073677 316.529746,232.00564 C327.383837,230.300783 338.587036,227.599078 346.468419,221.06849 C356.469134,212.780209 358.948155,198.746842 352.244573,188.352147 C341.002583,170.919634 309.928427,166.590565 302.06115,147.882932 C297.737851,137.583342 302.177519,126.114306 308.464993,116.561471 C321.949739,96.0750102 344.550087,78.1000426 345.738465,54.6829183 C346.556577,38.5994963 335.691907,22.4914174 318.892397,14.879443 C301.285354,6.90465821 276.865412,7.90502874 263.881408,21.1106242 C250.498927,34.7072096 226.992308,39.9380203 206.839243,39.2405789 Z" id="Path" fill="#FFFFFF" opacity="0.1"></path>
                    <ellipse id="Oval" fill="#FFFFFF" opacity="0.1" cx="174" cy="279" rx="109" ry="15"></ellipse>
                    <path d="M117,232.068249 C117,232.068249 124.5,231.365732 129,234.468516 C129,234.468516 125.7,235.990636 118.6,233.883085 L117,232.068249 Z" id="Path" fill="#FFFFFF"></path>
                    <path d="M118.86231,228 C118.86231,228 115.974991,233.709039 117.390639,240 C117.390639,240 119.743589,238.495265 120,230.830416 L118.86231,228 Z" id="Path" fill="#FFFFFF"></path>
                    <path d="M114,222.759179 C114,222.759179 117,220.565152 129,223.636789 C129,223.636789 127.4,225.112771 122.1,224.993097 C116.8,224.873423 115.382143,223.916029 114,222.759179 Z" id="Path" fill="#FFFFFF"></path>
                    <path d="M110.423892,223.005232 C110.423892,223.005232 108.214246,222.374989 108,234.94834 C108,234.94834 109.400837,235.67312 110.396002,231.693134 C111.391167,227.713149 110.979156,225.48839 110.423892,223.005232 Z" id="Path" fill="#FFFFFF"></path>
                    <path d="M109,206.736047 C109,206.736047 112.240026,203.546084 124,205.814398 C124,205.814398 121.315407,208.741367 110.203438,207.820892 L109,206.736047 Z" id="Path" fill="#FFFFFF"></path>
                    <path d="M103,197.7911 C103,197.7911 109.851122,187.52857 122,197.043102 C122,197.043102 117.744,206.677315 104.038049,201.44133 L103,197.7911 Z" id="Path" fill="#FFFFFF"></path>
                    <path d="M102,182.44467 C102,182.44467 109.585926,179.194162 121,182.44467 C121,182.44467 113.80463,185.297894 102,183.275356 L102,182.44467 Z" id="Path" fill="#FFFFFF"></path>
                    <path d="M102,167.53378 C102,167.53378 109.839788,164.204021 121,167.356732 C121,167.356732 112.151521,170.295722 102,168.312789 L102,167.53378 Z" id="Path" fill="#FFFFFF"></path>
                    <path d="M102,154.71628 C102,154.71628 110.389326,142.677345 121,150.835962 C121,150.835962 112.008831,161.18703 102,157.004673 L102,154.71628 Z" id="Path" fill="#FFFFFF"></path>
                    <path d="M103,143.254832 C103,143.254832 111.790883,131.285516 122,140.461991 C122,140.461991 111.588794,150.835398 103,145.449206 L103,143.254832 Z" id="Path" fill="#FFFFFF"></path>
                    <path d="M106.433225,130.06411 C106.433225,130.06411 116.34582,119.907359 125,123.9514 C125,123.9514 114.664495,134.738725 106,132.75692 L106.433225,130.06411 Z" id="Path" fill="#FFFFFF"></path>
                    <path d="M108.811818,120.551433 C108.811818,120.551433 120.325818,107.551832 127,111.883912 C127,111.883912 118.529455,121.974158 108,123 L108.811818,120.551433 Z" id="Path" fill="#FFFFFF"></path>
                    <path d="M113.367385,107.602485 C113.367385,107.602485 123.558071,96.7318134 131,99.4305488 C131,99.4305488 122.28511,110.71085 112,111 L113.367385,107.602485 Z" id="Path" fill="#FFFFFF"></path>
                    <path d="M121.441176,96.8972297 C121.441176,96.8972297 131.588235,87.5495679 136,89.1940639 C136,89.1940639 128.676471,99.5803548 121,98.9744878 L121.441176,96.8972297 Z" id="Path" fill="#FFFFFF"></path>
                    <path d="M123,80.811458 C123,80.811458 132.705882,69.1456603 138,70.0499857 C138,70.0499857 132.117647,80.4497279 123,82 L123,80.811458 Z" id="Path" fill="#FFFFFF"></path>
                    <path d="M129.309757,66.043626 C129.309757,66.043626 136.90191,56.9771316 141,57 C141,57 135.009293,69.1105232 129,68.9992377 L129.309757,66.043626 Z" id="Path" fill="#FFFFFF"></path>
                    <path d="M130.131622,56.0880374 L138.99724,35 C138.99724,35 139.443144,54.0625914 129,60 L130.131622,56.0880374 Z" id="Path" fill="#FFFFFF"></path>
                    <path d="M136.018513,35.1679389 C136.018513,35.1679389 136.472076,17.4427481 136.1805,16 C136.1805,16 138.139383,30.7219193 136,43 L136.018513,35.1679389 Z" id="Path" fill="#FFFFFF"></path>
                    <path d="M105.00254,211.062438 C105.00254,211.062438 96.4998846,205.811174 91,218.657954 C91,218.657954 98.564073,223.664089 106,214.338867 L105.00254,211.062438 Z" id="Path" fill="#FFFFFF"></path>
                    <path d="M105.133825,195.745981 C105.133825,195.745981 95.6185458,191.396025 91,203.704532 C91,203.704532 98.3530032,208.773672 106,198.857166 L105.133825,195.745981 Z" id="Path" fill="#FFFFFF"></path>
                    <path d="M101,185.44467 C101,185.44467 93.4140741,182.194162 82,185.44467 C82,185.44467 89.1918519,188.297894 101,186.275356 L101,185.44467 Z" id="Path" fill="#FFFFFF"></path>
                    <path d="M100,167.53378 C100,167.53378 92.156622,164.204021 81,167.356732 C81,167.356732 89.8448895,170.295722 100,168.312789 L100,167.53378 Z" id="Path" fill="#FFFFFF"></path>
                    <path d="M102,155.870214 C102,155.870214 97.27355,144.251629 87,149.24808 C87,149.24808 92.5532703,159.55326 101.583505,157.798991 L102,155.870214 Z" id="Path" fill="#FFFFFF"></path>
                    <path d="M109,144.759026 C109,144.759026 103.098367,132.985914 90,138.444052 C90,138.444052 98.0187755,149.235309 108.418367,146.579421 L109,144.759026 Z" id="Path" fill="#FFFFFF"></path>
                    <path d="M108,129.306419 C108,129.306419 105.879234,114.339721 96,113 C96,113 98.0960236,128.779721 106.681591,132 L108,129.306419 Z" id="Path" fill="#FFFFFF"></path>
                    <path d="M108,120.7105 C108,120.7105 107.723529,104.5605 105,104 C105,104 105.091765,116.255 107.692941,123 L108,120.7105 Z" id="Path" fill="#FFFFFF"></path>
                    <path d="M116,107.589828 C116,107.589828 113.617241,93.7001724 106,92 C106,92 106.944828,105.453966 115.244828,111 L116,107.589828 Z" id="Path" fill="#FFFFFF"></path>
                    <path d="M120,94.0969632 C120,94.0969632 119.954027,79.1898419 117.368031,77 C117.368031,77 115.764714,90.4967146 119.251019,96 L120,94.0969632 Z" id="Path" fill="#FFFFFF"></path>
                    <path d="M126,83.9717566 C126,83.9717566 125.652971,68.2192055 123.101398,66 C123.101398,66 122.226521,78.4635569 125.616442,85 L126,83.9717566 Z" id="Path" fill="#FFFFFF"></path>
                    <path d="M130,70.3388554 C130,70.3388554 129.979742,57.1046687 127.73333,54 C127.73333,54 125.500424,68.5003765 128.827274,73 L130,70.3388554 Z" id="Path" fill="#FFFFFF"></path>
                    <path d="M129.900544,53.8738652 L127.803328,31 C127.803328,31 124.949383,49.7440165 130,58 L129.900544,53.8738652 Z" id="Path" fill="#FFFFFF"></path>
                    <path d="M132.616093,35.6923077 C132.616093,35.6923077 123.819345,19.7730769 124.002831,18 C124.002831,18 124.934376,34.6923077 136,43 L132.616093,35.6923077 Z" id="Path" fill="#FFFFFF"></path>
                    <path d="M135.348837,30 C135.348837,30 127.534884,6.87195218 124,5 C124,5 135.162791,11.7170049 136,29.339311 L135.348837,30 Z" id="Path" fill="#FFFFFF"></path>
                    <path d="M133.227084,70 L133,69.8215163 C135.799766,46.2434562 136.499355,31.2107582 134.967594,27.444388 L135.131207,27 C136.753238,30.9739941 136.095963,45.8318509 133.227084,70 Z" id="Path" fill="#444053"></path>
                    <path d="M108.769875,123 L108,122.693627 C108.682168,120.530778 109.419559,118.335104 110.192683,116.168608 C116.923406,97.3339519 122.653616,79.8159713 126.327577,66.36473 L127,66 C123.319542,79.4767725 117.693281,97.6695035 110.952812,116.526043 C110.182937,118.670655 109.448795,120.859035 108.769875,123 Z" id="Path" fill="#444053"></path>
                    <path d="M128.053916,250 C127.932817,249.87167 115.75482,236.960263 107.270336,214.90892 C102.295172,202.003306 99.5234354,188.436343 99.058324,174.713165 C98.4755361,157.556179 102.297717,138.399387 108.84462,121 L109.556075,121.784238 C94.8614941,160.839284 100.700726,194.308417 108.44348,214.466895 C116.844709,236.315049 128.878901,249.090997 129,249.215762 L128.053916,250 Z" id="Path" fill="#444053"></path>
                    <rect id="Rectangle" fill="#3A3768" x="228" y="102" width="1" height="27" rx="0.5"></rect>
                    <rect id="Rectangle" fill="#3A3768" x="124" y="87" width="1" height="3" rx="0.5"></rect>
                    <rect id="Rectangle" fill="#3A3768" x="124" y="97" width="1" height="15" rx="0.5"></rect>
                    <rect id="Rectangle" fill="#3A3768" x="124" y="115" width="1" height="15" rx="0.5"></rect>
                    <rect id="Rectangle" fill="#3A3768" x="124" y="55" width="103" height="211" rx="38.99"></rect>
                    <path d="M213.574079,57 L201.404116,57 L201.404116,58.4467735 C201.404117,60.2655442 200.672778,62.0097711 199.371086,63.2955044 C198.069395,64.5812377 196.304053,65.3030836 194.463659,65.3021452 L155.759599,65.3021452 C153.919205,65.3030836 152.153863,64.5812377 150.852171,63.2955044 C149.55048,62.0097711 148.819141,60.2655442 148.819141,58.4467735 L148.819141,57 L137.425909,57 C132.772408,57 129,60.7280831 129,65.3269066 L129,250.673093 C129,252.881526 129.887727,254.999508 131.467892,256.561106 C133.048056,258.122703 135.191219,259 137.425909,259 L213.574079,259 C218.22758,259 222,255.271917 222,250.673093 L222,65.3410559 C222.003789,63.1301725 221.117741,61.0085544 219.537164,59.4438949 C217.956587,57.8792354 215.811252,57 213.574079,57 Z" id="Path" fill="#FFFFFF"></path>
                    <rect id="Rectangle" fill="#E6E8EC" x="163" y="59" width="15" height="1" rx="0.5"></rect>
                    <circle id="Oval" fill="#E6E8EC" cx="183.5" cy="59.5" r="1"></circle>
                    <path d="M264.44091,44.0396132 C264.44091,44.0396132 234.793119,42.2040781 238.286066,63.5223008 C238.286066,63.5223008 237.581843,67.2909289 240.91986,69 C240.91986,69 240.972677,67.4210062 243.962104,67.9593817 C245.026401,68.1404185 246.10761,68.1937717 247.183924,68.118365 C248.635871,68.0204195 250.017467,67.4408917 251.120531,66.4671061 L251.120531,66.4671061 C251.120531,66.4671061 259.455011,62.9333397 262.694437,48.9572575 C262.694437,48.9572575 265.092316,45.9076676 264.997246,45.1235906 L259.993741,47.3168383 C259.993741,47.3168383 261.705003,51.0204278 260.345853,54.0989237 C260.345853,54.0989237 260.183881,47.4505288 259.222617,47.5950592 C259.028956,47.6239652 256.624034,48.8777658 256.624034,48.8777658 C256.624034,48.8777658 259.564165,55.3274314 257.345863,60.0174404 C257.345863,60.0174404 258.187409,52.0682727 255.705023,49.3438761 L252.183908,51.4540188 C252.183908,51.4540188 255.620516,58.1168667 253.289538,63.5548201 C253.289538,63.5548201 253.888127,55.2154204 251.440952,51.9671014 L248.250822,54.5216749 C248.250822,54.5216749 251.479685,61.0869648 249.511381,65.5963109 C249.511381,65.5963109 249.25434,55.8910997 247.560683,55.1576083 C247.560683,55.1576083 244.768439,57.686889 244.342384,58.7202808 C244.342384,58.7202808 246.553644,63.4897814 245.180409,66.0046091 C245.180409,66.0046091 244.338863,59.5368771 243.648724,59.5007445 C243.648724,59.5007445 240.867043,63.7860686 240.578312,66.7272607 C240.578312,66.7272607 240.69803,62.3588317 242.976191,59.0960596 C242.976191,59.0960596 240.286059,59.5693964 238.715642,61.3579592 C238.715642,61.3579592 239.148739,58.3300489 243.662809,58.0626678 C243.662809,58.0626678 245.962097,54.8107355 246.574771,54.6156196 C246.574771,54.6156196 242.08887,54.229001 239.367048,55.4683485 C239.367048,55.4683485 241.761406,52.6102614 247.398712,53.9110343 L250.55011,51.2697426 C250.55011,51.2697426 244.641679,50.4423065 242.134645,51.3564608 C242.134645,51.3564608 245.018438,48.8271802 251.398699,50.6699418 L254.828265,48.5670256 C254.828265,48.5670256 249.789549,47.4541421 246.789559,47.844374 C246.789559,47.844374 249.958563,46.0919438 255.835304,47.9925176 L258.300085,46.8615678 C258.300085,46.8615678 254.609956,46.1172366 253.528974,45.9979991 C252.447991,45.8787616 252.391653,45.5752479 252.391653,45.5752479 C254.7295,45.1752069 257.129677,45.4491501 259.324729,46.3665514 C259.324729,46.3665514 264.528938,44.3756462 264.44091,44.0396132 Z" id="Path" fill="#FFFFFF"></path>
                    <path d="M232.749421,33.0157408 C232.749421,33.0157408 219.587072,32.2833913 221.124988,40.8093474 C221.124988,40.8093474 220.816712,42.3156209 222.295745,43 C222.295745,43 222.319991,42.3603934 223.650081,42.5810577 C224.122518,42.6544677 224.602712,42.6759375 225.080621,42.6450183 C225.726717,42.605582 226.341069,42.3719553 226.829827,41.9798275 L226.829827,41.9798275 C226.829827,41.9798275 230.536068,40.5662968 231.976999,34.9761351 C231.976999,34.9761351 233.040378,33.7576845 232.998812,33.4442772 L230.775068,34.3205383 C230.775068,34.3205383 231.533635,35.8012276 230.937866,37.0324703 C230.937866,37.0324703 230.865126,34.3749049 230.439082,34.4356675 C230.352488,34.4356675 229.282181,34.9505508 229.282181,34.9505508 C229.282181,34.9505508 230.591488,37.5313635 229.604312,39.4054109 C229.604312,39.4054109 229.9784,36.226566 228.873455,35.1360367 L227.307829,35.9931096 C227.307829,35.9931096 228.835354,38.6570711 227.799685,40.8317336 C227.799685,40.8317336 228.066396,37.4961851 226.97877,36.1977837 L225.562085,37.2211543 C225.562085,37.2211543 226.996089,39.8467394 226.123217,41.6504301 C226.123217,41.6504301 226.005449,37.7680179 225.253809,37.4737989 C225.253809,37.4737989 224.013778,38.4843773 223.82327,38.9001216 C223.82327,38.9001216 224.806982,40.8189415 224.197358,41.8135297 C224.197358,41.8135297 223.82327,39.226321 223.504603,39.2135289 C223.504603,39.2135289 222.268035,40.9276746 222.139875,42.0917586 C222.201759,41.006377 222.569501,39.9547206 223.206718,39.0408351 C222.493138,39.1656308 221.834596,39.4801995 221.312032,39.9458784 C221.312032,39.9458784 221.506004,38.7338239 223.51153,38.6282888 C223.51153,38.6282888 224.550663,37.3266894 224.806982,37.2467385 C224.806982,37.2467385 222.811847,37.093233 221.60299,37.5889281 C221.60299,37.5889281 222.666369,36.4472303 225.170679,36.9653116 L226.556189,35.9099607 C226.556189,35.9099607 223.927183,35.5901574 222.815311,35.9451391 C222.815311,35.9451391 224.096908,34.9345606 226.933741,35.6701083 L228.457802,34.8290256 C228.457802,34.8290256 226.216739,34.384499 224.883185,34.5444006 C224.883185,34.5444006 226.292942,33.8440314 228.904629,34.6019652 L229.995719,34.1510426 C229.995719,34.1510426 228.353889,33.8536255 227.872424,33.805655 C227.390959,33.7576845 227.366713,33.6361592 227.366713,33.6361592 C228.406529,33.4764531 229.473971,33.5871888 230.449473,33.9559625 C230.449473,33.9559625 232.790986,33.1500582 232.749421,33.0157408 Z" id="Path" fill="#FFFFFF"></path>
                    <rect id="Rectangle" fill="#000000" opacity="0.1" x="138" y="81" width="72" height="151"></rect>
                    <path d="M207.800578,274.853016 C207.800578,274.853016 206.102131,270.7604 205.343398,268.872609 C204.915306,267.791812 204.191378,267.61168 203.637991,267.636898 L203.669315,267.276633 L203.805051,265.572577 L203.832894,265.212311 C205.145014,264.927702 206.269191,264.704337 206.269191,264.704337 L205.451292,220.996929 C205.451292,220.996929 205.103249,220.535789 204.260987,217.75454 C203.843336,216.367518 201.82469,214.663462 199.9383,213.305261 C199.642464,213.092705 199.353589,212.890956 199.068194,212.696413 C199.755063,212.100774 200.47689,211.549715 201.229537,211.046397 C202.301508,210.401522 202.656511,206.723211 202.656511,206.723211 L202.47901,207.083476 C202.656511,206.723211 202.47901,197.33109 202.47901,197.33109 L201.852533,187.582306 C201.852533,187.582306 201.407039,175.992566 197.926615,172.955528 C194.446191,169.91849 190.050416,168.855707 190.050416,168.855707 L187.614119,168.207229 L187.614119,168.207229 L183.124372,167.01475 C182.999077,166.802193 182.877262,166.578829 182.77633,166.344656 C182.731084,166.25459 182.689319,166.160921 182.647554,166.067252 C185.430931,164.027528 187.085289,160.716774 187.085095,157.186708 C187.085856,156.602621 187.040459,156.019448 186.949358,155.443023 C186.949358,155.334943 186.911073,155.223261 186.890191,155.115181 C187.259103,154.853738 187.608163,154.563479 187.934318,154.246941 C188.465995,153.80845 188.900416,153.256796 189.208153,152.629349 L189.208153,152.629349 C189.256437,152.506405 189.295987,152.379976 189.326488,152.251071 C189.326488,152.215044 189.326488,152.179018 189.34737,152.139388 C189.368253,152.099759 189.378694,151.948448 189.389135,151.851176 C189.389135,151.815149 189.389135,151.779123 189.389135,151.743096 C189.389135,151.638619 189.389135,151.53054 189.389135,151.426063 C189.389135,151.400844 189.389135,151.375626 189.389135,151.346804 C189.389135,151.227917 189.371733,151.109029 189.354331,150.986539 C189.355959,150.979432 189.355959,150.97203 189.354331,150.964923 L189.354331,150.964923 C189.290603,150.546621 189.185643,150.136177 189.041093,149.74002 C188.69305,148.810535 188.240595,147.938693 188.077015,146.947963 C187.875151,145.7771 188.108339,144.498158 187.568873,143.446182 C187.115355,142.640825 186.338034,142.087236 185.449295,141.93667 C184.565804,141.795629 183.661934,141.902627 182.832017,142.246498 C182.426131,142.446254 181.988667,142.56831 181.540779,142.606764 C181.215076,142.587202 180.895503,142.506639 180.597584,142.368989 C179.564236,141.949382 178.582814,141.403946 177.674028,140.744191 C177.019931,140.210057 176.321072,139.737434 175.585774,139.331951 C174.837757,138.927851 173.954433,138.890855 173.177321,139.231076 C171.889564,139.908375 171.645934,141.796166 170.448668,142.62838 C169.623808,143.204804 168.548357,143.147162 167.552955,143.183189 C166.557554,143.219215 165.429897,143.475004 164.939157,144.368462 C164.591115,144.988119 164.674645,145.726663 164.740773,146.450796 L164.761656,146.695777 C164.761656,146.782241 164.761656,146.872307 164.782538,146.958771 C164.83739,147.885142 164.703394,148.813098 164.38925,149.682378 C163.908952,151.000949 162.997081,152.301508 163.028404,153.645298 L163.028404,153.645298 C163.031261,153.859151 163.058124,154.071934 163.108454,154.279365 C163.13569,154.383151 163.168219,154.485369 163.205906,154.585591 L163.205906,154.585591 C163.397546,155.030897 163.612491,155.465061 163.849784,155.886149 L163.881108,155.943792 C163.905471,155.994229 163.929834,156.044666 163.950717,156.095103 C163.971599,156.14554 164.013364,156.232004 164.037727,156.300455 C164.06209,156.368905 164.065571,156.368905 164.076012,156.401329 C164.086453,156.433753 164.121258,156.534627 164.13866,156.603078 C164.196084,156.806465 164.220777,157.01825 164.211749,157.22994 C164.170868,157.502975 164.14877,157.778671 164.14562,158.054947 C164.14812,158.339939 164.342358,158.584513 164.611997,158.64218 C164.755574,158.638448 164.895335,158.59355 165.015726,158.512485 C165.327984,158.32824 165.624849,158.117354 165.903235,157.88202 C165.903235,157.997305 165.903235,158.11259 165.924117,158.242286 C166.166462,160.82084 167.288032,163.225776 169.087822,165.026084 C169.087822,165.137767 169.087822,165.253052 169.063459,165.38635 C169.039097,165.519648 169.046057,165.645741 169.039097,165.779039 L169.039097,165.779039 L165.141022,167.047174 C165.141022,167.047174 165.161904,167.119227 165.203669,167.241717 L164.792979,167.411042 L164.792979,167.411042 C162.770853,168.257666 160.519019,169.309641 159.259105,170.264345 C158.702237,170.682253 158.194096,171.024505 157.73816,171.309114 C156.082747,172.357787 154.813566,173.949255 154.132441,175.830446 L154.080234,175.967347 C153.732192,176.792355 152.026784,182.405291 152.026784,182.405291 C152.026784,182.405291 150.777312,185.532396 150.59633,187.557088 C150.59633,187.557088 148.54288,194.268833 149.078865,198.685688 C149.078865,198.685688 147.470909,205.033566 148.097386,206.042309 C148.097386,206.042309 147.456988,208.773122 150.26917,211.521947 C150.063825,211.651643 149.841078,211.792146 149.60789,211.94706 C147.429144,213.366506 144.286322,215.668603 143.750336,217.444712 C142.918515,220.207948 142.560031,220.687101 142.560031,220.687101 L141.717769,264.326058 C141.717769,264.326058 142.841946,264.549423 144.154065,264.83043 L144.181909,265.190696 L144.317645,266.891149 L144.348969,267.251414 C143.795582,267.226195 143.071654,267.424341 142.643561,268.490727 C141.881349,270.374916 140.207265,274.463929 140.207265,274.463929 C140.207265,274.463929 136.458848,278.066584 138.731565,281.409847 C138.831717,281.562501 138.948499,281.702725 139.079607,281.827755 C140.711926,283.362486 144.19235,282.378962 146.666932,281.377423 C147.924456,280.82189 149.008689,279.916559 149.799313,278.761896 C150.000931,278.488494 150.303775,278.314774 150.634615,278.282743 C151.202102,278.18801 151.737255,277.946355 152.190364,277.580225 C152.744152,277.161699 153.064163,276.488428 153.046549,275.778898 C153.044827,275.760929 153.044827,275.742827 153.046549,275.724858 L152.827282,270.59828 C152.827282,270.59828 152.559289,267.017241 151.706585,267.247811 L151.487319,267.301851 L151.428151,266.941586 L151.428151,266.941586 L151.313297,266.246273 L151.25413,265.886008 L151.727468,265.886008 C151.727468,265.886008 151.845802,261.836624 153.276257,258.651877 C154.706711,255.46713 155.646425,229.740572 155.646425,229.740572 C155.646425,229.740572 173.351342,230.039593 173.943014,228.321126 L173.943014,228.321126 C174.291056,228.321126 174.670422,228.321126 175.032387,228.295908 C175.627539,230.014374 192.337054,230.097235 192.337054,230.097235 C192.337054,230.097235 193.28721,255.852614 194.714184,259.040964 C195.015304,259.723881 195.265465,260.429663 195.462475,261.15212 L195.462475,261.15212 C195.911625,262.822758 196.181251,264.539612 196.266453,266.271492 L196.739791,266.271492 L196.677143,266.631757 L196.562289,267.323467 L196.503122,267.683733 L196.276894,267.629693 C195.431151,267.402726 195.163158,270.983764 195.163158,270.983764 L194.936931,276.142766 C194.901074,276.849556 195.212703,277.527231 195.765272,277.944093 C196.226145,278.318392 196.770832,278.566224 197.348865,278.664624 C197.680174,278.692239 197.984217,278.865335 198.184166,279.140175 C198.97559,280.294059 200.059589,281.199195 201.316548,281.755702 C203.989514,282.836499 207.831902,283.892077 209.258875,281.791729 C211.548994,278.44126 207.800578,274.853016 207.800578,274.853016 Z M162.798696,210.60327 L162.798696,210.60327 L162.840461,210.60327 L162.798696,210.60327 Z M190.763903,195.875617 C190.763903,195.875617 191.212877,197.622905 192.013375,198.541582 C192.813872,199.460259 192.417104,205.166864 192.417104,205.166864 C192.102121,205.187554 191.789776,205.239429 191.48435,205.321778 C190.868315,201.528183 190.301006,197.316679 190.763903,195.875617 Z" id="Shape" fill="url(#linearGradient-1)"></path>
                    <polygon id="Path" fill="#8E6F7F" points="151 269.669057 148.208237 270 148.130495 268.886376 148.076354 268.120243 148 267 150.637668 267.165472 150.847293 268.60342 150.891717 268.916161 150.893105 268.916161"></polygon>
                    <polygon id="Path" fill="#8E6F7F" points="205 267 204.923682 268.119205 204.870953 268.885762 204.791859 270 202 269.668874 202.111008 268.915563 202.154024 268.604305 202.363552 267.165563"></polygon>
                    <path d="M202,227.093646 L181.443601,227.968854 C180.508594,228.010382 179.573587,228.010382 178.63858,227.968854 L159,227.096761 L159,213 L202,213 L202,227.093646 Z" id="Path" fill="#5F5570"></path>
                    <path d="M202,227.093646 L181.443601,227.968854 C180.508594,228.010382 179.573587,228.010382 178.63858,227.968854 L159,227.096761 L159,213 L202,213 L202,227.093646 Z" id="Path" fill="#000000" opacity="0.1"></path>
                    <path d="M173.637982,171 C173.637982,171 166.836334,173.301802 164.275473,175.194166 C163.742813,175.586401 163.251128,175.909823 162.820903,176.174754 C161.239278,177.15737 160.029017,178.644555 159.38252,180.399886 C159.365447,180.448055 159.348375,180.489343 159.331303,180.52719 C158.989854,181.301339 157.367975,186.548347 157.367975,186.548347 C157.367975,186.548347 156.172907,189.472908 156.002183,191.365272 C155.831458,193.257635 165.733456,198.33261 165.733456,198.33261 C165.733456,198.33261 160.953182,208.826626 163.087233,211.493138 C165.221284,214.15965 196.378433,215.449898 195.695536,211.493138 C195.01264,207.536378 193.817571,200.999122 194.415106,199.192775 L205,191.451288 C205,191.451288 204.57319,180.613207 201.24407,177.774661 C197.91495,174.936116 193.732209,173.903918 193.732209,173.903918 L187.1047,172.183587 C187.1047,172.183587 184.769194,178.032711 182.208332,178.80686 C179.647471,179.581008 174.037477,176.006162 173.637982,171 Z" id="Path" fill="#EAEAF2"></path>
                    <path d="M176.740195,183 C176.740195,183 175.733155,185.556582 175.204638,183 C175.204638,183 174.728497,187.323737 175.204638,188.772225 L175.186783,189.065544 L175.102268,190.354699 L174,218.238095 L174.90705,223 L176.55807,216.699077 L176.424751,190.62629 L176.365233,189.130726 L176.350949,188.768604 L176.633063,188.768604 C176.633063,188.768604 177.381795,184.832337 176.740195,183 Z" id="Path" fill="#000000" opacity="0.1"></path>
                    <path d="M181.740195,183 C181.740195,183 180.733155,185.556582 180.204638,183 C180.204638,183 179.728497,187.323737 180.204638,188.772225 L180.186783,189.065544 L180.102268,190.354699 L179,218.238095 L179.90705,223 L181.55807,216.699077 L181.424751,190.62629 L181.365233,189.130726 L181.350949,188.768604 L181.633063,188.768604 C181.633063,188.768604 182.381795,184.832337 181.740195,183 Z" id="Path" fill="#000000" opacity="0.1"></path>
                    <polygon id="Path" fill="#BC8487" points="177 211.490792 175.065551 217 174 212.851443 175.292887 188.41682 175.391911 187.287702 175.414226 187.027624 175.588563 186 176.757322 187.027624 176.774059 187.344792 176.843794 188.654696"></polygon>
                    <path d="M151,265 C150.368812,264.99716 149.739444,264.951892 149.120429,264.864809 C148.814725,264.811146 148.431497,264.75129 148.081911,264.698658 L148,264 L150.779132,264.103199 L151,265 Z" id="Path" fill="#000000" opacity="0.1"></path>
                    <path d="M173.959598,228.628674 C173.408479,230.33668 156.947964,230.036774 156.947964,230.036774 C156.947964,230.036774 156.064847,255.638582 154.736851,258.809549 C153.408854,261.980516 153.295974,266 153.295974,266 C153.295974,266 150.420862,266 148.647987,265.513566 C146.875112,265.027131 144,264.416345 144,264.416345 L144.776878,220.984705 C144.776878,220.984705 145.108877,220.52753 145.882435,217.780822 C146.380433,216.014297 149.302025,213.724764 151.3239,212.29472 C152.452697,211.512036 153.295974,211 153.295974,211 L163.116507,211.438888 L169.178811,211.709536 C169.178811,211.709536 174.514036,226.920668 173.959598,228.628674 Z" id="Path" fill="#5F5570"></path>
                    <path d="M151,268.702823 L148.082649,269 L148,268 C148.109281,268.003117 148.21701,268.027314 148.317545,268.071322 C148.849686,268.463596 150.37071,268.15156 150.885452,268.026746 L150.885452,268.026746 L151,268.702823 Z" id="Path" fill="#000000" opacity="0.1"></path>
                    <path d="M153.999346,276.329417 C154.016481,277.020669 153.69625,277.676367 153.142571,278.083729 C152.692511,278.439947 152.160565,278.675647 151.59611,278.768951 C151.266575,278.7976 150.965008,278.967393 150.767776,279.235333 C149.977567,280.360038 148.894962,281.242722 147.639304,281.786082 C145.175632,282.761896 141.709427,283.719772 140.084754,282.223763 C139.950634,282.103444 139.831281,281.967343 139.729246,281.81837 C137.464659,278.546523 141.197495,275.045073 141.197495,275.045073 C141.197495,275.045073 142.882604,271.055717 143.639836,269.21889 C143.805246,268.736941 144.166143,268.348838 144.632263,268.151649 C145.098382,267.954461 145.625646,267.966834 146.082178,268.185676 C147.504211,269.21889 151.816525,268.228726 152.65908,268.009886 C153.501634,267.791045 153.77182,271.278145 153.77182,271.278145 L153.999346,276.275603 C153.997587,276.293497 153.997587,276.311523 153.999346,276.329417 Z" id="Path" fill="#BC8487"></path>
                    <path d="M205,264 L204.918089,264.697626 C204.568503,264.750258 204.186738,264.810114 203.878108,264.863777 C203.259596,264.95103 202.630737,264.996642 202,265 L202.220868,264.103199 L205,264 Z" id="Path" fill="#000000" opacity="0.1"></path>
                    <path d="M208,264.415819 C208,264.415819 205.032222,265.026808 203.202207,265.513404 C201.372192,266 198.404414,266 198.404414,266 C198.404414,266 198.291323,261.975521 196.920525,258.807158 C195.549727,255.638795 194.634719,230.024812 194.634719,230.024812 C194.634719,230.024812 178.603236,229.926029 178.030928,228.217455 C177.45862,226.50888 185.018571,211.753675 185.018571,211.753675 L189.627879,211.497572 L198.404414,211 C198.404414,211 200.117911,211.995144 201.913657,213.337857 C203.709402,214.680569 205.659362,216.385485 206.060321,217.764784 C206.858811,220.512406 207.20151,220.969733 207.20151,220.969733 L208,264.415819 Z" id="Path" fill="#5F5570"></path>
                    <path d="M200,268 L199.918801,269 L197,268.702823 L197.115998,268.026746 C197.630739,268.153046 199.145964,268.463596 199.682455,268.071322 C199.78299,268.027314 199.890719,268.003117 200,268 L200,268 Z" id="Path" fill="#000000" opacity="0.1"></path>
                    <path d="M201.913453,268.189213 C202.370398,267.96917 202.898672,267.956132 203.365737,268.153368 C203.832802,268.350605 204.194335,268.7394 204.35963,269.222208 C205.113394,271.058644 206.802252,275.05074 206.802252,275.05074 C206.802252,275.05074 210.535517,278.547859 208.27067,281.81901 C206.848474,283.870654 203.022766,282.841245 200.363259,281.786729 C199.1062,281.24559 198.022951,280.36267 197.234428,279.236523 C197.036062,278.968103 196.733155,278.79834 196.402443,278.77024 C195.824828,278.668771 195.281888,278.42205 194.823805,278.052882 C194.277126,277.644682 193.968907,276.98782 194.002487,276.302529 L194.226483,271.281025 C194.226483,271.281025 194.493144,267.79108 195.335796,268.009874 C196.178447,268.228668 200.491257,269.222208 201.913453,268.189213 Z" id="Path" fill="#BC8487"></path>
                    <path d="M188,173.381616 L181.28638,179.819499 L181.100167,180 L180.857426,179.870641 C179.454183,179.118552 172.434642,175.285905 173.036507,174.133705 C173.369029,173.477883 173.565217,172.112089 173.668299,170.935822 C173.668299,170.794429 173.68825,170.656045 173.701551,170.520669 C173.768056,169.591086 173.784682,168.869081 173.784682,168.869081 C173.784682,168.869081 186.42052,166.913649 185.921737,168.869081 C185.718899,169.660279 186.021494,170.550752 186.450447,171.329916 C186.576806,171.555543 186.716465,171.769136 186.852799,171.970696 C187.188504,172.470663 187.572399,172.942807 188,173.381616 Z" id="Path" fill="#FFC4D0"></path>
                    <path d="M181,167.970693 C177.334991,169.507027 172.251966,169.304162 169,167.491768 C169.062598,166.941628 169.078247,166.514335 169.078247,166.514335 C169.078247,166.514335 180.971831,165.357082 180.502347,166.514335 C180.320814,166.986138 180.596244,167.509572 181,167.970693 Z" id="Path" fill="#000000" opacity="0.1"></path>
                    <path d="M190.999017,166.51908 C191.072025,171.559857 187.07131,175.74954 181.95598,175.989248 C176.84065,176.228957 172.453742,172.432327 172.040011,167.407516 C172.014408,167.113471 172.001607,166.817326 172.001607,166.51908 C171.938567,163.13921 173.73418,159.989182 176.697524,158.281078 C179.660868,156.572974 183.330154,156.572974 186.293498,158.281078 C189.256842,159.989182 191.052456,163.13921 190.989415,166.51908 L190.999017,166.51908 Z" id="Path" fill="#FFC4D0"></path>
                    <path d="M190.971018,163.692339 C190.468132,164.080616 189.814934,164.248167 189.174106,164.15326 C187.699222,163.848014 187.193639,161.711291 185.686553,161.564772 C184.179466,161.418254 183.177961,163.39625 181.651553,163.356568 C181.007499,163.341305 180.42785,162.941433 179.83532,162.663659 C178.798393,162.178317 177.091649,161.882228 175.970994,162.248524 C174.286793,162.794915 173.716805,164.272306 172.641234,165.447504 C172.457479,165.647598 172.256016,165.832436 172.039043,166 C172.013281,165.715104 172.0004,165.428172 172.0004,165.139206 C171.954918,160.387188 175.79205,156.410038 180.789414,156.029476 C185.786779,155.648914 190.244544,158.994387 191,163.692339 L190.971018,163.692339 Z" id="Path" fill="#000000" opacity="0.1"></path>
                    <path d="M177.845526,161.356916 C178.518531,161.677374 179.162274,162.14738 179.908431,162.165183 C181.638492,162.207911 182.7687,159.889929 184.487788,160.071522 C186.206875,160.253115 186.773808,162.724204 188.45632,163.090951 C189.586528,163.340196 190.650899,162.517687 191.495812,161.752148 C192.041774,161.328874 192.487219,160.795638 192.801587,160.189023 C193.167351,159.305983 192.977154,158.287638 192.636994,157.390355 C192.296834,156.493071 191.817684,155.631395 191.649433,154.687823 C191.444606,153.555537 191.682352,152.316432 191.130049,151.298087 C190.667271,150.519004 189.869819,149.983169 188.957415,149.838221 C188.052664,149.701635 187.126841,149.803689 186.27637,150.133755 C185.862088,150.329488 185.414654,150.450144 184.955965,150.48982 C184.621225,150.469917 184.292899,150.39152 183.986692,150.258378 C182.928845,149.852517 181.924449,149.325385 180.994748,148.688132 C180.328127,148.170207 179.614371,147.712548 178.862348,147.320844 C178.097212,146.929719 177.191926,146.894416 176.397104,147.224706 C175.080356,147.879865 174.827979,149.717159 173.602672,150.511184 C172.757759,151.066645 171.656811,151.009674 170.639989,151.048842 C169.623167,151.088009 168.44541,151.326572 167.962602,152.191809 C167.531001,152.935985 167.746802,153.851071 167.801666,154.702066 C167.856341,155.598301 167.718054,156.495769 167.395669,157.336945 C166.828736,158.811053 165.676581,160.263797 166.086236,161.787754 C166.353244,162.788296 167.274967,163.617927 167.220103,164.636272 C167.176991,164.898933 167.153764,165.164322 167.150608,165.430296 C167.153116,165.706158 167.35245,165.943164 167.629757,166 C167.776422,165.998219 167.91915,165.953558 168.039412,165.871817 C168.647549,165.540652 169.193074,165.110747 169.652428,164.600666 C170.888708,163.226256 171.528794,161.506463 173.441736,160.869107 C174.732881,160.452511 176.667768,160.787212 177.845526,161.356916 Z" id="Path" fill="#8E6F7F"></path>
                    <path d="M190,223.71848 L188.19966,223.904228 L184.042207,224.337639 C183.079981,224.609308 181.997118,224.813444 180.844937,224.940371 C178.301123,225.184243 176.657479,224.653536 175.290554,223.832203 C174.74045,223.50367 175.017169,223.240844 175.737305,223.034879 C177.470966,222.538289 181.758443,222.376549 183.072024,222.442256 C183.934739,222.468887 184.801839,222.417794 185.602502,222.293153 C186.170855,222.214785 186.718851,222.116649 187.239478,222 L190,223.71848 Z" id="Path" fill="#FFC4D0"></path>
                    <path d="M190,221.707947 L188.768061,222 C188.414449,221.072185 187.8327,219.907947 187,219.460927 C187.388913,219.337709 187.763897,219.183409 188.120152,219 L190,221.707947 Z" id="Path" fill="#000000" opacity="0.1"></path>
                    <path d="M205,216.261947 C204.29471,216.902655 203.696474,217.486726 203.696474,217.486726 C203.696474,217.486726 195.510076,220.371681 193.935768,224 C193.935768,224 192.676322,216.920354 190,216.831858 C190,216.831858 192.880982,215.561062 193.712217,214.474336 L201.782116,214 C201.782116,214 203.356423,214.962832 205,216.261947 Z" id="Path" fill="#000000" opacity="0.1"></path>
                    <path d="M202.344978,193 L204.253275,195.681934 L204.834061,204.043257 C204.834061,204.043257 205,212.089059 204.834061,212.40458 L205,212.089059 C205,212.089059 204.668122,215.244275 203.672489,215.796438 C202.676856,216.348601 200.436681,218.194402 200.436681,218.194402 C200.436681,218.194402 191.80786,220.765903 190.148472,224 C190.148472,224 188.820961,217.689567 186,217.610687 C186,217.610687 190.231441,216.033079 190.148472,215.007634 C190.148472,215.007634 193.384279,212.246819 193.633188,211.536896 C193.882096,210.826972 195.498341,210.748092 195.498341,210.748092 C195.498341,210.748092 195.873362,205.857506 195.126638,205.068702 C194.379913,204.279898 193.965066,202.78117 193.965066,202.78117 L202.344978,193 Z" id="Path" fill="#EAEAF2"></path>
                    <path d="M177,224.908968 C175.69435,225.28127 174.850725,224.47108 174.149131,223.217214 C173.866782,222.715668 174.008812,222.314431 174.378433,222 L174.511907,222.0598 C174.511907,222.0598 176.864815,223.209498 177,224.908968 Z" id="Path" fill="#000000" opacity="0.1"></path>
                    <path d="M177.192779,227.553905 C173.907413,231.60712 167.792983,225.97153 167.336682,224.836629 C167.172414,224.424823 166.548195,224.058412 165.829065,223.763338 C164.916727,223.40927 163.969734,223.13032 163,222.929997 L168.431804,219 L169.47217,219.369653 L172.673576,220.507796 C172.673576,220.507796 180.478144,223.50069 177.192779,227.553905 Z" id="Path" fill="#FFC4D0"></path>
                    <path d="M166,222.232811 C164.614085,223.029272 164.31831,224.174949 164.309859,225 C163.887446,224.777004 163.448988,224.601319 163,224.475153 L165.51493,222 L166,222.232811 Z" id="Path" fill="#000000" opacity="0.1"></path>
                    <path d="M162.219401,229 C162.219401,229 153.579765,222.343066 149.439939,219.452555 C148.921895,219.093393 148.439783,218.687511 148,218.240292 C149.223948,217.490511 150.13831,217 150.13831,217 L160.786662,217.420438 C161.07105,217.900438 161.240243,218.226277 161.240243,218.226277 L167,221.905109 C160.059492,224.094891 162.219401,229 162.219401,229 Z" id="Path" fill="#000000" opacity="0.1"></path>
                    <path d="M151.953977,193 L150.40871,193.872123 C150.40871,193.872123 148.538123,199.659847 149.026102,203.465473 C149.026102,203.465473 147.562165,208.936061 148.131474,209.808184 C148.131474,209.808184 147.399505,212.741688 151.140678,215.358056 C154.881852,217.974425 162.689518,224 162.689518,224 C162.689518,224 160.737601,219.560102 167,217.578005 L161.794889,214.248082 C161.794889,214.248082 160.047924,210.867417 158.379035,210.12532 C158.379035,210.12532 157.077758,208.856777 157.891056,207.984655 C158.704355,207.112532 159.354994,206.161125 159.354994,205.289003 C159.354994,204.41688 159.680313,200.294118 159.680313,200.294118 L160.656271,195.85422 L151.953977,193 Z" id="Path" fill="#EAEAF2"></path>
                    <path d="M181,187 L180.016145,187 C180.010209,186.987057 180.004804,186.972844 180,186.957547 L180.016145,186.764151 L180.142281,186 L180.987891,186.764151 L181,187 Z" id="Path" fill="#000000" opacity="0.1"></path>
                    <path d="M181.611647,181 C181.611647,181 180.106342,182.328733 179.316324,181 C179.316324,181 178.604595,183.247177 179.316324,184 L181.451508,184 C181.451508,184 182.570701,181.952321 181.611647,181 Z" id="Path" fill="#BC8487"></path>
                    <path d="M186.756147,172 L191,173.138686 C191,173.138686 186.978444,184 186.092624,184 L181,181.459854 L186.756147,172 Z" id="Path" fill="#000000" opacity="0.1"></path>
                    <path d="M184,172.956124 L181.180168,180.780622 L181.101955,181 L181,180.842779 L183.465084,171 L183.52514,171.259598 C183.664262,171.860214 183.823152,172.427879 184,172.956124 L184,172.956124 Z" id="Path" fill="#000000" opacity="0.1"></path>
                    <path d="M186.756147,172 L191,173.138686 C191,173.138686 186.978444,184 186.092624,184 L181,181.459854 L186.756147,172 Z" id="Path" fill="#EAEAF2"></path>
                    <path d="M168.284211,172 L165,173.095251 C165,173.095251 168.233083,183.442823 169.135338,184 L175,181.691695 L168.284211,172 Z" id="Path" fill="#000000" opacity="0.1"></path>
                    <path d="M175,180.804815 L174.932581,181 C174.932581,181 171.772309,176.039037 172.013092,174.656474 C172.133483,173.9473 172.204514,172.470397 172.241835,171.198439 L172.241835,171 L175,180.804815 Z" id="Path" fill="#000000" opacity="0.1"></path>
                    <path d="M168.284211,172 L165,173.095251 C165,173.095251 168.233083,183.442823 169.135338,184 L175,181.691695 L168.284211,172 Z" id="Path" fill="#EAEAF2"></path>
                    <path d="M163,192.078638 C163,192.078638 163.717557,192.189489 163.704471,192.836594 C163.691385,193.483698 164,192 164,192 L163,192.078638 Z" id="Path" fill="#000000" opacity="0.1"></path>
                    <path d="M163.194582,196 C163.194582,196 162.756773,199.161381 163.194582,202.019783 C163.63239,204.878185 163.594112,205.845268 163.933832,205.998287 C164.273552,206.151307 163.194582,196 163.194582,196 Z" id="Path" fill="#000000" opacity="0.1"></path>
                    <path d="M191,195 C190.66417,195.023275 190.364452,195.126628 190.181487,195.282251 C189.998521,195.437874 189.9511,195.629783 190.05198,195.806347 C190.317426,196.528087 191,195 191,195 Z" id="Path" fill="#000000" opacity="0.1"></path>
                    <path d="M156,208.116824 C156,208.116824 158.540231,207.627569 158.963405,208.651529 C159.386579,209.675489 156,208.116824 156,208.116824 Z" id="Path" fill="#000000" opacity="0.1"></path>
                    <path d="M197,206.476803 C197,206.476803 199.430714,205.112249 200,207" id="Path" fill="#000000" opacity="0.1"></path>
                    <path d="M197,211 C197,211 199.433913,211.22 200,212" id="Path" fill="#000000" opacity="0.1"></path>
                    <path d="M202,211.035028 C202,211.035028 202.879007,210.716587 203,212" id="Path" fill="#000000" opacity="0.1"></path>
                    <path d="M160,229 C160,229 161.104231,229.448295 160.991988,229.906053 C160.879745,230.363811 160,229 160,229 Z" id="Path" fill="#000000" opacity="0.1"></path>
                    <path d="M153,232 C153,232 154.140532,234.185055 153.985518,234.90532 C153.830504,235.625585 153,232 153,232 Z" id="Path" fill="#000000" opacity="0.1"></path>
                    <path d="M194,229 C194,229 192.972541,229.547763 193.000563,230" id="Path" fill="#000000" opacity="0.1"></path>
                    <path d="M153,264 C153,264 153,264.404762 154,265" id="Path" fill="#000000" opacity="0.1"></path>
                    <path d="M196,262 C196,262 195.901176,263.976155 195,265" id="Path" fill="#000000" opacity="0.1"></path>
                    <g id="Group" opacity="0.1" transform="translate(166.000000, 154.000000)" fill="#000000">
                        <path d="M2.016,0.830526316 C2.016,0.612631579 1.9728,0.388421053 1.9512,0.167368421 C1.90531483,0.649587875 1.92222391,1.13482348 2.0016,1.61368421 C2.02621664,1.35320156 2.03102728,1.09156986 2.016,0.830526316 Z" id="Path"></path>
                        <path d="M1.4436,9.65368421 C1.4976,8.73789474 0.5904,8.00210526 0.3276,7.12736842 C0.314202692,7.0849277 0.304573881,7.04164028 0.2988,6.99789474 C0.21662846,7.35422654 0.226469254,7.72217728 0.3276,8.07473684 C0.54,8.79789474 1.1808,9.41684211 1.3824,10.1178947 C1.4004,9.95368421 1.4364,9.80526316 1.4436,9.65368421 Z" id="Path"></path>
                        <path d="M26.622,5.70947368 C26.3116334,6.2469314 25.8733608,6.719686 25.3368,7.09578947 C24.498,7.77473684 23.4576,8.50421053 22.3452,8.28315789 C20.6928,7.96736842 20.124,5.75684211 18.4392,5.60526316 C16.7544,5.45368421 15.6348,7.5 13.932,7.45894737 C13.212,7.44315789 12.564,7.02947368 11.9016,6.74210526 C10.7424,6.24 8.838,5.93368421 7.5816,6.31263158 C5.6988,6.87789474 5.0616,8.40631579 3.852,9.62210526 C3.40052741,10.0746712 2.86495812,10.4569156 2.268,10.7526316 C2.1471022,10.822586 2.00600858,10.8609207 1.8612,10.8631579 C1.67707478,10.8414233 1.52183286,10.7319953 1.458,10.5789474 L1.458,10.6010526 C1.4155722,10.8350642 1.39271123,11.0714842 1.3896,11.3084211 C1.39374334,11.5518904 1.58956468,11.7603784 1.8612,11.8105263 C2.00600858,11.8082891 2.1471022,11.7699544 2.268,11.7 C2.86495812,11.4042841 3.40052741,11.0220396 3.852,10.5694737 C5.0688,9.35368421 5.6988,7.82526316 7.5816,7.26 C8.8524,6.88105263 10.7568,7.18736842 11.9016,7.68947368 C12.564,7.97684211 13.1976,8.39052632 13.932,8.40631579 C15.6348,8.44421053 16.7472,6.38842105 18.4392,6.55263158 C20.1312,6.71684211 20.6928,8.90210526 22.3452,9.23052632 C23.4576,9.45157895 24.5052,8.72210526 25.3368,8.04315789 C25.8733608,7.66705442 26.3116334,7.19429982 26.622,6.65684211 C26.8225945,6.20046092 26.8761496,5.70445909 26.7768,5.22315789 C26.7463298,5.38987631 26.6943978,5.55302462 26.622,5.70947368 Z" id="Path"></path>
                    </g>
                    <path d="M139,276.227034 C139,276.227034 141.120242,275.365142 142,277" id="Path" fill="#000000" opacity="0.1"></path>
                    <path d="M208,276.024415 C208,276.024415 204.881333,275.755875 205.003498,277" id="Path" fill="#000000" opacity="0.1"></path>
                    <ellipse id="Oval" fill="#FFFFFF" opacity="0.1" cx="307.5" cy="270.5" rx="9.5" ry="1"></ellipse>
                    <ellipse id="Oval" fill="#FFFFFF" opacity="0.1" cx="35.5" cy="283.5" rx="9.5" ry="1"></ellipse>
                    <ellipse id="Oval" fill="#FFFFFF" opacity="0.1" cx="71.5" cy="294.5" rx="9.5" ry="1"></ellipse>
                    <ellipse id="Oval" fill="#FFFFFF" cx="284" cy="292.5" rx="15" ry="1.5"></ellipse>
                    <path d="M290.557201,284.242531 C291.225223,284.061209 291.712002,283.81694 291.953351,283.541932 C292.135616,283.264839 291.778376,282.936925 290.976411,282.829233 C290.079667,282.715492 289.120954,282.922405 288.395539,283.130527 C287.670125,283.33865 286.835352,283.577023 285.883929,283.532252 C286.879963,283.233208 287.329777,282.78252 287.068651,282.345228 C287.025939,282.256097 286.911307,282.172469 286.736929,282.103225 C286.241168,281.926562 285.337134,282.001583 284.74295,282.141945 C282.847395,282.5836 282.318827,283.439081 282.307891,284.20744 C282.11469,283.930347 282.278729,283.641153 282.271438,283.36043 C282.264148,283.079707 282.034494,282.755423 281.309079,282.606591 C280.861526,282.526865 280.358647,282.487638 279.85096,282.492849 C278.99796,282.481959 278.050183,282.511 277.466935,282.717912 C276.737875,282.974435 276.934721,283.405201 277.561713,283.685924 C278.188704,283.966647 279.147417,284.14694 280.02958,284.341752 C280.735274,284.481421 281.337074,284.672083 281.790259,284.899569 C281.844872,284.931363 281.888875,284.965039 281.92149,285 L287.24727,285 C288.448181,284.798068 289.561533,284.543281 290.557201,284.242531 L290.557201,284.242531 Z" id="Path" fill="#FFFFFF"></path>
                    <path d="M67.5065801,252 C67.5065801,252 69.5091718,254.408979 66.5853879,258.030824 C63.6616041,261.652669 61.2512119,264.73174 62.216097,267 C62.216097,267 66.6290809,260.248827 70.2264638,260.155015 C73.8238467,260.061202 71.4571474,256.060755 67.5065801,252 Z" id="Path" fill="#FFFFFF"></path>
                    <path d="M67.4501115,252 C67.6267096,252.232987 67.7656066,252.487819 67.8625523,252.756696 C71.4051248,256.540179 73.2942512,260.072545 69.8879316,260.159598 C66.7172924,260.243304 62.9132619,265.399554 62,266.702009 C62.0294601,266.802455 62.0662851,266.899554 62.1067927,267 C62.1067927,267 66.5699921,260.253348 70.2083097,260.159598 C73.8466274,260.065848 71.4456323,256.058036 67.4501115,252 Z" id="Path" fill="#000000" opacity="0.1"></path>
                    <path d="M72,256.261243 C72,256.669334 71.7777778,257 71.5,257 C71.2222222,257 71,256.669334 71,256.261243 C71,255.853152 71.2777778,256.0451 71.5555556,256.0451 C71.8333333,256.0451 72,255.853152 72,256.261243 Z" id="Path" fill="#FFD037"></path>
                    <path d="M72.7630148,256.505465 C72.3718803,256.857193 72.0300781,257.069393 72.0018882,256.979281 C71.9736984,256.889168 72.2644064,256.531627 72.6555409,256.179899 C73.0466754,255.828171 72.893393,256.083973 72.9215829,256.179899 C72.9497727,256.275824 73.1541493,256.153737 72.7630148,256.505465 Z" id="Path" fill="#FFD037"></path>
                    <path d="M61.4952495,252 C61.4952495,252 59.4933231,254.408979 62.4161356,258.030824 C65.338948,261.652669 67.7485393,264.73174 66.7839748,267 C66.7839748,267 62.376097,260.248827 58.7762695,260.155015 C55.176442,260.061202 57.5387151,256.060755 61.4952495,252 Z" id="Path" fill="#FFFFFF"></path>
                    <path d="M61.5531718,252 C61.3761248,252.233185 61.2361212,252.487928 61.1372991,252.756696 C57.5968608,256.540179 55.7125527,260.072545 59.11314,260.159598 C62.2855494,260.243304 66.0872883,265.399554 67,266.702009 C66.9698441,266.803276 66.9329737,266.902789 66.8895913,267 C66.8895913,267 62.432761,260.253348 58.7929549,260.159598 C55.1531487,260.065848 57.5526974,256.058036 61.5531718,252 Z" id="Path" fill="#000000" opacity="0.1"></path>
                    <path d="M56,256.261243 C56,256.669334 56.2283465,257 56.503937,257 C56.7795276,257 57,256.669334 57,256.261243 C57,255.853152 56.7244094,256.0451 56.4488189,256.0451 C56.1732283,256.0451 56,255.853152 56,256.261243 Z" id="Path" fill="#FFD037"></path>
                    <path d="M56.2380345,256.505465 C56.6285235,256.857193 56.9680027,257.069393 56.997905,256.979281 C57.0278073,256.889168 56.7340611,256.531627 56.343572,256.179899 C55.953083,255.828171 56.1078714,256.083973 56.0779691,256.179899 C56.0480668,256.275824 55.8475454,256.153737 56.2380345,256.505465 Z" id="Path" fill="#FFD037"></path>
                    <path d="M57,267.861433 C57,267.861433 62.105312,267.696021 63.6475417,266.562257 C65.1897714,265.428494 71.5016122,264.067288 71.8805221,265.89027 C72.259432,267.713251 79.555109,274.950041 73.7916903,274.998286 C68.0282717,275.046532 60.3968938,274.067842 58.8613117,273.099491 C57.3257295,272.131139 57,267.861433 57,267.861433 Z" id="Path" fill="#A8A8A8"></path>
                    <path d="M73.8945577,270.7357 C68.1300628,270.755975 60.4972599,270.344679 58.961391,269.937727 C57.7945296,269.626359 57.3257904,268.512672 57.169544,268 L57,268 C57,268 57.3324392,269.792905 58.8583349,270.201305 C60.3842306,270.609704 68.0270067,271.019553 73.7915016,270.999277 C75.4536973,270.999277 76.0288171,270.7357 75.9988975,270.353368 C75.7661901,270.587981 75.1312313,270.731356 73.8945577,270.7357 Z" id="Path" fill="#000000" opacity="0.2"></path>
                </g>
            </g>
        </g>
    </g>
</svg>