<?xml version="1.0" encoding="UTF-8"?>
<svg width="445px" height="326px" viewBox="0 0 445 326" version="1.1" xmlns="http://www.w3.org/2000/svg" xmlns:xlink="http://www.w3.org/1999/xlink">
    <!-- Generator: sketchtool 58 (101010) - https://sketch.com -->
    <title>5C9BD2B9-FA2E-44C2-B447-E3377F0C740B</title>
    <desc>Created with sketchtool.</desc>
    <defs>
        <linearGradient x1="50%" y1="100%" x2="50%" y2="1.60072707e-14%" id="linearGradient-1">
            <stop stop-color="#808080" stop-opacity="0.25" offset="0%"></stop>
            <stop stop-color="#808080" stop-opacity="0.12" offset="54%"></stop>
            <stop stop-color="#808080" stop-opacity="0.1" offset="100%"></stop>
        </linearGradient>
        <linearGradient x1="50.0156877%" y1="99.993948%" x2="50.0156877%" y2="0.00749273884%" id="linearGradient-2">
            <stop stop-color="#808080" stop-opacity="0.25" offset="0%"></stop>
            <stop stop-color="#808080" stop-opacity="0.12" offset="54%"></stop>
            <stop stop-color="#808080" stop-opacity="0.1" offset="100%"></stop>
        </linearGradient>
    </defs>
    <g id="Page-1" stroke="none" stroke-width="1" fill="none" fill-rule="evenodd">
        <g id="Open-account-step-1" transform="translate(-141.000000, -212.000000)">
            <g id="undraw_make_it_rain_iwk4-2-copy" transform="translate(141.000000, 212.000000)">
                <path d="M59.6422557,165.056472 C53.8009977,166.823167 48.3336532,171.10067 46.8744786,177.035306 C45.2055478,183.855573 49.0541206,190.73062 49.6104309,197.73349 C51.4070395,220.677706 18.8036088,236.865567 23.4547275,259.403488 C25.3014953,268.364789 32.766085,274.9568 40.1212366,280.40297 C51.9040708,289.099494 64.9773626,296.782565 79.4551098,298.95099 C101.429366,302.246995 124.388565,292.559843 145.747232,298.681648 C162.974612,303.621092 176.157341,318.097038 193.266163,323.438211 C206.289295,327.505719 220.32017,325.903367 233.849454,324.255364 C241.145327,323.369734 248.787753,322.347151 254.674611,317.96465 C265.618419,309.806808 266.306967,293.696554 273.634759,282.151405 C284.952482,264.347497 309.767569,260.850627 330.574485,264.310976 C351.381402,267.771325 371.586409,276.28981 392.666921,275.595914 C397.172123,275.445266 401.786762,274.833542 405.717413,272.619466 C410.49621,269.93062 413.724634,265.192041 416.579144,260.503679 C434.419822,231.089719 444.212765,197.492611 444.973768,163.088912 C445.096886,157.177101 444.887129,151.009645 442.110138,145.79173 C438.598999,139.190589 431.581282,135.241774 424.595484,132.584883 C407.819537,126.193736 389.28802,125.148327 372.849507,117.940027 C356.994664,110.987373 344.153928,98.7939785 330.346489,88.3444541 C302.831069,67.560623 270.938595,53.3411027 237.100677,46.7700465 C229.170976,45.2361714 220.94032,44.1405463 213.060777,45.9118069 C203.981976,47.9524086 196.157152,53.6177034 189.121195,59.7166832 C170.402722,75.9410649 155.400584,95.9590486 138.150405,113.740131 C126.250484,126.002536 113.29258,137.189372 99.4275611,147.170392 C93.0436725,151.776582 86.258511,157.245578 79.1450352,160.651146 C72.6334689,163.764547 66.5277355,162.979349 59.6422557,165.056472 Z" id="Path" fill="#A3C23D" fill-rule="nonzero" opacity="0.2"></path>
                <path d="M143,20 C143,20 125.369488,43.6357817 137.982261,71.1855346 C150.595033,98.7352875 116,143 116,143" id="Path" stroke="#535461" stroke-width="2"></path>
                <path d="M150.443431,11.7795419 C149.037644,17.5576373 142.310931,21 142.310931,21 C142.310931,21 137.869194,15.0731875 139.274981,9.29509208 C140.680768,3.51699665 144.312002,-0.612088956 147.407481,0.0746339673 C150.502959,0.761356891 151.849217,6.00144646 150.443431,11.7795419 Z" id="Path" fill="#8ED16F" fill-rule="nonzero"></path>
                <ellipse id="Oval" fill="#8ED16F" fill-rule="nonzero" transform="translate(144.615075, 10.533655) rotate(-76.900000) translate(-144.615075, -10.533655) " cx="144.615075" cy="10.5336547" rx="3.51989806" ry="1.32032648"></ellipse>
                <ellipse id="Oval" fill="#000000" fill-rule="nonzero" opacity="0.3" transform="translate(144.615075, 10.533655) rotate(-76.900000) translate(-144.615075, -10.533655) " cx="144.615075" cy="10.5336547" rx="3.51989806" ry="1.32032648"></ellipse>
                <path d="M147.321947,38.3834138 C141.573207,40.3829288 135,36.8794308 135,36.8794308 C135,36.8794308 137.748222,30.1375878 143.501468,28.1424195 C149.254713,26.1472513 154.764673,26.838388 155.823415,29.6464026 C156.882156,32.4544171 153.070687,36.3838988 147.321947,38.3834138 Z" id="Path" fill="#8ED16F" fill-rule="nonzero"></path>
                <ellipse id="Oval" fill="#8ED16F" fill-rule="nonzero" transform="translate(145.270570, 32.786860) rotate(-19.885165) translate(-145.270570, -32.786860) " cx="145.27057" cy="32.7868603" rx="3.52080506" ry="1.31893056"></ellipse>
                <ellipse id="Oval" fill="#000000" fill-rule="nonzero" opacity="0.3" transform="translate(145.270570, 32.786860) rotate(-19.885165) translate(-145.270570, -32.786860) " cx="145.27057" cy="32.7868603" rx="3.52080506" ry="1.31893056"></ellipse>
                <path d="M146.321947,59.3834138 C140.573207,61.3829288 134,57.8794308 134,57.8794308 C134,57.8794308 136.748222,51.1375878 142.501468,49.1424195 C148.254713,47.1472513 153.764673,47.838388 154.823415,50.6464026 C155.882156,53.4544171 152.070687,57.3882456 146.321947,59.3834138 Z" id="Path" fill="#8ED16F" fill-rule="nonzero"></path>
                <ellipse id="Oval" fill="#8ED16F" fill-rule="nonzero" transform="translate(143.983270, 54.459730) rotate(-19.800000) translate(-143.983270, -54.459730) " cx="143.98327" cy="54.4597303" rx="3.52221687" ry="1.31945746"></ellipse>
                <ellipse id="Oval" fill="#000000" fill-rule="nonzero" opacity="0.3" transform="translate(143.983270, 54.459730) rotate(-19.800000) translate(-143.983270, -54.459730) " cx="143.98327" cy="54.4597303" rx="3.52221687" ry="1.31945746"></ellipse>
                <path d="M153.321947,84.3834138 C147.573207,86.3829288 141,82.8794308 141,82.8794308 C141,82.8794308 143.748222,76.1375878 149.501468,74.1424195 C155.254713,72.1472513 160.764673,72.838388 161.823415,75.6464026 C162.882156,78.4544171 159.070687,82.3969391 153.321947,84.3834138 Z" id="Path" fill="#8ED16F" fill-rule="nonzero"></path>
                <ellipse id="Oval" fill="#8ED16F" fill-rule="nonzero" transform="translate(150.796182, 79.520005) rotate(-19.800000) translate(-150.796182, -79.520005) " cx="150.796182" cy="79.5200053" rx="3.52221687" ry="1.31945746"></ellipse>
                <ellipse id="Oval" fill="#000000" fill-rule="nonzero" opacity="0.3" transform="translate(150.796182, 79.520005) rotate(-19.800000) translate(-150.796182, -79.520005) " cx="150.796182" cy="79.5200053" rx="3.52221687" ry="1.31945746"></ellipse>
                <path d="M147.321858,107.383414 C141.573159,109.382929 135,105.879431 135,105.879431 C135,105.879431 137.748202,99.1375878 143.501406,97.1424195 C149.25461,95.1472513 154.76453,95.838388 155.823264,98.6464026 C156.881998,101.454417 153.075062,105.388246 147.321858,107.383414 Z" id="Path" fill="#8ED16F" fill-rule="nonzero"></path>
                <ellipse id="Oval" fill="#8ED16F" fill-rule="nonzero" transform="translate(146.375211, 102.040030) rotate(-19.885165) translate(-146.375211, -102.040030) " cx="146.375211" cy="102.04003" rx="3.52080506" ry="1.31893056"></ellipse>
                <ellipse id="Oval" fill="#000000" fill-rule="nonzero" opacity="0.3" transform="translate(146.375211, 102.040030) rotate(-19.885165) translate(-146.375211, -102.040030) " cx="146.375211" cy="102.04003" rx="3.52080506" ry="1.31893056"></ellipse>
                <path d="M120.518878,45.6614839 C124.656368,50.3591604 131.969448,49.9933577 131.969448,49.9933577 C131.969448,49.9933577 132.571185,41.998644 128.433695,37.3009675 C124.296204,32.603291 119.17046,30.6683874 116.983125,32.9690937 C114.795789,35.2698 116.381388,40.9638075 120.518878,45.6614839 Z" id="Path" fill="#8ED16F" fill-rule="nonzero"></path>
                <ellipse id="Oval" fill="#8ED16F" fill-rule="nonzero" transform="translate(125.316592, 40.630165) rotate(-43.990000) translate(-125.316592, -40.630165) " cx="125.316592" cy="40.6301651" rx="1.31987783" ry="3.52109657"></ellipse>
                <ellipse id="Oval" fill="#000000" fill-rule="nonzero" opacity="0.3" transform="translate(125.316592, 40.630165) rotate(-43.990000) translate(-125.316592, -40.630165) " cx="125.316592" cy="40.6301651" rx="1.31987783" ry="3.52109657"></ellipse>
                <path d="M118.518878,114.661484 C122.656368,119.35916 129.969448,118.993358 129.969448,118.993358 C129.969448,118.993358 130.571185,110.998644 126.433695,106.300968 C122.296204,101.603291 117.17046,99.6683874 114.983125,101.969094 C112.795789,104.2698 114.381388,109.963807 118.518878,114.661484 Z" id="Path" fill="#8ED16F" fill-rule="nonzero"></path>
                <ellipse id="Oval" fill="#8ED16F" fill-rule="nonzero" transform="translate(122.838555, 111.392142) rotate(-43.990000) translate(-122.838555, -111.392142) " cx="122.838555" cy="111.392142" rx="1.31987783" ry="3.52109657"></ellipse>
                <ellipse id="Oval" fill="#000000" fill-rule="nonzero" opacity="0.3" transform="translate(122.838555, 111.392142) rotate(-43.990000) translate(-122.838555, -111.392142) " cx="122.838555" cy="111.392142" rx="1.31987783" ry="3.52109657"></ellipse>
                <path d="M124.035098,69.7521922 C129.743981,72.6246507 137,69.6384315 137,69.6384315 C137,69.6384315 135.001421,62.0022424 129.29724,59.1297839 C123.59306,56.2573254 117.785423,56.2857656 116.332339,59.2435446 C114.879254,62.2013236 118.326215,66.8797337 124.035098,69.7521922 Z" id="Path" fill="#8ED16F" fill-rule="nonzero"></path>
                <ellipse id="Oval" fill="#8ED16F" fill-rule="nonzero" transform="translate(126.916459, 64.433856) rotate(-63.480000) translate(-126.916459, -64.433856) " cx="126.916459" cy="64.4338561" rx="1.31954584" ry="3.52198154"></ellipse>
                <ellipse id="Oval" fill="#000000" fill-rule="nonzero" opacity="0.3" transform="translate(126.916459, 64.433856) rotate(-63.480000) translate(-126.916459, -64.433856) " cx="126.916459" cy="64.4338561" rx="1.31954584" ry="3.52198154"></ellipse>
                <path d="M127.03422,94.7521922 C132.74349,97.6246507 140,94.6384315 140,94.6384315 C140,94.6384315 138.001285,87.0022424 132.296719,84.1297839 C126.592152,81.2573254 120.784122,81.2857656 119.330939,84.2435446 C117.877756,87.2013236 121.348465,91.9081739 127.03422,94.7521922 Z" id="Path" fill="#8ED16F" fill-rule="nonzero"></path>
                <ellipse id="Oval" fill="#8ED16F" fill-rule="nonzero" transform="translate(129.243898, 89.349320) rotate(-63.480000) translate(-129.243898, -89.349320) " cx="129.243898" cy="89.3493198" rx="1.31954584" ry="3.52198154"></ellipse>
                <ellipse id="Oval" fill="#000000" fill-rule="nonzero" opacity="0.3" transform="translate(129.243898, 89.349320) rotate(-63.480000) translate(-129.243898, -89.349320) " cx="129.243898" cy="89.3493198" rx="1.31954584" ry="3.52198154"></ellipse>
                <path d="M56.4140142,71 C56.4140142,71 88.1891251,103.165471 70.2511995,150.896496 C52.3132738,198.62752 101,278 101,278 C101,278 100.477842,277.922537 99.5100493,277.749384 C34.2403074,266.088888 1.83050444,190.530334 38.1114783,134.401382 C51.5840533,113.531875 62.6799094,89.0534912 56.4140142,71 Z" id="Path" fill="#8ED16F" fill-rule="nonzero"></path>
                <path d="M0,201.403976 C0,201.403976 36.4960046,195.529576 39.8216492,228.582801 C43.1472938,261.636026 110,266.219248 110,266.219248 C110,266.219248 109.546915,266.521438 108.744954,267.061718 C53.5455968,303.690863 0.779306368,290.385326 8.73094983,241.764715 C11.6941264,223.683653 11.4494604,205.529333 0,201.403976 Z" id="Path" fill="#8ED16F" fill-rule="nonzero"></path>
                <g id="Group" opacity="0.3" transform="translate(0.000000, 201.000000)" fill="#FFFFFF" fill-rule="nonzero">
                    <path d="M0,0.446387435 C0,0.446387435 36.462963,-5.39764398 39.7855967,27.484712 C43.1082305,60.3670681 109.900412,64.9265969 109.900412,64.9265969 C109.900412,64.9265969 109.447737,65.2272251 108.646502,65.764712 C53.4971193,102.204503 0.778600823,88.9677487 8.72304527,40.5984817 C11.6835391,22.6108901 11.4390947,4.55041885 0,0.446387435 Z" id="Path"></path>
                </g>
                <ellipse id="Oval" fill="#8ED16F" fill-rule="nonzero" cx="49" cy="174.5" rx="10" ry="26.5"></ellipse>
                <ellipse id="Oval" fill="#000000" fill-rule="nonzero" opacity="0.3" cx="49" cy="174.5" rx="10" ry="26.5"></ellipse>
                <ellipse id="Oval" fill="#8ED16F" fill-rule="nonzero" transform="translate(36.467582, 259.660793) rotate(-45.000000) translate(-36.467582, -259.660793) " cx="36.4675821" cy="259.660793" rx="6.81851157" ry="15.176092"></ellipse>
                <ellipse id="Oval" fill="#000000" fill-rule="nonzero" opacity="0.3" transform="translate(36.467582, 259.660793) rotate(-45.000000) translate(-36.467582, -259.660793) " cx="36.4675821" cy="259.660793" rx="6.81851157" ry="15.176092"></ellipse>
                <path d="M331.059673,121 L90.9403272,121 C84.8981513,121 80,125.879442 80,131.898538 L80,272.101462 C80,278.120558 84.8981513,283 90.9403272,283 L331.059673,283 C337.101849,283 342,278.120558 342,272.101462 L342,131.898538 C342,125.879442 337.101849,121 331.059673,121 L331.059673,121 Z" id="Path" fill="url(#linearGradient-1)" fill-rule="nonzero"></path>
                <rect id="Rectangle" fill="#A3C23D" fill-rule="nonzero" x="83" y="123" width="255" height="159" rx="24.81"></rect>
                <rect id="Rectangle" fill="#A3C23D" fill-rule="nonzero" x="83" y="151" width="255" height="29"></rect>
                <rect id="Rectangle" fill="#000000" fill-rule="nonzero" opacity="0.3" x="83" y="151" width="255" height="29"></rect>
                <rect id="Rectangle" fill="#D6D6E3" fill-rule="nonzero" x="107" y="201" width="206" height="14"></rect>
                <circle id="Oval" fill="#A3C23D" fill-rule="nonzero" cx="123.5" cy="250.5" r="20.5"></circle>
                <circle id="Oval" fill="#000000" fill-rule="nonzero" opacity="0.3" cx="123.5" cy="250.5" r="20.5"></circle>
                <path d="M324.074895,84.6738832 C324.404591,85.7099385 325.104831,86.5900291 326.04321,87.1477413 C330.279465,89.928541 339.489517,89.3375638 340.595829,89.3375638 C340.830921,89.3375638 341.139766,89.7544547 341.480879,90.4553812 C343.108081,93.7905083 345.629551,103.566829 345.800108,105.765814 C346.02598,108.427502 348.515183,120.883835 352.590101,125.52461 C352.714561,125.666628 352.839022,125.799483 352.958872,125.923176 C356.955426,129.913417 361.643426,125.52461 361.643426,125.52461 L362.316432,123.201932 C362.127437,124.118176 361.915394,125.1856 361.703351,126.381298 C361.597329,126.981438 361.491308,127.618227 361.389896,128.273341 C360.782584,131.964791 360.463567,135.697406 360.435701,139.437771 C360.425423,140.795873 360.483886,142.153629 360.610867,143.505893 C360.647744,143.881553 360.689231,144.252632 360.739937,144.614548 C360.948035,146.261732 361.049655,147.920481 361.044173,149.580589 C361.007296,159.439372 358.476606,171.703294 358.476606,171.703294 L358.573408,171.671226 C358.513483,171.978167 358.476606,172.129347 358.476606,172.129347 L358.624114,172.083535 C358.553433,172.538603 358.485825,173.00436 358.42129,173.480807 C357.563898,179.665452 357.070667,187.361899 356.835576,191.805682 C356.713967,194.149736 356.818933,196.49998 357.149031,198.824109 L361.648035,230.301662 L361.648035,244.961562 C361.632895,247.182994 361.905568,249.397122 362.459331,251.549354 C363.925195,257.088047 362.717471,276.42079 362.039854,285.59239 C361.850859,288.093735 361.703351,289.843761 361.661864,290.347695 L361.661864,290.498875 L361.790934,290.448482 C361.790934,290.55385 361.790934,290.608824 361.790934,290.608824 C361.982939,290.527125 362.184135,290.468677 362.390187,290.434738 C360.606258,293.183469 357.374903,297.728038 354.890309,298.493102 C353.426021,298.936399 352.123626,299.794534 351.142676,300.962378 L351.078141,301.049422 L350.985948,301.177696 C350.678806,301.586211 350.492069,302.07159 350.446621,302.579549 C350.410731,302.492153 350.382958,302.401679 350.363647,302.309257 C350.174652,303.330869 350.792343,304.265437 352.733,304.718978 C353.864381,304.933571 355.015824,305.025733 356.167179,304.993851 C362.897247,304.993851 374.840812,302.936884 376.159168,300.724155 L376.159168,293.091845 L376.375821,293.160563 L376.375821,293.229281 L377.200946,293.499573 L379.464277,285.949725 C382.179352,283.952314 379.925241,248.205064 379.464277,239.990939 C379.04941,232.505228 383.709751,202.727307 384.534876,197.481811 L384.424245,197.348956 L384.548705,196.583893 C384.714715,196.703642 384.869047,196.838617 385.009669,196.98704 C385.280472,197.306752 385.516851,197.653762 385.714943,198.022395 C386.104597,198.678021 386.439162,199.364478 386.715234,200.074781 C391.269554,211.362904 393.320842,243.642171 393.320842,246.537501 L393.320842,276.892656 C393.311417,279.888185 393.730476,282.869839 394.565443,285.748151 C394.9837,287.263015 395.306995,288.802206 395.533467,290.356857 C395.630269,290.966159 395.713243,291.57088 395.791606,292.148114 C395.86997,292.725347 395.948334,293.385043 396.008259,293.925627 C396.008259,294.067644 396.040527,294.205081 396.054356,294.333355 C396.068185,294.461629 396.054356,294.457048 396.054356,294.521185 C396.178816,295.716883 396.243351,296.500271 396.243351,296.500271 C396.26041,296.434673 396.291897,296.373652 396.335543,296.321604 L396.358592,296.610221 C396.391034,296.500886 396.45325,296.402589 396.538367,296.326185 C396.725805,296.143409 396.929455,295.977813 397.146839,295.831414 L397.146839,299.6888 L397.036208,299.606338 L397.036208,300.270614 C401.728817,303.78899 409.366983,304.851833 415.23044,304.810602 C419.033389,304.810602 422.112626,304.35248 423.182061,303.821059 C424.71246,303.07432 423.873507,301.333457 422.481397,300.000323 C421.402742,298.964967 419.996803,298.167835 419.107144,298.268622 C417.622841,298.428965 412.547632,292.716185 409.887872,289.587213 L410.187499,289.454357 L410.611585,289.271108 L410.611585,238.657805 C410.611585,238.657805 411.293811,218.674529 413.32666,198.911152 C414.291261,188.948755 413.104727,178.89649 409.846386,169.426428 L409.781851,169.238598 L410.399542,169.334804 C411.05411,169.435591 411.404442,169.495147 411.404442,169.495147 C411.404442,169.495147 411.404442,169.339385 411.362956,169.037025 L411.404442,169.037025 C411.404442,169.037025 410.611585,160.465565 410.602366,149.699701 C410.602366,137.495334 411.639534,122.615536 415.931105,114.195256 C418.401869,109.348327 419.226994,105.490941 419.15785,102.449012 C419.265623,99.7723599 418.49026,97.1340373 416.949834,94.935813 C416.303725,94.0509318 415.42499,93.359885 414.409925,92.9384017 L414.322342,92.8880083 L414.276245,92.8880083 C413.534951,92.589911 412.743434,92.434449 411.94377,92.4298864 L402.673792,92.4298864 C401.60086,92.430766 400.546118,92.1544978 399.612994,91.6281731 L395.985211,89.5849496 C394.777487,86.9599113 394.60232,83.7072461 394.86046,80.6561545 C394.86046,80.4133499 394.906556,80.1705453 394.929605,79.9323219 L395.192354,79.6574488 C395.395178,79.4421315 395.584173,79.1993269 395.768558,78.9931721 C395.764368,79.1739695 395.750519,79.3544182 395.727072,79.5337559 C395.680975,79.8223727 395.602611,79.9918778 395.478151,80.0285275 C397.460295,79.7719793 399.67292,79.3825757 400.889863,77.8616111 C400.940569,77.8020552 400.986666,77.7379182 401.032762,77.6737811 C401.392375,77.0952232 401.690529,76.4810969 401.922422,75.8412936 C402.09291,75.4041697 402.320753,74.9913433 402.600038,74.613527 C402.904274,74.2195422 403.300703,73.8988569 403.627987,73.523197 L403.683303,73.4590599 C404.849541,72.0846943 404.914075,70.1147703 404.927904,68.3189326 C404.950952,63.9576125 404.821883,59.1564953 401.885545,55.8855052 C399.447048,53.1642613 395.556515,52.1334871 391.864197,52.0143754 C388.171879,51.8952637 384.48878,52.5549592 380.801071,52.5732841 C378.29343,52.5732841 375.269509,52.5320531 373.886618,54.5936015 C373.209001,55.6060508 373.126028,56.930023 372.388486,57.9012414 C371.9644,58.4601501 371.314441,58.941178 371.277564,59.6375233 C371.272884,59.9588298 371.355707,60.2754159 371.517265,60.553767 L371.517265,60.5858355 C372.411534,62.335861 374.310704,63.4261911 376.292848,63.7697825 C375.957841,64.1706057 375.649861,64.5929986 375.370921,65.0341988 C374.160758,66.9568416 373.521607,69.1800828 373.527066,71.447905 C373.527066,71.7136156 373.527066,71.9747451 373.554724,72.2358746 C373.760467,75.3161163 375.142251,78.2019419 377.417599,80.3034006 C377.380722,80.5599489 377.343845,80.8164971 377.302358,81.0684641 L377.385331,81.1417636 C377.646544,81.3769329 377.918513,81.5998855 378.201237,81.8106216 L378.302649,81.8885023 C378.302649,82.0488449 378.302649,82.2091876 378.302649,82.3466241 C378.302649,82.6123348 378.302649,82.8826267 378.274991,83.1437562 C378.247333,83.4048857 378.274991,83.5652283 378.247333,83.7759644 L378.187408,83.725571 L373.683794,79.9872965 L366.442056,73.3262046 C366.442056,73.3262046 348.335408,60.2285005 347.427309,66.4543766 C347.317598,67.5601051 347.624771,68.6669454 348.289311,69.5604429 C351.612858,74.5997834 363.040145,78.8878041 363.040145,78.8878041 C363.040145,78.8878041 369.853187,86.0482488 374.412116,93.7676023 C374.250779,93.8546454 374.089442,93.9371073 373.918885,94.0149881 C369.862406,95.8887065 363.943634,95.0961557 363.943634,95.0961557 C357.107544,96.1544172 356.489853,103.598897 356.52673,106.608758 C356.52673,106.750776 356.52673,106.888212 356.52673,107.011905 C356.52673,107.135598 356.52673,107.163086 356.52673,107.231804 L347.454967,86.0619925 L347.427309,85.9978554 C346.825805,84.5971765 345.546403,83.5986233 344.034617,83.349911 C337.968337,82.3374617 322.807245,80.2255199 324.074895,84.6738832 Z M362.053683,290.370601 C362.186004,290.339323 362.319862,290.314857 362.454722,290.297301 L362.413235,290.361438 L362.053683,290.370601 Z" id="Shape" fill="url(#linearGradient-2)" fill-rule="nonzero"></path>
                <path d="M406.157181,285 C406.157181,285 415.029616,296.368048 417.081128,296.135156 C419.132641,295.902264 423.90681,300.540699 421.179393,301.957459 C418.451977,303.37422 402.7491,304.276677 395,298.245741 L395,289.158095 L406.157181,285 Z" id="Path" fill="#ACA9C9" fill-rule="nonzero"></path>
                <path d="M363.894005,285 C363.894005,285 358.830662,293.715742 355.313939,294.782976 C351.797217,295.850209 348.71318,299.674463 353.334632,300.73725 C357.956084,301.800037 374.462585,299.461017 376,296.908549 L376,285.635893 L363.894005,285 Z" id="Path" fill="#ACA9C9" fill-rule="nonzero"></path>
                <path d="M358.361472,198.275253 L362.714466,229.148033 L362.714466,243.500368 C362.701142,245.677773 362.965966,247.848051 363.502587,249.959146 C364.923038,255.393084 363.754603,274.350373 363.09478,283.346204 C362.879422,286.279528 362.714466,288.156126 362.714466,288.156126 C365.55995,286.848884 377.61087,290.984689 377.61087,290.984689 L378.829709,286.862549 L379.801114,283.583056 C382.431238,281.62447 380.259323,246.565783 379.801114,238.490032 C379.503277,232.974107 381.977611,215.091763 383.563017,204.374199 C384.021227,201.345223 384.392377,198.908377 384.6169,197.441715 C384.758945,196.530745 384.83684,196.025157 384.83684,196.025157 C385.319696,196.416555 385.721234,196.897701 386.019022,197.441715 C386.396085,198.085414 386.719442,198.758749 386.985845,199.45496 C391.393824,210.527802 393.400784,242.184016 393.400784,245.003469 L393.400784,274.773974 C393.391719,277.711125 393.797372,280.635007 394.605876,283.460075 C395.148502,285.520597 395.545063,287.616417 395.792639,289.732105 C396.104222,292.096072 396.250849,294 396.250849,294 C396.47079,292.692758 410.052132,286.812445 410.052132,286.812445 L410.052132,237.16457 C410.052132,237.16457 410.707372,217.578711 412.682257,198.184156 C413.530988,189.362115 412.675589,180.460119 410.162102,171.957325 C409.616832,170.1035 409.071562,168.532077 408.599606,167.288602 C407.797739,165.170597 407.224977,164 407.224977,164 L362.485361,164 C361.733897,164.1412 361.110731,165.644301 360.547133,167.926281 C360.180565,169.456711 359.859818,171.33331 359.58031,173.392103 C358.75095,179.454609 358.274412,187.001997 358.045307,191.365544 C357.929662,193.673535 358.035528,195.987229 358.361472,198.275253 Z" id="Path" fill="#618FD8" fill-rule="nonzero"></path>
                <g id="Group" opacity="0.1" transform="translate(361.000000, 164.000000)" fill="#000000" fill-rule="nonzero">
                    <path d="M45.9864865,122.417422 L45.9864865,73.0445993 C45.9864865,73.0445993 46.6306306,53.5672474 48.5720721,34.2801394 C50.5135135,14.9930314 43.1666667,0.280836237 43.1666667,0.280836237 L44.027027,0.280836237 C44.027027,0.280836237 51.3468468,15.0066202 49.4324324,34.2801394 C47.518018,53.5536585 46.8468468,73.0445993 46.8468468,73.0445993 L46.8468468,122.417422 C46.8468468,122.417422 33.4954955,128.265157 33.2792793,129.565157 C33.2792793,129.565157 33.2792793,129.275261 33.2117117,128.777003 C36.1216216,126.743206 45.9864865,122.417422 45.9864865,122.417422 Z" id="Path"></path>
                    <path d="M1.51801802,123.477352 C1.11161727,123.485766 0.710151474,123.568656 0.333333333,123.721951 L0.333333333,123.50453 C0.72694397,123.464822 1.1230161,123.455736 1.51801802,123.477352 L1.51801802,123.477352 Z" id="Path"></path>
                    <path d="M16.2702703,119.174216 C18.8558559,117.226481 16.7207207,82.3620209 16.2702703,74.3310105 C15.8198198,66.3 21.2252252,32.1059233 21.2252252,32.1059233 C21.5081496,32.3257297 21.7584217,32.5850234 21.9684685,32.8759582 C21.1756757,37.9853659 16.7432432,67.0337979 17.1351351,74.3310105 C17.5855856,82.3439024 19.7207207,117.208362 17.1351351,119.174216 L14.981982,126.534843 L14.1981982,126.272125 L16.2702703,119.174216 Z" id="Path"></path>
                </g>
                <path d="M367,108.754475 L362.42403,124.963783 C362.42403,124.963783 357.61011,129.545272 353.674776,124.963783 C349.739442,120.382294 347.314178,108.099322 347.076227,105.469547 C346.838277,102.839772 343.355964,89.2602387 342.04266,89.2602387 C340.729357,89.2602387 327.605475,90.1353032 326.072525,84.6787497 C324.846165,80.2896833 339.498421,82.3880052 345.364814,83.3730254 C346.833077,83.6233056 348.071157,84.6087404 348.645785,85.9844741 L357.642142,107.494565 C357.642142,107.494565 362.405726,101.964708 367,108.754475 Z" id="Path" fill="#F7C4A7" fill-rule="nonzero"></path>
                <path d="M396.421238,71 C396.421238,71 390.702399,87.0370781 397.962518,92.7488512 C405.222637,98.4606243 372,100 372,100 L376.508819,95.717319 C376.508819,95.717319 379.697199,83.085248 377.497999,72.5393757 L396.421238,71 Z" id="Path" fill="#F7C4A7" fill-rule="nonzero"></path>
                <path d="M388.305837,93.9137727 C388.305837,93.9137727 394.138815,92.5088373 394.138815,91 L399.30885,93.9137727 L412.296089,93.9137727 C412.296089,93.9137727 421.761443,99.0953188 413.838352,114.648992 C405.915262,130.202665 409.437147,168.406968 409.437147,168.406968 C409.437147,168.406968 381.266671,163.437744 357.934758,171 C357.934758,171 361.456643,153.937489 360.135361,144.220396 C358.814079,134.503303 362.335964,120.896663 362.335964,120.896663 L364.315585,112.688407 C364.315585,112.688407 364.205095,105.008696 356.061023,108.907279 C356.061023,108.907279 354.850232,97.7852504 363.215284,96.4887345 C363.215284,96.4887345 372.883203,97.7852504 375.76056,93.0328646 C375.76056,93.0509346 382.145991,96.7236433 388.305837,93.9137727 Z" id="Path" fill="#000000" fill-rule="nonzero" opacity="0.1"></path>
                <path d="M388.306338,91.9137727 C388.306338,91.9137727 394.139377,90.5088373 394.139377,89 L397.928319,91.1367666 C398.833698,91.6457313 399.858953,91.9135898 400.902386,91.9137727 L409.985721,91.9137727 C411.91186,91.9083404 413.722947,92.8128732 414.851957,94.3441753 C416.937487,97.2218081 418.806637,102.895759 413.839117,112.648992 C405.915945,128.198148 409.437866,166.406968 409.437866,166.406968 C409.437866,166.406968 381.267099,161.437744 357.934946,169 C357.934946,169 361.456867,151.937489 360.135571,142.220396 C358.814275,132.503303 362.336197,118.928285 362.336197,118.928285 L364.315839,110.720029 C364.315839,110.720029 364.205347,103.040318 356.061192,106.938901 C356.061192,106.938901 354.882614,96.1240612 362.87024,94.5790841 C363.092217,94.5306415 363.320383,94.5154111 363.547001,94.5339093 C365.255018,94.7100909 373.21502,95.2747755 375.765536,91.0418996 C375.760932,91.0464171 382.146429,94.7191259 388.306338,91.9137727 Z" id="Path" fill="#E14B5A" fill-rule="nonzero"></path>
                <path d="M410.139958,111.96833 C410.139958,111.96833 403.155831,116.539588 391.807766,111.96833 C391.807766,111.96833 379.368717,107.186679 375.438434,97.7955181 C371.50815,88.4043568 395.295265,99.397371 395.295265,99.397371 C395.295265,99.397371 400.316532,99.397371 401.841172,98.2545566 C403.365811,97.1117421 414.065676,106.938034 410.139958,111.96833 Z" id="Path" fill="#000000" fill-rule="nonzero" opacity="0.1"></path>
                <path d="M410.136604,112.065229 C410.136604,112.065229 403.125237,116.418464 391.732912,112.065229 C391.732912,112.065229 379.245347,107.511635 375.299735,98.5683776 C371.354122,89.62512 362.156859,79.8303404 362.156859,79.8303404 C362.156859,79.8303404 346.163611,73.7330787 347.034303,67.6403706 C347.904996,61.5476626 365.437995,74.3887962 365.437995,74.3887962 L372.449362,80.9186493 L395.234012,100.075617 C395.234012,100.075617 400.274864,100.075617 401.80545,98.9873082 C403.336036,97.8989994 414.077633,107.274848 410.136604,112.065229 Z" id="Path" fill="#F7C4A7" fill-rule="nonzero"></path>
                <path d="M375,72.461611 L395,71 C393.9718,73.7575653 393.272203,76.6050504 392.912917,79.4947959 C388.075716,83.9929756 380.112183,84.1870474 375.00973,79.9310976 C375.519415,77.4619759 375.516116,74.9296581 375,72.461611 L375,72.461611 Z" id="Path" fill="#000000" fill-rule="nonzero" opacity="0.1"></path>
                <circle id="Oval" fill="#F7C4A7" fill-rule="nonzero" cx="384.5" cy="71.5" r="12.5"></circle>
                <path d="M392.498748,73.3965317 C391.805097,72.1758032 393.214921,70.5850113 392.750985,69.2489384 C392.323083,68.0185978 390.620485,67.8071331 390.048448,66.6584948 C389.598025,65.7309334 390.048448,64.5919072 389.868278,63.5682254 C389.611537,62.2465706 388.278285,61.4247416 387.012597,61.3574573 C385.746908,61.2901731 384.526262,61.7948049 383.323633,62.2273465 C381.364293,62.9338311 379.301356,63.4769111 377.247427,63.2269982 C375.193499,62.9770853 373.144074,61.7851929 372.229716,59.8291437 C372.080167,59.5442178 372.00111,59.2233392 372,58.8967762 C372.036034,58.1758736 372.657618,57.6808538 373.058494,57.1041316 C373.761154,56.0996739 373.84223,54.7299589 374.48183,53.682247 C375.788057,51.5483752 378.657251,51.6012414 381.044493,51.5916293 C384.557792,51.5916293 388.053074,50.8899507 391.566373,51.0149072 C395.079672,51.1398637 398.77314,52.2019936 401.101827,55.0183199 C403.894449,58.4065624 404.020567,63.3663727 403.998046,67.8840294 C403.998046,69.7439582 403.925979,71.7672917 402.813434,73.204291 C402.489129,73.6224145 402.092757,73.9684478 401.781965,74.3961834 C401.106331,75.3573869 400.926162,76.5877274 400.291065,77.563349 C399.165008,79.2983214 396.966944,79.721251 395.007604,80 C395.584146,79.9182977 395.106697,75.7995405 395.007604,75.4198651 C394.629249,73.5262941 394.219364,73.5647423 392.498748,73.3965317 Z" id="Path" fill="#000000" fill-rule="nonzero" opacity="0.1"></path>
                <path d="M392.498748,73.3965317 C391.805097,72.1758032 393.214921,70.5850113 392.750985,69.2489384 C392.323083,68.0185978 390.620485,67.8071331 390.048448,66.6584948 C389.598025,65.7309334 390.048448,64.5919072 389.868278,63.5682254 C389.611537,62.2465706 388.278285,61.4247416 387.012597,61.3574573 C385.746908,61.2901731 384.526262,61.7948049 383.323633,62.2273465 C381.364293,62.9338311 379.301356,63.4769111 377.247427,63.2269982 C375.193499,62.9770853 373.144074,61.7851929 372.229716,59.8291437 C372.080167,59.5442178 372.00111,59.2233392 372,58.8967762 C372.036034,58.1758736 372.657618,57.6808538 373.058494,57.1041316 C373.761154,56.0996739 373.84223,54.7299589 374.48183,53.682247 C375.788057,51.5483752 378.657251,51.6012414 381.044493,51.5916293 C384.557792,51.5916293 388.053074,50.8899507 391.566373,51.0149072 C395.079672,51.1398637 398.77314,52.2019936 401.101827,55.0183199 C403.894449,58.4065624 404.020567,63.3663727 403.998046,67.8840294 C403.998046,69.7439582 403.925979,71.7672917 402.813434,73.204291 C402.489129,73.6224145 402.092757,73.9684478 401.781965,74.3961834 C401.106331,75.3573869 400.926162,76.5877274 400.291065,77.563349 C399.165008,79.2983214 396.966944,79.721251 395.007604,80 C395.584146,79.9182977 395.106697,75.7995405 395.007604,75.4198651 C394.629249,73.5022641 394.219364,73.5599363 392.498748,73.3965317 Z" id="Path" fill="#281C1C" fill-rule="nonzero"></path>
                <path d="M410.394064,112 C410.394064,112 404.522751,96.6301422 399.956679,96.1938899 C395.390607,95.7576376 408.652226,96.1938899 408.652226,96.1938899 L413,104.096945 L410.394064,112 Z" id="Path" fill="#000000" fill-rule="nonzero" opacity="0.1"></path>
                <path d="M412.394064,112 C412.394064,112 406.522751,96.6301422 401.956679,96.1938899 C397.390607,95.7576376 410.652226,96.1938899 410.652226,96.1938899 L415,104.096945 L412.394064,112 Z" id="Path" fill="#E14B5A" fill-rule="nonzero"></path>
                <path d="M395,289.625058 C395.305913,292.048319 395.449871,294 395.449871,294 C395.66581,292.65997 409,286.632169 409,286.632169 L409,283.004282 C408.660305,282.991123 408.320149,283.008306 407.98329,283.055643 C405.39653,283.415163 402.998715,284.71784 400.785347,286.10923 C398.91585,287.382671 396.984884,288.556143 395,289.625058 L395,289.625058 Z" id="Path" fill="#618FD8" fill-rule="nonzero"></path>
                <path d="M395,289.625058 C395.305913,292.048319 395.449871,294 395.449871,294 C395.66581,292.65997 409,286.632169 409,286.632169 L409,283.004282 C408.660305,282.991123 408.320149,283.008306 407.98329,283.055643 C405.39653,283.415163 402.998715,284.71784 400.785347,286.10923 C398.91585,287.382671 396.984884,288.556143 395,289.625058 L395,289.625058 Z" id="Path" fill="#000000" fill-rule="nonzero" opacity="0.3"></path>
                <path d="M361,286.501346 C363.825135,285.346574 375.789878,289 375.789878,289 L377,285.358644 C374.911857,284.98445 372.837361,284.517712 370.799261,283.962456 C369.847712,283.718868 368.917241,283.414971 368.01507,283.053123 C367.412653,282.76843 366.793011,282.513218 366.158942,282.288639 C364.598521,281.813855 362.97441,282.015035 361.373045,282.252427 C361.163776,284.843624 361,286.501346 361,286.501346 Z" id="Path" fill="#618FD8" fill-rule="nonzero"></path>
                <path d="M361,286.501346 C363.825135,285.346574 375.789878,289 375.789878,289 L377,285.358644 C374.911857,284.98445 372.837361,284.517712 370.799261,283.962456 C369.847712,283.718868 368.917241,283.414971 368.01507,283.053123 C367.412653,282.76843 366.793011,282.513218 366.158942,282.288639 C364.598521,281.813855 362.97441,282.015035 361.373045,282.252427 C361.163776,284.843624 361,286.501346 361,286.501346 Z" id="Path" fill="#000000" fill-rule="nonzero" opacity="0.3"></path>
                <path d="M421.173081,299.413027 C421.558641,299.258296 421.846577,298.94555 421.953515,298.565347 C422.128925,299.174109 421.794737,299.810284 421.173081,300.051018 C418.441563,301.331461 402.747232,302.183603 395,296.637991 L395,296 C402.747232,301.545612 418.441563,300.69347 421.173081,299.413027 Z" id="Path" fill="#FFFFFF" fill-rule="nonzero" opacity="0.4"></path>
                <path d="M353.334484,300.049526 C357.937554,301.173611 374.462575,298.699684 376,296 L376,296.672569 C374.457972,299.372254 357.955966,301.84618 353.334484,300.722096 C351.447226,300.251768 350.844224,299.311111 351.03295,298.281092 C351.180248,299.043024 351.870708,299.673264 353.334484,300.049526 Z" id="Path" fill="#FFFFFF" fill-rule="nonzero" opacity="0.4"></path>
                <path d="M379,141.58669 C379,141.58669 374.357686,140.266637 373.091199,141.58669 C371.824712,142.906743 361,146 361,146" id="Path" fill="#000000" fill-rule="nonzero" opacity="0.1"></path>
                <rect id="Rectangle" fill="#8ED16F" fill-rule="nonzero" transform="translate(337.500000, 81.500000) rotate(-180.000000) translate(-337.500000, -81.500000) " x="326" y="81" width="23" height="1"></rect>
                <rect id="Rectangle" fill="#8ED16F" fill-rule="nonzero" transform="translate(337.500000, 81.500000) rotate(-180.000000) translate(-337.500000, -81.500000) " x="326" y="81" width="23" height="1"></rect>
                <rect id="Rectangle" fill="#000000" fill-rule="nonzero" opacity="0.1" transform="translate(337.500000, 81.500000) rotate(-180.000000) translate(-337.500000, -81.500000) " x="326" y="81" width="23" height="1"></rect>
                <rect id="Rectangle" fill="#8ED16F" fill-rule="nonzero" transform="translate(337.500000, 81.500000) rotate(-180.000000) translate(-337.500000, -81.500000) " x="326" y="81" width="23" height="1"></rect>
                <rect id="Rectangle" fill="#8ED16F" fill-rule="nonzero" transform="translate(337.500000, 81.500000) rotate(-180.000000) translate(-337.500000, -81.500000) " x="326" y="81" width="23" height="1"></rect>
                <rect id="Rectangle" fill="#000000" fill-rule="nonzero" opacity="0.1" transform="translate(337.500000, 81.500000) rotate(-180.000000) translate(-337.500000, -81.500000) " x="326" y="81" width="23" height="1"></rect>
                <rect id="Rectangle" fill="#8ED16F" fill-rule="nonzero" transform="translate(337.500000, 81.500000) rotate(-180.000000) translate(-337.500000, -81.500000) " x="326" y="81" width="23" height="1"></rect>
                <rect id="Rectangle" fill="#8ED16F" fill-rule="nonzero" transform="translate(337.500000, 83.500000) rotate(-180.000000) translate(-337.500000, -83.500000) " x="326" y="83" width="23" height="1"></rect>
                <rect id="Rectangle" fill="#000000" fill-rule="nonzero" opacity="0.1" transform="translate(337.500000, 83.500000) rotate(-180.000000) translate(-337.500000, -83.500000) " x="326" y="83" width="23" height="1"></rect>
                <rect id="Rectangle" fill="#8ED16F" fill-rule="nonzero" transform="translate(337.500000, 83.500000) rotate(-180.000000) translate(-337.500000, -83.500000) " x="326" y="83" width="23" height="1"></rect>
                <rect id="Rectangle" fill="#8ED16F" fill-rule="nonzero" transform="translate(337.500000, 83.500000) rotate(-180.000000) translate(-337.500000, -83.500000) " x="326" y="83" width="23" height="1"></rect>
                <rect id="Rectangle" fill="#000000" fill-rule="nonzero" opacity="0.1" transform="translate(337.500000, 83.500000) rotate(-180.000000) translate(-337.500000, -83.500000) " x="326" y="83" width="23" height="1"></rect>
                <rect id="Rectangle" fill="#8ED16F" fill-rule="nonzero" transform="translate(337.500000, 78.500000) rotate(-180.000000) translate(-337.500000, -78.500000) " x="326" y="78" width="23" height="1"></rect>
                <polygon id="Rectangle" fill="#8ED16F" fill-rule="nonzero" transform="translate(350.927830, 73.179725) rotate(-140.250000) translate(-350.927830, -73.179725) " points="339.247021 72.9376608 362.608831 72.9285913 362.60864 73.4217902 339.246829 73.4308597"></polygon>
                <polygon id="Rectangle" fill="#8ED16F" fill-rule="nonzero" transform="translate(334.546861, 65.323984) rotate(-140.250000) translate(-334.546861, -65.323984) " points="322.866051 65.0819189 346.227862 65.0728494 346.22767 65.5660483 322.86586 65.5751178"></polygon>
                <rect id="Rectangle" fill="#8ED16F" fill-rule="nonzero" transform="translate(337.500000, 78.500000) rotate(-180.000000) translate(-337.500000, -78.500000) " x="326" y="78" width="23" height="1"></rect>
                <rect id="Rectangle" fill="#000000" fill-rule="nonzero" opacity="0.1" transform="translate(337.500000, 78.500000) rotate(-180.000000) translate(-337.500000, -78.500000) " x="326" y="78" width="23" height="1"></rect>
                <rect id="Rectangle" fill="#8ED16F" fill-rule="nonzero" transform="translate(337.500000, 78.500000) rotate(-180.000000) translate(-337.500000, -78.500000) " x="326" y="78" width="23" height="1"></rect>
                <rect id="Rectangle" fill="#8ED16F" fill-rule="nonzero" transform="translate(337.500000, 78.500000) rotate(-180.000000) translate(-337.500000, -78.500000) " x="326" y="78" width="23" height="1"></rect>
                <rect id="Rectangle" fill="#000000" fill-rule="nonzero" opacity="0.1" transform="translate(337.500000, 78.500000) rotate(-180.000000) translate(-337.500000, -78.500000) " x="326" y="78" width="23" height="1"></rect>
                <rect id="Rectangle" fill="#8ED16F" fill-rule="nonzero" transform="translate(337.500000, 80.500000) rotate(-180.000000) translate(-337.500000, -80.500000) " x="326" y="80" width="23" height="1"></rect>
                <rect id="Rectangle" fill="#8ED16F" fill-rule="nonzero" transform="translate(337.500000, 80.500000) rotate(-180.000000) translate(-337.500000, -80.500000) " x="326" y="80" width="23" height="1"></rect>
                <rect id="Rectangle" fill="#000000" fill-rule="nonzero" opacity="0.1" transform="translate(337.500000, 80.500000) rotate(-180.000000) translate(-337.500000, -80.500000) " x="326" y="80" width="23" height="1"></rect>
                <rect id="Rectangle" fill="#8ED16F" fill-rule="nonzero" transform="translate(337.500000, 80.500000) rotate(-180.000000) translate(-337.500000, -80.500000) " x="326" y="80" width="23" height="1"></rect>
                <rect id="Rectangle" fill="#8ED16F" fill-rule="nonzero" transform="translate(337.500000, 81.500000) rotate(-180.000000) translate(-337.500000, -81.500000) " x="326" y="81" width="23" height="1"></rect>
                <rect id="Rectangle" fill="#000000" fill-rule="nonzero" opacity="0.1" transform="translate(337.500000, 81.500000) rotate(-180.000000) translate(-337.500000, -81.500000) " x="326" y="81" width="23" height="1"></rect>
                <polygon id="Rectangle" fill="#8ED16F" fill-rule="nonzero" transform="translate(327.996265, 92.780725) rotate(-169.480000) translate(-327.996265, -92.780725) " points="323.739442 84.4884571 332.25544 84.4872503 332.253088 101.072993 323.73709 101.0742"></polygon>
                <ellipse id="Oval" fill="#8ED16F" fill-rule="nonzero" transform="translate(328.112792, 92.832658) rotate(-79.480000) translate(-328.112792, -92.832658) " cx="328.112792" cy="92.8326578" rx="3.4924561" ry="1.74523135"></ellipse>
                <ellipse id="Oval" fill="#000000" fill-rule="nonzero" opacity="0.1" transform="translate(328.112792, 92.832658) rotate(-79.480000) translate(-328.112792, -92.832658) " cx="328.112792" cy="92.8326578" rx="3.4924561" ry="1.74523135"></ellipse>
                <polygon id="Rectangle" fill="#8ED16F" fill-rule="nonzero" transform="translate(329.428838, 127.199342) rotate(-169.480000) translate(-329.428838, -127.199342) " points="325.172015 118.907074 333.688013 118.905867 333.685661 135.49161 325.169663 135.492816"></polygon>
                <ellipse id="Oval" fill="#8ED16F" fill-rule="nonzero" transform="translate(329.541111, 127.247539) rotate(-79.480000) translate(-329.541111, -127.247539) " cx="329.541111" cy="127.247539" rx="3.4924561" ry="1.74523135"></ellipse>
                <ellipse id="Oval" fill="#000000" fill-rule="nonzero" opacity="0.1" transform="translate(329.541111, 127.247539) rotate(-79.480000) translate(-329.541111, -127.247539) " cx="329.541111" cy="127.247539" rx="3.4924561" ry="1.74523135"></ellipse>
                <polygon id="Rectangle" fill="#8ED16F" fill-rule="nonzero" transform="translate(298.714980, 57.664419) rotate(-61.580000) translate(-298.714980, -57.664419) " points="294.456727 49.3652914 302.967749 49.3681053 302.973233 65.963546 294.462211 65.960732"></polygon>
                <ellipse id="Oval" fill="#8ED16F" fill-rule="nonzero" transform="translate(300.136509, 57.985477) rotate(-61.389540) translate(-300.136509, -57.985477) " cx="300.136509" cy="57.9854772" rx="1.74839689" ry="3.50286733"></ellipse>
                <ellipse id="Oval" fill="#000000" fill-rule="nonzero" opacity="0.1" transform="translate(300.136509, 57.985477) rotate(-61.389540) translate(-300.136509, -57.985477) " cx="300.136509" cy="57.9854772" rx="1.74839689" ry="3.50286733"></ellipse>
                <polygon id="Rectangle" fill="#8ED16F" fill-rule="nonzero" transform="translate(266.661454, 205.358885) rotate(-61.580000) translate(-266.661454, -205.358885) " points="262.403201 197.059758 270.914223 197.062572 270.919708 213.658012 262.408686 213.655198"></polygon>
                <ellipse id="Oval" fill="#8ED16F" fill-rule="nonzero" transform="translate(266.614275, 205.458894) rotate(-61.580000) translate(-266.614275, -205.458894) " cx="266.614275" cy="205.458894" rx="1.74421193" ry="3.49449829"></ellipse>
                <ellipse id="Oval" fill="#000000" fill-rule="nonzero" opacity="0.1" transform="translate(266.614275, 205.458894) rotate(-61.580000) translate(-266.614275, -205.458894) " cx="266.614275" cy="205.458894" rx="1.74421193" ry="3.49449829"></ellipse>
                <polygon id="Rectangle" fill="#8ED16F" fill-rule="nonzero" transform="translate(247.050040, 83.476428) rotate(-61.580000) translate(-247.050040, -83.476428) " points="242.791787 75.177301 251.302808 75.180115 251.308293 91.7755557 242.797271 91.7727417"></polygon>
                <ellipse id="Oval" fill="#8ED16F" fill-rule="nonzero" transform="translate(246.998843, 83.569699) rotate(-61.580000) translate(-246.998843, -83.569699) " cx="246.998843" cy="83.5696991" rx="1.74421193" ry="3.49449829"></ellipse>
                <ellipse id="Oval" fill="#000000" fill-rule="nonzero" opacity="0.1" transform="translate(246.998843, 83.569699) rotate(-61.580000) translate(-246.998843, -83.569699) " cx="246.998843" cy="83.5696991" rx="1.74421193" ry="3.49449829"></ellipse>
                <polygon id="Rectangle" fill="#8ED16F" fill-rule="nonzero" transform="translate(271.629738, 57.662466) rotate(-61.580000) translate(-271.629738, -57.662466) " points="267.371485 49.3633385 275.882507 49.3661525 275.887991 65.9615932 267.37697 65.9587792"></polygon>
                <ellipse id="Oval" fill="#8ED16F" fill-rule="nonzero" transform="translate(271.578541, 57.755737) rotate(-61.580000) translate(-271.578541, -57.755737) " cx="271.578541" cy="57.7557366" rx="1.74421193" ry="3.49449829"></ellipse>
                <ellipse id="Oval" fill="#000000" fill-rule="nonzero" opacity="0.1" transform="translate(271.578541, 57.755737) rotate(-61.580000) translate(-271.578541, -57.755737) " cx="271.578541" cy="57.7557366" rx="1.74421193" ry="3.49449829"></ellipse>
                <polygon id="Rectangle" fill="#8ED16F" fill-rule="nonzero" transform="translate(287.566764, 89.138516) rotate(-6.240000) translate(-287.566764, -89.138516) " points="283.307985 80.845423 291.824128 80.8461494 291.825543 97.4316099 283.309401 97.4308835"></polygon>
                <ellipse id="Oval" fill="#8ED16F" fill-rule="nonzero" transform="translate(287.454932, 89.152613) rotate(-6.240000) translate(-287.454932, -89.152613) " cx="287.454932" cy="89.1526133" rx="1.74526096" ry="3.49239672"></ellipse>
                <ellipse id="Oval" fill="#000000" fill-rule="nonzero" opacity="0.1" transform="translate(287.454932, 89.152613) rotate(-6.240000) translate(-287.454932, -89.152613) " cx="287.454932" cy="89.1526133" rx="1.74526096" ry="3.49239672"></ellipse>
                <polygon id="Rectangle" fill="#8ED16F" fill-rule="nonzero" transform="translate(345.609259, 179.418555) rotate(-6.240000) translate(-345.609259, -179.418555) " points="341.35048 171.125462 349.866623 171.126188 349.868038 187.711649 341.351896 187.710922"></polygon>
                <ellipse id="Oval" fill="#8ED16F" fill-rule="nonzero" transform="translate(345.501500, 179.432679) rotate(-6.240000) translate(-345.501500, -179.432679) " cx="345.5015" cy="179.432679" rx="1.74526096" ry="3.49239672"></ellipse>
                <ellipse id="Oval" fill="#000000" fill-rule="nonzero" opacity="0.1" transform="translate(345.501500, 179.432679) rotate(-6.240000) translate(-345.501500, -179.432679) " cx="345.5015" cy="179.432679" rx="1.74526096" ry="3.49239672"></ellipse>
                <polygon id="Rectangle" fill="#8ED16F" fill-rule="nonzero" transform="translate(263.020507, 123.144077) rotate(-61.580000) translate(-263.020507, -123.144077) " points="258.762254 114.84495 267.273276 114.847764 267.27876 131.443204 258.767738 131.44039"></polygon>
                <ellipse id="Oval" fill="#8ED16F" fill-rule="nonzero" transform="translate(262.966585, 123.243536) rotate(-61.580000) translate(-262.966585, -123.243536) " cx="262.966585" cy="123.243536" rx="1.74421193" ry="3.49449829"></ellipse>
                <ellipse id="Oval" fill="#000000" fill-rule="nonzero" opacity="0.1" transform="translate(262.966585, 123.243536) rotate(-61.580000) translate(-262.966585, -123.243536) " cx="262.966585" cy="123.243536" rx="1.74421193" ry="3.49449829"></ellipse>
                <polygon id="Rectangle" fill="#8ED16F" fill-rule="nonzero" transform="translate(226.182906, 112.631366) rotate(-61.580000) translate(-226.182906, -112.631366) " points="221.924653 104.332239 230.435674 104.335053 230.441159 120.930493 221.930137 120.927679"></polygon>
                <ellipse id="Oval" fill="#8ED16F" fill-rule="nonzero" transform="translate(227.342368, 113.213587) rotate(-61.389540) translate(-227.342368, -113.213587) " cx="227.342368" cy="113.213587" rx="1.74839689" ry="3.50286733"></ellipse>
                <ellipse id="Oval" fill="#000000" fill-rule="nonzero" opacity="0.1" transform="translate(227.342368, 113.213587) rotate(-61.389540) translate(-227.342368, -113.213587) " cx="227.342368" cy="113.213587" rx="1.74839689" ry="3.50286733"></ellipse>
                <polygon id="Rectangle" fill="#8ED16F" fill-rule="nonzero" transform="translate(214.384840, 289.626561) rotate(-61.580000) translate(-214.384840, -289.626561) " points="210.126587 281.327434 218.637609 281.330248 218.643094 297.925688 210.132072 297.922874"></polygon>
                <ellipse id="Oval" fill="#8ED16F" fill-rule="nonzero" transform="translate(214.333093, 289.722004) rotate(-61.580000) translate(-214.333093, -289.722004) " cx="214.333093" cy="289.722004" rx="1.74421193" ry="3.49449829"></ellipse>
                <ellipse id="Oval" fill="#000000" fill-rule="nonzero" opacity="0.1" transform="translate(214.333093, 289.722004) rotate(-61.580000) translate(-214.333093, -289.722004) " cx="214.333093" cy="289.722004" rx="1.74421193" ry="3.49449829"></ellipse>
                <polygon id="Rectangle" fill="#8ED16F" fill-rule="nonzero" transform="translate(205.874685, 290.518470) rotate(-79.490000) translate(-205.874685, -290.518470) " points="201.618649 282.21888 210.128372 282.220086 210.130722 298.818059 201.620999 298.816853"></polygon>
                <polygon id="Rectangle" fill="#000000" fill-rule="nonzero" opacity="0.05" transform="translate(205.874685, 290.518470) rotate(-79.490000) translate(-205.874685, -290.518470) " points="201.618649 282.21888 210.128372 282.220086 210.130722 298.818059 201.620999 298.816853"></polygon>
                <ellipse id="Oval" fill="#8ED16F" fill-rule="nonzero" transform="translate(205.858128, 290.624471) rotate(-79.490000) translate(-205.858128, -290.624471) " cx="205.858128" cy="290.624471" rx="1.74394538" ry="3.4950314"></ellipse>
                <ellipse id="Oval" fill="#000000" fill-rule="nonzero" opacity="0.1" transform="translate(205.858128, 290.624471) rotate(-79.490000) translate(-205.858128, -290.624471) " cx="205.858128" cy="290.624471" rx="1.74394538" ry="3.4950314"></ellipse>
                <polygon id="Rectangle" fill="#8ED16F" fill-rule="nonzero" transform="translate(207.403715, 295.535996) rotate(-79.490000) translate(-207.403715, -295.535996) " points="203.147679 287.236407 211.657401 287.237612 211.659751 303.835585 203.150029 303.834379"></polygon>
                <ellipse id="Oval" fill="#8ED16F" fill-rule="nonzero" transform="translate(207.382589, 295.641997) rotate(-79.490000) translate(-207.382589, -295.641997) " cx="207.382589" cy="295.641997" rx="1.74394538" ry="3.4950314"></ellipse>
                <ellipse id="Oval" fill="#000000" fill-rule="nonzero" opacity="0.1" transform="translate(207.382589, 295.641997) rotate(-79.490000) translate(-207.382589, -295.641997) " cx="207.382589" cy="295.641997" rx="1.74394538" ry="3.4950314"></ellipse>
                <polygon id="Rectangle" fill="#8ED16F" fill-rule="nonzero" transform="translate(231.604176, 311.136869) rotate(-61.580000) translate(-231.604176, -311.136869) " points="227.345923 302.837742 235.856945 302.840556 235.86243 319.435996 227.351408 319.433182"></polygon>
                <ellipse id="Oval" fill="#8ED16F" fill-rule="nonzero" transform="translate(231.556997, 311.232313) rotate(-61.580000) translate(-231.556997, -311.232313) " cx="231.556997" cy="311.232313" rx="1.74421193" ry="3.49449829"></ellipse>
                <ellipse id="Oval" fill="#000000" fill-rule="nonzero" opacity="0.1" transform="translate(231.556997, 311.232313) rotate(-61.580000) translate(-231.556997, -311.232313) " cx="231.556997" cy="311.232313" rx="1.74421193" ry="3.49449829"></ellipse>
                <polygon id="Rectangle" fill="#8ED16F" fill-rule="nonzero" transform="translate(223.097368, 312.023074) rotate(-79.490000) translate(-223.097368, -312.023074) " points="218.841332 303.723484 227.351054 303.72469 227.353404 320.322663 218.843681 320.321457"></polygon>
                <polygon id="Rectangle" fill="#000000" fill-rule="nonzero" opacity="0.05" transform="translate(223.097368, 312.023074) rotate(-79.490000) translate(-223.097368, -312.023074) " points="218.841332 303.723484 227.351054 303.72469 227.353404 320.322663 218.843681 320.321457"></polygon>
                <ellipse id="Oval" fill="#8ED16F" fill-rule="nonzero" transform="translate(223.076242, 312.129075) rotate(-79.490000) translate(-223.076242, -312.129075) " cx="223.076242" cy="312.129075" rx="1.74394538" ry="3.4950314"></ellipse>
                <ellipse id="Oval" fill="#000000" fill-rule="nonzero" opacity="0.1" transform="translate(223.076242, 312.129075) rotate(-79.490000) translate(-223.076242, -312.129075) " cx="223.076242" cy="312.129075" rx="1.74394538" ry="3.4950314"></ellipse>
                <polygon id="Rectangle" fill="#8ED16F" fill-rule="nonzero" transform="translate(224.625488, 317.045921) rotate(-79.490000) translate(-224.625488, -317.045921) " points="220.369451 308.746332 228.879174 308.747538 228.881524 325.34551 220.371801 325.344305"></polygon>
                <ellipse id="Oval" fill="#8ED16F" fill-rule="nonzero" transform="translate(224.608931, 317.151922) rotate(-79.490000) translate(-224.608931, -317.151922) " cx="224.608931" cy="317.151922" rx="1.74394538" ry="3.4950314"></ellipse>
                <ellipse id="Oval" fill="#000000" fill-rule="nonzero" opacity="0.1" transform="translate(224.608931, 317.151922) rotate(-79.490000) translate(-224.608931, -317.151922) " cx="224.608931" cy="317.151922" rx="1.74394538" ry="3.4950314"></ellipse>
                <polygon id="Rectangle" fill="#8ED16F" fill-rule="nonzero" transform="translate(257.439791, 297.274597) rotate(-61.580000) translate(-257.439791, -297.274597) " points="253.181537 288.97547 261.692559 288.978284 261.698044 305.573725 253.187022 305.570911"></polygon>
                <ellipse id="Oval" fill="#8ED16F" fill-rule="nonzero" transform="translate(257.384025, 297.367868) rotate(-61.580000) translate(-257.384025, -297.367868) " cx="257.384025" cy="297.367868" rx="1.74421193" ry="3.49449829"></ellipse>
                <ellipse id="Oval" fill="#000000" fill-rule="nonzero" opacity="0.1" transform="translate(257.384025, 297.367868) rotate(-61.580000) translate(-257.384025, -297.367868) " cx="257.384025" cy="297.367868" rx="1.74421193" ry="3.49449829"></ellipse>
                <polygon id="Rectangle" fill="#8ED16F" fill-rule="nonzero" transform="translate(248.930507, 298.163495) rotate(-79.490000) translate(-248.930507, -298.163495) " points="244.674471 289.863906 253.184193 289.865111 253.186543 306.463084 244.676821 306.461878"></polygon>
                <polygon id="Rectangle" fill="#000000" fill-rule="nonzero" opacity="0.05" transform="translate(248.930507, 298.163495) rotate(-79.490000) translate(-248.930507, -298.163495) " points="244.674471 289.863906 253.184193 289.865111 253.186543 306.463084 244.676821 306.461878"></polygon>
                <ellipse id="Oval" fill="#8ED16F" fill-rule="nonzero" transform="translate(248.909382, 298.269496) rotate(-79.490000) translate(-248.909382, -298.269496) " cx="248.909382" cy="298.269496" rx="1.74394538" ry="3.4950314"></ellipse>
                <ellipse id="Oval" fill="#000000" fill-rule="nonzero" opacity="0.1" transform="translate(248.909382, 298.269496) rotate(-79.490000) translate(-248.909382, -298.269496) " cx="248.909382" cy="298.269496" rx="1.74394538" ry="3.4950314"></ellipse>
                <polygon id="Rectangle" fill="#8ED16F" fill-rule="nonzero" transform="translate(250.458704, 303.185509) rotate(-79.490000) translate(-250.458704, -303.185509) " points="246.202667 294.88592 254.71239 294.887126 254.71474 311.485099 246.205017 311.483893"></polygon>
                <ellipse id="Oval" fill="#8ED16F" fill-rule="nonzero" transform="translate(250.442070, 303.292343) rotate(-79.490000) translate(-250.442070, -303.292343) " cx="250.44207" cy="303.292343" rx="1.74394538" ry="3.4950314"></ellipse>
                <ellipse id="Oval" fill="#000000" fill-rule="nonzero" opacity="0.1" transform="translate(250.442070, 303.292343) rotate(-79.490000) translate(-250.442070, -303.292343) " cx="250.44207" cy="303.292343" rx="1.74394538" ry="3.4950314"></ellipse>
            </g>
        </g>
    </g>
</svg>