<?xml version="1.0" encoding="UTF-8"?>
<svg width="114px" height="83px" viewBox="0 0 114 83" version="1.1" xmlns="http://www.w3.org/2000/svg" xmlns:xlink="http://www.w3.org/1999/xlink">
    <!-- Generator: sketchtool 58 (101010) - https://sketch.com -->
    <title>00D34C22-9347-4BBE-8ACB-90C5FA2A190B</title>
    <desc>Created with sketchtool.</desc>
    <g id="Page-1" stroke="none" stroke-width="1" fill="none" fill-rule="evenodd">
        <g id="Dashboard" transform="translate(-338.000000, -464.000000)">
            <g id="Group-3" transform="translate(301.000000, 408.000000)">
                <g id="Group-16">
                    <g id="undraw_transfer_money_rywa-3" transform="translate(37.000000, 56.000000)">
                        <circle id="Oval" fill="#F2F2F2" fill-rule="nonzero" cx="49.5" cy="38.5" r="38.5"></circle>
                        <ellipse id="Oval" fill="#F2F2F2" fill-rule="nonzero" cx="15" cy="80.5" rx="15" ry="2.5"></ellipse>
                        <ellipse id="Oval" fill="#F2F2F2" fill-rule="nonzero" cx="90" cy="76" rx="24" ry="4"></ellipse>
                        <path d="M85.0090369,40 C85.0090369,40 85.2168839,40.6819616 84.0390839,41.2957268 C82.8612839,41.9094919 82.5148717,44.2281627 83.9005196,44.9101243 C85.2861676,45.592086 85.7018604,46.478637 85.0090337,47.0924022 C84.3162071,47.7061673 83.0691276,49.3428817 84.7319042,49.7520532 C86.3946807,50.1612248 86.6025276,50.9795846 86.1175511,51.3205649 C85.6325745,51.6615452 87.2260652,50.7067997 87.2260652,50.7067997 C87.2260652,50.7067997 87.5031948,52.3435026 88.9581243,51.9343311 C90.4130539,51.5251596 94.500713,43.7507895 92.4222416,42.6596511 C90.3437702,41.5685127 85.0090369,40 85.0090369,40 Z" id="Path" fill="#2F2E41" fill-rule="nonzero"></path>
                        <path d="M87.5961537,46.0418575 C87.5961537,46.0418575 88.2884607,48.6746698 87.076923,48.8627282 C86.3250804,48.9900563 85.6126123,49.3126136 85,49.803018 L87.2499992,53 L91.4038452,53 L94,50.1791293 C94,50.1791293 90.538461,47.3582586 91.230769,45.6657362 C91.923077,43.9732137 87.5961537,46.0418575 87.5961537,46.0418575 Z" id="Path" fill="#FFB9B9" fill-rule="nonzero"></path>
                        <path d="M87.5961537,46.0418575 C87.5961537,46.0418575 88.2884607,48.6746698 87.076923,48.8627282 C86.3250804,48.9900563 85.6126123,49.3126136 85,49.803018 L87.2499992,53 L91.4038452,53 L94,50.1791293 C94,50.1791293 90.538461,47.3582586 91.230769,45.6657362 C91.923077,43.9732137 87.5961537,46.0418575 87.5961537,46.0418575 Z" id="Path" fill="#000000" fill-rule="nonzero" opacity="0.1"></path>
                        <polygon id="Path" fill="#FFB9B9" fill-rule="nonzero" points="88 77.4848909 92.1282597 78.8316767 95 79 94.8205429 76.6430748 88.8973922 75"></polygon>
                        <path d="M93,76.3898793 C93,76.3898793 93,78.9085178 93.366155,78.9085178 C93.7323099,78.9085178 98.6754079,78.3688095 100.140031,78.9085178 C101.604654,79.4482262 103.801585,77.469296 102.703119,76.3898793 C101.604653,75.3104626 99.8128837,73.6913376 98.6949128,74.0511428 C97.5769419,74.410948 93,75.3104626 93,75.3104626 L93,76.3898793 Z" id="Path" fill="#575A89" fill-rule="nonzero"></path>
                        <path d="M80.1886803,74 C80.1886803,74 78.0754712,78.4989694 79.4842769,78.8738842 C80.8930826,79.2487991 82.4779904,78.6864268 82.6540905,78.4989694 C82.8301906,78.3115119 85.2956029,77.5616844 85.6477988,77.9365982 C86,78.3115119 86,76.4369421 86,76.4369421 L80.1886803,74 Z" id="Path" fill="#575A89" fill-rule="nonzero"></path>
                        <path d="M82.8028279,68 C82.8028279,68 79.4268958,72.7581694 81.9144241,74.0392155 C84.4019524,75.3202615 96.3065511,75.3202615 97.194958,74.0392155 C98.083365,72.7581694 98.4387227,68.7320265 97.194958,68.3660127 C95.9511934,68 82.8028279,68 82.8028279,68 Z" id="Path" fill="#2F2E41" fill-rule="nonzero"></path>
                        <path d="M82.8028279,68 C82.8028279,68 79.4268958,72.7581694 81.9144241,74.0392155 C84.4019524,75.3202615 96.3065511,75.3202615 97.194958,74.0392155 C98.083365,72.7581694 98.4387227,68.7320265 97.194958,68.3660127 C95.9511934,68 82.8028279,68 82.8028279,68 Z" id="Path" fill="#000000" fill-rule="nonzero" opacity="0.2"></path>
                        <circle id="Oval" fill="#FFB9B9" fill-rule="nonzero" cx="89" cy="44" r="4"></circle>
                        <path d="M82,49.7200004 L85.4090905,49 C85.4090905,49 86.2613639,51.8800006 88.9886359,51.3400006 C91.7159079,50.8000005 92.3977274,49 92.3977274,49 C92.3977274,49 94.4431819,49.9000008 94.6136368,49.9000008 C94.7840916,49.9000008 97,50.8000005 97,51.3400006 C97,51.8800006 94.4431819,57.2800012 94.4431819,57.2800012 L94.7840906,67 L82.1704498,66.6399993 L83.0227232,57.0999987 L82,49.7200004 Z" id="Path" fill="#82A946" fill-rule="nonzero"></path>
                        <path d="M80.4736841,55 C80.4736841,55 79.6315788,63.833333 80.1929826,64.5 C80.7543864,65.166667 83,67 83,67 L83,65 L81.8771932,62.5 L83,56.666666 L80.4736841,55 Z" id="Path" fill="#FFB9B9" fill-rule="nonzero"></path>
                        <path d="M99,55 C99,55 98.4878049,64.9847323 98.4878049,65.3511452 C98.4878049,65.7175581 97.170732,67 96.7317077,67 C96.2926834,67 96,66.0839688 96,66.0839688 L97.0243903,64.6183204 L96.2926834,57.1068699 L99,55 Z" id="Path" fill="#FFB9B9" fill-rule="nonzero"></path>
                        <path d="M96.5429657,67.8705321 C96.5429657,67.8705321 104.810686,63.6618348 104.994414,67.8705321 C105.178141,72.0792295 100.768689,73.7627086 100.768689,73.7627086 C100.768689,73.7627086 89.3776066,76.892529 88.918289,75.7484863 C88.4589713,74.6044437 87.540336,72.7526213 88.2752438,72.5842731 C89.0101516,72.4159249 89.928788,72.0792295 90.296243,72.4159249 C90.6636979,72.7526203 95.2568743,69.8907067 95.2568743,69.8907067 L96.5429657,67.8705321 Z" id="Path" fill="#2F2E41" fill-rule="nonzero"></path>
                        <path d="M101,67 C101,67 99.3928573,67.8000004 98.857143,68.4000004 C98.3214288,69 96,70 96,70" id="Path" stroke="#000000" stroke-width="2" opacity="0.2"></path>
                        <path d="M83.2417137,50.3809518 L82.1042832,50 C82.1042832,50 77.9337042,54.3809507 79.2607068,55.5238072 C80.5877095,56.6666637 81.3459958,57.0476154 81.7251389,57.4285718 C82.1042821,57.8095281 84,58 84,58 L83.2417137,50.3809518 Z" id="Path" fill="#82A946" fill-rule="nonzero"></path>
                        <path d="M96.5878579,51 L98.2514811,51.3428571 C98.2514811,51.3428571 99.5454106,53.914288 99.9151042,54.2571411 C100.284798,54.5999941 99.3605632,54.4285691 98.8060221,55.1142843 C98.2514811,55.7999996 97.69694,57 96.5878579,57 C95.4787758,57 94,55.2857093 94,55.2857093 L96.5878579,51 Z" id="Path" fill="#82A946" fill-rule="nonzero"></path>
                        <path d="M83.3555,69.5992444 C83.3555,69.5992444 76.5998949,64.7180841 74.2887678,68.3337589 C71.9776407,71.9494336 84.2443949,76.8305949 86.0221859,77.5537303 C87.7999769,78.2768657 89.3999884,79 89.3999884,79 C89.3999884,79 91,75.0227571 91,74.2996227 C91,73.5764884 89.7555462,73.5764874 89.3999884,73.5764874 C89.0444307,73.5764874 87.4444191,73.2149202 87.0888603,72.672569 C86.7333015,72.1302177 83.3555,69.5992444 83.3555,69.5992444 Z" id="Path" fill="#2F2E41" fill-rule="nonzero"></path>
                        <path d="M79,68 C79,68 80.9354876,69.4117626 82.6774195,69.7647071 C84.4193514,70.1176517 85,71 85,71" id="Path" stroke="#000000" stroke-width="2" opacity="0.2"></path>
                        <path d="M81.0001734,61.9180654 L81.1468596,69.1159291 C81.1569444,69.6108044 81.5962868,70.0055034 82.1308612,70 L96.5985479,69.8494404 C97.1100311,69.8441201 97.5297772,69.4731245 97.5592382,69.0003273 L97.9983827,61.9529672 C98.0138098,61.7053907 97.9183477,61.4628716 97.7344837,61.2825383 C97.5506197,61.1022049 97.294609,61 97.026758,61 L81.9732417,61 C81.7119396,61 81.4616134,61.0972819 81.2785958,61.2699544 C81.0955782,61.4426269 80.9952444,61.6761836 81.0001734,61.9180654 Z" id="Path" fill="#575A89" fill-rule="nonzero"></path>
                        <path d="M89.0199896,39 C89.0199896,39 89.2289697,39.7387919 88.0447489,40.403705 C86.8605281,41.0686181 86.5122267,43.58051 87.9054285,44.3193019 C89.2986304,45.0580938 89.7165906,46.018522 89.0199896,46.6834351 C88.3233887,47.3483482 87.0695072,49.1214482 88.7413498,49.5647229 C90.4131925,50.0079976 90.6221716,50.8945481 90.1345507,51.2639441 C89.6469299,51.63334 91.2491176,50.599032 91.2491176,50.599032 C91.2491176,50.599032 91.5277574,52.3721319 92.990619,51.9288572 C94.4534806,51.4855824 95.9130581,43.4278729 94.2823816,41.3525434 C92.7661371,39.4228545 89.0199896,39 89.0199896,39 Z" id="Path" fill="#2F2E41" fill-rule="nonzero"></path>
                        <path d="M89,37.5172029 C89.0003211,36.4077875 92.0800738,37.2049544 93.4005097,38.7539455 C94.3148784,39.8265992 95.7037093,41.4403772 94.5399117,42.5779261 C93.3761141,43.715475 96.5347593,45.2066876 97.3818828,45.6588064 C98.2290063,46.1109253 99.9015943,47.4935272 98.3913698,48.4210599 C96.8811452,49.3485926 96.9054921,50.2848965 97.4738487,50.5065829 C98.0422052,50.7282693 96.2207516,50.1769653 96.2207516,50.1769653 C96.2207516,50.1769653 96.4047731,52.0087409 94.8701988,52 C93.3356245,51.9911963 88.9330554,42.9021541 89.9847936,40.3757931 C90.9627242,38.0267332 89,37.5172029 89,37.5172029 Z" id="Path" fill="#2F2E41" fill-rule="nonzero"></path>
                        <path d="M88.6601763,38.0139369 C84.4250453,37.769216 84,40.8283616 84,40.8283616 C84.0292781,42.5986938 86.9590047,41.7360895 87.7727144,42 C88.7544108,41.322332 90.646694,40.040106 92,39.1250471 C91.0174883,38.461177 89.8600701,38.076121 88.6601763,38.0139369 Z" id="Path" fill="#2F2E41" fill-rule="nonzero"></path>
                        <path d="M88,59 C88,59 84.1427893,40.4537796 60,27" id="Path" stroke="#3F3D56" stroke-width="2"></path>
                        <polygon id="Path" fill="#3F3D56" fill-rule="nonzero" points="60.9609716 26 61 26.1363095 60.210951 26.29918 60.4595307 26.9571799 60.3025937 27 60 26.1985423"></polygon>
                        <path d="M7,77.0195025 C7,79.2286481 5.65691869,80 4,80 C3.96161628,80 3.92329374,79.9995828 3.88503186,79.9987484 C3.80826175,79.9971398 3.73222369,79.9935658 3.6571007,79.9885613 C2.16176326,79.8850836 1,79.074056 1,77.0195025 C1,74.8932823 3.77883379,72.2103532 3.98756967,72.0117956 L3.98793569,72.0114387 C3.99598024,72.0037539 4,72 4,72 C4,72 7,74.8103569 7,77.0195025 Z" id="Path" fill="#82A946" fill-rule="nonzero"></path>
                        <path d="M4.43819583,79.6632402 L5.74689206,78.1639176 L4.43492518,79.8278671 L4.43143984,80 C4.33987477,79.9983912 4.24918284,79.9948167 4.15958232,79.9898113 L4.30063534,77.77925 L4.29954392,77.7620893 L4.30194264,77.7588727 L4.31524114,77.5500965 L3,75.8820306 L4.31938012,77.3935136 L4.32243609,77.4378429 L4.42903872,75.7676333 L3.30303366,74.0439765 L4.44277378,75.474484 L4.55373848,72.0118004 L4.55417505,72 L4.55417505,72.0114405 L4.53564855,74.7419888 L5.65664269,73.6594958 L4.531067,74.9772108 L4.50141884,76.4726058 L5.54807191,75.0374481 L4.49705917,76.6926446 L4.48049123,77.5239949 L6,75.5264993 L4.47482305,77.8141016 L4.43819583,79.6632402 Z" id="Path" fill="#3F3D56" fill-rule="nonzero"></path>
                        <path d="M22.1392797,77.5240419 L22.8155638,77 C22.8155638,77 23.2632213,79.6081111 22.7636922,79.998877 C22.264163,80.3896429 20.3909268,81.0409116 20.3909268,81.8224378 C20.3909268,82.6039641 16.1449251,83.6459976 16.0200428,82.4737088 C15.8951606,81.30142 16.3946897,80.6501491 16.3946897,80.6501491 C16.3946897,80.6501491 18.3928082,78.5660799 18.6425728,78.1753173 C18.8923373,77.7845547 19.5167498,77.0030285 19.5167498,77.0030285 L22.1392797,77.5240419 Z" id="Path" fill="#2F2E41" fill-rule="nonzero"></path>
                        <path d="M12,46.3683773 C12,46.3683773 12.0187914,46.4778479 12.0513455,46.6781263 C12.0814262,46.8560154 12.1227526,47.1073012 12.1728609,47.4170513 C12.6989668,50.6053753 14.2334168,59.9911977 14.1294397,60.3009477 C14.0041786,60.6741413 13.1273509,62.0425185 14.1294397,62.4157131 C14.2258934,62.4517849 14.3298546,62.5687197 14.4413392,62.7528263 C14.6565127,63.1493636 14.8339015,63.5650029 14.971192,63.994323 C15.5686901,65.7159863 16.2075349,68.4714038 16.577049,70.3796638 C16.7386408,71.2181126 16.8488562,71.8923475 16.8814252,72.2456335 C16.892748,72.3272813 16.8940112,72.4099951 16.8851869,72.4919464 C16.7599258,72.9895388 17.6367535,74.7311096 18.0125378,75.2287009 C18.3883222,75.7262923 19.0146276,76.2238847 18.8893655,76.7214771 C18.7641033,77.2190695 22.020896,78.5874457 22.3966793,77.7166608 C22.7724626,76.845876 22.7724637,76.3482825 22.8977247,76.0994868 C23.0229858,75.8506912 23.1482469,74.1091204 22.5219415,73.8603236 C21.895636,73.6115269 22.2714182,69.2575994 21.6451127,68.3868146 C21.4359361,68.0969646 21.1165142,67.1154635 20.7820606,65.9349276 C20.6505463,65.4721709 20.5177618,64.9795525 20.3874848,64.485699 C19.8588863,62.4617424 19.3904109,60.4253466 19.3904109,60.4253466 L19.5156699,45.8707849 L12.6263033,45 L12.4496957,45.3868762 L12.0977048,46.1544099 L12,46.3683773 Z" id="Path" fill="#2F2E41" fill-rule="nonzero"></path>
                        <path d="M11.6378141,69.4538841 C11.6378141,69.4538841 10.6471279,68.4326449 10.1517853,69.4538841 C9.65644266,70.4751232 9.16109901,74.4324263 8.29424839,75.3260085 C7.42739778,76.2195907 6.31287692,80.6875139 7.55123449,80.9428234 C8.78959205,81.1981329 10.1517853,80.559858 10.2756209,79.7939295 C10.3994566,79.0280009 13,75.0707022 13,74.6877379 C13,74.3047737 11.2662998,72.9005691 11.2662998,72.9005691 L11.6378141,69.4538841 Z" id="Path" fill="#2F2E41" fill-rule="nonzero"></path>
                        <path d="M27,40.3345495 C27,40.3345495 25.4033466,54.585837 25.0348897,55.9257005 C24.6664327,57.265564 22.7013203,62.3814115 22.0872226,63.2340529 C21.4731249,64.0866944 17.5429032,71.0296295 17.0516259,71.3950468 C16.5603486,71.7604641 15.5777918,72.7349113 15.5777918,72.7349113 C15.5777918,72.7349113 13.7355008,74.5619999 13.4898622,74.9274172 C13.2442235,75.2928345 11.1562928,74.1965826 11.0334735,73.465747 C10.9106542,72.7349113 11.1562928,71.5168526 11.2791121,71.0296295 C11.4019315,70.5424064 11.0334735,69.8115707 11.4019315,69.4461524 C11.7703895,69.0807341 13.6126815,67.2536465 13.6126815,66.4010061 C13.6126815,65.5483657 16.8059883,60.5543239 18.0341816,59.458071 C19.2623749,58.361818 19.0167362,56.5347294 19.0167362,56.5347294 L19.0167362,49.1045732 L12.2616678,47.0338731 C12.2616678,47.0338731 12.6301258,41.1871909 13.4898622,41.1871909 C14.3495985,41.1871909 25.6489863,39.2382965 27,40.3345495 Z" id="Path" fill="#2F2E41" fill-rule="nonzero"></path>
                        <circle id="Oval" fill="#9F616A" fill-rule="nonzero" cx="17" cy="15" r="4"></circle>
                        <path d="M17.9000088,19.0192128 C17.9000088,19.0192128 18.3454637,20.7980656 18.9022833,21.2724268 C19.4591029,21.746788 17.4545529,23.7628199 17.4545529,23.7628199 L13.6681833,24 L13,21.746787 C13,21.746787 14.225002,19.1378038 13.8909108,17.4775411 C13.5568196,15.8172783 17.9000088,19.0192128 17.9000088,19.0192128 Z" id="Path" fill="#9F616A" fill-rule="nonzero"></path>
                        <path d="M20.1938859,21 C20.1938859,21 19.0416205,21.1193181 18.7855618,21.4772733 C18.5295031,21.8352285 16.7370909,22.9090912 15.3287657,22.670455 C13.9204405,22.4318189 13.0242349,22.0738637 12.7681762,22.1931817 C12.5121175,22.3124998 12,24.8181824 12,24.8181824 L13.4083241,28.6363637 L13.1522654,39.1363632 L12.7681762,42 C12.7681762,42 12,41.0454544 15.0727069,41.6420458 C18.1454139,42.2386372 22.1143286,41.1647725 23.3946266,41.0454544 C24.6749246,40.9261363 26.8514227,40.5681821 26.9794521,39.8522727 C27.1074814,39.1363632 26.595364,36.5113636 26.595364,36.5113636 L24.546892,28.5170457 L23.2665972,24.221591 L20.1938859,21 Z" id="Path" fill="#82A946" fill-rule="nonzero"></path>
                        <path d="M19,20.265056 C19,20.265056 20.0262553,19.7110204 20.3902238,20.2049683 C20.7541923,20.6989162 25.3644501,21.4398365 25.3644501,21.8102977 C25.3644501,22.1807589 26.335031,32.1831915 26.092386,33.0476038 C25.8497411,33.912016 26.577676,34.8999056 26.577676,34.8999056 L27.4269345,38.6045114 C27.4269345,38.6045114 29.7320639,45.6432606 28.7614829,45.890234 C27.7909019,46.1372075 26.9416435,45.890234 26.577676,45.890234 C26.2137085,45.890234 26.335031,41.1977345 25.3644501,39.9628663 C24.3938691,38.7279981 23.0593207,35.640827 22.8166757,35.0233934 C22.5740307,34.4059598 19.5409653,25.8853678 19.6622868,24.897473 C19.7836083,23.9095782 19,20.265056 19,20.265056 Z" id="Path" fill="#D0CDE1" fill-rule="nonzero"></path>
                        <path d="M13.3001482,21 C13.3001482,21 12.2905957,21 12.1644018,21.2400323 C12.0382079,21.4800645 10.7762675,23.0402677 10.2714907,23.4003166 C9.76671393,23.7603655 8,25.3205667 8,25.6806135 C8,26.0406604 11.6596271,28.6810073 11.6596271,28.6810073 C11.6596271,28.6810073 13.1739554,35.7619354 12.4167907,38.16225 C11.6596261,40.5625646 10.5238807,46.3233208 11.0286564,46.6833677 C11.5334321,47.0434145 12.6691796,47.1634302 12.6691796,46.6833677 C12.6691796,46.2033052 13.4263443,41.0426281 14.057315,39.9624864 C14.6882857,38.8823448 16.5811957,32.0414479 15.8240311,30.1211958 C15.0668664,28.2009437 13.3001482,21 13.3001482,21 Z" id="Path" fill="#D0CDE1" fill-rule="nonzero"></path>
                        <path d="M29.9970008,32 C29.9970008,32 30.123719,35.8271604 28.7298177,37.8024695 C27.3359164,39.7777786 26.4488879,42 26.4488879,42 C26.4488879,42 24.1679582,41.3827166 23.7878036,40.6419754 C23.407649,39.9012342 21,40.5185187 21,40.2716053 C21,40.024692 23.9145218,38.7901241 24.1679582,38.5432096 C24.4213946,38.2962952 25.3084231,38.2962963 25.815297,37.8024695 C26.3221708,37.3086428 26.448889,36.1975305 26.448889,36.1975305 L26.9557618,32.9876524 L29.9970008,32 Z" id="Path" fill="#9F616A" fill-rule="nonzero"></path>
                        <path d="M20.4500678,12.9398259 C20.7740766,12.9103851 21.1082406,12.8779901 21.394596,12.7235105 C22.0362219,12.3773744 22.206365,11.3916696 21.7179247,10.8503465 C21.5832505,10.712611 21.4326189,10.5914519 21.2692281,10.4894413 L20.2991044,9.82891102 C19.8700391,9.53677392 19.4308316,9.23984848 18.9304006,9.1021303 C18.4777716,8.97756925 17.9997183,8.99036889 17.5311781,9.01950199 C16.6216163,9.07605221 15.706424,9.19286631 14.8509251,9.50700381 C13.9954261,9.82114132 13.1973949,10.3466867 12.6792646,11.0966205 C11.8578679,12.2854966 11.8465777,13.8889074 12.2989782,15.2614027 C12.7513787,16.633898 13.6107363,17.829064 14.4574955,19 L14.8968558,16.8555553 C14.9359896,16.6645532 14.9865966,16.4552156 15.1454019,16.3421726 C15.5401017,16.0612123 16.0229126,16.6380797 16.5073316,16.63434 C16.8185915,16.6319372 17.0799147,16.3758427 17.1978729,16.0876977 C17.315831,15.7995527 17.3235971,15.4804557 17.3508884,15.1702865 C17.4086919,14.5133279 17.6382435,13.5992241 18.2601871,13.2369073 C18.8397392,12.8992896 19.7986311,12.9990129 20.4500678,12.9398259 Z" id="Path" fill="#2F2E41" fill-rule="nonzero"></path>
                        <path d="M20,47.0364626 C20,47.0364626 19.4610181,58.6362273 19.1418517,58.9924391 C18.8226854,59.3486508 19.1418517,47 19.1418517,47 L20,47.0364626 Z" id="Path" fill="#000000" fill-rule="nonzero" opacity="0.1"></path>
                        <path d="M24,22 L24.8961673,22 C24.8961673,22 28.7048778,27.6952383 28.2567937,28.0666665 C27.8087096,28.4380948 28.2567937,29.4285722 28.2567937,29.4285722 L29.152961,31.2857144 C29.152961,31.2857144 30.2731698,32.4000002 29.9371075,32.647619 C29.6010451,32.8952379 29.152961,33.8857142 29.152961,33.8857142 C29.152961,33.8857142 26.9125433,33.514286 26.2404167,35 L24.7875276,32.9727945 L24,22 Z" id="Path" fill="#D0CDE1" fill-rule="nonzero"></path>
                        <polygon id="Rectangle" fill="#2F2E41" fill-rule="nonzero" transform="translate(24.145208, 27.116077) rotate(-22.437870) translate(-24.145208, -27.116077) " points="22.3324237 23.7271718 25.9644213 23.7237224 25.9579933 30.5049814 22.3259956 30.5084308"></polygon>
                        <ellipse id="Oval" fill="#82A946" fill-rule="nonzero" transform="translate(23.883994, 26.345556) rotate(-22.437850) translate(-23.883994, -26.345556) " cx="23.8839936" cy="26.3455562" rx="1" ry="1"></ellipse>
                        <path d="M21.8602706,31.3919106 C21.8602706,31.3919106 12.8991482,38.9164867 11.4056281,36.5337042 C9.91210809,34.1509217 13.0236092,32.1443676 13.0236092,32.1443676 C13.0236092,32.1443676 15.7617305,32.2697771 18.8732305,30.2632241 L21.9847316,28.8837186 C21.9847316,28.8837186 24.8252863,24.7973693 25.7932614,26.353415 C26.7612365,27.9094607 24.1409458,30.6176294 21.8602706,31.3919106 Z" id="Path" fill="#9F616A" fill-rule="nonzero"></path>
                        <path d="M9.9510689,25 L8.52028585,25.4884503 L8.52028585,29.1518319 L8,29.8845073 C8,29.8845073 8.13007119,31.3498604 8.52028585,31.7161981 C8.91050051,32.0825359 9.69092653,31.9604233 9.43078415,32.8152124 C9.27443719,33.3724997 9.23032394,33.9522977 9.30071297,34.5247895 C9.30071297,34.5247895 11.6419965,37.333382 11.7720677,36.9670432 C11.9021389,36.6007044 13.7231377,32.0825359 13.9832801,32.0825359 C14.2434225,32.0825359 11.3818542,25 11.3818542,25 L9.9510689,25 Z" id="Path" fill="#D0CDE1" fill-rule="nonzero"></path>
                        <path d="M26.2878586,43 C26.2878586,43 27.4005788,41.8503125 26.8442196,41.7928281 C26.2878604,41.7353438 24.3507758,40.5856563 24.027928,41.1604996 C23.7050803,41.7353428 26.2878586,43 26.2878586,43 Z" id="Path" fill="#2F2E41" fill-rule="nonzero"></path>
                        <ellipse id="Oval" fill="#57B894" fill-rule="nonzero" cx="50.5" cy="19" rx="1.5" ry="1"></ellipse>
                        <path d="M57,22 C53,20.434464 49,20.434464 45,22 L45,16.9176831 C48.9128671,15.6941056 53.0871329,15.6941056 57,16.9176831 L57,22 Z" id="Path" stroke="#3F3D56" stroke-width="2"></path>
                        <path d="M54,21 C51.3333333,19.9563086 48.6666667,19.9563086 46,21 L46,17.6117885 C48.6085781,16.7960705 51.3914219,16.7960705 54,17.6117885 L54,21 Z" id="Path" stroke="#3F3D56" stroke-width="2"></path>
                        <ellipse id="Oval" stroke="#3F3D56" stroke-width="2" cx="50.5" cy="19" rx="1.5" ry="1"></ellipse>
                        <ellipse id="Oval" fill="#57B894" fill-rule="nonzero" transform="translate(51.108119, 24.915157) rotate(-11.535460) translate(-51.108119, -24.915157) " cx="51.1081189" cy="24.9151575" rx="1.76361128" ry="1"></ellipse>
                        <path d="M58,26.6965018 C54.0233743,26.0434684 50.3313397,26.8113012 46.9238962,29 L46,24.3873392 C49.3891803,22.5257254 53.2420637,21.724441 57.0761038,22.083841 L58,26.6965018 Z" id="Path" stroke="#3F3D56" stroke-width="2"></path>
                        <path d="M57,26.3546443 C54.0175314,25.8881915 51.2485066,26.4366434 48.6929255,28 L48,24.7052421 C50.5418843,23.3755182 53.4315456,22.8031722 56.3070745,23.0598864 L57,26.3546443 Z" id="Path" stroke="#3F3D56" stroke-width="2"></path>
                        <ellipse id="Oval" stroke="#3F3D56" stroke-width="2" transform="translate(51.634958, 24.382726) rotate(-11.535460) translate(-51.634958, -24.382726) " cx="51.634958" cy="24.3827257" rx="1.76361128" ry="1"></ellipse>
                        <ellipse id="Oval" fill="#57B894" fill-rule="nonzero" transform="translate(50.742418, 30.733414) rotate(-86.019400) translate(-50.742418, -30.733414) " cx="50.7424185" cy="30.7334135" rx="1" ry="1.76344418"></ellipse>
                        <path d="M57.6681606,34 C53.8809939,32.2845986 49.9916071,32.0177123 46,33.1993412 L46.3318394,28.4969195 C50.216394,27.6258758 54.2752274,27.9043894 58,29.2975783 L57.6681606,34 Z" id="Path" stroke="#3F3D56" stroke-width="2"></path>
                        <path d="M55.7511156,33 C52.9107408,31.8564013 49.9937023,31.6784771 47,32.4662274 L47.2488802,29.3312798 C50.1622959,28.7505838 53.2064208,28.9362595 56,29.8650524 L55.7511156,33 Z" id="Path" stroke="#3F3D56" stroke-width="2"></path>
                        <ellipse id="Oval" stroke="#3F3D56" stroke-width="2" transform="translate(51.392104, 30.361699) rotate(-86.019400) translate(-51.392104, -30.361699) " cx="51.3921038" cy="30.3616991" rx="1" ry="1.76344418"></ellipse>
                        <path d="M43,22.1410875 C43,22.1410875 35.4159757,21.2383157 30,24" id="Path" stroke="#3F3D56" stroke-width="2"></path>
                        <polygon id="Path" fill="#3F3D56" fill-rule="nonzero" points="30.2988477 24 30.4559671 24.0424187 30.2103704 24.7025072 31 24.8632629 30.9615638 25 30 24.803989"></polygon>
                    </g>
                </g>
            </g>
        </g>
    </g>
</svg>